<?xml version="1.0" encoding="UTF-8" standalone="no"?>
<!-- Created with Inkscape (http://www.inkscape.org/) -->

<svg
   width="223.3mm"
   height="20.3mm"
   viewBox="0 0 223.3 20.3"
   version="1.1"
   id="svg5"
   xml:space="preserve"
   inkscape:version="1.2.2 (b0a8486541, 2022-12-01)"
   sodipodi:docname="icons.svg"
   xmlns:inkscape="http://www.inkscape.org/namespaces/inkscape"
   xmlns:sodipodi="http://sodipodi.sourceforge.net/DTD/sodipodi-0.dtd"
   xmlns="http://www.w3.org/2000/svg"
   xmlns:svg="http://www.w3.org/2000/svg"><sodipodi:namedview
     id="namedview7"
     pagecolor="#ffffff"
     bordercolor="#000000"
     borderopacity="0.25"
     inkscape:showpageshadow="2"
     inkscape:pageopacity="0.0"
     inkscape:pagecheckerboard="0"
     inkscape:deskcolor="#d1d1d1"
     inkscape:document-units="mm"
     showgrid="false"
     inkscape:zoom="0.18"
     inkscape:cx="1328"
     inkscape:cy="1117"
     inkscape:window-width="1920"
     inkscape:window-height="1011"
     inkscape:window-x="0"
     inkscape:window-y="0"
     inkscape:window-maximized="1"
     inkscape:current-layer="layer1"><inkscape:grid
       type="xygrid"
       id="grid2957" /></sodipodi:namedview><defs
     id="defs2" /><g
     inkscape:label="Layer 1"
     inkscape:groupmode="layer"
     id="layer1"
     transform="translate(-312,-194.5)"><g
       id="g6114"
       transform="translate(-2.722)"><g
         id="g4234"
         transform="translate(-54.13,95.21)"><g
           id="g4226"><g
             id="g4219"><g
               id="g4213"><g
                 id="g4208"><path
                   style="fill:#000000;stroke-width:0.0960729"
                   d="m 370,101.1 c 0.9,0.8 1.5,1.9 1.9,3 0.7,1.1 1.4,2.1 1.8,3.3 0.7,0.5 0.8,-0.6 0.8,-1.1 0.2,-0.6 0.5,-1.2 0.6,-1.8 0.2,-0.9 0.4,-1.9 1.2,-2.4 0.4,-0.4 1.1,0 1.1,0.5 0,0.6 -0.1,1.3 -0.6,1.7 -0.7,1.5 -0.9,3.1 -1.7,4.6 -0.6,1.4 -0.9,2.9 -1.1,4.4 -0.4,1.3 -0.5,2.8 -0.6,4.2 -0.2,0.6 -0.9,0.6 -1.3,0.3 -0.6,-0.4 -0.3,-1.1 -0.1,-1.6 0.6,-2 0.7,-4.1 1.4,-6 0.2,-0.7 0.3,-1.5 -0.3,-1.9 -0.8,-0.7 -1.2,-1.6 -1.7,-2.4 -0.5,-1 -1.1,-2 -1.9,-2.8 -0.7,-0.3 -0.9,-1.3 -0.4,-1.9 0.3,-0.2 0.6,-0.2 0.9,-0.1 z m 54,1.4 c 0.6,0.9 0.2,2.1 0.6,3.1 0.1,0.5 0,1.1 0,1.6 0.3,3.1 0.5,6.2 0.8,9.4 0.1,0.6 0.2,1.3 0.4,1.9 -0.1,0.6 -1,0.7 -1.3,0.2 -0.7,-0.6 -0.1,-1.3 -0.2,-2 -0.1,-2.1 -0.8,-4.1 -0.7,-6.1 0,-1.3 -0.2,-2.6 -0.6,-3.8 -0.6,0.2 -0.7,0.9 -0.7,1.4 0.1,0.6 -0.3,1.1 -0.4,1.6 -0.5,1.6 -0.8,3.3 -1,5 -0.3,0.7 -1.4,0.6 -1.7,-0.1 -0.1,-0.5 -0.2,-1.1 -0.4,-1.6 -0.4,-1.4 -0.7,-2.8 -1.2,-4.2 -0.6,0.2 -0.6,0.9 -0.6,1.4 -0.1,1.2 -0.6,2.4 -0.8,3.5 -0.2,1 -0.3,1.9 -0.3,2.8 -0.3,0.8 -0.1,1.7 -0.6,2.4 -0.4,0.5 -1.1,0.1 -1.3,-0.4 -0.3,-1 0.3,-2 0.3,-3 0,-1.4 0.9,-2.7 0.8,-4.1 0.5,-2.6 1.1,-5.1 1,-7.8 0.1,-0.8 1.5,-1.2 1.9,-0.4 0.2,0.6 0,1.3 0.2,1.9 0.1,1 0.4,1.9 0.5,2.9 0.3,1 0.5,2 1.1,2.9 0.5,-0.3 0.3,-1 0.5,-1.5 0,-0.6 0.4,-1.2 0.5,-1.8 0.5,-1.4 1,-2.7 1.4,-4.1 0.2,-0.7 0.8,-1.7 1.6,-1.3 l 0.1,0.1 z m 56.5,1.4 c 0.4,0.4 0.2,1.1 -0.1,1.5 -0.5,0.6 -1.1,1 -1.5,1.7 -0.6,0.8 -1.4,1.4 -1.7,2.4 -0.2,0.5 0.8,0.2 1.1,0.3 0.6,0 1.3,-0.1 1.9,0.1 0.7,-0.2 1.6,0.6 1.1,1.3 -0.5,0.5 -1.2,0.3 -1.8,0.2 -0.6,-0.1 -1.3,-0.2 -1.9,-0.1 -0.2,0.6 0.8,0.8 1.1,1.2 0.6,0.3 0.9,0.9 1.4,1.2 0.6,0.3 1.3,0.6 1.7,1.2 0.2,0.6 -0.3,1.2 -0.9,1.2 -0.9,0 -1.1,-0.9 -1.6,-1.4 -0.8,-0.9 -2,-1.5 -2.9,-2.2 -0.7,-0.4 -1.6,-0.6 -2,-1.4 -0.2,-0.6 0.4,-1.1 0.8,-1.5 1.5,-1.6 2.8,-3.3 4,-5.2 0.3,-0.3 0.9,-0.8 1.3,-0.5 z m -10.2,1.2 c 0.5,0.4 0.4,1.2 0,1.6 -0.5,0.7 -1.2,1.3 -1.8,1.9 -0.8,0.8 -1.9,1.6 -2.2,2.7 -0.1,0.5 0.3,1 0.5,1.4 0.5,0.7 1,1.4 1.3,2.2 0.3,0.5 1.1,0.6 1.5,0.2 0.6,-0.3 0.8,-0.9 1.3,-1.2 0.4,-0.6 -0.5,-1 -0.7,-1.5 -0.4,-0.5 -0.2,-1.2 0.4,-1.4 0.6,-0.4 1.4,0.1 1.7,0.7 0.3,0.6 1.1,0.9 1.1,1.6 0.1,0.8 -0.6,1.1 -1.1,1.4 -1.2,0.9 -1.9,2.2 -2.7,3.4 -0.4,0.5 -1.1,0.4 -1.5,-0.1 -0.6,-0.5 -0.3,-1.3 -0.5,-1.9 -0.3,-0.7 -1,-1.2 -1.5,-1.8 -0.4,-0.6 -0.6,-1.4 -1.1,-1.9 -0.4,-0.4 -0.9,-0.9 -0.6,-1.5 0.3,-0.7 1,-1.1 1.4,-1.7 1.3,-1.2 2.5,-2.5 3.5,-3.9 0.3,-0.2 0.7,-0.2 1,-0.2 z m -12.5,0.3 c 0.2,1.7 1.2,3.1 1.9,4.6 1.1,1.7 1.8,3.7 2.5,5.6 0.1,0.6 0.8,1.2 0.2,1.8 -0.3,0.4 -1.1,0.4 -1.2,-0.2 -0.3,-0.7 -0.1,-1.5 -0.4,-2.1 -0.3,-0.6 -1.1,-0.6 -1.5,-0.2 -1,0.6 -1.7,1.6 -2.9,1.9 -0.6,0.4 -1.1,1.2 -1.9,1.4 -0.9,0 -1.4,-0.9 -1.3,-1.7 0.1,-0.9 0.5,-1.7 0.8,-2.5 0.4,-1 0.7,-2 0.9,-3.1 0.7,-1.7 1,-3.6 1.5,-5.4 0.3,-0.5 1.1,-0.6 1.4,-0.1 z m -0.9,3.7 c -0.4,1.7 -0.6,3.6 -1.4,5.2 -0.1,0.4 -0.9,1.3 -0.2,1.5 0.5,-0.2 0.9,-0.7 1.5,-0.9 0.7,-0.4 1.3,-0.8 1.9,-1.4 0.6,-0.4 0.9,-1.3 0.5,-1.9 -0.3,-0.7 -0.9,-1.2 -1.2,-1.9 -0.1,-0.4 -0.7,-1.6 -1.1,-0.8 v 0.1 z m -13.7,-3.5 c 0.4,0.5 0.1,1.2 -0.4,1.4 -0.6,0.4 -1.1,0.9 -1.6,1.4 -0.7,0.6 -1.6,1.1 -2,2 -0.2,0.7 0.4,1.3 1,1.5 0.9,0.4 1.9,0.6 2.6,1.4 0.5,0.4 0.3,1.2 -0.2,1.5 -1.1,1 -2.3,2.1 -2.9,3.5 -0.5,0.6 -1.4,0.1 -1.5,-0.5 -0.1,-0.7 0.6,-1.2 0.9,-1.7 0.6,-0.6 1.3,-1.2 1.6,-2 -0.2,-0.7 -1.1,-1 -1.7,-1.3 -0.6,-0.2 -1.1,-0.8 -1.8,-1 -0.5,-0.2 -1,-0.9 -0.5,-1.4 0.5,-0.5 1.1,-0.9 1.5,-1.4 0.7,-0.5 1.2,-1.2 1.9,-1.7 0.9,-0.5 1.4,-1.6 2.5,-1.8 0.2,0 0.4,0 0.6,0.1 z m 6.3,0.4 c 0.4,0.7 -0.1,1.4 -0.6,1.8 -0.6,0.7 -1.1,1.4 -1.6,2.1 -0.4,0.5 -0.8,1 -0.9,1.6 0.2,0.5 0.9,0.6 1.3,0.9 0.6,0.3 1.3,0.5 1.8,0.9 0.7,0.1 1.5,0.7 1.3,1.5 -0.3,0.4 -0.8,0.6 -1.1,0.9 -1.1,0.8 -2.2,1.7 -2.8,2.9 -0.4,0.7 -1.8,0.3 -1.7,-0.6 0,-0.6 0.7,-0.9 1.1,-1.4 0.6,-0.6 1.2,-1.2 1.7,-1.9 0,-0.8 -0.9,-1.1 -1.6,-1.3 -0.6,-0.1 -1.2,-0.2 -1.8,-0.4 -0.6,-0.3 -0.4,-1.2 -0.1,-1.7 0.6,-0.5 0.9,-1.3 1.4,-1.9 0.7,-0.9 1.5,-1.7 2.1,-2.7 0.3,-0.4 0.8,-1.3 1.4,-0.8 z m -16.1,0.5 c 0.4,0.4 0.2,1 -0.1,1.3 -0.6,0.5 -1.4,0.9 -1.8,1.6 -0.5,0.6 -1.3,1 -1.6,1.7 0,0.4 0.6,0.4 1,0.4 1.1,0 2.1,0 3.2,0 0.5,0.2 0.6,1 0.1,1.3 -0.6,0.4 -1.2,0 -1.7,0.2 -0.8,0.1 -1.7,0 -2.5,0.1 0.3,0.5 0.7,0.8 1.2,1.1 1.3,0.9 3,1.4 4,2.8 0.4,0.5 -0.1,1.2 -0.7,1.2 -0.8,0.1 -1.1,-0.7 -1.5,-1.1 -0.8,-0.7 -1.7,-1.3 -2.5,-1.9 -0.5,-0.4 -1.1,-0.5 -1.5,-0.9 -0.6,-0.3 -1.1,-0.6 -1.8,-0.8 -0.6,-0.2 -0.8,-1 -0.5,-1.5 0.3,-0.7 1.1,-0.9 1.6,-1.4 1.5,-1.2 2.8,-2.7 4.2,-4 0.3,-0.1 0.6,-0.1 0.9,-0.1 z m -53.5,-0.1 c 0.5,0.3 0.5,1 0.1,1.4 -0.4,0.5 -0.2,1.2 0.4,1.4 0.5,0.2 0.7,0.7 1,1.1 0.7,1 1.4,2.1 2.5,2.6 0.5,0.1 0.9,0.8 0.5,1.3 -0.4,0.7 -1.1,0.9 -1.7,1.3 -1.1,0.9 -1.8,2.1 -2.5,3.3 -0.5,0.3 -1,-0.1 -1.2,-0.5 -0.3,-0.6 -0.5,-1.3 -1.1,-1.7 -0.4,-0.6 -1,-0.9 -1.5,-1.4 -0.4,-0.4 -0.9,-0.9 -0.9,-1.5 0.3,-0.8 0.8,-1.5 1.1,-2.4 0.2,-0.5 0.4,-1.1 0.7,-1.6 0.6,-1 1.2,-2 1.7,-3 0.2,-0.3 0.6,-0.3 0.9,-0.3 z m -1.5,4 c -0.4,1 -0.7,2 -1.2,2.9 -0.2,0.7 0.2,1.3 0.8,1.7 0.5,0.3 0.7,1.1 1.3,1.3 0.7,0 1,-0.8 1.4,-1.2 0.3,-0.5 1.1,-0.7 1.1,-1.5 -0.2,-0.8 -0.9,-1.4 -1.6,-1.8 -0.6,-0.5 -0.8,-1.4 -1.5,-1.6 -0.1,0 -0.2,0.1 -0.3,0.2 z m 18.3,-2.8 c 1.2,0.8 2.7,1 4.1,1.6 0.8,0.2 1.7,0.5 2.1,1.3 0.1,0.5 -0.4,0.9 -0.8,1.2 -0.4,0.3 -1.1,0.4 -1.3,0.9 -0.2,0.7 0.4,1.1 0.8,1.6 0.7,0.8 1.4,1.6 1.8,2.6 0.6,0.4 0.7,1.5 0.1,1.9 -0.5,0.2 -1,-0.2 -1.1,-0.7 -0.8,-1.3 -1.5,-2.7 -2.6,-3.9 -0.4,-0.4 -1.1,0 -1.4,0.4 -0.4,0.6 -1.3,1.1 -1.2,1.9 0.1,0.7 0.5,1.4 0,2.1 -0.3,0.4 -1.1,0 -1.1,-0.5 -0.2,-0.8 0,-1.5 -0.1,-2.3 -0.1,-2 -0.5,-4.1 -0.5,-6.1 -0.3,-0.6 -0.5,-1.5 0.1,-2.1 0.4,-0.3 0.9,-0.1 1.1,0.1 z m 0.2,1.9 c -0.1,1.1 -0.3,2.3 0.2,3.3 0.3,0.7 1.1,-0.1 1.5,-0.3 0.5,-0.5 1,-0.9 1.5,-1.2 0.5,-0.6 -0.3,-1.1 -0.8,-1.1 -0.6,-0.2 -1.2,-0.4 -1.7,-0.7 -0.2,-0.1 -0.5,0 -0.7,0 z m -4.1,-1.7 c 0.7,0.9 0.1,2.2 0.4,3.2 0.4,1 0.4,2.1 0.4,3.1 0.1,1.1 0,2.3 0.2,3.4 0.3,0.6 0.3,1.5 -0.3,2 -0.5,0.3 -1.2,-0.3 -1.3,-0.8 0,-0.5 0.3,-1.1 -0.1,-1.6 -0.5,-0.3 -1.3,0.1 -1.9,0.1 -1,0.2 -2,0.6 -3,0.8 -0.6,0.5 -1.8,0.3 -1.9,-0.6 0,-0.6 0.2,-1.1 0.1,-1.7 0.1,-1.8 0.1,-3.7 -0.4,-5.5 -0.1,-0.6 -0.3,-1.5 0.4,-1.9 0.6,-0.4 1.1,0.3 1.2,0.8 0.1,0.7 -0.2,1.3 -0.1,1.9 0,1.4 -0.1,2.9 0.2,4.3 -0.2,0.5 0.3,1.2 0.8,1 1,-0.1 1.8,-0.4 2.8,-0.5 0.6,-0.1 1.3,-0.1 1.8,-0.5 0.5,-0.5 0.2,-1.2 0,-1.8 -0.1,-1.4 -0.1,-2.8 -0.5,-4.1 0,-0.6 0,-1.5 0.6,-1.8 0.2,0 0.4,0 0.6,0.2 z"
                   id="path890-1"
                   sodipodi:nodetypes="ssssssssssssscssssssssssssssssssssscssssssssssssssssssssssssssssssssssssscssssssssssssssssssssssssssssssssssssssscsssscsssssssssssssssssssssssssssssssssssssssssssssssssssssssssssssssssssscsssssssssssssscssssssssssscsssssssssssscssssssssscsssssssssssssssssssssssssssssssssssssssssscscsssssssssssssssssssssssssssscsssssssssssssssscssssscssssssssssscsssssssssssssssssssscscssssssssssssscsssssssssssssssssscsssssssssssscssssssssssssssss" /><path
                   style="fill:#000000;stroke-width:0.0960729"
                   d="m 492.9,107.4 c 1.3,-0.7 2.8,-0.8 4.2,-1.1 1.1,0.2 2.1,-0.3 3.1,-0.5 0.6,-0.5 1.8,0.2 1.4,0.9 -0.4,0.6 -1.2,0.5 -1.9,0.6 -0.6,0 -1.3,0.1 -1.7,0.6 -0.2,0.6 0,1.2 -0.1,1.8 0.1,1 0.1,2.1 0.2,3.2 0.2,0.9 0.6,2 0.2,3 -0.1,0.5 -0.8,0.9 -1.3,0.4 -0.3,-0.3 -0.2,-0.9 -0.2,-1.4 0.1,-0.7 0,-1.4 0,-2.1 -0.1,-1.3 -0.5,-2.7 -0.2,-4 0,-0.8 -0.9,-1 -1.5,-0.8 -0.6,0.2 -1,1.3 -1.7,0.7 -0.4,-0.2 -0.9,-0.9 -0.5,-1.3 z m 8.2,5 c 0.9,-1.5 2.1,-2.8 2.7,-4.5 0.5,-0.8 0.7,-1.9 1.5,-2.4 0.6,-0.2 1.1,0.1 1.1,0.7 0.1,0.8 0.3,1.6 0.9,2.2 0.5,0.6 1,1.2 1.5,1.8 0.8,0.9 1.6,1.7 2.3,2.7 0.1,0.7 -0.7,1.1 -1.1,1.5 -0.6,0.6 -1.3,1.2 -1.8,1.9 -0.3,0.5 -0.5,1.2 -1,1.5 -0.6,0.3 -1.2,-0.2 -1.5,-0.7 -0.4,-0.4 -0.7,-0.9 -1.2,-1.2 -1,-0.8 -2.2,-1.4 -3.3,-2.1 -0.4,-0.4 -0.4,-1 -0.1,-1.4 z m 2.4,1 c 1.1,0.6 1.9,1.7 3.1,2 0.5,-0.2 0.8,-0.6 1.2,-0.9 0.5,-0.5 0.9,-0.9 1.1,-1.5 -0.3,-1.2 -1.6,-1.9 -2.1,-3 -0.4,-0.5 -0.8,-1.3 -1.6,-1.3 -0.6,0.1 -0.7,0.8 -1,1.3 -0.4,0.8 -1,1.6 -1.3,2.5 -0.1,0.4 0.2,0.7 0.6,0.9 z m 20.1,-12.1 c 0.4,-0.3 1.1,-0.1 1.1,0.5 0.3,0.9 0,2 0.1,2.9 0.1,2.1 -0.1,4.2 0.2,6.2 0.8,0.4 1.7,-0.2 2.3,-0.6 0.6,-0.4 1.3,-0.6 1.9,-0.7 0.7,-0.3 1.5,-0.8 1.5,-1.6 -0.1,-0.5 -0.2,-1.1 -0.2,-1.6 -0.2,-1.6 -0.4,-3.3 -0.3,-4.9 -0.1,-0.7 -0.3,-1.5 0.1,-2.08 0.6,-0.43 1.1,0.22 1.1,0.78 0.3,2.2 0.2,4.3 0.4,6.5 0.2,2.2 0.4,4.5 0.7,6.8 0.1,0.9 0.4,1.8 0.6,2.8 0.1,0.5 -0.6,0.9 -1.1,0.7 -0.4,-0.2 -0.6,-0.6 -0.5,-1.1 0,-0.8 0,-1.7 -0.1,-2.5 -0.1,-0.6 -0.2,-1.1 -0.3,-1.7 0.2,-0.5 -0.2,-1.2 -0.8,-1 -1.1,0.1 -1.9,0.8 -2.8,1.2 -0.8,0.3 -1.9,0.6 -2.4,1.4 -0.2,0.7 0,1.5 0,2.3 0,0.6 0.1,1.2 0.2,1.8 0,0.5 -0.7,0.9 -1.1,0.4 -0.4,-0.4 0,-1.1 0,-1.6 0,-1 -0.3,-1.9 -0.3,-2.8 -0.3,-1.5 0,-3 -0.2,-4.5 0,-2.5 -0.1,-5 -0.2,-7.5 0,0 0.1,-0.1 0.1,-0.1 z m 11.9,5.3 c -0.1,-0.5 0.4,-1 0.9,-0.9 0.7,0.1 0.7,0.8 0.5,1.2 -0.2,1.2 0,2.4 0.1,3.6 0,1.5 0.1,3.1 0.1,4.6 0.5,0.5 -0.1,1.5 -0.8,1.3 -0.4,0 -0.6,-0.4 -0.5,-0.8 0,-1.1 -0.1,-2.2 -0.2,-3.2 0,-2 -0.1,-3.9 -0.1,-5.8 z m 4.4,3.5 c 1.1,-1.1 1.9,-2.5 2.8,-3.8 0.4,-0.7 0.8,-1.5 1.7,-1.6 0.7,-0.1 0.8,0.9 0.4,1.3 -0.4,0.6 -1,1 -1.2,1.7 -0.6,0.8 -1.6,1.4 -1.8,2.4 0.2,0.6 0.9,0.8 1.2,1.2 0.8,0.6 1.7,1.1 2.5,1.7 0.3,0.8 -0.4,1.4 -0.9,1.9 -0.6,0.5 -1.2,1.1 -1.4,1.9 -0.2,0.6 -0.3,1.4 -1,1.7 -0.5,0.2 -1.2,-0.2 -1.1,-0.8 0.1,-0.9 0.7,-1.5 1,-2.3 0.5,-0.6 1.3,-1.2 1.2,-2.1 -0.1,-0.6 -0.8,-0.8 -1.3,-1.1 -0.7,-0.4 -1.6,-0.8 -2.1,-1.5 -0.1,-0.2 -0.1,-0.4 0,-0.6 z m 7.2,-4.9 c 0.5,-0.8 1.6,-0.9 2.4,-0.9 0.8,0 1.5,-0.2 2.3,-0.3 1,-0.2 2,-0.6 3,-0.2 0.6,0.2 0.4,1 -0.2,1.2 -0.6,0.4 -1.3,0 -1.9,0.4 -0.5,0.4 -0.4,1.2 -0.5,1.9 -0.1,1 0.1,2.1 0.2,3.1 0.2,1.3 0.5,2.5 0.8,3.8 0.1,0.6 -0.5,1.5 -1.1,1.1 -0.6,-0.3 -0.4,-1.1 -0.5,-1.7 -0.2,-1.2 -0.4,-2.5 -0.5,-3.7 -0.2,-0.9 -0.3,-1.9 -0.2,-2.9 0,-0.3 0,-0.7 0,-1 -0.5,-0.5 -1.2,-0.1 -1.7,0.1 -0.6,0.3 -1.3,0.3 -1.8,-0.2 -0.2,-0.1 -0.4,-0.4 -0.3,-0.7 z m 8.7,3.8 c 1.1,-1.1 1.8,-2.4 2.7,-3.7 0.9,-0.8 1,-2.1 2.1,-2.6 0.7,-0.3 1.1,0.5 1.2,1 0.2,0.5 0.3,1 0.7,1.3 0.6,1 0.6,2.4 1.5,3.3 0.6,0.8 1.4,1.6 1.7,2.6 0,0.9 -1,1.4 -1.5,2 -0.4,0.4 -0.7,0.8 -1,1.2 -0.3,0.4 -0.5,1 -1.1,1.2 -0.7,0.3 -1,-0.4 -1.3,-0.9 -0.5,-0.9 -1,-1.8 -1.9,-2.4 -0.8,-1.1 -2.1,-1.5 -3.2,-2.2 -0.1,-0.3 0,-0.5 0.1,-0.8 z m 3.4,1.2 c 1.1,0.6 1.5,2 2.6,2.5 0.7,0.2 1.1,-0.5 1.4,-1 0.3,-0.6 0.3,-1.4 -0.1,-2 -0.8,-1.3 -1.7,-2.6 -2.5,-3.9 -0.5,-0.4 -0.9,0.1 -1.1,0.5 -0.3,0.6 -0.6,1.2 -1.1,1.6 -0.4,0.5 -0.6,1.4 0,1.9 0.2,0.2 0.5,0.3 0.8,0.4 z M 568,106 c 0.5,-0.8 -0.1,-1.7 0.2,-2.6 0.1,-0.6 0.9,-0.8 1.3,-0.3 0.7,0.4 1.1,1.3 2,1.4 0.7,0.3 1.4,0.7 2.1,1 0.6,0.3 1.1,0.4 1.7,0.6 0.6,0.4 0.4,1.3 -0.3,1.5 -0.4,0.4 -1.6,0.4 -1.3,1.3 0.3,1.3 1.9,1.9 2.2,3.2 0.4,0.9 1.3,1.5 1.2,2.5 -0.1,0.7 -1,0.8 -1.4,0.2 -0.4,-0.5 -0.6,-1.1 -0.8,-1.7 -0.8,-1.2 -1.7,-2.3 -2.5,-3.5 -0.8,-0.1 -1.4,0.6 -1.8,1.2 -0.3,0.6 -1.1,0.9 -1.2,1.7 0,0.8 0.5,1.8 0,2.6 -0.4,0.4 -1.1,0.2 -1.1,-0.4 -0.3,-0.9 0,-1.9 -0.1,-2.9 -0.2,-1.4 -0.3,-2.9 -0.3,-4.3 0,-0.5 0,-1 0.1,-1.5 z m 1.3,4.1 c 0.9,-1.3 2.4,-2 3.4,-3.2 -0.7,-0.7 -1.7,-1 -2.5,-1.5 -0.6,-0.2 -1.1,0.4 -1,1 0,0.7 0.1,1.5 0,2.2 0,0.5 -0.3,1.1 0.1,1.5 z m 9.6,-7.2 c 0.4,-0.4 1.1,-0.2 1.3,0.2 0.5,0.6 0.7,1.3 1.4,1.8 0.6,0.6 0.9,1.6 1.7,1.9 0.8,0.4 1,-0.7 1.3,-1.1 0.4,-0.8 0.8,-1.5 1.3,-2.2 0.4,-0.5 1.4,-0.6 1.7,0.1 0,0.6 -0.5,0.9 -0.8,1.4 -0.7,1.1 -1.3,2.3 -2,3.4 -0.9,1.8 -1.5,3.7 -1.6,5.7 -0.1,0.6 -0.8,0.8 -1.3,0.4 -0.5,-0.5 -0.5,-1.3 -0.1,-1.8 0.3,-0.8 0.4,-1.7 0.7,-2.4 0.2,-0.8 0.1,-1.5 -0.3,-2.2 -0.5,-0.8 -1.1,-1.6 -1.7,-2.3 -0.8,-0.8 -1.6,-1.6 -1.8,-2.7 0,-0.1 0.1,-0.1 0.2,-0.2 z m 10.1,5.8 c 0.3,-0.7 1.2,-0.7 1.7,-0.3 0.6,0.4 0.3,1.1 -0.3,1.3 -0.6,0.3 -1.5,-0.2 -1.5,-0.9 0.1,0 0.1,0 0.1,-0.1 z m 0.9,4.1 c 0.2,-0.6 1.1,-0.7 1.6,-0.4 0.6,0.2 0.9,1.1 0.3,1.4 -0.7,0.5 -1.9,0.1 -1.9,-0.8 v -0.1 z"
                   id="path884-2"
                   sodipodi:nodetypes="sssssssssssssssssssscccsssssssssssssssssssssssssscsssssssssssssssssssssssssssssscssssssssssssssssssssssssssssssssssssssssssssssscssssssssssssssssssssssssscsccssscssssssssssssssssssssssssssssscssssssssssssssssssssssssscsssscsscssssscsssscsssssssssssssssssssscssssssssssssssssssscscsssssscsssssssssssssssssssssssss" /></g></g></g></g></g></g></g></svg>
