<?xml version="1.0" encoding="UTF-8" standalone="no"?>
<!-- Created with Inkscape (http://www.inkscape.org/) -->

<svg
   width="48.81mm"
   height="28.64mm"
   viewBox="0 0 48.81 28.64"
   version="1.1"
   id="svg5"
   xml:space="preserve"
   inkscape:version="1.2.2 (b0a8486541, 2022-12-01)"
   sodipodi:docname="icons.svg"
   xmlns:inkscape="http://www.inkscape.org/namespaces/inkscape"
   xmlns:sodipodi="http://sodipodi.sourceforge.net/DTD/sodipodi-0.dtd"
   xmlns="http://www.w3.org/2000/svg"
   xmlns:svg="http://www.w3.org/2000/svg"><sodipodi:namedview
     id="namedview7"
     pagecolor="#ffffff"
     bordercolor="#000000"
     borderopacity="0.25"
     inkscape:showpageshadow="2"
     inkscape:pageopacity="0.0"
     inkscape:pagecheckerboard="0"
     inkscape:deskcolor="#d1d1d1"
     inkscape:document-units="mm"
     showgrid="false"
     inkscape:zoom="0.18"
     inkscape:cx="1328"
     inkscape:cy="1117"
     inkscape:window-width="1920"
     inkscape:window-height="1011"
     inkscape:window-x="0"
     inkscape:window-y="0"
     inkscape:window-maximized="1"
     inkscape:current-layer="layer1"><inkscape:grid
       type="xygrid"
       id="grid2957" /></sodipodi:namedview><defs
     id="defs2" /><g
     inkscape:label="Layer 1"
     inkscape:groupmode="layer"
     id="layer1"
     transform="translate(-331.8,-77.87)"><g
       id="g6047"
       transform="translate(4.548)"><g
         id="g4024"
         transform="matrix(1.036,0,0,1.036,-11.73,95.85)"><g
           id="g4007"><g
             id="g3991"><g
               id="g2484"
               transform="translate(63.94,-14.12)"><g
                 id="g2470"><g
                   id="g2457"><g
                     id="g2445"><g
                       id="g2434"><g
                         id="g2424"><g
                           id="g2415"><g
                             id="g2407"><g
                               id="g2400"><g
                                 id="g2394"><g
                                   id="g2389"><g
                                   id="g2385"><path
                                   style="fill:#000000;stroke-width:0.0960729"
                                   d="m 263.4,8.346 c 0.3,-2.523 0.2,-5.072 0,-7.5985 0.1,-0.7137 1,-1.052 1.6,-0.8413 0.4,0.8687 1.2,1.4318 2.1,1.9008 0.8,0.596 1.8,1.139 2.6,1.811 0.8,0.537 1.7,0.953 2.3,1.723 0.3,0.677 -0.5,1.254 -1.1,1.343 -0.9,0.225 -1.5,0.94 -2.4,1.268 -0.7,0.247 -1.3,0.923 -1.9,1.464 -0.4,0.489 -1,0.804 -1.4,1.334 -0.3,0.56 0.2,1.16 -0.1,1.75 -0.2,0.62 -0.1,1.27 -0.2,1.9 0,0.95 0,1.93 -0.3,2.84 -0.5,0.56 -1.3,-0.15 -1.1,-0.75 0.1,-0.61 0.1,-1.23 0.1,-1.85 -0.1,-1.86 -0.5,-3.73 -0.2,-5.594 0,-0.233 0,-0.467 0,-0.7 z m 1.6,0.5 c 1.1,-0.353 1.7,-1.353 2.6,-1.932 0.6,-0.484 1.3,-0.994 1.8,-1.577 -0.5,-0.877 -1.5,-1.226 -2.2,-1.799 -0.7,-0.404 -1.3,-0.772 -2,-1.043 -0.5,1.128 -0.1,2.376 -0.2,3.559 0,0.898 0,1.809 -0.1,2.697 0,0.03 0.1,0.05 0.1,0.1 z m 5,8.114 c 0.2,-0.86 0.3,-1.74 0.7,-2.57 0.4,-1.38 0.9,-2.71 1.1,-4.14 -0.3,-0.946 -0.2,-2.169 0.7,-2.801 0.6,-0.308 1.3,0.309 1.4,0.959 0.2,0.623 0.3,1.312 0.8,1.792 0.2,0.81 0.9,1.36 1.2,2.11 0.9,1.09 1.7,2.29 2.4,3.56 0.3,0.56 0.7,1 1.2,1.38 0.5,0.44 0.4,1.39 -0.3,1.53 -0.5,0.15 -1.2,-0.13 -1.2,-0.71 -0.3,-0.7 -0.8,-1.2 -1.2,-1.87 -0.2,-0.57 -0.8,-1.18 -1.3,-0.55 -1.2,0.61 -2.5,1.14 -3.6,2.01 -0.3,0.54 -1.1,1.14 -1.6,0.59 -0.4,-0.34 -0.3,-0.84 -0.3,-1.29 z m 2.2,-1.54 c 0.7,-0.28 1.3,-0.78 2.1,-0.94 0.6,-0.21 0.9,-1.21 0.3,-1.58 -0.5,-0.35 -0.7,-0.96 -1.1,-1.25 -0.7,-0.1 -0.5,0.87 -0.7,1.26 -0.2,0.77 -0.5,1.51 -0.6,2.28 -0.1,0.1 0,0.17 0,0.23 z m 5.2,-7.274 c 0.6,-0.396 1.3,0.09 1.8,0.427 0.8,0.586 1.9,0.758 2.8,1.269 0.7,0.248 1.3,0.938 2.2,0.888 0.6,-0.72 0.8,-1.687 1.4,-2.428 0.2,-0.56 0.9,-1.312 1.6,-0.913 0.4,0.448 0.1,1.098 -0.2,1.547 -0.3,0.566 -0.7,1.134 -0.9,1.784 -0.3,0.73 -0.6,1.45 -0.8,2.19 -0.2,1.02 -0.3,2.07 -0.7,3.05 -0.2,0.72 0.2,1.59 -0.4,2.18 -0.6,0.36 -1.6,-0.26 -1.4,-1.01 0.2,-1.39 0.4,-2.79 0.8,-4.13 0.1,-0.74 -0.8,-0.87 -1.2,-1.2 -0.8,-0.48 -1.7,-0.86 -2.6,-1.19 -0.6,-0.43 -1.3,-0.817 -2.1,-1.088 C 277.3,9.241 277,8.56 277.4,8.146 Z m 24,0 c 0.3,-0.735 1.2,-1.049 1.6,-1.767 0.5,-0.822 1.2,-1.563 1.8,-2.395 0.3,-1.27 0.2,-2.588 0.4,-3.8719 0,-0.8115 -0.1,-1.6341 0,-2.4381 0.2,-0.624 1,-1.176 1.7,-0.766 0.5,0.38 0.4,1.161 0.3,1.745 -0.1,0.801 -0.3,1.591 -0.3,2.403 0.6,-0.3221 0.8,-1.1924 1.5,-1.2636 0.7,-0.048 1,0.9346 0.6,1.4266 -0.9,0.955 -2,1.82 -2.3,3.165 -0.2,1.747 -0.1,3.525 -0.4,5.264 0,0.672 0.5,1.282 1.2,1.442 0.6,0.31 1.2,0.67 1.8,1.14 0.5,0.28 1.4,0.76 1,1.45 -0.5,0.69 -1.4,1.01 -2,1.61 -0.6,0.57 -1.3,1.16 -1.8,1.8 -0.4,0.39 -0.8,0.89 -0.7,1.48 0.2,0.76 0.1,1.53 0.1,2.29 -0.1,1.01 0,2.01 0,3.01 -0.3,0.6 -1.3,0.78 -1.7,0.16 0,-0.79 0.2,-1.58 0.1,-2.37 -0.1,-0.55 0,-1.1 0,-1.65 -0.2,-0.59 -0.6,0.45 -0.8,0.64 -0.3,0.52 -1,1 -1.6,0.71 -0.8,-0.32 -0.6,-1.28 -0.1,-1.74 0.5,-0.45 1.1,-0.84 1.4,-1.44 0.4,-0.48 1.1,-0.91 1.1,-1.63 -0.2,-1.62 0.5,-3.2 0.4,-4.81 0,-0.59 -0.3,-1.15 -0.9,-1.42 -0.6,-0.511 -1.5,-0.737 -2.2,-1.133 -0.2,-0.311 -0.1,-0.702 -0.2,-1.041 z m 2.8,0.4 c 0.1,0.229 0.7,0.459 0.5,-0.02 0.1,-0.508 0.2,-1.52 -0.2,-1.701 -0.4,0.401 -0.9,1.235 -0.3,1.721 z m 2,5.104 c -0.2,0.36 0.1,1.42 0.5,0.73 0.3,-0.52 1.3,-0.95 0.8,-1.62 -0.2,-0.34 -1.2,-1.1 -1.3,-0.32 0,0.41 0.2,0.81 0,1.21 z"
                                   id="path886"
                                   sodipodi:nodetypes="ssssssssssssscscsssssscsssssscssscssssssssssssssssssssccssssssssscsssscsssssssssssssssssscsccssssssssssssssssssscsssssssssssssscsssssssssssssssssssssscsssssssssssscssssssssscssssssscsssss" /></g></g></g></g></g></g></g></g></g></g></g></g></g></g></g></g></g></svg>
