<?xml version="1.0" encoding="UTF-8" standalone="no"?>
<!-- Created with Inkscape (http://www.inkscape.org/) -->

<svg
   width="33.55mm"
   height="21.01mm"
   viewBox="0 0 33.55 21.01"
   version="1.1"
   id="svg5"
   xml:space="preserve"
   inkscape:version="1.2.2 (b0a8486541, 2022-12-01)"
   sodipodi:docname="icons.svg"
   xmlns:inkscape="http://www.inkscape.org/namespaces/inkscape"
   xmlns:sodipodi="http://sodipodi.sourceforge.net/DTD/sodipodi-0.dtd"
   xmlns="http://www.w3.org/2000/svg"
   xmlns:svg="http://www.w3.org/2000/svg"><sodipodi:namedview
     id="namedview7"
     pagecolor="#ffffff"
     bordercolor="#000000"
     borderopacity="0.25"
     inkscape:showpageshadow="2"
     inkscape:pageopacity="0.0"
     inkscape:pagecheckerboard="0"
     inkscape:deskcolor="#d1d1d1"
     inkscape:document-units="mm"
     showgrid="false"
     inkscape:zoom="0.18"
     inkscape:cx="1328"
     inkscape:cy="1117"
     inkscape:window-width="1920"
     inkscape:window-height="1011"
     inkscape:window-x="0"
     inkscape:window-y="0"
     inkscape:window-maximized="1"
     inkscape:current-layer="layer1"><inkscape:grid
       type="xygrid"
       id="grid2957" /></sodipodi:namedview><defs
     id="defs2" /><g
     inkscape:label="Layer 1"
     inkscape:groupmode="layer"
     id="layer1"
     transform="translate(-618.4,-81.66)"><g
       id="g6079"
       transform="translate(4.548)"><g
         id="g4087"
         transform="matrix(1.036,0,0,1.036,-11.73,95.85)"><g
           id="g4077"><g
             id="g4068"><g
               id="g2692"
               transform="translate(94.1,-17.71)"><g
                 id="g2685"><g
                   id="g2679"><g
                     id="g2674"><path
                       style="fill:#000000;stroke-width:0.0960729"
                       d="m 537.6,21.7 c 1,-0.8 1.9,-1.84 2.7,-2.85 0.6,-0.53 1.3,0.41 0.9,0.99 -0.4,0.81 -1.2,1.26 -1.8,1.85 -0.2,0.91 -1.3,1.25 -1.7,2.05 -0.3,0.53 -1.2,0.81 -1.6,0.21 -0.3,-0.5 0.1,-1.06 0.5,-1.39 0.3,-0.28 0.7,-0.58 1,-0.86 z m 2.5,-7.5 c 0.3,-0.67 1.2,-0.46 1.7,0 0.5,0.41 0.5,1.33 -0.1,1.67 -0.6,0.5 -1.2,-0.16 -1.4,-0.74 -0.1,-0.32 -0.4,-0.55 -0.2,-0.91 z"
                       id="path886-5-6-6"
                       sodipodi:nodetypes="sssssssssssssssssssscs" /><path
                       style="fill:#000000;stroke-width:0.0960729"
                       d="m 509.9,18.95 c 0.3,-2.14 0.1,-4.31 0.3,-6.46 0,-1.49 0.1,-2.972 0.1,-4.458 -0.4,-0.898 0,-1.878 -0.1,-2.812 -0.1,-0.553 0.2,-1.357 0.9,-1.186 0.6,0.175 0.8,0.943 1.4,1.223 0.7,0.495 1.4,1.186 2.1,1.754 1.1,0.906 2.2,1.738 3.4,2.525 0.6,0.634 1.3,1.194 2.1,1.524 0.6,0.51 0.2,1.61 -0.6,1.59 -1.1,0.21 -2.1,0.5 -3.1,0.98 -1.6,0.48 -3,1.45 -4.3,2.48 -0.5,0.46 -0.7,1.14 -0.6,1.78 -0.1,1.14 -0.1,2.28 0,3.42 -0.2,0.83 -1.6,0.68 -1.7,-0.15 -0.1,-0.75 0.2,-1.5 0.1,-2.25 v 0 z m 1.7,-7.8 c 0.1,1.04 -0.1,2.07 0,3.11 0.8,-0.18 1.4,-0.82 2.1,-1.11 0.8,-0.36 1.4,-0.85 2.2,-0.99 0.5,-0.3 1.7,-0.27 1.6,-1.1 -0.4,-0.67 -1.1,-1.05 -1.7,-1.483 -1,-0.637 -1.9,-1.374 -2.8,-2.127 -0.4,-0.307 -0.8,-0.599 -1.3,-0.802 -0.5,0.597 -0.1,1.389 -0.2,2.075 0,0.81 0,1.627 0.1,2.427 z m 9.8,5 c 0.3,-1.15 0.1,-2.35 0.3,-3.51 0.1,-1.99 0.3,-3.987 0.3,-5.988 -0.2,-0.749 0.1,-1.78 1,-1.939 0.7,-0.126 1,0.721 1.4,1.18 0.4,0.422 1,0.764 1.4,1.215 0.7,0.656 1.5,1.147 2.2,1.744 1.1,0.757 2,1.648 3.1,2.458 0.4,0.41 1.3,0.46 1.3,1.21 0,0.73 -0.8,0.9 -1.3,1.13 -0.6,0.24 -1.2,0.46 -1.8,0.71 -0.2,0.45 0,0.98 0.1,1.43 0.5,1.15 0.8,2.35 1.5,3.43 0.3,0.43 0.9,0.85 0.7,1.49 -0.1,0.43 -0.3,1.09 -0.8,1.11 -0.7,0 -1.2,-0.61 -1.3,-1.24 -0.2,-1.02 -0.6,-2 -1.1,-2.86 -0.4,-0.84 -0.7,-1.73 -1.3,-2.46 -1.3,0.31 -2.6,0.82 -3.7,1.63 -0.5,0.69 -0.3,1.64 -0.3,2.46 0,0.8 0.4,1.71 -0.2,2.41 -0.5,0.43 -1.4,0 -1.6,-0.63 0,-0.6 0.1,-1.19 0.2,-1.79 0.1,-0.7 0.2,-1.44 0,-2.12 -0.2,-0.31 -0.4,-0.76 -0.1,-1.07 z m 1.7,-0.9 c 0.9,-0.61 1.9,-0.93 2.8,-1.42 1,-0.43 2.1,-0.84 3.1,-1.31 0.8,0 0.5,-1.11 -0.1,-1.3 -1.1,-0.82 -2.3,-1.604 -3.4,-2.447 -0.4,-0.3 -0.9,-0.555 -1.3,-0.866 -0.4,-0.282 -0.8,-0.07 -0.6,0.412 -0.2,1.991 -0.4,3.991 -0.6,5.981 0.1,0.31 -0.2,0.7 0.1,0.95 z"
                       id="path880-2"
                       sodipodi:nodetypes="sssssssssssssssssssssssssssscsssssscsssssscsssssssscsssssssssscssssssssssssssssssssssssssssscsss" /></g></g></g></g></g></g></g></g></g></svg>
