<?xml version="1.0" encoding="UTF-8" standalone="no"?>
<!-- Created with Inkscape (http://www.inkscape.org/) -->

<svg
   width="264.5mm"
   height="57.69mm"
   viewBox="0 0 264.5 57.69"
   version="1.1"
   id="svg5"
   xml:space="preserve"
   inkscape:version="1.2.2 (b0a8486541, 2022-12-01)"
   sodipodi:docname="icons.svg"
   xmlns:inkscape="http://www.inkscape.org/namespaces/inkscape"
   xmlns:sodipodi="http://sodipodi.sourceforge.net/DTD/sodipodi-0.dtd"
   xmlns="http://www.w3.org/2000/svg"
   xmlns:svg="http://www.w3.org/2000/svg"><sodipodi:namedview
     id="namedview7"
     pagecolor="#ffffff"
     bordercolor="#000000"
     borderopacity="0.25"
     inkscape:showpageshadow="2"
     inkscape:pageopacity="0.0"
     inkscape:pagecheckerboard="0"
     inkscape:deskcolor="#d1d1d1"
     inkscape:document-units="mm"
     showgrid="false"
     inkscape:zoom="0.18"
     inkscape:cx="1328"
     inkscape:cy="1117"
     inkscape:window-width="1920"
     inkscape:window-height="1011"
     inkscape:window-x="0"
     inkscape:window-y="0"
     inkscape:window-maximized="1"
     inkscape:current-layer="layer1"><inkscape:grid
       type="xygrid"
       id="grid2957" /></sodipodi:namedview><defs
     id="defs2"><inkscape:path-effect
       effect="roughen"
       id="path-effect1969"
       is_visible="true"
       lpeversion="1.2"
       method="size"
       max_segment_size="3.208"
       segments="2"
       displace_x="1.607;699911439"
       displace_y="1.069;1296788457"
       global_randomize="1;1"
       handles="along"
       shift_nodes="true"
       fixed_displacement="false"
       spray_tool_friendly="false" /></defs><g
     inkscape:label="Layer 1"
     inkscape:groupmode="layer"
     id="layer1"
     transform="translate(-359.7,-233.3)"><g
       id="g4261"
       transform="translate(5.568,95.21)"><g
         id="g4251"><g
           id="g4242"><g
             id="g2108"
             transform="translate(85.1,-14.13)"><g
               id="g2101"><g
                 id="g2095"><g
                   id="g2090"><g
                     id="g2086"><path
                       style="fill:none;fill-opacity:1;stroke:#000000;stroke-width:2;stroke-linejoin:round;stroke-dasharray:none;stroke-dashoffset:0;stroke-opacity:1"
                       id="rect1967"
                       width="260.1"
                       height="54.27"
                       x="271.2"
                       y="154.1"
                       inkscape:path-effect="#path-effect1969"
                       d="m 271.5,154.2 2.8,0 3.8,0.1 2.8,0 2,0.3 4.2,-0.2 3.4,0.1 3.1,0.3 2.2,-0.1 4,0.1 3,0.2 3.3,0 3.2,0 2.6,-0.8 3.7,0.3 2.7,0 4.1,-0.4 2.7,-0.2 2.8,0 4.3,0 2.2,0.3 2.9,0 4.1,0 2.2,-0.1 3.7,-0.3 3.2,0.2 3.3,-0.2 3.8,0.3 2.4,-0.2 3.1,0.2 3.2,0 3.3,-0.1 3.2,0.1 4.1,-0.2 2.5,-0.2 3,0 3.5,0.2 2.5,0 3.1,0.3 2.4,0.3 3.8,0 4.2,0.3 2.8,0.2 3.1,-0.6 3.1,-0.4 2.6,0.5 4.1,0.3 2.8,-0.1 3.1,-0.3 3.1,0.8 3.2,-0.3 3,0.1 4.5,-0.1 1.7,0 3.4,-0.7 3.2,0 3.5,-0.4 3.2,0.1 3.3,0 2.8,0 2.6,-0.1 3.4,0.1 3.2,0.1 4,0 2.2,0.2 3.5,-0.1 4.3,0.6 1.9,0 3.4,-0.7 3.5,-0.1 2.7,0.4 3.1,-0.1 4.2,0.1 2.4,-0.1 3.2,-0.1 3.1,0 3.2,-0.2 3.1,-0.2 3.3,0 2.4,-0.2 4.1,-0.1 3,-0.2 3.9,0.9 0.1,3.4 0.3,3.3 -0.3,3 0,3.1 -0.4,3.2 -0.3,3 0,3.7 0.5,2.7 -0.1,3.2 -0.1,3.4 0.3,2.9 0,3.3 -0.5,3.5 0.5,3 -0.4,2.6 -0.1,3.9 -0.8,2.8 -2.5,0 -2.8,-0.1 -3.5,0 -3.8,0.2 -3.2,-0.5 -3.2,-0.2 -2.9,0.1 -3.4,-0.2 -2.8,0.1 -3.2,-0.1 -3.6,0 -2.5,0.6 -3.6,-0.3 -3.3,0.2 -3.9,0.5 -1.9,0.2 -3.5,0.3 -3.4,0 -3.1,-0.1 -3.2,-0.1 -3.4,0.1 -2.7,-0.2 -4,-0.6 -2.7,-0.4 -3.5,0.2 -3.5,-0.1 -1.9,0.5 -3.9,0 -2.4,0 -3.7,0.6 -3.1,-0.2 -3.3,0 -2.5,-0.6 -3.7,-0.1 -3.1,0 -3.5,-0.3 -3.1,0 -3.5,0.4 -2.7,0.1 -3.7,-0.5 -2.1,0 -3.7,0.2 -2.8,-0.3 -3.8,0.7 -3,0 -3.1,0 -3.1,0 -2.9,0 -3.4,0 -3.6,-0.2 -2.8,0 -3.1,-0.4 -3.3,-0.1 -3.3,-0.3 -2.4,0.3 -3.4,-0.1 -3.3,0.1 -3.2,0.3 -3.4,-0.1 -3,-0.2 -2.6,0 -4.1,0 -3.3,-0.1 -2.6,0.1 -3.5,-0.3 -3.1,-0.1 -3.6,0.1 -2.6,0.3 -4.1,0 -1.8,-0.1 -2.7,-0.1 -2.7,-0.1 -4.8,0.3 -3.2,0.1 -2.7,0.1 -2.8,0.8 -3.5,0 -3.1,-0.1 -3.1,0.1 -2.9,-0.2 -4.1,0.3 -2.6,-0.3 0.6,-3.8 0.1,-2.3 -0.6,-3.5 0,-3 0.3,-3.5 0.3,-2.8 -0.8,-3.4 0.1,-3.7 0.1,-2.7 -0.8,-3 0.3,-3.3 -1,-3.3 0.3,-3.2 0.2,-3.2 0.2,-3.5 -0.4,-3.2 z"
                       sodipodi:type="rect" /></g></g></g></g></g></g></g></g></g></svg>
