<?xml version="1.0" encoding="UTF-8" standalone="no"?>
<!-- Created with Inkscape (http://www.inkscape.org/) -->

<svg
   width="67.31mm"
   height="13.19mm"
   viewBox="0 0 67.31 13.19"
   version="1.1"
   id="svg5"
   xml:space="preserve"
   inkscape:version="1.2.2 (b0a8486541, 2022-12-01)"
   sodipodi:docname="icons.svg"
   xmlns:inkscape="http://www.inkscape.org/namespaces/inkscape"
   xmlns:sodipodi="http://sodipodi.sourceforge.net/DTD/sodipodi-0.dtd"
   xmlns="http://www.w3.org/2000/svg"
   xmlns:svg="http://www.w3.org/2000/svg"><sodipodi:namedview
     id="namedview7"
     pagecolor="#ffffff"
     bordercolor="#000000"
     borderopacity="0.25"
     inkscape:showpageshadow="2"
     inkscape:pageopacity="0.0"
     inkscape:pagecheckerboard="0"
     inkscape:deskcolor="#d1d1d1"
     inkscape:document-units="mm"
     showgrid="false"
     inkscape:zoom="0.18"
     inkscape:cx="1328"
     inkscape:cy="1117"
     inkscape:window-width="1920"
     inkscape:window-height="1011"
     inkscape:window-x="0"
     inkscape:window-y="0"
     inkscape:window-maximized="1"
     inkscape:current-layer="layer1"><inkscape:grid
       type="xygrid"
       id="grid2957" /></sodipodi:namedview><defs
     id="defs2" /><g
     inkscape:label="Layer 1"
     inkscape:groupmode="layer"
     id="layer1"
     transform="translate(-593.6,-553.6)"><g
       id="g6154"
       transform="translate(-2.617)"><g
         id="g4344"
         transform="matrix(0.6706,0,0,0.6706,198.4,274.3)"><g
           id="g4334"><g
             id="g4325"><g
               id="g3286"
               transform="translate(85.1,-14.13)"><g
                 id="g3279"><g
                   id="g3273"><g
                     id="g3268"><path
                       style="fill:#000000;stroke-width:0.0960729"
                       d="m 574.8,437.3 c 1.3,-1.3 3.3,-0.9 5,-1.1 1.3,0 2.5,-0.2 3.7,-0.5 0.8,-0.2 2.3,0.8 1,1.3 -1.1,0.3 -2.3,0.5 -3.5,0.7 -0.9,0.6 -0.4,1.8 -0.6,2.7 0.1,1.4 0.3,2.7 0.3,4 0.4,0.9 -0.1,2.8 -1.3,2 -0.5,-0.6 -0.2,-1.5 -0.3,-2.3 0,-1.2 0.1,-2.5 -0.1,-3.8 -0.1,-0.8 0.3,-2.6 -1.1,-2.2 -0.9,0.1 -1.9,0.9 -2.9,0.4 -0.3,-0.2 -0.6,-0.8 -0.2,-1.2 z m 11,6.5 c 0.4,-1.2 0,-2.6 0.4,-3.8 0.2,-1.3 0.1,-2.6 0.4,-3.9 -0.4,-1.1 1.4,-1.9 1.4,-0.5 -0.2,0.9 -0.4,1.8 -0.3,2.8 -0.1,1.5 -0.2,3 -0.2,4.5 0,0.6 0,1.1 0,1.7 -0.4,1.1 -2.2,0.3 -1.7,-0.8 z m 3.8,-2.5 c 0.8,-1.2 1.6,-2.5 2.7,-3.5 1.1,-0.7 0.9,-2.6 2.3,-2.9 1.2,-0.1 1.3,1.2 1.6,2 0.3,0.8 0.7,1.5 1.3,2.1 0.3,1.1 1.9,1.4 1.8,2.7 -0.5,1.1 -2.1,1.1 -2.5,2.3 -0.8,0.7 -1.3,2.5 -2.5,2.1 -0.7,-0.9 -1.5,-1.7 -2.4,-2.4 -0.7,-0.7 -2,-0.7 -2.4,-1.7 -0.1,-0.2 -0.1,-0.5 0.1,-0.7 z m 2.6,0.5 c 1,0.3 1.3,1.7 2.4,1.7 0.9,-0.5 1.9,-1.6 1.7,-2.7 -0.9,-0.8 -0.8,-2.6 -2,-2.8 -0.9,0.4 -1.1,1.5 -1.8,2.1 -0.3,0.4 -1.2,1.2 -0.3,1.7 z m 8.7,3.5 c 0.5,-2.4 0.3,-4.9 0.5,-7.3 -0.4,-1 0.4,-3 1.6,-2.1 0.9,0.9 0.5,2.2 1.2,3.2 0.6,0.8 0.8,1.7 1,2.7 0.8,0.7 0.8,-1.1 0.9,-1.5 0.1,-1.3 0.5,-2.5 0.3,-3.7 -0.4,-1 0.5,-2.2 1.6,-1.6 0.8,0.7 0.3,2 0,2.9 -0.3,1.6 -0.2,3.3 -0.6,4.9 -0.2,1 -0.1,2.2 -0.9,3 -1.3,0.7 -1.4,-1.4 -1.8,-2.1 -0.6,-0.7 -0.8,-2.1 -1.6,-2.4 -0.3,0.8 0,1.8 -0.3,2.6 -0.2,1 -0.4,1.9 -0.6,2.9 -0.8,1.1 -1.9,-0.8 -1.3,-1.5 z"
                       id="path872"
                       sodipodi:nodetypes="scssssssssssssssscssssssssssscsssssssssssssssssscssssssssssssssssssssscsssssssssscsssssssssssssssscsssssscs" /><path
                       style="fill:#000000;stroke-width:0.0960729"
                       d="m 508.3,434.2 c 1.9,-0.8 3.9,-1 5.7,-2.1 1.2,-0.3 2.3,-0.7 3.5,-1.1 0.8,-0.5 2.6,-0.7 2.7,0.6 -0.4,1 -1.8,0.6 -2.5,1.2 -1.1,0.3 -2.8,0.5 -2.4,2.1 0.1,3 -0.2,6 0.1,9 0.1,1 0.2,3.1 -1.4,2.4 -0.7,-0.3 -0.3,-1.1 -0.4,-1.7 0,-2.3 0,-4.5 0,-6.8 -0.2,-1.1 0.2,-2.6 -0.3,-3.3 -1.4,-0.1 -2.5,1 -3.8,1.4 -0.9,0.3 -1.9,-0.9 -1.2,-1.7 z m 10.3,9 c 0.4,-0.6 1.4,-0.9 1,-1.8 0,-1.8 0,-3.6 0,-5.4 0.2,-1.4 1.8,-1.6 2.5,-0.6 1.6,1 3.2,1.8 4.7,2.9 1,0.4 2.4,1.7 0.9,2.6 -0.7,0.6 -2.7,0.1 -2.3,1.6 0.7,1 1.2,2 1.7,3.1 1.1,0.8 0,2.9 -1.2,1.8 -0.7,-0.8 -0.9,-2 -1.4,-3 -0.3,-1 -1,-2.1 -2.1,-1.4 -1.5,0.4 -1.1,2.1 -0.9,3.2 0.4,1.2 -1.2,2.3 -1.8,0.9 -0.3,-0.9 0.5,-2.1 -0.7,-2.7 -0.4,-0.3 -0.5,-0.8 -0.4,-1.2 z m 2.7,-3 c -0.1,1.4 1.7,0.6 2.2,0 0.5,-0.2 2.3,-1 0.9,-1.4 -1,-0.4 -2.1,-1.5 -3.2,-1.3 -0.4,0.9 0,1.8 0.1,2.7 z m 7.8,4.5 c 0.7,-2.1 1.4,-4.2 1.7,-6.4 0.1,-1.2 2,-1.7 2.3,-0.4 0.3,0.9 0.7,1.8 1.2,2.6 0.7,0.8 0.9,1.8 1.3,2.8 0.5,0.9 1.2,1.8 1.5,2.9 1.2,0.5 0.8,3 -0.7,2 -1.2,-0.6 -1,-2.1 -1.4,-3.2 -0.9,-1.2 -1.9,0.5 -2.7,1 -0.8,0.6 -2.3,1.8 -3.1,0.5 -0.3,-0.5 0,-1.2 -0.1,-1.8 z m 2.1,-0.3 c 0.4,-0.9 2,-1.1 2,-2.2 0,-0.6 -1,-2 -1.3,-0.7 -0.3,0.9 -0.4,1.9 -0.7,2.8 0,0 0,0.1 0,0.1 z m 7.3,0.9 c 0.4,-1.4 1,-2.8 1.3,-4.3 0.4,-1.2 0.4,-2.4 0.4,-3.7 0,-1.2 1.9,-1.5 2.2,-0.3 -0.2,1.3 0.2,2.5 0.6,3.8 0,0.8 1,1.9 1.3,0.6 0.1,-1.2 0.7,-2.2 0.7,-3.4 -0.1,-1 1.2,-2.3 2.1,-1.2 0.7,1.1 -0.4,2 -0.5,3 -0.3,1.8 -1.1,3.4 -1.2,5.2 0.2,1.2 -1.3,2.5 -2.1,1.3 -0.4,-1.1 -0.7,-2.2 -1.3,-3.2 -0.2,-1 -0.9,-0.6 -0.8,0.2 -0.3,1.1 -1,2 -1,3.1 -0.3,1.3 -2.1,0.8 -1.8,-0.5 0,-0.2 0,-0.4 0.1,-0.6 z m 8.9,-5.7 c 0.8,-1 1.8,-1.8 2.7,-2.6 1.2,-0.8 2.4,-1.5 3.6,-2.2 1.4,-0.4 2.1,1.7 0.5,1.9 -1.1,0.4 -2,1.1 -2.9,1.8 -1,0.4 -1.8,1.8 -0.5,2.5 1.1,0.7 1.7,1.9 2.8,2.6 1.5,0.5 0.6,2.3 -0.5,2.8 -0.9,0.9 -2.3,1.3 -2.8,2.6 0.2,1.5 -2.4,1.8 -2.5,0.3 0,-1.2 1.3,-1.7 1.9,-2.5 0.7,-0.7 1.3,-1.3 1.9,-1.9 -0.1,-1.2 -1.4,-1.9 -2.1,-2.8 -0.5,-0.9 -2.5,-1.4 -2.1,-2.5 z m 9,5.8 c -0.2,-1.4 1.1,-2.2 1.5,-3.5 0.5,-1.2 1,-2.4 1.6,-3.6 0.1,-1 0,-2.8 1.4,-2.9 1.5,0.2 1,2.1 1.5,3.1 0.5,1.9 0.6,4 1.4,5.8 0.8,0.8 0.5,3.1 -0.8,2.1 -0.8,-0.3 -1.5,-1.1 -1,-1.8 -0.8,-0.7 -2,0 -2.9,0 -1.3,0.1 -1,2.5 -2.4,2 -0.4,-0.2 -0.6,-0.8 -0.3,-1.2 z m 3.2,-2.6 c 0.9,-0.1 2.2,-0.5 1.7,-1.7 -0.1,-1.4 -1.3,-0.5 -1.3,0.5 -0.2,0.4 -0.7,0.8 -0.4,1.2 z m 6.8,-3.5 c 1.4,-1.1 2.5,-2.4 3.8,-3.5 0.4,-0.9 2.1,-1.6 2.3,-0.2 -0.4,1.1 -1.8,1.6 -2.5,2.6 -0.8,0.8 -2.3,1.9 -1.2,3.2 0.9,0.9 1.6,2.1 2.4,3.1 0.5,0.7 1.3,1.5 0.9,2.4 -0.9,1.1 -1.7,-0.3 -2,-1.1 -0.7,-1 -1.4,-2 -2.1,-3 -0.5,-1 -2,-1.6 -1.9,-2.9 0,-0.2 0.1,-0.4 0.3,-0.6 z"
                       id="path872-4"
                       sodipodi:nodetypes="ssssssssssssssssssssssssssccssssssssssssssssssssscssssssssssscsssssssssssssssssscssssssssssssscssssscssssssscsssssssssssssssssssssssssssssssssssssssssssssssssssssssssssssssssssssssssssssssssssssssssssssssssssscssssssssssssssssssscc" /></g></g></g></g></g></g></g></g></g></svg>
