<?xml version="1.0" encoding="UTF-8" standalone="no"?>
<!-- Created with Inkscape (http://www.inkscape.org/) -->

<svg
   width="319.8mm"
   height="67.06mm"
   viewBox="0 0 319.8 67.06"
   version="1.1"
   id="svg5"
   xml:space="preserve"
   inkscape:version="1.2.2 (b0a8486541, 2022-12-01)"
   sodipodi:docname="icons.svg"
   xmlns:inkscape="http://www.inkscape.org/namespaces/inkscape"
   xmlns:sodipodi="http://sodipodi.sourceforge.net/DTD/sodipodi-0.dtd"
   xmlns="http://www.w3.org/2000/svg"
   xmlns:svg="http://www.w3.org/2000/svg"><sodipodi:namedview
     id="namedview7"
     pagecolor="#ffffff"
     bordercolor="#000000"
     borderopacity="0.25"
     inkscape:showpageshadow="2"
     inkscape:pageopacity="0.0"
     inkscape:pagecheckerboard="0"
     inkscape:deskcolor="#d1d1d1"
     inkscape:document-units="mm"
     showgrid="false"
     inkscape:zoom="0.18"
     inkscape:cx="1328"
     inkscape:cy="1117"
     inkscape:window-width="1920"
     inkscape:window-height="1011"
     inkscape:window-x="0"
     inkscape:window-y="0"
     inkscape:window-maximized="1"
     inkscape:current-layer="layer1"><inkscape:grid
       type="xygrid"
       id="grid2957" /></sodipodi:namedview><defs
     id="defs2" /><g
     inkscape:label="Layer 1"
     inkscape:groupmode="layer"
     id="layer1"
     transform="translate(-332,148)"><g
       id="g5976"
       transform="translate(-5.868)"><g
         id="g5957"><g
           id="g5939"><g
             id="g5922"><g
               id="g3808"
               transform="matrix(2.234,0,0,2.234,-549.6,233.2)"><g
                 id="g3793"
                 transform="matrix(1.024,0,0,1.024,-9.605,4.128)"><g
                   id="g3779"><g
                     id="g2141"
                     transform="translate(85.1,-14.13)"><g
                       id="g2129"><g
                         id="g2118"><g
                           id="g1576"
                           transform="translate(42.95,5.881)"><g
                             id="g1567"><g
                               id="g1559"
                               transform="translate(30.72,-10.61)"><g
                                 id="g1552"><g
                                   id="g1546"><g
                                   id="g1541"><g
                                   id="g1537"><path
                                   style="fill:#000000;stroke-width:0.0960729"
                                   d="m 238.6,-149.2 c 1,-1.1 2.1,0.7 1.6,1.6 0.2,1.5 0.4,3 0.4,4.4 0,2.4 0.1,4.8 0.3,7.2 0,2.1 0.2,4.3 0.2,6.5 0.3,0.7 -0.3,2.3 0.8,2.5 0.9,-0.3 1.6,-0.9 2.4,-1.3 1.4,-0.6 2.8,-1.1 4.2,-1.6 1.2,-0.3 2.1,-1.1 3.3,-1.2 1.4,0 1.9,-1.5 1.6,-2.6 -0.2,-1.4 -0.4,-2.7 -0.3,-4.1 -0.2,-2.1 -0.8,-4.1 -0.9,-6.2 -0.2,-1.2 -0.4,-2.5 -0.6,-3.7 -0.5,-0.8 -0.6,-2.7 0.9,-2.1 0.9,0.9 0.4,2.5 0.7,3.7 0.6,3.2 0.9,6.5 1.4,9.7 0.4,2.2 0.7,4.5 1,6.8 0.1,1.3 0.8,2.5 0.6,3.8 -0.4,1.5 -2.3,0.6 -2,-0.8 -0.2,-1 0,-2.4 -0.8,-3.2 -1.1,0.1 -2.2,0.7 -3.3,0.9 -1.8,1 -3.8,1.4 -5.6,2.3 -0.9,0.7 -2.2,0.8 -2.9,1.9 -0.9,1 -2.3,0 -2,-1.2 0,-1.4 0.1,-2.8 -0.1,-4.1 0,-3.8 -0.2,-7.5 -0.3,-11.2 -0.1,-1.6 -0.2,-3.1 -0.2,-4.6 0,-1 -0.3,-1.9 -0.4,-2.9 0,-0.2 -0.1,-0.3 0,-0.5 z m 20.9,3.7 c 1.1,-1 2.2,0.7 1.8,1.8 0,1.6 0.6,3.2 0.6,4.8 0,1.9 0.5,3.7 0.6,5.6 0.1,1.7 0.2,3.4 0.5,5.1 -0.3,1.3 1.5,1.2 2.3,0.9 1.2,-0.3 2.4,-0.3 3.7,-0.3 1.3,-0.3 2.6,-0.3 3.9,-0.6 1.1,-0.5 2.1,1.3 0.7,1.7 -1.2,0.3 -2.4,0 -3.7,0.2 -2.1,0.2 -4.3,0.5 -6.4,0.9 -1.1,0.7 -2.5,-0.3 -2.1,-1.5 0.2,-1.6 -0.3,-3.2 -0.4,-4.8 -0.1,-1.4 -0.1,-2.7 -0.3,-4.1 -0.2,-1.2 -0.5,-2.4 -0.4,-3.6 -0.3,-1.3 -0.3,-2.7 -0.6,-4 -0.2,-0.7 -0.7,-1.4 -0.2,-2.1 z m 12.3,1.7 c 0.5,-1.2 2.1,-0.9 3.2,-1 1.4,-0.1 2.8,-0.4 4.1,-0.9 1.3,-0.3 2.6,-0.6 3.8,-1.2 1.4,-0.3 1.3,1.5 0.2,1.7 -1,0.9 -2.7,0.3 -3.4,1.4 -0.3,1 0,2.1 -0.1,3.2 0,3.4 0.4,6.8 0.4,10.2 0,1.1 0.1,2.3 0.3,3.4 0.3,0.9 -0.5,2.1 -1.3,1.1 -0.6,-1.1 -0.3,-2.4 -0.4,-3.6 0,-1.4 0,-2.7 0,-4 -0.3,-1.8 -0.2,-3.7 -0.4,-5.5 -0.1,-1.2 -0.1,-2.4 -0.1,-3.6 -0.4,-1.4 -1.8,-0.3 -2.8,-0.4 -1.1,-0.1 -2.2,0.9 -3.3,0.2 -0.3,-0.2 -0.3,-0.6 -0.2,-1 z m 15.9,-3.8 c 1.2,-0.7 1.7,1 2.5,1.5 1,0.8 2.2,1.3 3,2.2 1.2,0.5 2.3,1.3 3.4,2 1.2,0.5 2.2,1.4 3.4,1.8 1.3,0.3 0.9,2 -0.3,2.2 -0.9,0.4 -1.7,1.2 -2.7,1.5 -1.4,0.4 -0.7,2 -0.2,2.8 0.4,1.2 0.9,2.2 1.5,3.3 0.2,1.2 0.6,2.4 1.3,3.4 1,1 -0.4,2.6 -1.3,1.5 -0.8,-1.1 -0.7,-2.5 -1.4,-3.6 -0.6,-1.4 -1.3,-2.8 -1.7,-4.2 -0.2,-0.8 -0.7,-1.7 -1.6,-0.9 -0.9,0.7 -1.8,1.1 -2.8,1.8 -1.1,0.3 -1.1,1.6 -1,2.5 0,1.4 0.2,2.7 0.2,4 -0.5,1.1 -2.3,0.4 -1.8,-0.8 0,-1.7 0,-3.4 0,-5.1 -0.6,-1.2 0.1,-2.6 -0.1,-3.9 0,-2.5 0.2,-4.9 -0.1,-7.3 -0.1,-1.5 -0.4,-3 -0.5,-4.4 l 0.1,-0.1 z m 1.8,4.9 c 0,2.9 0,5.8 0.2,8.6 0.9,0.3 1.5,-1 2.4,-1.2 1.2,-0.6 2.1,-1.6 3.4,-2.2 0.8,-0.4 1.6,-0.9 2.4,-1.4 0.7,-1.1 -1.1,-1 -1.6,-1.6 -1.1,-0.6 -2.1,-1.3 -3.2,-1.9 -1,-0.6 -1.8,-1.3 -2.8,-1.8 -0.6,-0.8 -1.3,-0.2 -0.9,0.6 0,0.3 0,0.6 0.1,0.9 z m 13.2,16.3 c 0.5,-2.7 1.6,-5.3 1.8,-8.1 0.4,-2 0.7,-4 0.9,-6.1 0.2,-1.5 0.8,-3 0.8,-4.6 -0.2,-1.5 2,-1.5 2.1,-0.1 0.3,1.3 0.5,2.6 1.1,3.8 0.6,1 0.7,2.1 1.3,3.1 0.7,1.7 1.4,3.3 1.9,5.1 0.7,1.7 1.6,3.5 2.1,5.3 0.3,1 1.3,2 1,3.1 -0.9,1.2 -1.8,-0.6 -2,-1.5 -0.3,-1.2 -0.6,-2.4 -1.2,-3.5 -0.2,-0.9 -0.9,-1.9 -1.8,-0.9 -1.3,1 -2.5,2.1 -3.7,3.2 -0.9,0.8 -1.9,1.6 -2.9,2.4 -0.8,0.4 -1.6,-0.5 -1.4,-1.2 z m 2.1,-1.3 c 1,-0.6 1.3,-1.8 2.4,-2.3 1,-0.8 1.8,-2 3.1,-2.4 1.1,-0.3 0.9,-1.5 0.4,-2.2 -0.7,-1.7 -1.3,-3.4 -2.1,-5.1 -0.4,-0.7 -0.2,-1.8 -1.1,-2.1 -0.5,0.9 -0.3,2.1 -0.6,3.1 -0.6,1.9 -0.5,4 -1.1,6 -0.3,1.6 -0.7,3.1 -1.1,4.6 0,0.2 0,0.3 0.1,0.4 z m 21.1,-9.8 c 0.6,-0.9 1.3,-1.8 2.2,-2.4 1.1,-1.3 2,-2.7 3.3,-3.8 1.8,-2 3.7,-4 5.5,-6 0.5,-0.7 0.9,-1.4 1.5,-2 1.2,-0.6 1.6,1.3 0.6,1.9 -0.6,1.2 -1.7,2 -2.5,3 -1.2,1.1 -2.4,2.4 -3.5,3.7 -0.8,0.9 -1.7,1.8 -2.5,2.7 -0.6,0.8 -1.4,1.5 -2,2.3 -0.9,0.9 0.2,1.9 0.9,2.5 2.5,2.6 5.3,4.9 8,7.3 1,1 2.2,1.9 3.2,2.9 0.7,0.4 0.8,2.1 -0.2,1.4 -0.7,-1.1 -2.2,0.1 -2.8,-1.3 -0.6,-0.9 -1.3,-1.8 -2.1,-2.6 -2.3,-2.4 -5,-4.3 -7.2,-6.7 -0.6,-1 -2.1,-1 -2.7,-2 0,-0.3 0.1,-0.7 0.3,-0.9 z m 17.1,-5.9 c 1.2,-0.8 1.6,1.1 1.4,2 0.3,3.5 0.2,7.1 0.3,10.6 0,1.8 0,3.7 0,5.5 -0.7,1.1 -2.4,-0.2 -1.8,-1.3 0.3,-2 0.2,-4 0.3,-6 0.1,-1.2 -0.2,-2.4 0,-3.6 0,-1.8 -0.1,-3.5 -0.1,-5.3 -0.1,-0.6 -0.6,-1.4 -0.1,-1.9 z m 3.6,-0.5 c 0.9,-0.7 1.5,0.7 1.5,1.5 0.3,1.2 1,2.4 1.2,3.6 0.4,1.3 0.7,2.7 1,4 0.4,1.2 0.9,2.5 1.2,3.8 0.5,0.4 0.1,2 0.9,1.7 0.2,-1 0.4,-1.9 0.7,-2.8 0.5,-1.9 0.8,-3.9 1.3,-5.8 0.2,-1.1 0.5,-2.1 1.1,-3 0.4,-1 0.4,-2.7 1.7,-3.2 1.2,0 1.4,1.7 0.8,2.4 -1,1.8 -1.6,3.8 -2,5.7 -0.7,2.2 -1,4.5 -1.7,6.7 -0.3,1.3 -0.6,2.7 -1.4,3.9 -1.2,0.7 -1.7,-1.1 -1.9,-2 -0.7,-2.3 -1.5,-4.5 -2.1,-6.9 -0.2,-1.5 -1.1,-2.8 -1.2,-4.4 -0.3,-1.6 -1.2,-3 -1.3,-4.6 0,-0.2 0.1,-0.4 0.2,-0.6 z m 14.1,0.7 c 0.4,-1 2.1,-0.8 1.9,0.4 -0.1,1 -0.3,2.1 -0.2,3.1 0,4.2 -0.1,8.3 0.4,12.4 0.7,1 0,3 -1.3,2.1 -0.7,-1 -0.5,-2.2 -0.7,-3.3 -0.1,-1.8 0,-3.7 0,-5.6 0,-2.7 0,-5.3 0,-8 -0.1,-0.4 -0.1,-0.7 -0.1,-1.1 z m 5.1,10.3 c 0.8,-1.1 1.1,-2.6 2,-3.7 0.9,-1.3 1.8,-2.6 2.9,-3.7 1,-1.3 1.8,-2.6 2.7,-3.9 0.1,-1.2 1.9,-2.4 2.2,-0.7 -0.3,1.2 -1.3,2.2 -1.8,3.3 -0.7,0.9 -1.4,1.8 -2,2.8 -0.4,0.8 -1,1.4 -1.7,2 -0.9,0.9 -1.1,2.2 -1.9,3.2 -0.7,1.2 0.7,2.1 1.7,2.5 1.2,0.7 2.3,1.6 3.3,2.6 1.4,1.2 2.7,2.4 4.2,3.5 1.1,0.4 1.4,2.2 0.1,2.5 -1.1,-0.5 -1.9,-1.8 -2.9,-2.5 -1.5,-1.5 -3.3,-2.6 -4.7,-4.1 -1.1,-0.7 -2.1,-1.4 -3.3,-1.9 -0.7,-0.2 -1.7,-1.2 -0.8,-1.9 z"
                                   id="path764"
                                   sodipodi:nodetypes="sssssssssssssssssssssssssssssssssssssssssssssssssssssssssssssssssssssssssssssssssssssssssssssssssssssssssssssssssssssssccssssssssssssssssssssssssssssssssssssssscssscscsssssssssssssssssssssssssssssscssssssssssssssssssssssssssscsssssssscsssssscssscssssssssssssssssssssssssssssssssssssssssssssssssscsssssscssssssssssssssssssssssssssssssssssssssssssssssssssssssssssssssssssssssssssssssssssssscssssscsssssssscssssssssssss" /></g></g></g></g></g></g></g></g></g></g></g></g></g></g></g></g></g></g></svg>
