<?xml version="1.0" encoding="UTF-8" standalone="no"?>
<!-- Created with Inkscape (http://www.inkscape.org/) -->

<svg
   width="298.4mm"
   height="225mm"
   viewBox="0 0 298.4 225"
   version="1.1"
   id="svg5"
   xml:space="preserve"
   inkscape:version="1.2.2 (b0a8486541, 2022-12-01)"
   sodipodi:docname="what-contents.svg"
   xmlns:inkscape="http://www.inkscape.org/namespaces/inkscape"
   xmlns:sodipodi="http://sodipodi.sourceforge.net/DTD/sodipodi-0.dtd"
   xmlns="http://www.w3.org/2000/svg"
   xmlns:svg="http://www.w3.org/2000/svg"><sodipodi:namedview
     id="namedview7"
     pagecolor="#ffffff"
     bordercolor="#000000"
     borderopacity="0.25"
     inkscape:showpageshadow="2"
     inkscape:pageopacity="0.0"
     inkscape:pagecheckerboard="0"
     inkscape:deskcolor="#d1d1d1"
     inkscape:document-units="mm"
     showgrid="false"
     inkscape:zoom="0.1768"
     inkscape:cx="-1143"
     inkscape:cy="181"
     inkscape:window-width="1920"
     inkscape:window-height="1011"
     inkscape:window-x="0"
     inkscape:window-y="0"
     inkscape:window-maximized="1"
     inkscape:current-layer="layer1"><inkscape:grid
       type="xygrid"
       id="grid5279" /></sodipodi:namedview><defs
     id="defs2"><rect
       x="-2175"
       y="-1258"
       width="1146"
       height="441.2"
       id="rect9658" /><inkscape:path-effect
       effect="roughen"
       id="path-effect1369"
       is_visible="true"
       lpeversion="1.2"
       method="size"
       max_segment_size="7.05"
       segments="2"
       displace_x="1;1"
       displace_y="1;1"
       global_randomize="1;1"
       handles="along"
       shift_nodes="true"
       fixed_displacement="false"
       spray_tool_friendly="false" /></defs><g
     inkscape:label="Layer 1"
     inkscape:groupmode="layer"
     id="layer1"
     transform="translate(-349.6,443)"><g
       id="g13048"><g
         id="g6042"
         transform="translate(1050,-150)"
         inkscape:export-filename="vgn1.svg"
         inkscape:export-xdpi="96"
         inkscape:export-ydpi="96"><g
           id="g1375"
           transform="translate(-1.765,2.307)"><path
             style="fill:#000000;stroke-width:0.0993542"
             d="m -617.1,-102.9 c -0.8,-0.5 -0.9,-1.6 -0.9,-2.5 0,-0.7 -0.1,-1.5 -0.5,-2.1 0,-1.9 0.6,-3.9 0.2,-5.8 -0.2,-0.9 0.7,-1.6 1.5,-1.4 0.6,0.1 1.3,0.6 1.5,1.2 1.1,1 2.8,1.1 3.8,2.2 0.7,0.4 0.4,1.3 -0.2,1.6 -0.6,0.5 -1.1,1.2 -0.9,1.9 0.3,0.8 0.8,1.5 1.3,2.2 0.3,0.4 0.6,1 0.6,1.6 -0.2,0.5 -1,0.5 -1.3,0.1 -1,-0.7 -1.6,-1.9 -1.8,-3 0.1,-0.7 -0.5,-1.5 -1.2,-1.3 -0.9,0.1 -1.7,1 -1.7,1.9 0.1,0.9 0.6,1.7 0.4,2.6 -0.2,0.3 -0.4,0.7 -0.8,0.8 z m 1,-6.7 c 0.7,-0.3 1.5,-0.5 2.2,-1 0.2,-0.6 -0.6,-0.9 -1,-1.2 -0.4,-0.4 -1.2,-0.4 -1.6,0.1 -0.6,0.6 -0.4,1.5 0,2.1 0.1,0 0.3,0 0.4,0 z m 34.5,7.4 c -1.3,-0.9 -1.7,-2.7 -3,-3.7 -1.5,-1.5 -3.1,-2.8 -4.9,-3.9 -0.4,-0.9 0.1,-1.9 0.7,-2.5 0.6,-0.6 0.7,-1.5 1.2,-2.2 1.2,-1.9 2.6,-3.7 4.3,-5.3 0.5,-1.2 1.2,-2.4 2.3,-3 0.6,-0.3 1.4,0.3 1.1,1 -0.5,1.3 -1.6,2.1 -2.5,3.2 -1.3,1.7 -2.8,3.4 -4,5.3 -0.9,0.9 -1.3,2.6 -0.3,3.7 0.4,0.5 1.2,0.6 1.6,1.1 1.3,1.3 2.4,2.8 4.1,3.6 0.7,0.6 0.8,1.6 0.6,2.5 -0.1,0.6 -0.8,0.5 -1.2,0.2 z M -620,-103 c -0.9,-0.7 -1.1,-2.1 -2,-2.8 -0.7,-0.3 -1.3,0.2 -1.7,0.7 -0.7,0.7 -1.5,1.3 -2.5,1.4 -0.7,0 -1.3,-0.6 -1.3,-1.3 0.1,-0.7 0.2,-1.4 0.3,-2.1 0.3,-1.8 0.6,-3.7 0.8,-5.6 0.2,-0.8 0.5,-1.8 1.3,-2.1 0.8,-0.2 1.4,0.5 1.5,1.2 0.6,1.6 1.2,3.1 1.9,4.6 0.6,1.8 1.7,3.3 2.7,4.9 0.2,0.6 -0.2,1.5 -0.9,1.2 z m -4.7,-3.7 c 1.2,-0.2 1.9,-1.7 1.4,-2.7 -0.2,-0.6 -1,-1.7 -1.7,-1.1 -0.2,0.6 -0.1,1.2 -0.2,1.9 -0.1,0.4 -0.3,0.7 -0.2,1.1 0,0.4 0,0.7 0,1 0.2,0.4 0.5,0 0.7,-0.2 z m 50.5,3.8 c -1.2,-1.4 -2.8,-2.4 -4.6,-2.6 -0.8,-0.5 -0.8,-1.6 -0.4,-2.3 0.4,-1 1,-1.9 1.4,-2.9 0.8,-1.1 0.9,-2.5 1.9,-3.5 0.6,-0.3 1.3,0 1.6,0.6 0.5,0.9 1.3,1.6 1.9,2.4 0.7,0.7 1.4,1.3 2.2,1.9 0.4,0.5 0.8,1.3 0.5,1.9 -0.3,0.8 -1.3,0.9 -1.8,1.5 -0.7,0.9 -1,2.2 -2,2.8 -0.2,0.1 -0.5,0.2 -0.7,0.2 z m 0.2,-2.7 c 1.2,-0.5 2.1,-2.1 1.3,-3.3 -0.3,-0.6 -1,-0.9 -1.3,-1.5 -0.5,-0.5 -1.3,-1.1 -2,-0.6 -0.5,0.3 -0.4,1 -0.8,1.4 -0.3,0.5 -0.5,1 -0.6,1.5 -0.1,0.6 0.1,1.4 0.8,1.7 0.6,0.2 1.1,0.5 1.7,0.8 0.3,0.1 0.6,0.1 0.9,0 z m -56.2,2.4 c -1.3,-0.9 -2,-2.5 -3.4,-3.4 -1.5,-1.4 -3.1,-2.7 -4.9,-3.8 -0.9,0.1 -1.9,-0.4 -1.9,-1.3 -0.1,-0.8 0.2,-1.7 0.9,-2.1 1.5,-2.9 3,-5.8 4.2,-8.8 0.4,-0.7 0.8,-1.6 1.7,-1.8 0.9,-0.1 0.9,0.9 0.5,1.5 -0.5,1 -1.1,1.9 -1.6,3 -0.4,0.8 -0.5,1.7 -1,2.4 -0.5,1 -1.3,2 -1.5,3.2 -0.4,0.5 0.1,0.9 0.6,0.7 1.3,0 2.5,-0.7 3.8,-0.4 0.6,0 1.5,0.2 1.5,1 0,0.6 -0.6,0.8 -1.1,0.8 -1.1,0.2 -2.1,0.1 -3.2,0.3 -0.5,0 -1.3,0.6 -0.7,1.1 1,0.6 1.9,1.4 2.7,2.2 0.9,0.8 1.8,1.7 2.8,2.3 0.9,0.6 1.9,1.4 1.9,2.5 0.1,0.7 -0.6,0.9 -1.1,0.7 0,-0.1 -0.1,-0.1 -0.2,-0.1 z m 23.1,-0.1 c -0.7,-1.1 -0.5,-2.4 -0.6,-3.6 0.1,-0.7 -0.2,-1.4 -0.2,-2.2 -0.1,-1.1 -0.7,-2.2 -0.3,-3.4 0.1,-0.6 1,-1.1 1.4,-0.4 0.7,0.5 0.8,1.4 1.1,2.2 0.2,0.7 0.4,1.4 1,1.9 0.4,0.5 0.9,1.4 1.6,1.2 0.2,-0.5 0,-1.2 0.2,-1.8 0,-1.1 -0.6,-2.2 -0.3,-3.3 0.1,-0.6 0.9,-1.1 1.5,-0.6 0.6,0.6 0.4,1.5 0.3,2.3 -0.1,0.9 0,1.9 0,2.8 0,1.3 0,2.5 -0.1,3.7 -0.2,0.7 -1.1,0.8 -1.6,0.3 -0.9,-0.6 -1,-1.7 -1.4,-2.7 -0.4,-0.5 -0.7,-1.2 -1.4,-1.5 -0.7,0 -0.3,1.1 -0.4,1.5 0.1,1 0.5,2 0.2,3 -0.2,0.3 -0.6,0.6 -1,0.6 z m 47.2,-0.9 c -0.9,-1.1 -1,-2.6 -2.1,-3.5 -0.6,-0.5 -1.2,0.2 -1.1,0.8 0,0.8 0.2,1.7 -0.3,2.4 -0.7,0.5 -1.1,-0.5 -1,-1.1 -0.3,-1.9 0.2,-3.9 -0.1,-5.9 -0.2,-0.9 -0.3,-2 0.1,-2.8 0.4,-0.4 1.2,-0.1 1.2,0.5 0.1,0.6 0.3,1.2 0.4,1.8 0.2,0.9 0.5,1.9 1.2,2.5 0.2,0.6 0.5,1.1 1,1.5 0.5,0.7 0.8,-0.1 0.8,-0.6 0.5,-1.7 0.2,-3.4 0.5,-5.1 0.2,-0.7 1.2,-1 1.6,-0.3 0.6,0.6 0.1,1.5 0,2.2 -0.5,1.9 -0.7,3.9 -0.7,5.9 -0.1,0.7 -0.4,1.5 -1.1,1.8 -0.2,0 -0.3,0 -0.4,-0.1 z m -7.9,-0.5 c -0.6,-1.2 -0.2,-2.6 -0.3,-4 -0.1,-1 -0.1,-2.1 -0.3,-3.2 0,-0.7 -0.1,-1.6 0.5,-2.1 0.4,-0.5 1,-0.2 1.2,0.3 0.5,0.8 0.2,1.8 0,2.6 -0.2,0.6 -0.3,1.1 -0.1,1.7 -0.3,1.3 0.4,2.6 0.2,3.9 -0.1,0.6 -0.5,1.2 -1.2,0.8 z m 24.1,-30.8 c -0.7,-2.3 -2.4,-4 -3.6,-6.1 -0.7,-1.1 -1.8,-2.1 -2,-3.5 -0.1,-0.8 0.6,-1.4 1.2,-1.9 0.8,-0.8 1.6,-1.6 2.3,-2.4 0.9,-1.2 1.8,-2.5 2.4,-3.9 0.4,-0.6 1.1,-1.6 1.8,-1.2 0.5,0.6 0.1,1.3 -0.1,1.9 -0.8,1.5 -2,2.8 -2.9,4.2 -0.8,1 -2,1.6 -2.6,2.7 -0.3,0.8 0.1,1.6 0.7,2.2 1.1,1.7 1.9,3.6 3.3,5.1 1,-1 2,-2.1 2.3,-3.5 0,-0.6 -0.5,-1.1 -0.5,-1.8 0.1,-0.6 0.7,-1.7 1.4,-1.2 0.6,0.4 0.9,1.1 1.5,1.5 0.5,0.4 0.9,1.1 0.4,1.6 -0.5,0.6 -1.1,0.9 -1.6,1.5 -1.1,1.3 -1.7,2.8 -2.5,4.3 -0.3,0.5 -0.9,1.2 -1.5,0.5 z m 3.5,-7.7 c -0.2,-0.3 0,0.4 0,0 z m -107.4,7.6 c -0.5,-0.7 -0.1,-1.7 0.5,-2.1 0.8,-0.8 1.9,-1.2 2.6,-2.1 1.1,-1 2.8,-1.3 3.6,-2.6 0.3,-0.7 -0.7,-0.6 -1.1,-0.8 -1.4,-0.3 -2.8,-0.4 -4.1,-0.9 -0.7,-0.1 -1.7,0 -2,0.8 -0.3,0.9 -0.2,1.9 -0.1,2.8 0.3,0.9 0.8,2 0.4,3 -0.2,0.6 -1.2,0.6 -1.4,-0.1 -0.5,-1.3 0,-2.8 -0.8,-4 -0.4,-0.5 -1.1,-0.9 -0.9,-1.6 0.2,-0.8 0.8,-1.4 0.9,-2.2 0.2,-0.6 -0.2,-1.1 -0.2,-1.7 -0.1,-1.4 0.3,-2.9 -0.2,-4.2 -0.5,-0.3 -0.7,-0.9 -0.6,-1.5 0,-0.7 0.8,-0.9 1.3,-0.5 0.7,0.3 1.4,0.6 2.1,0.8 2.6,0.9 5.4,1.1 7.8,2.4 0.4,0.5 0.3,1.2 -0.3,1.6 -0.7,0.7 -1.9,0.6 -2.6,1.3 -0.7,0.5 -1.6,0.6 -2.1,1.3 -0.2,0.7 0.8,0.7 1.2,0.8 1.9,0.5 3.7,0.8 5.5,1.5 0.7,0.3 0.6,1.2 0.1,1.7 -0.6,0.8 -1.6,0.9 -2.3,1.6 -2.1,1.4 -4.5,2.7 -6.2,4.7 -0.3,0.2 -0.8,0.5 -1.1,0 z m 0.5,-10.8 c 1.2,-1.2 3,-1.6 4.1,-3 -0.7,-0.7 -1.8,-0.8 -2.8,-1 -0.8,-0.1 -1.5,-0.5 -2.4,-0.5 -0.7,-0.2 -1.6,0.3 -1.3,1.1 0.2,0.6 0.5,1.1 0.5,1.8 0,0.7 0,1.6 0.5,2.1 0.6,0.5 1,-0.2 1.4,-0.5 z m -2.6,-1.9 c -0.2,-0.5 -0.3,0.4 0,0 z m -0.2,-3.6 c 0,-0.3 -0.2,0.3 0,0 z m 129.3,16.4 c -0.6,-1.1 -0.4,-2.4 -0.3,-3.6 -0.1,-0.7 0.1,-1.3 0.1,-2 0.1,-1.2 -0.3,-2.4 0.1,-3.5 0.2,-0.6 0.9,-1.1 1.5,-0.6 1.1,0.7 1.8,1.8 2.7,2.6 0.6,0.4 1.4,0.6 1.7,1.4 0.4,0.8 -0.2,1.7 -0.7,2.3 -0.5,0.5 -1.2,0.8 -1.7,1.1 -1,0.7 -1.3,2 -2.5,2.3 -0.3,0.1 -0.6,0 -0.9,0 z m 1.8,-3.1 c 1,-0.3 1.9,-1.5 1.5,-2.6 -0.1,-0.7 -0.7,-1.2 -1.3,-1.3 -0.8,0 -1.1,0.9 -1.1,1.5 0,0.8 0.3,1.7 0.1,2.5 0.1,0.6 0.6,0.1 0.8,-0.1 z m -6.5,2.6 c -0.6,-1.6 -1.5,-3.2 -2.8,-4.3 -0.1,-1.3 0.9,-2.2 1.4,-3.3 0.4,-0.6 0.3,-1.5 1.1,-1.8 0.5,-0.5 1.2,0 1.4,0.5 0.3,0.4 0.4,0.9 0.4,1.4 0.5,1.2 1.8,1.9 1.8,3.2 -0.1,0.9 -1.2,1.2 -1.4,2 -0.2,0.7 -0.2,1.5 -0.6,2 -0.3,0.4 -0.9,0.5 -1.3,0.3 z m 0.7,-3.5 c 0.6,-0.5 0.5,-1.5 0.1,-2.2 -0.3,-0.4 -0.9,-1.1 -1.4,-0.6 -0.6,0.6 -0.4,1.4 -0.1,2 0.2,0.6 0.7,1.6 1.4,0.8 z m -8.5,3.3 c -0.9,-0.5 -1.2,-1.7 -1.5,-2.6 -0.3,-0.9 -1.4,-0.9 -1.8,-1.6 -0.6,-0.6 -0.3,-1.4 0.1,-2 0.5,-0.7 1.3,-1.4 1.4,-2.4 0.2,-1 1.4,-1.8 2.4,-1.4 0.8,0.3 1,1.1 1.2,1.8 0.5,1 1.7,1.6 1.9,2.8 0.1,0.7 -0.4,1.3 -1,1.5 -0.9,0.7 -1,2 -1.6,3 -0.3,0.3 -0.6,1 -1.1,0.9 z m 0.6,-4.1 c 0.7,-0.5 0.7,-1.5 0.3,-2.2 -0.2,-0.6 -0.9,-1.5 -1.6,-1.1 -0.8,0.6 -1,1.9 -0.6,2.8 0.3,0.5 0.9,1.1 1.6,1 0.2,-0.1 0.2,-0.3 0.3,-0.5 z m -0.4,-4.5 c -0.3,-0.3 -0.4,0.5 0,0 z m -97.1,8 c -0.5,-0.9 -0.6,-2 -1.3,-2.7 -0.6,-0.4 -1.2,-0.1 -1.7,0.3 -0.6,0.3 -1.4,0.4 -1.9,-0.1 -0.7,-0.8 -0.4,-1.9 -0.6,-2.8 -0.4,-1.8 -0.2,-3.6 -0.6,-5.4 0,-0.6 0.7,-1.2 1.2,-0.7 0.6,0.4 0.4,1.1 0.4,1.7 -0.1,1.4 0.1,2.7 0.2,4 -0.2,0.8 0.4,1.6 1.2,1.6 0.9,-0.1 1.8,-0.5 2,-1.4 0.2,-1.8 -0.3,-3.7 0.4,-5.4 0.2,-0.8 1.3,-0.4 1.1,0.3 0.2,0.7 0,1.5 0,2.2 -0.2,0.8 0,1.6 0,2.5 0.2,1.7 0.5,3.5 0.8,5.2 -0.1,0.5 -0.7,1.1 -1.2,0.7 z m 49,-0.4 c -1.1,-1.2 -1.6,-3 -1.1,-4.5 0.4,-1.4 -0.3,-2.8 0.1,-4.2 0.2,-0.8 1.1,-0.4 1.6,-0.2 1.2,0.4 2.4,1 3.6,0.8 0.8,0 1.4,0.9 0.9,1.6 -0.2,0.6 -1.3,0.3 -1.2,1.2 0.1,0.6 0.9,0.9 1.3,1.3 0.6,0.3 1.1,1 0.7,1.6 -0.3,0.5 -1,0.6 -1.5,0.8 -1.4,0.6 -2.8,1.1 -4.2,1.7 h -0.1 z m 2,-2.6 c 0.6,0 1.3,-0.9 0.6,-1.3 -0.5,-0.1 -1,-0.3 -1.6,-0.3 -0.8,0.2 -1.4,1.2 -0.9,1.9 0.5,0.4 1.3,0.1 1.8,-0.2 v -0.1 z m -0.6,-4.1 c 0.4,-0.7 -0.7,-0.6 -1,-0.3 -0.6,0.7 0.6,0.9 0.9,0.3 z m -17.3,6.4 c -0.8,-1.2 -0.5,-2.7 -0.6,-4.1 -0.1,-0.7 -0.3,-1.5 -0.2,-2.3 -0.1,-2.7 0,-5.5 -0.3,-8.2 0.1,-0.9 0.4,-1.8 1.1,-2.4 0.6,-0.3 1.4,0 1.9,0.4 1.8,1.2 4,1.8 6,2.9 0.5,0.3 1.1,0.7 1.1,1.4 -0.1,0.6 -0.8,0.8 -1.3,1.1 -1.1,0.6 -2.2,1 -3.2,1.6 -0.8,0.6 -1.6,1.2 -2.2,1.9 -1.2,0.8 -1.7,2.3 -1.5,3.7 0.2,0.8 0.2,1.6 0.4,2.4 0,0.5 0.1,1 0,1.5 -0.3,0.4 -0.8,0.3 -1.2,0.1 z m 1.8,-9.6 c 0.7,-1.1 1.9,-1.5 2.9,-2.1 0.6,-0.3 1.6,-1.3 0.7,-1.7 -1.3,-0.6 -2.6,-1 -3.9,-1.6 -0.9,0.6 -1,1.9 -1,2.9 0,0.9 0.1,1.8 0,2.7 0.1,0.8 1,0.5 1.2,0 0,-0.1 0.1,-0.1 0.1,-0.2 z m 36.5,9.4 c -1.1,-1.4 -2.8,-2.1 -4.2,-3.1 -0.4,-1 0,-2.1 0.6,-2.9 0.5,-0.7 1,-1.3 1.4,-2.1 0.3,-0.6 1.3,-0.8 1.6,0 0.3,0.8 -0.5,1.3 -1,1.8 -0.9,1 -0.6,2.8 0.7,3.3 0.6,0.2 1.1,0.5 1.5,1 0.4,0.5 1,1.3 0.4,1.8 -0.3,0.2 -0.6,0.2 -1,0.2 z m 0.3,-0.5 c -0.2,-0.8 -0.3,0.7 0,0 z m -3.7,-2.8 c -0.2,-0.4 -0.2,0.4 0,0 z m -4,2.9 c -0.4,-2.3 0,-4.7 0,-7 0,-0.7 1,-1.1 1.4,-0.4 0.6,0.6 0.4,1.4 0.1,2 -0.3,1.8 -0.2,3.6 -0.5,5.4 -0.2,0.3 -0.8,0.3 -1,0 z m -19.7,0 c 0,-1 -0.7,-2.2 -1.8,-2.2 -0.9,-0.1 -1.5,0.6 -2.1,1.2 -0.4,0.4 -1.3,1.2 -1.8,0.5 -0.3,-0.6 0.1,-1.3 -0.1,-2 -0.1,-0.9 -0.6,-1.8 -0.4,-2.7 0.1,-0.5 0.5,-1.2 1.1,-1.1 0.7,0.1 0.6,0.9 0.5,1.4 0,0.6 -0.1,1.3 0.4,1.7 0.6,0.3 1.2,-0.1 1.8,-0.3 0.7,-0.3 1.3,-0.7 1.6,-1.3 0.2,-0.6 -0.6,-1 -0.3,-1.6 0.2,-0.6 1.1,-0.5 1.6,-0.1 0.4,0.4 0.1,1.1 0.2,1.7 0.1,1.4 0.5,2.7 0.3,4.1 -0.1,0.4 -0.5,1.2 -1,0.7 z m 12.7,-0.2 c -0.4,-2.1 0.2,-4.3 0.1,-6.4 0.1,-0.8 1.2,-1.2 1.7,-0.6 0.5,0.5 0.4,1.4 -0.1,1.9 -0.5,0.9 -0.5,2.1 0,3 0.4,0.5 1.2,0.5 1.7,0.3 0.6,-0.2 1.3,0.1 1.4,0.8 0.3,0.7 -0.6,1.2 -1.2,1 -1.2,-0.1 -2.4,0.2 -3.6,0 z m -53.5,-0.1 c -0.8,-0.8 -0.7,-1.9 -0.6,-2.9 0,-0.8 0.2,-1.6 0,-2.3 0.3,-1.6 -0.5,-3.1 0.1,-4.7 0.3,-0.7 1.2,-0.2 1.3,0.4 0.3,1.1 -0.1,2.2 0,3.4 0,1.8 0.1,3.6 0.5,5.4 -0.1,0.6 -0.8,1.1 -1.3,0.7 z m 0.6,-0.5 c -0.3,-0.3 0.1,0.5 0,0 z m 10.3,0.4 c -0.9,-0.4 -1,-1.5 -0.8,-2.4 0.2,-0.9 0.4,-1.9 0.1,-2.8 -0.2,-0.7 0,-1.5 -0.2,-2.2 -0.2,-1 -0.5,-2.2 0.2,-3.1 0.3,-0.7 1.1,-0.3 1.5,0 1.2,0.7 2,2.1 3.4,2.6 0.8,0.3 1.6,1 1.9,1.8 0.2,0.7 -0.2,1.3 -0.7,1.5 -0.8,0.5 -1.6,1.2 -2.3,1.8 -0.8,0.7 -1.5,1.5 -2,2.5 -0.3,0.3 -0.7,0.6 -1.1,0.3 z m 0.8,-1.1 c 0,-0.9 -0.7,0.6 0,0 z m 1.7,-3.8 c 0.7,-0.2 1.2,-1 0.8,-1.6 -0.4,-0.7 -1.1,-1.2 -1.9,-1.4 -0.7,-0.1 -0.9,0.7 -0.8,1.2 0,0.8 0.2,1.5 0.1,2.3 0.2,0.8 1.1,0.3 1.4,-0.1 0.1,-0.1 0.3,-0.3 0.4,-0.4 z m 1.2,0.9 c -0.4,-0.3 0.1,0.5 0,0 z m -7.1,3.3 c -1.3,-0.3 -2.7,0.2 -3.9,-0.4 -0.7,-0.4 -0.7,-1.2 -0.6,-1.9 0.1,-1.3 0,-2.6 0.2,-3.9 0,-0.6 0.3,-1.2 0.2,-1.7 -0.4,-0.5 0.1,-1.3 0.7,-1.3 0.7,-0.3 1.2,0.4 1,1.1 -0.3,1.3 -0.4,2.6 -0.5,4 0,0.6 -0.2,1.4 0.3,2 0.5,0.6 1.4,0.4 2.2,0.3 0.7,-0.2 1.6,0.3 1.6,1.1 -0.1,0.5 -0.7,0.9 -1.2,0.7 z"
             id="path663"
             sodipodi:nodetypes="cssssssssssssssssssssssssssccssssssssssssssssssssssssssssssssscsssssssssssssscsssssssssssssssssssssssssscssssssssssssscssssssssssssssssssssssssssssscsssssssssssssssssssssssssssscsssssssscsssssssssssssssssssssssssssssssssscssssssscsssssssssscsssscsssssssssssssssssssssssscsssssssssssssssssscssssssscsscsssssscsssscscscsssssssssssssscsssssssssssssssssssssssssssscsssscssssssscsssscsscsscscssssssssscsssssssscsscssscsssssssssssssssssssssssscsssscsscsssssssssssssssssssssssscsssssscsssssssssssssssssssssssssssscsscssccssscssssssssssssssscsssssssssssssssssssssssssssssssssscscssssscssssssssssssscssssssssscsssssssssssssssssssssssssssscssssssscsssssssssssssssssssssssscssssscssssssssssscscssssssssssssssssssscssssssscsssssssscsscssssssssssssssssssssssssscssssscsccsccsssscssssssssssssss" /></g><g
           id="g1372"
           transform="matrix(1.221,0,0,1.221,115.9,-7.733)"><path
             style="fill:#000000;stroke-width:0.0993542"
             d="m -480.2,-49.53 c -0.5,-0.18 -0.7,-0.78 -0.4,-1.21 0.3,-0.63 1.1,-0.82 1.8,-0.83 0.6,0.1 1.2,0.38 1.7,0.27 0.8,-0.1 1.6,-0.27 1.9,-1.01 0.3,-0.53 0,-1.08 0,-1.62 -0.1,-2.43 0.3,-4.87 -0.1,-7.29 0.1,-1.16 -0.4,-2.26 -1,-3.23 -0.5,-0.7 -0.8,-1.49 -1.1,-2.31 -1.1,-2.74 -1.2,-5.74 -1.2,-8.66 0,-1.14 -0.2,-2.28 -0.1,-3.41 0.2,-0.54 0.5,-1.08 0.4,-1.67 -0.1,-0.6 -0.6,-1.19 -1.3,-1.07 -0.4,0.1 -0.9,0.21 -1.3,0.24 -1.3,0.16 -2.6,0.33 -3.9,0.43 0.5,0.84 1.5,1.39 1.8,2.43 0,0.53 -0.6,0.96 -1.1,0.94 -0.9,-0.1 -1.4,-0.96 -1.9,-1.6 -0.3,-0.53 -0.9,-0.89 -1.5,-0.95 -0.6,-0.11 -1.3,-0.11 -1.7,-0.57 -0.3,-0.49 0.1,-1 0.4,-1.33 1,-1.01 2.3,-1.61 3.5,-2.35 0.3,-0.41 0.8,-0.77 1.4,-0.74 0.6,-0.1 1.1,0.53 1,1.11 -0.2,0.61 -1,0.64 -1.5,0.92 -0.3,0 -0.8,0.61 -0.2,0.55 2.2,-0.34 4.4,-0.4 6.5,-1.02 0.7,-1.39 0.7,-3 1.3,-4.43 0.5,-1.62 1,-3.24 1.7,-4.8 0.2,-0.79 -0.4,-1.47 -0.9,-2.02 -0.5,-0.61 -0.9,-1.31 -1,-2.1 -0.6,-1.67 -0.8,-3.44 -1.3,-5.14 -0.1,-3.2 0,-6.4 1,-9.4 0.6,-2.2 1.5,-4.4 3,-6.1 1.1,-1.2 2.6,-1.8 4.2,-1.8 1.3,-0.1 2.7,0.1 3.6,1.1 0.5,0.6 0.8,1.2 1.2,1.9 0.5,1 1,1.9 1.4,2.9 0.6,2.1 0.5,4.4 0.6,6.6 0,2.5 -0.7,5 -1,7.42 -0.3,1.56 -0.9,3.07 -1.5,4.53 -0.2,0.35 -0.4,0.69 -0.6,1.01 -0.1,1.33 0.9,2.43 0.9,3.74 0.7,2 1.6,3.98 1.7,6.12 0.4,1.46 1.6,2.45 2.7,3.39 0.5,0.43 0.8,1.03 1.3,1.45 0.7,0.6 1.3,1.21 1.9,1.88 0.7,0.14 1.1,1.01 0.6,1.56 -0.3,0.54 -1.1,0.57 -1.4,0 -0.6,-0.91 -1.3,-1.74 -2,-2.55 -0.5,-0.46 -1,-0.89 -1.5,-1.29 -0.4,-0.38 -1.2,-0.34 -0.9,0.36 0.4,1.87 0.1,3.8 0.3,5.69 0,2.66 -0.1,5.37 -0.9,7.93 -0.6,1.06 -1.6,1.94 -1.6,3.2 -0.1,0.49 0.3,0.88 0.2,1.36 0.3,2.61 -0.2,5.24 0.1,7.85 0.1,0.8 0.2,1.61 0.4,2.4 -0.2,0.67 -1,0.95 -1.6,0.93 -0.9,0 -1.8,-0.17 -2.5,0.25 -0.8,0.22 -1.6,0.18 -2.2,-0.12 -0.5,-0.23 -0.6,-0.86 -0.2,-1.19 0.4,-0.61 1.3,-0.62 1.9,-0.63 0.8,0 1.7,0.18 2.4,-0.32 0.5,-0.4 0.4,-1.1 0.4,-1.67 -0.1,-0.88 -0.3,-1.76 -0.1,-2.65 0,-1.18 0,-2.37 0,-3.56 0,-0.72 0,-1.45 0,-2.17 -1.3,0.29 -2.5,1.02 -3.9,0.97 -1,-0.18 -2,-0.58 -3,-0.26 -0.6,0.25 -0.7,0.97 -0.6,1.54 0.1,0.93 0.2,1.86 0.2,2.79 0,1.54 0.1,3.09 0.1,4.63 0.7,0.79 0.2,2.23 -0.9,2.39 -0.4,0.11 -0.8,-0.1 -1.3,0 -1.3,0.1 -2.7,0.22 -4,0.34 -0.1,0 -0.4,0 -0.3,-0.1 z m 11.6,-13.2 c 1.3,-0.23 2.2,-1.26 2.8,-2.31 0.8,-1.11 1.1,-2.49 1.3,-3.81 0.4,-2.69 0.2,-5.43 0,-8.13 -0.3,-2.25 -0.4,-4.52 -0.8,-6.76 -0.5,-2.28 -1.2,-4.52 -2.1,-6.69 -0.1,-0.81 -0.6,-1.68 -1.5,-1.82 -0.6,-0.17 -0.9,0.46 -1.5,0.42 -1,0.1 -2.1,-0.46 -3.1,0 -0.6,0.34 -0.7,1.06 -1,1.66 -0.6,1.69 -1.3,3.37 -1.7,5.14 -1.1,4.93 -1.4,10.06 -0.8,15.08 0.3,1.78 1.2,3.38 1.7,5.1 0.7,1.42 2.2,2.31 3.7,2.46 1,0.15 2.1,0.1 3,-0.32 0,0 0,0 0,-0.1 z m -15.6,-15.5 c -0.3,0.18 0.3,0.13 0,0 z m -0.6,-0.7 c 0,-0.4 -0.1,0.28 0,0 z m 14.6,-14.46 c 1.3,-0.18 2.4,-1.18 3.1,-2.26 0.6,-0.87 0.7,-1.94 1,-2.92 0.9,-3.63 1.1,-7.33 0.9,-11.03 0,-1.2 0,-2.3 -0.4,-3.5 -0.2,-0.9 -0.7,-1.6 -1.4,-2.3 -0.5,-0.9 -1.2,-1.8 -2.3,-2.1 -0.8,-0.2 -1.8,0 -2.5,0.4 -1.2,0.6 -2,1.8 -2.7,2.9 -0.9,1.3 -1.2,2.8 -1.6,4.3 -0.3,1.2 -0.5,2.4 -0.7,3.7 0,1.2 0.2,2.5 0.1,3.8 0.3,1.7 0.5,3.36 0.8,5.03 0.5,1.42 1.3,2.83 2.5,3.65 0.9,0.46 1.8,0.56 2.8,0.48 0.1,0 0.3,-0.1 0.4,-0.15 z m -2,-2.8 c -1.3,-0.3 -2.1,-1.49 -2.4,-2.72 -0.1,-0.55 -0.2,-1.09 -0.1,-1.69 -0.4,-0.6 -0.2,-1.4 0.4,-1.8 0.3,-0.5 1,0 1,0.5 0.1,0.8 -0.1,1.6 0.1,2.39 0.1,0.92 0.8,1.73 1.7,1.85 0.8,0.17 1.6,-0.19 2.1,-0.83 0.5,-0.53 0.7,-1.22 0.6,-1.91 0.1,-0.5 0.4,-1.2 1,-1.3 0.6,0.3 0.4,1 0.4,1.5 0,1.1 -0.2,2.3 -1.1,3 -0.9,0.87 -2.3,1.3 -3.6,1.05 0,0 -0.1,0 -0.1,0 z m 3,-9.91 c -0.6,-0.5 -0.8,-1.3 -1,-2 -0.1,-0.5 0,-1.2 0.6,-1.3 0.6,-0.2 0.6,0.6 0.7,1 0.1,0.6 0.9,1 1.1,0.4 0.2,-0.6 0.1,-1.3 0.6,-1.7 0.5,-0.4 1,0.3 1,0.7 0.2,1.2 -0.7,2.4 -1.7,2.8 -0.4,0.3 -0.9,0.5 -1.3,0.1 z m -4.5,-0.5 c -0.9,-0.2 -1.3,-1.2 -1.4,-2 -0.1,-0.5 0,-1.3 0.7,-1.3 0.6,0 0.4,0.9 0.6,1.3 0,0.5 0.6,1.1 1.1,0.6 0.2,-0.6 0.3,-1.3 0.9,-1.6 0.5,-0.1 0.9,0.5 0.8,0.9 0,0.8 -0.5,1.5 -1,2 -0.5,0.4 -1.1,0.4 -1.6,0.1 z"
             id="path661"
             sodipodi:nodetypes="sssssssssscssssscssssssscsssssssscssscsssssssssssssssscssssssssssssssssssssssssssssssccsssssscsssssssscsssssssscsssssssssssssssssssscssssssssssssssssssscssscsssssscsssscscsssssscsssssssscssscsssssssssssssssssscscsscssssssssssssssssssssssscsssscccssssssssssssssccssscsssssssssss" /></g><g
           id="g1378"><path
             style="fill:none;stroke:#000000;stroke-width:3;stroke-linejoin:round;stroke-dasharray:none;stroke-dashoffset:0;stroke-opacity:1"
             id="rect813"
             width="150"
             height="75.49"
             x="-659.8"
             y="-163.4"
             inkscape:path-effect="#path-effect1369"
             d="m -659.6,-163.2 6.4,-0.5 7.6,0.2 6.1,-0.3 6.8,-0.1 7,0 7,0.1 6.4,-0.2 7.3,0.1 6.6,0.1 6.9,0.1 6.7,0 6.8,0 6.6,-0.5 6.9,-0.3 7.3,0.2 6.5,0.1 6.8,0.2 6.9,0.1 7.6,0.2 5.9,-0.6 7,0.5 6.7,0.4 0.5,7.1 0,6.6 -0.1,6.9 -0.1,6.7 -0.1,6.9 -0.1,6.6 -0.1,7.2 0,6.9 -0.1,6.4 0.6,7.5 -0.4,6.8 -6.6,0.17 -6.5,0 -7.5,-0.33 -6.5,0.1 -7.2,-0.72 -6.6,0.1 -6.5,0 -7.3,-0.13 -6.4,0.22 -7.2,-0.1 -6.8,0 -7,-0.57 -6.7,-0.15 -6.9,-0.37 -6.7,-0.19 -6.9,-0.48 -6.8,0 -6.8,0.46 -6,0.59 -7.3,0.47 -7.2,-0.53 -6.7,1.18 0.2,-6.72 -0.1,-7.04 0.4,-6.7 0,-7 0.3,-6.7 -0.1,-7 -0.3,-7.1 0.1,-6.5 -0.1,-6.9 0,-6.8 z"
             sodipodi:type="rect" /></g></g><text
         xml:space="preserve"
         transform="matrix(0.2646,0,0,0.2646,924.6,-112.3)"
         id="text9656"
         style="font-style:normal;font-variant:normal;font-weight:normal;font-stretch:normal;font-size:47.997px;font-family:'Atkinson Hyperlegible Next';-inkscape-font-specification:'Atkinson Hyperlegible Next, Normal';font-variant-ligatures:normal;font-variant-caps:normal;font-variant-numeric:normal;font-variant-east-asian:normal;white-space:pre;shape-inside:url(#rect9658);fill:#000000;fill-opacity:1;stroke:none;stroke-width:5.6693;stroke-linejoin:round;stroke-dasharray:none;stroke-dashoffset:0;stroke-opacity:1"><tspan
           x="-2175"
           y="-1216"
           id="tspan13571">In January 10, 2014, Vitalik put out a blueprint for a </tspan><tspan
           x="-2175"
           y="-1156"
           id="tspan13573">new kind of economic democracy:
</tspan><tspan
           x="-2175"
           y="-1096"
           id="tspan13575">
</tspan><tspan
           x="-2175"
           y="-1036"
           id="tspan13577">&quot;it is possible to set up currencies whose seigniorage, </tspan><tspan
           x="-2175"
           y="-975.5"
           id="tspan13579">or issuance, goes to support certain causes, and </tspan><tspan
           x="-2175"
           y="-915.5"
           id="tspan13581">people can vote for those causes by accepting certain </tspan><tspan
           x="-2175"
           y="-855.5"
           id="tspan13583">currencies at their businesses. . .&quot;</tspan></text></g></g></svg>
