<?xml version="1.0" encoding="UTF-8" standalone="no"?>
<!-- Created with Inkscape (http://www.inkscape.org/) -->

<svg
   width="219.2mm"
   height="97.84mm"
   viewBox="0 0 219.2 97.84"
   version="1.1"
   id="svg5"
   xml:space="preserve"
   inkscape:version="1.2.2 (b0a8486541, 2022-12-01)"
   sodipodi:docname="what-contents.svg"
   xmlns:inkscape="http://www.inkscape.org/namespaces/inkscape"
   xmlns:sodipodi="http://sodipodi.sourceforge.net/DTD/sodipodi-0.dtd"
   xmlns="http://www.w3.org/2000/svg"
   xmlns:svg="http://www.w3.org/2000/svg"><sodipodi:namedview
     id="namedview7"
     pagecolor="#ffffff"
     bordercolor="#000000"
     borderopacity="0.25"
     inkscape:showpageshadow="2"
     inkscape:pageopacity="0.0"
     inkscape:pagecheckerboard="0"
     inkscape:deskcolor="#d1d1d1"
     inkscape:document-units="mm"
     showgrid="false"
     inkscape:zoom="0.3536"
     inkscape:cx="-1335"
     inkscape:cy="268.7"
     inkscape:window-width="1920"
     inkscape:window-height="1011"
     inkscape:window-x="0"
     inkscape:window-y="0"
     inkscape:window-maximized="1"
     inkscape:current-layer="layer1"><inkscape:grid
       type="xygrid"
       id="grid5279" /></sodipodi:namedview><defs
     id="defs2"><inkscape:path-effect
       effect="roughen"
       id="path-effect1369"
       is_visible="true"
       lpeversion="1.2"
       method="size"
       max_segment_size="7.05"
       segments="2"
       displace_x="1;1"
       displace_y="1;1"
       global_randomize="1;1"
       handles="along"
       shift_nodes="true"
       fixed_displacement="false"
       spray_tool_friendly="false" /></defs><g
     inkscape:label="Layer 1"
     inkscape:groupmode="layer"
     id="layer1"
     transform="translate(558.8,233.5)"><g
       id="g6042"
       transform="translate(102.5,-67.54)"
       inkscape:export-filename="../../../../vgn1.svg"
       inkscape:export-xdpi="96"
       inkscape:export-ydpi="96"><g
         id="g1375"
         transform="translate(-1.765,2.307)"><path
           style="fill:#000000;stroke-width:0.0993542"
           d="m -617.1,-102.9 c 0,0 -0.4,-0.1 -0.6,-0.3 -0.2,-0.3 -0.2,-0.3 -0.2,-1.2 0,-1.3 -0.2,-2.3 -0.5,-2.7 -0.3,-0.4 -0.3,-0.7 0,-1.1 0.1,-0.2 0.2,-0.4 0.2,-1.7 0,-0.8 0,-1.7 0.1,-2 0,-0.3 0,-0.6 -0.1,-1 -0.2,-0.9 -0.2,-1 0.3,-1.5 0.4,-0.4 0.6,-0.6 0.8,-0.6 0.4,0 0.8,0.4 1,0.8 0.1,0.4 0.6,0.7 1,0.8 0.4,0.1 2.1,1 3.3,1.8 0.6,0.4 0.9,0.8 0.9,1.2 0,0.3 -0.2,0.5 -1,0.9 -0.9,0.4 -0.9,0.3 0.1,3.2 0.2,0.6 0.5,1.1 0.8,1.4 0.4,0.4 0.5,0.9 0.3,1.2 -0.4,0.7 -1.1,0.6 -1.5,-0.2 -0.3,-0.6 -0.7,-1.1 -0.8,-1.1 -0.3,0 -0.7,-1 -1,-2.6 -0.1,-0.4 -0.2,-0.7 -0.3,-0.8 -0.1,-0.1 -0.3,0 -0.8,0.3 -0.9,0.3 -1.2,0.6 -1.2,1 0,0.1 0,0.2 -0.1,0.3 -0.1,0 -0.2,0.2 -0.2,0.4 0,0.7 0.2,1.7 0.4,1.9 0.2,0.4 -0.2,1.2 -0.2,1.2 z m 1,-6.7 c 0.3,-0.2 0.7,-0.3 0.8,-0.3 0.3,-0.1 0.5,-0.2 0.7,-0.3 0.1,-0.1 0.3,-0.2 0.4,-0.2 0.2,0 0.9,-0.4 0.9,-0.5 0,-0.1 -0.4,-0.3 -1.2,-0.6 -0.4,-0.1 -0.7,-0.2 -0.7,-0.3 -0.1,-0.1 -1.1,-0.6 -1.3,-0.6 -0.1,0 -0.3,2.7 -0.2,2.9 0.1,0.1 0.1,0.1 0.6,-0.1 z m 34.5,7.4 c -0.5,-0.2 -1,-0.7 -1,-1 0,-0.1 -0.1,-0.3 -0.3,-0.5 -0.2,-0.2 -0.4,-0.5 -0.5,-0.6 -0.6,-1 -2.3,-2.7 -3.2,-3.4 -0.3,-0.2 -0.7,-0.6 -1,-0.8 -0.7,-0.6 -1.2,-1 -1.5,-1 -0.2,0 -0.7,-0.5 -0.8,-0.8 0,-0.2 0.1,-0.4 0.3,-0.7 0.7,-1.1 1.1,-1.7 1.5,-2.5 0.2,-0.3 0.4,-0.7 0.5,-0.9 0.1,-0.2 0.4,-0.6 0.6,-0.9 0.3,-0.6 1,-1.6 1.4,-1.9 0.1,-0.1 0.4,-0.5 0.8,-0.9 0.3,-0.5 0.7,-0.9 0.9,-1 0.1,-0.1 0.4,-0.5 0.7,-1 0.3,-0.4 0.7,-0.9 0.9,-1.2 0.2,-0.2 0.4,-0.5 0.5,-0.7 0.2,-0.5 0.7,-0.9 1.1,-1 0.3,0 0.4,0 0.6,0.3 0.3,0.3 0.4,0.5 0.2,0.9 -0.1,0.5 -1.4,2.1 -2.2,3 -1.8,2 -2.7,3 -3.3,3.9 -0.6,1 -1,1.7 -1,1.9 0,0 -0.3,0.4 -0.5,0.7 -0.5,0.7 -0.7,1.1 -0.7,1.4 0,0.1 0.4,0.6 1.8,1.8 0.4,0.4 1.1,1 1.4,1.4 0.4,0.4 0.9,0.8 1.1,1 0.2,0.2 0.5,0.5 0.6,0.7 0.1,0.2 0.4,0.4 0.8,0.6 0.6,0.3 1.2,0.9 1.4,1.3 0.1,0.2 0.1,0.6 0.2,1 0,0.7 0,0.8 -0.1,1 -0.3,0.2 -0.6,0.2 -1.2,-0.1 z M -620,-103 c -0.3,-0.2 -0.5,-0.3 -0.8,-1.1 -0.3,-0.5 -0.7,-1.2 -0.8,-1.5 l -0.3,-0.6 -0.3,0.2 c -0.1,0.1 -0.3,0.2 -0.4,0.2 -0.3,0 -1.3,0.7 -2,1.4 -0.7,0.7 -0.7,0.7 -1.1,0.6 h -0.8 c -0.5,0.1 -0.5,0.1 -0.7,-0.2 -0.4,-0.3 -0.4,-0.8 -0.3,-1.5 0.1,-0.3 0.2,-1 0.3,-1.6 0.1,-0.5 0.1,-1 0.2,-1.1 0,-0.1 0.1,-0.5 0.1,-0.9 0.4,-3.3 0.8,-5.3 1.2,-5.5 0.4,-0.3 0.9,-0.4 1.3,-0.2 0.4,0.1 0.5,0.2 0.5,0.4 0,0.1 0.4,1.3 0.6,1.7 0.1,0.2 0.3,0.6 0.4,1 0.2,0.4 0.5,1.1 0.6,1.4 0.2,0.4 0.4,0.7 0.4,0.8 0,0.2 1.4,3.2 1.7,3.5 0.1,0.2 0.3,0.5 0.4,0.7 0.1,0.2 0.4,0.6 0.6,0.9 0.3,0.4 0.4,0.5 0.3,0.8 0,0.2 -0.1,0.4 -0.3,0.5 -0.3,0.3 -0.4,0.3 -0.8,0.1 z m -4.7,-3.7 c 0.2,-0.2 0.6,-0.5 0.8,-0.7 0.2,-0.2 0.5,-0.4 0.7,-0.4 0.2,-0.1 0.4,-0.2 0.4,-0.3 0,0 -0.5,-1 -1,-1.8 -0.5,-0.9 -0.9,-1.5 -1,-1.4 l -0.2,1 c -0.1,0.5 -0.2,1.2 -0.2,1.6 -0.1,0.3 -0.2,1 -0.2,1.6 -0.1,1.2 -0.2,1.1 0.7,0.4 z m 50.5,3.8 c -0.4,-0.2 -0.6,-0.4 -0.8,-0.8 -0.2,-0.4 -0.3,-0.5 -0.8,-0.8 -0.4,-0.2 -0.9,-0.4 -1.1,-0.5 -0.2,0 -0.5,-0.2 -0.7,-0.3 -0.2,0 -0.6,-0.1 -0.9,-0.1 -1,-0.1 -1.4,-0.8 -0.9,-1.5 0.1,-0.2 0.2,-0.5 0.2,-0.5 0,-0.3 0.6,-2 0.8,-2.2 0,-0.1 0.1,-0.3 0.2,-0.5 0,-0.1 0.1,-0.4 0.3,-0.5 0.2,-0.4 0.5,-1 0.5,-1.1 0,-0.1 0.1,-0.3 0.2,-0.4 0.1,-0.1 0.4,-0.6 0.6,-1.1 0.6,-1.2 0.8,-1.4 1.3,-1.4 0.5,0 0.8,0.3 0.9,0.9 0,0.4 0.1,0.5 0.4,0.7 0.3,0.1 0.6,0.5 0.9,0.9 0.3,0.4 0.7,0.9 0.9,1.1 0.2,0.3 0.7,0.8 1.1,1.2 0.4,0.5 0.7,0.7 1,0.8 0.5,0.2 0.7,0.5 0.7,1 0,0.5 -0.5,1.1 -0.9,1.2 -0.2,0 -0.4,0.2 -0.7,0.6 -0.3,0.3 -0.7,0.9 -1.1,1.3 -0.3,0.3 -0.5,0.7 -0.5,0.8 l -0.1,0.1 c -0.1,0 -0.1,0.1 -0.1,0.2 0,0.4 -1,1.1 -1.4,0.9 z m 0.2,-2.7 c 0.1,0 0.1,-0.1 0.2,-0.1 0.1,0 1.1,-1.1 1.5,-1.6 0.3,-0.4 0.3,-0.4 0.1,-0.7 -0.1,-0.2 -0.3,-0.5 -0.5,-0.7 -0.2,-0.3 -0.5,-0.6 -0.7,-0.8 -0.1,-0.2 -0.5,-0.6 -0.7,-0.9 -0.3,-0.2 -0.7,-0.6 -1,-0.9 l -0.5,-0.4 -0.2,0.3 c -0.3,0.4 -0.7,1.2 -1,1.9 -0.6,1.1 -0.7,1.5 -0.7,1.9 0,0.5 0,0.5 0.6,0.9 0.3,0.2 0.9,0.5 1.4,0.7 0.5,0.2 1,0.4 1,0.5 0.2,0.1 0.5,0.1 0.5,-0.1 z m -56.2,2.4 c -0.4,-0.1 -0.5,-0.2 -0.8,-0.7 -0.1,-0.2 -0.4,-0.6 -0.7,-0.9 -0.7,-0.8 -2.9,-2.8 -3.4,-3.1 -0.2,-0.2 -0.8,-0.6 -1.3,-1 -0.9,-0.8 -2.6,-1.7 -3.2,-1.8 -0.7,-0.1 -1,-0.5 -1,-1.1 0,-0.3 0.2,-0.9 0.5,-1.2 0.2,-0.1 0.3,-0.2 0.3,-0.3 0,-0.1 0.1,-0.2 0.1,-0.3 0.1,0 0.5,-0.8 0.9,-1.6 0.5,-0.9 0.9,-1.9 1.1,-2.2 1.4,-2.8 2,-4 2,-4.2 0,-0.2 1,-2 1.4,-2.6 0.3,-0.3 0.4,-0.4 0.8,-0.4 0.5,0 0.5,0 0.7,0.5 0.2,0.5 0.2,0.6 -0.5,1.6 -0.3,0.4 -0.7,1.1 -0.9,1.5 -0.1,0.5 -0.4,1 -0.5,1.3 -0.3,0.4 -0.6,1.1 -1.2,2.4 -0.1,0.3 -0.6,1.3 -1.1,2.2 -0.4,0.9 -0.8,1.7 -0.7,1.8 0,0 0.3,-0.1 0.7,-0.2 0.4,-0.1 1.2,-0.2 1.7,-0.3 2.7,-0.4 3.7,-0.3 4.1,0.3 0.2,0.3 0.2,0.4 0.1,0.7 -0.1,0.4 -0.4,0.5 -1.3,0.5 -0.4,0 -1.1,0.1 -1.6,0.2 -0.4,0.1 -1.2,0.3 -1.6,0.3 -0.5,0.1 -1.1,0.2 -1.3,0.3 l -0.4,0.1 0.3,0.1 c 0.4,0.3 1.5,1 2.4,1.8 0.4,0.4 1,0.9 1.4,1.1 0.3,0.3 1.3,1.1 2.1,1.9 0.8,0.8 1.6,1.5 1.8,1.6 0.2,0.1 0.3,0.2 0.4,0.7 0.2,0.7 0,1 -0.5,1.1 -0.4,0.1 -0.4,0.1 -0.8,-0.1 z m 23.1,-0.1 -0.3,-0.3 c -0.1,-0.2 -0.3,-2.3 -0.2,-2.8 0,-0.3 -0.1,-0.8 -0.4,-2.6 -0.1,-0.5 -0.1,-1.1 -0.2,-1.3 0,-0.3 0,-0.8 -0.1,-1.3 -0.1,-1.1 -0.1,-1.3 0.4,-1.6 0.8,-0.4 1.3,-0.1 1.7,1.3 0.3,1 0.7,1.8 1.3,2.4 0.2,0.2 0.6,0.9 1,1.4 0.3,0.6 0.6,1.1 0.7,1.1 0.1,0 0.3,-1.9 0.2,-2.7 -0.1,-1.4 -0.2,-2.4 -0.3,-2.5 -0.2,-0.2 -0.1,-0.8 0.1,-1 0.4,-0.3 0.9,-0.5 1.2,-0.4 0.2,0 0.3,0.1 0.5,0.4 0.1,0.2 0.2,0.4 0.2,0.5 -0.1,0.1 -0.1,1.7 -0.1,3.6 0,1.8 0,3.7 -0.1,4.1 -0.1,0.7 -0.1,0.7 -0.4,1 -0.5,0.4 -0.9,0.4 -1.3,-0.1 -0.2,-0.2 -0.3,-0.4 -0.3,-0.5 0,-0.3 -0.4,-1 -0.9,-1.8 -0.6,-1 -1.8,-2.6 -1.9,-2.6 -0.1,0 -0.1,0.4 0.1,1.3 0,0.3 0.1,1.3 0.1,2.2 l 0.1,1.7 -0.3,0.3 c -0.3,0.3 -0.4,0.3 -0.8,0.2 z m 47.2,-0.9 c -0.2,-0.1 -0.3,-0.2 -0.4,-0.7 -0.1,-0.3 -0.5,-0.9 -0.8,-1.4 -0.3,-0.5 -0.7,-1.1 -0.8,-1.3 -0.2,-0.2 -0.4,-0.6 -0.6,-0.7 l -0.3,-0.3 v 0.2 c 0,0.2 -0.1,0.6 -0.1,1 0,0.6 -0.2,2.5 -0.4,3 0,0.2 -0.1,0.2 -0.4,0.3 -0.6,0 -0.9,-0.6 -0.8,-2 0.1,-4 0.1,-5 -0.1,-6 -0.1,-0.4 -0.2,-1.1 -0.2,-1.5 0,-0.5 0,-0.6 0.2,-0.8 0.4,-0.4 0.9,-0.4 1.2,-0.2 0.1,0.2 0.2,0.3 0.2,0.4 0,0.1 0.1,0.3 0.1,0.3 0.1,0 0.1,0.3 0.1,0.7 0,0.7 0.2,1.6 0.6,2.5 0.1,0.2 0.8,1.3 1.5,2.3 0.1,0.1 0.3,0.5 0.5,0.7 l 0.3,0.5 0.1,-0.3 c 0.1,-0.2 0.3,-1 0.3,-1.7 0.1,-0.8 0.2,-1.8 0.3,-2.3 0.1,-0.7 0.1,-1 0,-1.4 -0.2,-0.8 0.3,-1.6 1.2,-1.6 0.5,0 0.8,0.4 0.7,1 0,0.6 -0.2,1.9 -0.4,2.7 -0.1,0.4 -0.2,1.2 -0.2,1.7 -0.1,0.5 -0.2,1.3 -0.2,1.7 -0.1,0.5 -0.2,1.3 -0.2,1.9 -0.1,0.8 -0.2,1 -0.4,1.2 -0.2,0.2 -0.6,0.3 -1,0.1 z m -7.9,-0.5 c -0.1,0 -0.3,-0.2 -0.3,-0.3 -0.1,-0.5 -0.2,-8.6 -0.1,-8.8 0.3,-0.6 1,-0.7 1.4,-0.3 0.3,0.3 0.4,0.8 0.3,1.4 -0.3,1 -0.4,2.2 -0.3,4.5 0,1.7 0.1,2.3 0.2,2.4 0.5,0.8 -0.3,1.6 -1.2,1.1 z m 24.1,-30.8 c -0.2,-0.2 -0.3,-0.5 -0.4,-0.9 -0.2,-0.5 -0.3,-0.7 -0.9,-1.7 -0.9,-1.6 -1.5,-2.5 -1.7,-2.8 -0.5,-0.7 -1,-1.5 -1,-1.6 0,0 0,-0.1 -0.1,-0.1 -0.1,0 -0.3,-0.3 -0.6,-0.6 -0.2,-0.4 -0.6,-0.9 -0.8,-1.2 -0.1,-0.3 -0.3,-0.6 -0.3,-0.7 0,-0.4 0.5,-1.3 0.9,-1.6 1.2,-0.7 3.7,-3.6 4.5,-5.3 0.1,-0.2 0.4,-0.7 0.7,-1.1 0.3,-0.3 0.5,-0.8 0.6,-0.9 0,-0.1 0.1,-0.4 0.2,-0.5 0.4,-0.5 1.1,-0.3 1.4,0.3 0.2,0.3 0.2,0.3 -0.1,0.8 -0.1,0.3 -0.4,0.7 -0.6,1 -0.2,0.2 -0.5,0.7 -0.7,1 -0.2,0.4 -0.4,0.8 -0.6,1 -0.1,0.2 -0.3,0.4 -0.4,0.6 -0.3,0.6 -1.3,1.8 -2.5,3 -0.8,0.8 -1.4,1.5 -1.4,1.6 0,0.2 0.3,0.8 0.6,1.1 0.6,0.8 0.7,1 0.7,1.1 0,0 0.1,0.3 0.3,0.5 0.2,0.3 0.6,1 1,1.6 0.3,0.6 0.8,1.4 0.9,1.6 0.2,0.3 0.4,0.6 0.5,0.8 l 0.2,0.4 c 0.1,0 0.3,-0.3 0.6,-0.7 0.7,-1.2 1,-1.6 1.4,-2 0.2,-0.2 0.3,-0.5 0.3,-0.5 0,-0.1 0.1,-0.2 0.2,-0.3 0.5,-0.4 0.5,-0.5 -0.2,-1.1 l -0.6,-0.5 0.2,-0.7 c 0.3,-0.9 0.5,-1.2 1,-1.2 0.5,0 0.7,0.2 1,0.8 0.3,0.5 0.3,0.6 0.8,0.8 0.6,0.2 0.7,0.3 0.7,1 0,0.5 0,0.6 -0.3,0.9 -0.6,0.4 -1.9,1.7 -1.9,1.9 0,0 -0.2,0.3 -0.4,0.7 -0.8,1 -1.7,2.6 -1.7,2.9 0,0.4 -0.5,0.8 -0.9,0.8 -0.3,0.1 -0.4,0.1 -0.6,-0.2 z m 3.5,-7.7 c 0,0 0,-0.1 -0.1,-0.1 -0.1,0 -0.1,0.1 -0.1,0.1 v 0.1 c 0.1,0 0.1,0 0.2,-0.1 z m -107.4,7.6 c -0.3,-0.4 -0.4,-0.7 -0.2,-1.1 0.1,-0.4 0.6,-1 1,-1.2 0.2,-0.1 1.7,-1.3 2,-1.6 0,-0.1 0.3,-0.3 0.5,-0.4 0.2,-0.1 0.5,-0.3 0.6,-0.4 0.1,-0.1 0.3,-0.3 0.5,-0.4 0.4,-0.2 1,-0.6 1.5,-1 0.2,-0.1 0.6,-0.4 0.9,-0.6 l 0.6,-0.4 c -0.1,-0.1 -2.1,-0.6 -3,-0.8 -0.4,-0.1 -0.9,-0.2 -1.2,-0.2 -0.4,0 -1.1,-0.1 -1.6,-0.2 -1.2,-0.2 -1.4,-0.2 -2,0.2 l -0.4,0.3 0.1,0.7 c 0,0.4 0.1,0.8 0.1,1 0,0.1 0.1,0.5 0.1,0.8 0,0.4 0.1,0.9 0.1,1.2 0.3,1.5 0.4,2 0.2,2.2 -0.1,0.4 -0.4,0.5 -0.8,0.5 -0.5,0 -0.7,-0.3 -0.7,-1.4 0,-0.5 -0.1,-1.3 -0.2,-1.8 -0.1,-0.6 -0.2,-1.2 -0.2,-1.4 0,-0.3 0,-0.3 -0.3,-0.3 -0.5,0 -1,-0.3 -1.1,-0.6 0,-0.4 0.2,-0.8 0.6,-1.3 0.5,-0.5 0.6,-0.7 0.4,-1.8 -0.2,-0.5 -0.2,-0.9 -0.1,-1.5 v -0.4 c -0.1,0 -0.1,-3 0,-3.1 0.1,-0.2 -0.1,-0.6 -0.6,-1.1 -0.3,-0.4 -0.4,-0.4 -0.3,-0.9 0.1,-1.1 0.7,-1.3 1.6,-0.6 0.7,0.4 1,0.6 1.9,0.8 0.4,0 1.2,0.2 1.7,0.4 1,0.3 1.1,0.3 2.4,0.5 0.7,0.2 2.1,0.7 3.4,1.2 0.8,0.4 0.9,0.9 0.5,1.5 -0.2,0.2 -0.3,0.3 -0.7,0.3 -0.3,0.1 -0.7,0.2 -1,0.5 -0.4,0.2 -0.9,0.5 -1.2,0.6 -0.2,0.1 -0.5,0.4 -0.6,0.5 -0.1,0.1 -0.2,0.1 -0.2,0.1 -0.1,0 -0.2,0 -0.2,0.1 -0.1,0 -0.2,0.1 -0.3,0.1 -0.1,0 -0.2,0.1 -0.4,0.2 -0.1,0.1 -0.2,0.2 -0.3,0.2 -0.1,0 -1,0.7 -0.9,0.8 0,0 0.2,0.1 0.5,0.1 0.7,0.1 4.3,0.9 4.9,1.2 0.4,0.1 0.9,0.2 1.3,0.3 0.4,0.1 0.7,0.3 1,0.5 0.3,0.3 0.3,0.4 0.2,0.7 0,0.5 -0.3,0.8 -0.5,0.8 -0.2,0 -1.1,0.6 -1.2,0.8 -0.1,0.1 -0.2,0.1 -0.2,0.1 -0.1,0 -0.4,0.2 -0.7,0.4 -0.2,0.1 -0.8,0.5 -1.3,0.8 -0.5,0.3 -1,0.7 -1.1,0.8 -0.1,0.1 -0.3,0.2 -0.4,0.2 -0.1,0 -1.3,1 -1.4,1.2 0,0 -0.1,0.1 -0.2,0.1 -0.1,0 -0.5,0.3 -1.3,1.1 -0.6,0.7 -1.1,1 -1.4,1 0,0 -0.2,-0.1 -0.4,-0.3 z m 0.5,-10.8 c 0.2,-0.2 0.4,-0.3 0.4,-0.3 0.1,0 0.4,-0.3 0.7,-0.5 0.4,-0.3 0.6,-0.5 0.7,-0.5 0,0 1.7,-1 1.8,-1.2 0.1,-0.1 0.2,-0.1 0.3,-0.1 0.2,0 0.6,-0.4 0.6,-0.5 0,-0.1 -0.3,-0.2 -0.7,-0.3 -0.3,-0.1 -0.8,-0.2 -1.1,-0.3 -0.2,-0.1 -0.6,-0.1 -0.7,-0.2 -0.2,0 -0.5,-0.1 -0.8,-0.2 -0.6,-0.1 -2,-0.4 -2.8,-0.5 -0.6,-0.1 -0.6,0 -0.6,0.1 0.1,0.1 0,0.2 0,0.2 -0.1,0 -0.3,0.5 -0.3,0.8 0,0.2 0,0.1 0.1,-0.1 0.1,-0.3 0.1,-0.3 0.2,-0.2 0,0.1 0.1,0.7 0.1,1.2 0,0.6 0.1,1.3 0.2,1.7 0.1,0.3 0.2,0.8 0.2,1.1 0,0.2 0.1,0.5 0.1,0.6 0.1,0.1 1,-0.4 1.6,-0.8 z m -2.6,-1.9 c 0,-0.2 -0.2,-0.2 -0.3,-0.1 0,0.1 0,0.2 0.1,0.2 0.1,0 0.2,-0.1 0.2,-0.1 z m -0.2,-3.6 v -0.1 c -0.1,0 -0.1,0 -0.1,0.1 v 0.1 c 0,0 0.1,0 0.1,-0.1 z m 129.3,16.4 -0.4,-0.4 c -0.1,-0.2 0,-5.2 0.1,-5.7 0.1,-0.2 0.1,-1 0.1,-1.8 0,-0.9 0,-1.5 0.1,-1.7 0.2,-0.3 0.8,-0.6 1.1,-0.4 0.1,0 0.4,0.4 0.8,0.7 0.4,0.4 1,1 1.4,1.3 0.5,0.3 1.1,0.9 1.5,1.2 0.4,0.4 0.8,0.8 1,0.9 0.7,0.5 0.6,1.4 -0.2,1.9 -0.2,0.2 -0.7,0.5 -1,0.9 -0.3,0.3 -0.7,0.6 -0.9,0.7 -0.2,0.1 -0.6,0.4 -0.9,0.6 -0.5,0.4 -0.5,0.4 -0.5,0.8 0,0.5 -0.3,0.8 -0.6,0.8 -0.2,0 -0.3,0 -0.5,0.1 -0.3,0.3 -0.7,0.3 -1.1,0.1 z m 1.8,-3.1 c 1.3,-1 2.2,-2 2.2,-2.2 -0.1,-0.2 -2.5,-2.2 -2.6,-2.1 -0.2,0.2 -0.4,2 -0.4,3 v 1.2 c 0,0.2 0,0.7 0.1,0.7 0,0 0.3,-0.3 0.7,-0.6 z m -6.5,2.6 c -0.2,-0.2 -0.3,-0.3 -0.4,-0.7 0,-0.2 -0.1,-0.4 -0.1,-0.5 -0.1,0 -0.1,-0.1 -0.1,-0.2 0,0 -0.2,-0.3 -0.3,-0.6 l -0.4,-0.6 c 0,-0.2 -1,-1.2 -1.1,-1.2 0,0 -0.2,-0.1 -0.4,-0.3 -0.3,-0.3 -0.3,-0.4 -0.2,-0.7 l 0.2,-0.4 c 0.1,-0.1 0.8,-1.3 1.1,-2 0.6,-1.7 1.4,-2.6 2.1,-2.6 0.3,0 0.6,0.4 0.8,1.2 0.1,0.4 0.4,1 0.6,1.4 0.2,0.4 0.5,0.8 0.6,1 0.1,0.2 0.3,0.5 0.4,0.7 0.5,0.6 0.6,0.8 0.6,1.2 0,0.4 0,0.4 -0.9,1.1 -0.3,0.2 -0.4,0.5 -0.9,1.7 0,0.2 -0.1,0.6 -0.1,0.8 0,0.5 -0.3,0.8 -0.9,0.8 -0.3,0.1 -0.4,0 -0.6,-0.1 z m 0.7,-3.5 c 0.2,-0.3 0.3,-0.6 0.4,-0.6 v -0.4 c -0.1,-0.2 -0.1,-0.5 -0.2,-0.7 0,-0.2 -0.2,-0.5 -0.3,-0.7 -0.2,-0.1 -0.4,-0.4 -0.5,-0.6 -0.4,-0.4 -0.5,-0.4 -0.8,0.3 -0.5,1.1 -0.5,1 -0.2,1.5 0.1,0.2 0.5,0.7 0.7,1.1 0.2,0.4 0.5,0.7 0.5,0.7 z m -8.5,3.3 c -0.4,-0.1 -0.8,-0.5 -0.8,-0.8 0,-0.1 -0.1,-0.3 -0.2,-0.4 -0.2,-0.2 -0.2,-0.2 -0.1,-0.4 0.1,-0.1 0.1,-0.2 -0.1,-0.4 -0.1,-0.2 -0.2,-0.3 -0.2,-0.3 0,-0.1 -0.8,-1 -1.1,-1.4 -0.2,-0.1 -0.5,-0.4 -0.8,-0.6 -0.5,-0.3 -0.5,-0.3 -0.4,-0.7 0,-0.4 0.2,-0.9 0.4,-0.9 0.1,0 0.7,-0.9 1.1,-1.5 0.1,-0.2 0.2,-0.5 0.3,-0.7 0.3,-0.5 0.6,-1.2 0.6,-1.5 0.1,-0.3 0.5,-0.7 0.9,-0.8 0.4,-0.1 0.8,0.1 1.3,0.5 0.4,0.4 0.5,0.6 0.7,1 0,0.2 0.2,0.7 0.4,0.9 0.4,0.7 1.3,1.7 1.5,1.8 0.3,0.2 0.4,0.6 0.3,1.1 -0.1,0.5 -0.2,0.6 -0.6,0.8 -0.7,0.4 -1.8,2.2 -2.1,3.3 -0.1,0.4 -0.2,0.6 -0.4,0.8 -0.3,0.3 -0.4,0.3 -0.7,0.2 z m 0.6,-4.1 0.2,-0.4 c 0.1,0 0.2,-0.1 0.3,-0.3 0.2,-0.3 0.3,-0.4 0.2,-0.7 -0.1,-0.2 -0.2,-0.4 -0.2,-0.5 l -0.2,-0.2 c 0,-0.1 -0.1,-0.2 -0.2,-0.2 -0.1,-0.1 -0.3,-0.4 -0.5,-0.8 -0.4,-1 -0.5,-0.9 -1.4,0.7 -0.2,0.3 -0.4,0.7 -0.4,0.9 -0.1,0.5 -0.1,0.5 0.9,1.6 l 0.6,0.7 0.3,-0.2 c 0.1,-0.1 0.3,-0.4 0.4,-0.6 z m -0.4,-4.5 c 0,0 -0.1,-0.1 -0.2,-0.1 -0.1,0 -0.2,0.1 -0.1,0.1 0,0.1 0.1,0.1 0.1,0.1 0,0 0.1,0 0.2,-0.1 z m -97.1,8 c -0.2,-0.2 -0.5,-1 -0.6,-1.5 0,-0.3 -0.1,-0.7 -0.2,-1 l -0.2,-0.5 h -0.4 c -0.6,0.1 -2.1,0.6 -2.1,0.7 -0.1,0.1 -0.4,0.1 -0.7,0.2 -0.4,0 -0.5,0 -0.8,-0.2 -0.2,-0.2 -0.3,-0.3 -0.3,-0.8 0,-0.3 -0.1,-0.8 -0.1,-1.1 -0.3,-1.4 -0.3,-2 -0.4,-3.5 0,-0.9 -0.1,-1.8 -0.1,-2.1 -0.2,-0.8 -0.1,-1.4 0,-1.7 0.2,-0.5 0.7,-0.4 1.1,0 0.3,0.3 0.3,0.3 0.3,1.3 0,1.7 0.2,4.6 0.3,4.9 0,0.1 0.1,0.5 0.1,0.8 0.1,0.4 0.1,0.5 0.3,0.5 0.3,0 1.2,-0.3 2,-0.6 l 0.7,-0.3 v -2 c 0,-2.2 0.2,-4.6 0.4,-4.8 0.1,-0.1 0.2,-0.1 0.5,0 0.5,0.2 0.7,0.5 0.6,1.2 -0.1,0.6 -0.1,2.8 0,3.8 v 0.7 c 0.1,1.2 0.5,3.9 0.7,4.6 0.2,0.5 0.1,1 -0.2,1.3 -0.2,0.2 -0.6,0.3 -0.9,0.1 z m 49,-0.4 c -0.1,-0.1 -0.2,-0.4 -0.2,-0.5 0,-0.2 0,-0.3 -0.3,-0.4 -0.2,-0.1 -0.4,-0.2 -0.5,-0.3 -0.2,-0.3 -0.3,-2.1 -0.1,-3.8 0,-0.5 0.1,-1.2 0.1,-1.6 0,-0.3 0,-1 -0.1,-1.5 -0.1,-0.8 -0.1,-0.8 0.1,-1.1 0.3,-0.3 0.7,-0.3 1.3,0.1 0.6,0.4 1.8,0.8 3.2,1 0.5,0.1 1,0.2 1.1,0.1 0.3,0 0.8,0.3 0.8,0.7 0.2,0.5 -0.1,0.8 -0.9,1.2 -0.4,0.2 -0.8,0.3 -0.9,0.4 -0.4,0 -0.3,0.2 0.9,1.1 1.3,0.9 1.6,1.3 1.6,1.8 0,0.5 -0.6,0.9 -1.9,1.4 -0.7,0.2 -1.4,0.4 -1.6,0.5 -0.5,0 -1,0.4 -1.6,0.8 -0.4,0.4 -0.8,0.4 -1,0.1 z m 2,-2.6 c 0.8,-0.3 1.5,-0.7 1.5,-0.8 0,-0.2 -1.5,-0.6 -2.5,-0.7 -0.2,0 -0.4,-0.1 -0.6,-0.1 -0.3,-0.1 -0.3,-0.1 -0.3,0.3 v 0.4 0.6 c 0.1,0.5 0.3,1.1 0.4,1.1 0,0 0.7,-0.4 1.5,-0.8 z m -0.6,-4.1 c 0.1,-0.1 0.2,-0.2 0.3,-0.2 h 0.3 c 0,-0.1 -1.6,-0.5 -1.6,-0.4 -0.1,0 -0.1,0.9 -0.1,1.1 0,0 1,-0.4 1.1,-0.5 z m -17.3,6.4 c -0.3,-0.1 -0.4,-0.3 -0.5,-0.7 -0.1,-0.6 -0.1,-1.1 0,-1.4 0.1,-0.1 0.1,-0.4 0,-1.1 -0.2,-1 -0.3,-2.5 -0.3,-4.5 -0.1,-2.5 -0.1,-3.2 -0.1,-4.7 0,-0.9 0,-1.7 -0.1,-2.1 -0.1,-0.8 0,-1.4 0.4,-1.6 0.1,0 0.2,-0.2 0.2,-0.3 0,-0.1 0.2,-0.3 0.3,-0.5 0.4,-0.4 0.8,-0.4 1.4,0 l 0.4,0.2 c 0.1,0 0.1,0.1 0.1,0.1 0.1,0.1 0.4,0.3 0.9,0.5 0.4,0.1 1,0.4 1.4,0.6 0.9,0.5 2.9,1.5 3,1.5 0.1,0 0.4,0.1 0.6,0.2 0.3,0.2 0.5,0.3 0.7,0.3 0.1,0 0.2,0.1 0.4,0.3 0.2,0.2 0.3,0.3 0.3,0.7 0,0.5 -0.3,0.8 -0.9,1 -0.2,0 -0.9,0.4 -1.4,0.7 -0.6,0.3 -1.1,0.6 -1.1,0.6 -0.1,0 -0.2,0 -0.3,0.2 -0.1,0.1 -0.5,0.3 -0.9,0.5 -0.5,0.3 -1.1,0.7 -1.6,1.2 -0.2,0.1 -0.4,0.3 -0.6,0.4 -0.1,0.1 -0.3,0.4 -0.3,0.5 -0.1,0.3 -0.5,0.7 -0.9,0.8 -0.3,0.2 -0.4,0.4 -0.3,1.7 0.1,0.5 0.2,1.6 0.2,2.4 0.1,0.8 0.1,1.6 0.2,1.7 0.1,0.4 0,0.7 -0.3,0.9 -0.3,0.3 -0.6,0.2 -0.9,-0.1 z m 1.8,-9.6 c 0.9,-0.9 1.3,-1.2 2.2,-1.8 1.4,-0.7 2.4,-1.3 2.4,-1.4 0,-0.1 -0.7,-0.4 -0.8,-0.4 -0.1,0 -0.2,-0.1 -0.3,-0.2 -0.1,0 -0.5,-0.2 -0.9,-0.4 -0.4,-0.1 -1.2,-0.5 -1.7,-0.8 -0.6,-0.2 -1.2,-0.5 -1.4,-0.5 -0.3,-0.1 -0.4,-0.1 -0.5,0.1 -0.1,0.4 -0.2,1.2 -0.2,3.6 -0.1,2.1 -0.1,2.7 0.1,2.7 0.1,0 0.5,-0.4 1.1,-0.9 z m 36.5,9.4 c -0.3,0 -0.4,-0.1 -0.6,-0.4 -0.2,-0.5 -1,-1.2 -1.8,-1.6 -0.2,-0.1 -0.6,-0.3 -0.8,-0.5 -0.2,-0.1 -0.5,-0.2 -0.6,-0.2 -0.2,0 -0.5,-0.3 -0.5,-0.5 0,0 0,-0.2 -0.1,-0.3 -0.1,-0.1 -0.1,-0.3 0.1,-0.9 0.1,-0.6 0.3,-0.9 1.1,-2.1 1,-1.6 1.6,-2.3 2,-2.4 0.2,0 0.3,0 0.6,0.2 0.1,0.2 0.3,0.4 0.3,0.6 0,0.1 -0.3,0.5 -0.6,0.9 -0.3,0.4 -0.5,0.7 -0.5,0.8 0,0 -0.1,0.2 -0.2,0.3 -0.1,0.2 -0.4,0.5 -0.6,0.8 -0.3,0.5 -0.3,0.5 -0.1,0.9 0.1,0.2 0.4,0.5 0.8,0.8 0.4,0.3 1.1,0.8 1.5,1.2 0.4,0.3 0.8,0.6 0.9,0.7 0.4,0.1 0.6,1.2 0.1,1.6 -0.2,0.2 -0.4,0.2 -1,0.1 z m 0.3,-0.5 c 0,-0.1 -0.1,-0.2 -0.2,-0.2 -0.1,0 -0.2,0.1 0,0.2 0.1,0.2 0.2,0.1 0.2,0 z m -3.7,-2.8 c 0.1,0 0.1,-0.1 0,-0.1 -0.1,-0.1 -0.3,0 -0.3,0.1 0,0.1 0.1,0.1 0.3,0 z m -4,2.9 c -0.3,-0.3 -0.3,-0.5 -0.2,-0.8 0.1,-0.1 0.1,-0.9 0,-1.8 -0.1,-1.3 0,-1.7 0.1,-2.2 0.1,-0.4 0.1,-1 0.1,-1.7 0,-1.3 0.2,-1.6 0.7,-1.6 0.3,0 0.9,0.6 0.9,0.8 -0.1,0.3 -0.4,3.4 -0.4,3.9 v 1 0.9 c 0,1.3 0,1.3 -0.2,1.6 -0.4,0.3 -0.7,0.3 -1,-0.1 z m -19.7,0 c -0.2,-0.2 -0.4,-0.8 -0.4,-1.2 0,-0.1 -0.1,-0.3 -0.2,-0.3 0,0 -0.1,-0.2 -0.1,-0.4 -0.1,-0.3 -0.2,-0.3 -0.4,-0.4 -0.3,-0.1 -0.5,0 -1.4,0.4 -1.1,0.5 -1.6,0.9 -1.8,1.4 -0.1,0.4 -0.5,0.6 -0.9,0.6 -0.5,-0.1 -0.6,-0.4 -0.6,-1 0,-0.3 -0.1,-0.7 -0.1,-0.9 -0.1,-0.6 -0.2,-2.1 -0.2,-3.1 0,-0.9 0,-1 0.3,-1.3 0.3,-0.5 0.5,-0.5 0.9,-0.2 0.4,0.2 0.5,0.6 0.4,0.9 -0.2,0.3 -0.2,2.6 -0.1,2.7 0,0 0.4,-0.1 0.9,-0.4 0.4,-0.2 0.9,-0.4 0.9,-0.4 0.1,0 0.4,-0.1 0.8,-0.2 0.3,-0.2 0.7,-0.3 0.9,-0.2 0.2,0 0.4,0 0.4,-0.1 0.1,0 -0.1,-1.3 -0.3,-1.4 -0.1,-0.2 -0.1,-1.1 0,-1.3 0.1,-0.2 0.3,-0.3 0.5,-0.3 0.3,-0.1 0.4,0 0.6,0.2 0.2,0.2 0.5,1.1 0.5,1.5 0,0.1 0,0.3 0.1,0.5 0,0.2 0.1,0.7 0.1,1.2 0,0.4 0.1,1.1 0.2,1.5 0.1,1.2 0.1,1.9 -0.2,2.2 -0.2,0.3 -0.6,0.3 -0.8,0 z m 12.7,-0.2 c -0.1,-0.2 -0.2,-0.4 -0.2,-0.5 0,-2.6 0.3,-5.8 0.6,-6.5 0.1,-0.3 0.5,-0.5 1,-0.5 0.3,0 0.4,0 0.5,0.3 0.2,0.4 0.2,1.4 -0.2,2.3 -0.3,0.9 -0.5,2.8 -0.3,3 0,0 0.7,0.1 1.6,0.1 1.7,0.1 1.8,0.1 2,0.8 0.3,0.8 -0.3,1.2 -1.3,1 -0.7,-0.1 -2,-0.1 -2.4,0.1 -0.4,0.2 -1,0.1 -1.3,-0.1 z m -53.5,-0.1 c -0.3,-0.1 -0.6,-0.6 -0.6,-1 v -0.8 -3.6 c 0,-1.7 -0.1,-3.4 -0.1,-3.7 -0.1,-0.8 0,-1 0.4,-1.3 0.3,-0.1 0.6,0 0.9,0.4 0.2,0.3 0.3,0.4 0.3,3.4 0,3.1 0.1,5 0.3,5.5 0.2,0.4 0,1 -0.4,1.1 -0.3,0.1 -0.5,0.1 -0.8,0 z m 0.6,-0.5 c 0,-0.1 -0.1,-0.1 -0.2,0 0,0.1 0,0.1 0.1,0.1 0.1,0 0.1,-0.1 0.1,-0.1 z m 10.3,0.4 c -0.1,0 -0.4,-0.2 -0.6,-0.3 -0.2,-0.3 -0.3,-0.5 -0.3,-0.9 -0.1,-0.5 0,-0.6 0.1,-0.7 0.3,-0.3 0.3,-0.7 0,-3.3 -0.1,-1.1 -0.2,-2.4 -0.2,-3.1 v -1.5 c -0.2,-0.3 0,-0.8 0.4,-1.1 0.4,-0.3 0.8,-0.2 1.6,0.5 1.1,1 1.6,1.4 2,1.7 l 0.8,0.4 c 0.2,0.1 0.6,0.4 0.8,0.6 0.2,0.2 0.6,0.4 0.8,0.6 0.6,0.3 0.8,0.4 0.9,0.9 0.2,0.6 0,0.9 -0.8,1.4 -0.4,0.3 -0.7,0.5 -0.8,0.5 -0.1,0.2 -0.8,1 -1.4,1.4 -1.1,0.9 -2,1.7 -2,2 0,0.4 -0.7,1.1 -1,1 -0.1,0 -0.2,0 -0.3,-0.1 z m 0.8,-1.1 c 0.1,-0.2 0.1,-0.3 0.1,-0.4 -0.1,-0.1 -0.5,0.4 -0.5,0.6 0,0.2 0.2,0.1 0.4,-0.2 z m 1.7,-3.8 c 0.7,-0.7 1.3,-1.4 1.3,-1.4 l -0.3,-0.3 c -1.2,-0.8 -1.6,-1 -2.1,-1.4 -0.3,-0.2 -0.6,-0.4 -0.7,-0.4 -0.2,0 -0.2,0.3 -0.1,1 0,0.3 0.1,1.1 0.1,1.7 0.1,1.6 0.1,2.2 0.3,2.2 0,0 0.7,-0.6 1.5,-1.4 z m 1.2,0.9 c 0,0 0,-0.1 -0.1,-0.1 0,0 -0.1,0.1 -0.1,0.2 0,0.1 0.1,0.1 0.1,0.1 0.1,0 0.1,-0.1 0.1,-0.2 z m -7.1,3.3 c -0.3,-0.1 -1.3,-0.1 -2.2,-0.2 -1.6,0 -1.8,-0.1 -2.2,-0.5 -0.1,-0.2 -0.1,-0.2 0,-0.6 v -1.5 -1.5 c 0,-0.7 0.2,-2.7 0.3,-3.1 0.1,-0.2 0.1,-0.7 0.1,-1 0,-0.6 0,-0.7 0.2,-0.9 0.2,-0.3 0.5,-0.3 0.8,-0.1 0.4,0.2 0.6,0.7 0.5,1.2 -0.1,0.3 -0.1,0.9 -0.2,1.3 0,0.4 -0.1,0.9 -0.1,1.2 -0.1,0.2 -0.1,1.1 -0.1,2.1 0,1.4 0,1.6 0.2,1.7 1,0.3 1.7,0.3 2.3,0.2 0.5,-0.1 0.7,-0.1 1,0.1 0.3,0.1 0.4,0.2 0.5,0.5 0.2,0.9 -0.2,1.2 -1.1,1.1 z"
           id="path663"
           sodipodi:nodetypes="cssssssssssssssssssssssssssccssssssssssssssssssssssssssssssssscsssssssssssssscsssssssssssssssssssssssssscssssssssssssscssssssssssssssssssssssssssssscsssssssssssssssssssssssssssscsssssssscsssssssssssssssssssssssssssssssssscssssssscsssssssssscsssscsssssssssssssssssssssssscsssssssssssssssssscssssssscsscsssssscsssscscscsssssssssssssscsssssssssssssssssssssssssssscsssscssssssscsssscsscsscscssssssssscsssssssscsscssscsssssssssssssssssssssssscsssscsscsssssssssssssssssssssssscsssssscsssssssssssssssssssssssssssscsscssccssscssssssssssssssscsssssssssssssssssssssssssssssssssscscssssscssssssssssssscssssssssscsssssssssssssssssssssssssssscssssssscsssssssssssssssssssssssscssssscssssssssssscscssssssssssssssssssscssssssscsssssssscsscssssssssssssssssssssssssscssssscsccsccsssscssssssssssssss" /></g><g
         id="g1372"
         transform="matrix(1.221,0,0,1.221,115.9,-7.733)"><path
           style="fill:#000000;stroke-width:0.0993542"
           d="m -480.2,-49.53 c -0.4,-0.2 -0.6,-0.5 -0.6,-0.9 0,-0.3 0.1,-0.4 0.3,-0.6 0.4,-0.3 1,-0.4 1.5,-0.4 1,0.1 1.4,0.1 2.5,0 0.9,-0.1 1.2,-0.2 1.3,-0.3 0,-0.1 0.1,-1.8 0.1,-3.8 v -4 c 0,-0.2 0,-0.6 -0.1,-0.8 0,-0.3 -0.1,-0.8 0,-1.2 0,-0.4 -0.1,-0.7 -0.1,-0.7 -0.1,0 -0.1,-0.2 -0.1,-0.3 0,-0.2 -0.2,-0.5 -0.4,-0.8 -0.2,-0.3 -0.4,-0.7 -0.5,-0.9 0,-0.1 -0.1,-0.4 -0.2,-0.6 -0.1,-0.2 -0.4,-0.8 -0.6,-1.3 -0.2,-0.6 -0.4,-1.2 -0.6,-1.5 -0.5,-1.3 -0.8,-2.9 -0.9,-6 0,-1.1 0,-2.7 -0.1,-3.6 0,-1.2 0,-1.8 0.1,-2.3 0.2,-0.56 0.3,-1.96 0.2,-2.06 -0.1,0 -3.7,0.4 -5,0.6 -0.4,0 -1,0.1 -1.1,0.1 -0.2,0 -0.4,0 -0.4,0.1 v 0.2 c 0,0 0.1,0.1 0.2,0.1 0.1,0 0.2,0 0.2,0.1 0.1,0.2 0.3,0.4 0.9,0.86 0.5,0.3 0.7,0.7 0.6,1.2 -0.1,0.5 -0.3,0.7 -0.8,0.8 -0.5,0.2 -0.8,0 -1.3,-0.6 -0.2,-0.3 -0.5,-0.7 -0.8,-0.9 -0.2,-0.1 -0.6,-0.5 -0.9,-0.8 l -0.4,-0.46 -0.8,0.1 c -0.8,0.1 -0.8,0.1 -1.1,-0.2 -0.4,-0.4 -0.3,-1 0.3,-1.6 0.2,-0.2 2.1,-1.6 2.2,-1.6 0,0 0.5,-0.3 1.1,-0.7 1.5,-0.9 2,-1 2.4,-0.6 0.2,0.3 0.3,0.7 0.2,1 -0.1,0.1 -0.5,0.4 -0.9,0.6 -1.3,0.6 -1.7,0.9 -1.6,0.9 0.1,0 0.7,-0.1 1.3,-0.2 0.6,-0.1 1.4,-0.2 1.9,-0.2 1.6,-0.2 3.4,-0.5 3.9,-0.7 0.3,-0.1 0.3,-0.1 0.5,-0.7 0,-0.3 0.2,-0.8 0.2,-1.2 0.1,-0.3 0.2,-0.7 0.3,-1 0.1,-0.4 0.5,-1.8 0.6,-1.9 0.1,0 0.1,-0.1 0.1,-0.2 0,-0.1 0,-0.3 0.1,-0.3 0,-0.1 0.2,-0.7 0.4,-1.3 0.2,-0.7 0.6,-1.6 0.8,-2.1 0.3,-0.4 0.5,-0.8 0.5,-0.9 0,0 -0.3,-0.5 -0.7,-1 -0.7,-0.9 -1.5,-2.3 -1.5,-2.6 0,-0.1 -0.1,-0.2 -0.1,-0.3 -0.1,0 -0.1,-0.2 -0.2,-0.4 0,-0.1 -0.1,-0.4 -0.1,-0.5 -0.1,-0.1 -0.2,-0.2 -0.2,-0.3 0,-0.6 -0.1,-1.5 -0.3,-1.91 -0.2,-0.8 -0.3,-1.5 -0.4,-2.4 v -1 c 0,-0.7 0,-3.5 0.1,-3.8 0,-0.3 0.3,-1.4 0.5,-2.5 0.4,-1.8 0.5,-2.1 1.1,-3.4 0.7,-1.6 0.8,-1.9 1,-2.4 0.2,-0.4 0.7,-1.1 1.6,-2.1 1.1,-1.1 2.3,-1.6 4.1,-1.6 1.9,-0.1 3.1,0.6 4.2,2.4 0.2,0.4 0.5,0.9 0.6,1 0.2,0.2 0.4,0.6 0.9,1.5 0.3,0.6 0.5,1.6 0.7,3.5 0.1,1 0.1,5.3 0,5.8 0,0.3 -0.1,0.8 -0.1,1.2 -0.1,0.3 -0.1,0.8 -0.2,1 -0.1,0.5 -0.3,1.8 -0.5,3.31 -0.1,0.6 -0.2,1.2 -0.3,1.4 -0.2,0.8 -0.5,1.7 -0.6,2 l -0.2,0.4 c 0,0.1 0,0.3 -0.1,0.4 -0.1,0 -0.3,0.3 -0.4,0.6 -0.1,0.2 -0.4,0.6 -0.5,0.8 -0.3,0.3 -0.3,0.4 -0.1,0.7 0,0.1 0.2,0.4 0.2,0.4 0.2,0.2 0.4,0.8 0.5,1.2 0,0 0,0.3 0.1,0.4 0,0.2 0.1,0.5 0.2,0.9 0.1,0.3 0.3,1 0.5,1.6 0.2,0.6 0.5,1.4 0.6,1.8 0.2,1.5 0.3,1.7 0.4,2.1 0.1,0.2 0.2,0.7 0.3,1.1 l 0.1,0.8 2.3,2.2 c 1.2,1.26 2.6,2.56 2.9,3.06 0.4,0.4 0.8,0.8 0.9,0.8 0.5,0.1 0.6,1.2 0.2,1.5 -0.5,0.3 -1.3,0.1 -1.4,-0.4 -0.1,-0.2 -0.3,-0.5 -0.5,-0.6 -0.2,-0.2 -0.4,-0.4 -0.5,-0.6 -0.2,-0.5 -2.4,-2.6 -3.2,-3.06 l -0.3,-0.2 v 0.46 c 0.1,0.3 0.1,0.7 0.1,0.8 0.1,0.2 0.1,0.5 0.1,0.7 0.1,0.2 0.1,1 0.1,1.9 0.2,4.1 0.1,6.9 -0.4,9 -0.2,1.1 -0.3,1.4 -0.5,1.9 -0.1,0.1 -0.2,0.4 -0.3,0.6 -0.1,0.2 -0.4,0.6 -0.7,1 l -0.5,0.7 0.1,0.8 c 0,0.4 0,0.9 0.1,1.1 0.1,0.5 0.1,0.8 0,4.7 0,3.3 0.1,4.2 0.4,5.3 0.2,0.7 0.2,0.9 -0.2,1 -0.1,0.1 -0.2,0.2 -0.1,0.2 0,0.1 0,0.1 -1.5,0.2 -1.3,0 -2.5,0.2 -2.9,0.3 -0.3,0.2 -1,0.2 -1.1,0.1 0,-0.1 -0.2,-0.2 -0.3,-0.2 -0.5,-0.1 -0.6,-0.3 -0.6,-0.7 0,-0.5 0.2,-0.8 0.6,-0.8 0.1,0 0.3,-0.1 0.3,-0.2 0.1,-0.3 0.4,-0.4 0.5,-0.2 0,0.2 0.2,0.2 0.8,0.1 0.4,0 0.8,-0.1 1,-0.1 1.3,-0.1 1.6,-0.2 1.7,-0.3 0.1,-0.1 0.2,-1 0.1,-1.8 -0.1,-0.3 -0.1,-3 -0.1,-3.7 0.1,-0.8 0,-4.4 0,-4.5 l -0.1,-0.3 -0.4,0.3 c -0.5,0.3 -1.4,0.6 -2.3,0.7 -0.8,0.2 -2.1,0.2 -2.5,0 -0.2,0 -1.4,-0.3 -1.7,-0.3 -0.1,0 -0.2,0.2 -0.3,0.4 -0.1,0.4 -0.1,0.7 -0.1,1.6 0,0.6 0.1,2.5 0.2,4.2 0,2.2 0.1,3.3 0.2,3.8 0.2,0.7 0.2,0.8 0,1 -0.2,0.4 -0.5,0.5 -1.7,0.6 -2.7,0.2 -3.1,0.2 -3.5,0.3 -0.6,0.1 -1.3,0.2 -1.5,0.1 z m 11.6,-13.2 c 0.5,-0.1 1.1,-0.4 1.2,-0.5 1.2,-1.1 1.7,-1.7 2,-2.6 l 0.2,-0.2 c 0.1,0 0.1,-0.2 0.2,-0.5 0,-0.2 0.1,-0.6 0.2,-0.9 0.6,-2.3 0.6,-8.6 0,-12.1 -0.1,-0.96 -0.2,-1.96 -0.3,-2.36 -0.1,-1.4 -0.2,-1.7 -0.5,-2.5 -0.1,-0.5 -0.3,-1.2 -0.4,-1.6 0,-0.3 -0.2,-0.9 -0.3,-1.1 -0.1,-0.3 -0.2,-0.9 -0.4,-1.3 -0.4,-1.5 -0.7,-2.2 -1,-2.8 -0.1,-0.3 -0.3,-0.6 -0.3,-0.7 0,-0.1 -0.1,-0.2 -0.2,-0.4 -0.1,-0.2 -0.2,-0.2 -0.4,-0.1 -1.2,0.6 -2.2,0.7 -3.8,0.4 -1.1,-0.2 -1.2,-0.2 -1.3,0 -0.1,0.1 -0.1,0.2 -0.1,0.3 0,0 -0.2,0.4 -0.4,0.7 -0.2,0.4 -0.6,1.3 -0.9,2.2 -0.2,0.8 -0.6,1.8 -0.7,2.2 -0.1,0.3 -0.3,0.8 -0.3,1.1 -0.1,0.2 -0.2,0.9 -0.4,1.4 -0.5,2.3 -0.8,5.06 -0.8,7.86 v 2.3 c 0.1,0 0.1,0.6 0.1,1.3 0,2.5 0.3,3.5 1.5,6.5 0.1,0.4 0.3,0.8 0.3,0.9 0,0.3 0.7,1.5 1,1.6 0.1,0.1 0.3,0.3 0.5,0.4 0.4,0.4 1.2,0.7 2,0.8 0.4,0 0.7,0.1 0.7,0.1 0.2,0.1 1.8,-0.1 2.6,-0.4 z m -15.6,-15.5 c -0.1,-0.1 -0.2,0 -0.1,0.2 0.1,0.1 0.1,0.1 0.1,0 z m -0.6,-0.7 c -0.1,-0.1 -0.1,-0.1 -0.2,-0.1 v 0.1 c 0.1,0.1 0.2,0.1 0.2,0.1 z m 14.6,-14.46 c 0.7,-0.1 1.5,-0.5 2,-1 0.5,-0.4 1.3,-1.6 1.3,-1.9 0,0 0.1,-0.1 0.1,-0.2 0.1,0 0.3,-0.5 0.4,-1.1 0.3,-0.9 0.5,-1.9 0.7,-3.01 0,-0.1 0.1,-0.7 0.2,-1.2 0.3,-2.2 0.4,-2.9 0.4,-3.9 0,-0.6 0.1,-1.5 0.1,-1.9 0.1,-0.4 0,-1.1 -0.1,-1.9 0,-0.7 -0.1,-1.5 -0.1,-1.8 -0.1,-1.3 -0.8,-3.2 -1.3,-3.6 l -0.2,-0.2 c 0,-0.1 -0.1,-0.2 -0.3,-0.3 -0.1,-0.1 -0.3,-0.3 -0.3,-0.4 0,-0.2 -0.7,-1 -1.1,-1.3 -0.2,-0.1 -0.6,-0.2 -1,-0.3 -0.5,-0.2 -0.7,-0.2 -1.3,0 -0.9,0.1 -1.3,0.3 -1.9,0.8 -0.6,0.5 -1.8,2 -1.9,2.5 -0.1,0.2 -0.2,0.4 -0.3,0.5 -0.1,0.1 -0.1,0.2 -0.1,0.2 0,0.1 -0.1,0.3 -0.3,0.6 -0.2,0.5 -0.4,1.1 -0.5,1.4 0,0 -0.1,0.3 -0.2,0.5 -0.1,0.2 -0.2,0.6 -0.2,0.9 0,0.3 -0.1,0.6 -0.1,0.6 -0.1,0.1 -0.1,0.3 -0.2,0.6 0,0.3 -0.1,0.9 -0.2,1.3 -0.2,0.9 -0.3,2.6 -0.2,3.1 0.1,0.1 0.1,0.8 0.1,1.3 0,0.6 0.1,1.4 0.1,1.6 0.1,0.3 0.2,0.8 0.2,1.1 0.1,0.3 0.2,0.61 0.2,0.81 0.1,0.2 0.1,0.3 0,0.5 -0.1,0.2 -0.1,0.3 0.1,0.9 0.1,0.4 0.3,0.8 0.3,0.9 0.1,0.1 0.2,0.3 0.2,0.4 0,0.2 0.5,1.1 0.9,1.8 0.5,0.8 1.4,1.5 1.8,1.6 0.2,0 0.5,0.1 0.7,0.1 0.4,0.2 1.3,0.2 2,0 z m -2,-2.8 c -0.8,-0.3 -1.4,-0.7 -1.6,-1 -0.1,-0.2 -0.2,-0.5 -0.4,-0.7 -0.1,-0.1 -0.2,-0.3 -0.2,-0.4 0,-0.1 -0.1,-0.3 -0.1,-0.4 -0.1,-0.2 -0.3,-2.31 -0.3,-3.11 0,-0.3 0,-0.4 0.3,-0.6 0.4,-0.3 0.6,-0.2 0.9,0 l 0.3,0.3 v 1.4 c 0,1.31 0,1.41 0.2,1.81 0.3,0.5 0.8,1 1.2,1.2 0.6,0.2 2.1,-0.2 2.5,-0.7 0.2,-0.3 0.4,-1.4 0.4,-1.4 l 0.2,-0.41 0.1,-0.5 c 0,0 0.3,-1.3 0.5,-1.2 0.1,0 0.2,0 0.3,0.1 0.2,0.1 0.3,0.1 0.4,0.1 0.2,0 0.1,2.11 0,2.71 -0.2,0.9 -0.4,1.2 -1,1.8 -0.6,0.6 -1,0.8 -1.8,1 -0.7,0.2 -1.3,0.2 -1.9,0 z m 3,-9.91 c -0.3,-0.2 -0.6,-0.7 -0.9,-1.6 -0.1,-0.6 -0.2,-0.7 -0.1,-1.1 0.2,-0.7 0,-0.7 0.6,-0.8 0.3,-0.1 0.9,0.5 0.7,1 -0.1,0.4 -0.1,0.8 0.1,1 0,0.1 0.1,0.1 0.3,0 0.4,-0.2 1.2,-0.2 0.9,-1.1 0,-1.1 0.3,-1.3 0.7,-1.3 0.6,0 0.7,0.3 0.6,2 -0.1,0.6 -0.2,0.7 -0.6,1.1 -0.3,0.3 -0.5,0.5 -0.5,0.6 0,0.1 0,0.1 -0.1,0.1 0,0 -0.2,0.1 -0.4,0.1 -0.6,0.2 -1.1,0.2 -1.3,0 z m -4.5,-0.5 c -0.9,-0.5 -1.1,-0.7 -1.3,-1.9 -0.2,-1 -0.1,-1.3 0.2,-1.5 0.5,-0.3 0.8,0 0.9,1.1 0.2,1.5 1.5,1.5 1.5,-0.1 0,-0.4 0.2,-0.6 0.6,-0.6 0.5,0 0.9,0.4 0.8,0.9 -0.1,0.6 -0.7,1.8 -1.1,2.1 -0.4,0.3 -1,0.3 -1.6,0 z"
           id="path661"
           sodipodi:nodetypes="sssssssssscssssscssssssscsssssssscssscsssssssssssssssscssssssssssssssssssssssssssssssccsssssscsssssssscsssssssscsssssssssssssssssssscssssssssssssssssssscssscsssssscsssscscsssssscsssssssscssscsssssssssssssssssscscsscssssssssssssssssssssssscsssscccssssssssssssssccssscsssssssssss" /></g><g
         id="g1378"><path
           style="fill:none;stroke:#000000;stroke-width:3;stroke-linejoin:round;stroke-dasharray:none;stroke-dashoffset:0;stroke-opacity:1"
           id="rect813"
           width="150"
           height="75.49"
           x="-659.8"
           y="-163.4"
           inkscape:path-effect="#path-effect1369"
           d="m -659.6,-163.2 6.4,-0.5 7.6,0.2 6.1,-0.3 6.8,-0.1 7,0 7,0.1 6.4,-0.2 7.3,0.1 6.6,0.1 6.9,0.1 6.7,0 6.8,0 6.6,-0.5 6.9,-0.3 7.3,0.2 6.5,0.1 6.8,0.2 6.9,0.1 7.6,0.2 5.9,-0.6 7,0.5 6.7,0.4 0.5,7.1 0,6.6 -0.1,6.9 -0.1,6.7 -0.1,6.9 -0.1,6.6 -0.1,7.2 0,6.9 -0.1,6.4 0.6,7.5 -0.4,6.8 -6.6,0.17 -6.5,0 -7.5,-0.33 -6.5,0.1 -7.2,-0.72 -6.6,0.1 -6.5,0 -7.3,-0.13 -6.4,0.22 -7.2,-0.1 -6.8,0 -7,-0.57 -6.7,-0.15 -6.9,-0.37 -6.7,-0.19 -6.9,-0.48 -6.8,0 -6.8,0.46 -6,0.59 -7.3,0.47 -7.2,-0.53 -6.7,1.18 0.2,-6.72 -0.1,-7.04 0.4,-6.7 0,-7 0.3,-6.7 -0.1,-7 -0.3,-7.1 0.1,-6.5 -0.1,-6.9 0,-6.8 z"
           sodipodi:type="rect" /></g></g></g></svg>
