<?xml version="1.0" encoding="UTF-8" standalone="no"?>
<!-- Created with Inkscape (http://www.inkscape.org/) -->

<svg
   width="193.9mm"
   height="81.88mm"
   viewBox="0 0 193.9 81.88"
   version="1.1"
   id="svg5"
   xml:space="preserve"
   inkscape:version="1.2.2 (b0a8486541, 2022-12-01)"
   sodipodi:docname="what-contents.svg"
   xmlns:inkscape="http://www.inkscape.org/namespaces/inkscape"
   xmlns:sodipodi="http://sodipodi.sourceforge.net/DTD/sodipodi-0.dtd"
   xmlns="http://www.w3.org/2000/svg"
   xmlns:svg="http://www.w3.org/2000/svg"><sodipodi:namedview
     id="namedview7"
     pagecolor="#ffffff"
     bordercolor="#000000"
     borderopacity="0.25"
     inkscape:showpageshadow="2"
     inkscape:pageopacity="0.0"
     inkscape:pagecheckerboard="0"
     inkscape:deskcolor="#d1d1d1"
     inkscape:document-units="mm"
     showgrid="false"
     inkscape:zoom="0.3536"
     inkscape:cx="-1335"
     inkscape:cy="268.7"
     inkscape:window-width="1920"
     inkscape:window-height="1011"
     inkscape:window-x="0"
     inkscape:window-y="0"
     inkscape:window-maximized="1"
     inkscape:current-layer="layer1"><inkscape:grid
       type="xygrid"
       id="grid5279" /></sodipodi:namedview><defs
     id="defs2" /><g
     inkscape:label="Layer 1"
     inkscape:groupmode="layer"
     id="layer1"
     transform="translate(567.5,91.8)"><g
       id="g1552"
       transform="translate(103.3,-54.13)"
       inkscape:export-filename="../../../../vgn2.svg"
       inkscape:export-xdpi="96"
       inkscape:export-ydpi="96"><g
         id="g1539"><path
           style="fill:#000000;stroke-width:0.0993542"
           d="m -639.2,-10.4 c -0.4,-0.1 -1.1,-1 -1.2,-1.5 -0.1,-0.2 0,-0.3 0.2,-0.6 0.3,-0.4 0.3,-0.4 0.3,-1.3 0,-0.5 0,-1.6 -0.1,-2.5 0,-0.9 -0.1,-2.4 -0.1,-3.41 0,-0.9 0,-1.8 -0.1,-2 v -0.4 c 0.1,0 0.2,-0.7 0.2,-1.4 0.1,-1.8 0.1,-1.8 0,-2.6 -0.1,-0.7 -0.1,-0.7 0.2,-1 0.5,-0.4 0.9,-0.4 1.3,0.1 0.1,0.2 0.3,0.4 0.4,0.4 0.1,0.1 0.2,0.3 0.3,0.5 0.1,0.2 0.3,0.5 0.5,0.6 0.1,0 0.2,0.2 0.2,0.2 0,0.1 0.3,0.4 0.5,0.6 1.9,1.7 3.7,3.5 4.1,4 0.1,0.2 0.5,0.6 0.8,0.9 0.9,1.01 0.9,1.51 0,1.91 -0.1,0.1 -0.4,0.3 -0.6,0.4 -0.4,0.4 -0.6,0.5 -1.5,1.1 -0.4,0.2 -0.8,0.5 -0.9,0.6 -0.1,0.2 -0.4,0.4 -0.7,0.6 -0.7,0.5 -3,2.7 -3,2.9 0,0.1 0.1,0.2 0.3,0.2 0.4,0.2 0.6,0.5 0.6,0.7 -0.1,0.1 -0.3,0.3 -0.5,0.4 -0.2,0.1 -0.4,0.3 -0.5,0.5 -0.3,0.2 -0.3,0.2 -0.7,0.1 z m 0.5,-0.7 v -0.1 l -0.1,0.1 v 0.1 c 0.1,0 0.1,0 0.1,-0.1 z m 1.1,-4.4 c 1,-1 2.4,-2.2 2.6,-2.2 0,0 0.2,0 0.2,-0.1 0.1,0 0.5,-0.4 0.9,-0.7 0.4,-0.3 0.7,-0.6 0.7,-0.71 0,-0.2 -0.4,-0.6 -1.4,-1.6 l -1.3,-1.3 c -0.1,-0.1 -0.7,-0.6 -1.3,-1.1 -0.8,-0.7 -1.1,-1 -1.2,-0.9 -0.2,0.4 -0.3,2.6 -0.2,5.31 0,2.8 0.1,3.9 0.2,3.9 0.1,0 0.4,-0.3 0.8,-0.6 z m 1.4,0.5 c 0.1,-0.1 0,-0.2 -0.2,0 v 0.1 c 0.1,0 0.1,0 0.2,-0.1 z m -5.8,3.4 c -0.1,0 -0.4,-0.3 -0.6,-0.7 -0.5,-0.7 -0.6,-0.7 -0.5,-1.2 0.1,-0.4 0,-0.6 -0.3,-1.4 -0.3,-0.6 -0.4,-1.1 -0.4,-1.1 0,-0.1 -0.1,-0.3 -0.2,-0.5 -0.4,-1 -0.4,-1 -0.8,-0.4 -0.3,0.6 -2.7,2.9 -3,3.1 -0.2,0 -0.5,0.2 -0.6,0.4 -0.1,0.1 -0.3,0.3 -0.5,0.3 -0.1,0.1 -0.2,0.2 -0.3,0.2 -0.3,0.2 -0.9,0 -1.1,-0.4 -0.2,-0.3 -0.2,-0.4 -0.1,-0.7 0.1,-0.3 0.2,-0.5 0.3,-0.7 0.1,-0.3 0.4,-1.2 0.6,-2.3 0.1,-0.5 0.2,-1.2 0.3,-1.6 0.1,-0.4 0.2,-0.91 0.3,-1.11 0.1,-0.3 0.1,-0.6 0.2,-0.7 0.1,-0.7 0.3,-2 0.4,-2.4 0.1,-0.6 0.3,-2 0.3,-2.5 0,-1.1 0.9,-1.7 1.7,-1 0.4,0.2 0.5,0.5 0.7,1.7 0.2,0.8 0.4,1.6 0.7,2.2 0,0.2 0.1,0.4 0.1,0.5 0,0.1 0.1,0.4 0.3,0.6 0.1,0.2 0.3,0.8 0.5,1.3 0.1,0.4 0.3,0.91 0.4,1.01 0,0.1 0.1,0.5 0.2,0.8 0.1,0.2 0.2,0.5 0.3,0.6 0,0.1 0.2,0.6 0.4,1.1 0.3,0.6 0.5,1.2 0.6,1.4 0.1,0.1 0.2,0.3 0.2,0.4 v 0.3 c 0.2,0.1 0.8,2.1 0.8,2.3 0,0.1 -0.1,0.3 -0.2,0.4 -0.3,0.2 -0.4,0.2 -0.7,0.1 z m -5.5,-4.6 c 0.6,-0.6 1.3,-1.7 1.6,-2.2 0,-0.2 0.2,-0.4 0.4,-0.6 0.3,-0.31 0.3,-0.31 0.1,-0.71 -0.2,-0.9 -1.2,-2.7 -1.3,-2.7 -0.1,0 -0.1,0.2 -0.1,0.4 -0.1,0.6 -0.4,2.1 -0.6,2.7 0,0.21 -0.2,0.71 -0.2,1.11 -0.2,0.9 -0.2,0.9 -0.3,1.3 -0.1,0.4 -0.2,1.2 -0.1,1.2 0,0 0.3,-0.2 0.5,-0.5 z m 17.3,4.3 c -0.3,-0.1 -0.5,-0.5 -0.5,-0.9 0,-0.3 0.2,-0.5 1.5,-1.8 0.8,-0.8 1.9,-1.9 2.4,-2.3 l 0.9,-0.8 -0.3,-0.5 c -0.5,-0.7 -1.9,-1.81 -2.6,-2.11 -0.5,-0.2 -0.8,-0.7 -0.8,-1.1 0,-0.2 0.1,-0.4 0.7,-1.1 1.3,-1.3 2,-2.1 2.2,-2.5 0.7,-1.2 2.1,-2.7 2.6,-2.8 0.3,-0.1 0.7,0.1 0.8,0.5 0.1,0.4 0,0.7 -0.7,1.5 -0.3,0.3 -0.7,0.7 -0.8,0.9 -0.3,0.4 -0.4,0.6 -1.2,1.6 -0.3,0.2 -0.6,0.6 -0.7,0.8 -0.2,0.3 -0.4,0.5 -0.5,0.6 -0.3,0.3 -0.3,0.4 0,0.6 0.1,0.2 0.6,0.6 1,1.1 0.4,0.5 1.1,1.21 1.5,1.61 0.7,0.7 0.9,1 0.7,1.4 0,0.2 -0.5,0.7 -1.1,1.1 -0.5,0.4 -1.3,1 -1.6,1.4 -0.3,0.3 -0.8,0.8 -1.1,1 -0.4,0.3 -0.5,0.5 -0.5,0.7 0.1,0.7 -1.1,1.4 -1.9,1.1 z m -39.5,-0.5 c 0,-0.1 -0.1,-0.4 0,-0.5 0.1,-0.4 0.1,-0.8 0,-1.5 -0.2,-0.7 -0.5,-2.5 -0.5,-3.2 -0.3,-2.21 -0.4,-4.61 -0.3,-4.71 0.1,0 0.1,-0.2 0,-0.5 -0.1,-0.7 -0.1,-2.5 0,-3.3 0.1,-0.6 0.1,-0.7 -0.1,-1.1 -0.4,-0.9 -0.1,-1.7 0.7,-1.8 0.4,-0.1 0.4,-0.1 0.7,0.4 l 0.4,0.4 0.4,0.4 c 0.4,0.3 2.4,1.4 3.3,1.7 0.7,0.3 1.3,0.8 2.3,1.6 0.4,0.4 0.8,0.7 0.9,0.7 0.1,0 0.5,0.4 0.5,0.8 0.1,0.4 -0.2,0.8 -0.6,0.9 -0.2,0.1 -0.4,0.2 -0.5,0.3 -0.2,0.2 -1.4,1.2 -1.5,1.2 -0.1,0.1 0.2,1.1 0.5,1.71 0.5,1.2 1,2.3 1.5,3.3 0.3,0.6 0.6,1.2 0.6,1.3 0,0.3 -0.4,0.7 -0.7,0.7 -0.3,0 -0.8,-0.4 -0.9,-0.7 0,-0.1 -0.3,-0.8 -0.7,-1.5 -0.6,-1.3 -1.1,-2.4 -1.4,-3.2 -0.2,-0.41 -0.2,-0.41 -0.4,-0.31 -0.6,0.51 -1.2,1.21 -1.6,1.71 -0.2,0.3 -0.4,0.5 -0.5,0.5 l -0.2,0.4 c -0.2,0.4 -0.5,0.6 -0.7,0.6 -0.2,0 -0.2,0.1 -0.1,0.8 0,0.3 0.1,0.9 0.1,1.1 0.1,0.5 0.1,1.2 0,1.6 -0.1,0.2 -0.3,0.4 -0.7,0.4 -0.3,0.1 -0.4,0.1 -0.5,-0.2 z m 0.8,-0.2 c 0,-0.1 -0.1,-0.2 -0.3,-0.1 -0.1,0 0,0.2 0.1,0.2 0.1,0 0.1,0 0.2,-0.1 z m 6.9,-1.3 c 0.1,-0.1 0.1,-0.2 -0.1,-0.2 -0.1,0 -0.1,0.1 -0.1,0.2 v 0.1 c 0,0 0.1,0 0.2,-0.1 z m -6.7,-4.1 c -0.1,-0.2 0.5,-0.8 1.7,-2.11 0.8,-0.8 1.7,-1.6 2,-1.8 0.3,-0.2 0.8,-0.6 1,-0.8 l 0.5,-0.5 -0.4,-0.4 c -0.3,-0.2 -0.5,-0.4 -0.5,-0.4 0,0 -0.2,-0.1 -0.3,-0.2 -0.2,-0.2 -0.7,-0.5 -1.3,-0.7 -0.5,-0.3 -1,-0.6 -1.1,-0.6 -0.3,-0.2 -0.8,-0.4 -0.9,-0.4 -0.1,0 -0.4,-0.2 -0.8,-0.4 l -0.6,-0.3 v 0.4 c 0,0.2 0,0.5 -0.1,0.7 v 0.8 c 0,0.3 0,0.5 -0.1,0.6 v 0.4 c 0.1,0.1 0.2,0.7 0.2,1.2 0,0.6 0.1,1.4 0.1,1.8 0.3,1.81 0.3,2.31 0.3,2.61 0,0.2 0.1,0.5 0.1,0.6 0,0.3 0.1,0.3 0.2,-0.1 0,-0.1 0.1,-0.3 0,-0.4 z m -0.5,-9.31 h -0.3 l -0.3,0.1 h 0.2 c 0.3,0.1 0.5,0 0.4,-0.1 z m 57.1,14.91 c -0.3,-0.3 -0.4,-0.4 -0.4,-0.9 -0.1,-0.4 -0.1,-0.5 0.2,-0.6 0.4,-0.2 1.1,-0.2 1.3,-0.1 0.1,0 0.2,0.3 0.3,0.5 0.4,0.8 0.2,1.2 -0.7,1.3 -0.3,0.1 -0.4,0.1 -0.7,-0.2 z m -43.3,-0.5 c -0.2,-0.1 -0.4,-0.2 -0.4,-0.3 0,-0.1 0,-0.2 -0.1,-0.3 -0.1,0 -0.2,-0.1 -0.1,-0.3 0,-0.1 0,-0.3 -0.3,-0.7 l -0.4,-0.6 c 0,-0.1 -1,-1.4 -1.2,-1.6 -0.1,0 -0.1,-0.1 -0.1,-0.2 0,0 -0.3,-0.3 -0.7,-0.6 -0.5,-0.5 -0.9,-0.8 -1.9,-1.2 -0.4,-0.2 -0.6,-0.71 -0.6,-1.01 0.1,-0.2 0.3,-0.5 0.4,-0.7 0.2,-0.2 0.4,-0.5 0.4,-0.6 0.2,-0.5 1,-2.3 1.3,-2.8 0.2,-0.2 0.4,-0.5 0.5,-0.8 0.5,-0.8 1.1,-1.7 1.4,-2.1 0.2,-0.2 0.3,-0.4 0.3,-0.4 0,-0.2 0.9,-1.1 1.1,-1.1 0.4,0 1,0.9 1.3,1.9 0.1,0.3 0.3,0.7 0.4,0.9 0.2,0.1 0.3,0.3 0.2,0.4 0,0.2 0.2,0.6 0.9,2 0.2,0.5 0.4,1 0.4,1.1 0,0.2 0.7,1.5 1,1.8 0.3,0.4 0.5,1.21 0.3,1.51 -0.1,0.1 -0.2,0.3 -0.4,0.4 -0.5,0.5 -0.8,1 -1.6,2.6 -0.5,0.9 -0.8,1.7 -0.8,1.9 0,0.3 -0.3,0.8 -0.5,0.9 -0.1,0 -0.2,0 -0.3,0.1 -0.1,0 -0.4,-0.1 -0.5,-0.2 z m 0.6,-3.6 c 0.3,-0.5 0.7,-1.2 0.9,-1.6 0.4,-0.6 0.5,-0.8 0.5,-1 -0.1,-0.31 -0.5,-1.31 -0.7,-1.91 -0.1,-0.1 -0.2,-0.5 -0.3,-0.7 0,-0.2 -0.1,-0.4 -0.2,-0.5 0,0 -0.1,-0.3 -0.3,-0.6 -0.1,-0.4 -0.3,-0.7 -0.4,-0.8 -0.1,-0.1 -0.2,-0.3 -0.2,-0.4 0,-0.2 -0.4,-1.1 -0.6,-1.3 -0.1,-0.1 -0.2,0 -0.5,0.3 -0.2,0.3 -0.4,0.5 -0.4,0.7 0,0.1 -0.1,0.2 -0.2,0.2 0,0 -0.1,0 -0.1,0.1 0,0 -0.1,0.4 -0.3,0.7 -0.2,0.3 -0.6,1 -0.8,1.4 -0.2,0.5 -0.5,1 -0.6,1.3 -0.3,0.6 -0.3,0.7 -0.1,0.8 0.3,0.1 2.8,2.61 3.3,3.41 0.2,0.4 0.5,0.7 0.5,0.7 0.1,0 0.3,-0.4 0.5,-0.8 z m 41.7,-1.3 c -0.2,0 -0.2,-0.2 -0.3,-0.6 -0.1,-0.4 -0.2,-0.7 -0.3,-0.81 -0.1,-0.1 -0.1,-0.2 -0.1,-0.3 l -0.2,-0.4 c -0.2,-0.2 -0.4,-0.6 -0.5,-0.9 -0.5,-0.9 -0.5,-0.9 -1,-1.4 -0.3,-0.3 -0.3,-0.4 -0.3,-0.7 0.1,-0.2 0.1,-0.5 0.1,-0.6 0,-0.1 0.1,-0.2 0.4,-0.3 0.3,-0.1 0.6,-0.4 0.9,-0.5 1.6,-1.2 2.1,-1.5 3.4,-2.1 l 1.8,-0.9 c 0.7,-0.1 1.2,-0.4 1.2,-0.5 0,-0.1 -0.1,-0.2 -0.2,-0.3 -0.1,-0.1 -0.3,-0.4 -0.4,-0.6 -0.1,-0.3 -0.5,-0.9 -1,-1.4 -0.4,-0.5 -0.8,-1 -1,-1.2 -0.1,-0.2 -0.4,-0.4 -0.5,-0.4 -0.1,0 -0.1,0 -0.1,-0.1 0.1,-0.2 -0.2,-0.6 -0.8,-1.2 -0.2,-0.2 -0.5,-0.6 -0.7,-0.8 -0.4,-0.6 -0.9,-1.1 -1,-1 -0.1,0 -0.3,0.3 -0.5,0.6 -0.1,0.3 -0.4,0.8 -0.6,1 -0.1,0.2 -0.4,0.6 -0.5,0.8 -0.2,0.3 -0.5,0.7 -0.7,1 -0.2,0.3 -0.5,0.7 -0.5,0.8 -0.1,0.1 -0.2,0.4 -0.4,0.6 -0.2,0.2 -0.3,0.4 -0.3,0.5 0,0.2 -1,0.4 -1.1,0.2 -0.1,0 -0.2,-0.1 -0.3,-0.1 -0.1,0 -0.2,-0.1 -0.2,-0.3 -0.1,-0.5 0,-0.7 0.7,-1.6 0.8,-1 2.1,-2.8 2.2,-3.1 0,-0.1 0.3,-0.6 0.5,-1.1 0.3,-0.5 0.4,-0.9 0.4,-1 l 0.2,-0.4 c 0.2,-0.6 0.8,-0.9 1.5,-0.7 0.4,0.1 0.7,0.4 0.6,0.6 0,0.1 0,0.3 0.1,0.4 0.1,0.4 1.4,2.3 2.2,3.4 0.3,0.3 0.5,0.5 0.5,0.6 0.4,0.4 1.1,1.3 1.3,1.5 0.1,0.2 0.3,0.4 0.3,0.6 0.2,0.2 1.5,1.9 2.1,2.4 0.4,0.5 0.5,0.6 0.3,1.1 -0.2,0.4 -0.6,0.7 -0.9,0.7 -0.3,0 -2.5,0.9 -3.7,1.5 -1.5,0.8 -1.7,0.9 -2.5,1.4 -0.5,0.4 -0.5,0.4 -0.5,0.8 0.2,0.7 1.3,3.2 1.5,3.2 0,0 0.2,0.1 0.3,0.41 0.1,0.3 0.2,0.4 0.1,0.7 -0.3,0.5 -0.9,0.8 -1.5,0.5 z"
           id="path659"
           sodipodi:nodetypes="ssssssssssssssscsssssssssssssssccssscsssssssssssssssssscsssssssssssssssssssssssssssssssssssssssscssssscssssssssssssssssssssssssssssssscsssssssssssssssssssssssssssssssscssssscscssssscssssssssssssccsssssssssssssssscsssssssscssssssssssssssssssscssssssccssssscsssscsssssssscsssssssssssssssssssssssssssssssssssssscsss" /></g><g
         id="g1536"><path
           style="fill:#000000;stroke-width:0.0993542"
           d="m -548.4,0.6558 c -0.3,-0.3 -0.3,-0.7 -0.1,-1.1 0,-0.1 0.3,-0.5 0.5,-0.8998 0.9,-1.6 2.5,-3.89 3.1,-4.39 0.2,-0.1 0.5,-0.4 0.6,-0.6 l 0.2,-0.3 -0.2,-0.3 -0.5,-0.5 c -0.3,-0.1 -2.5,-1.7 -2.8,-2 -0.1,-0.1 -0.2,-0.2 -0.3,-0.2 l -0.3,-0.3 -0.6,-0.296 c -0.1,0 -0.4,-0.2 -0.6,-0.4 -0.3,-0.3 -0.4,-0.4 -0.3,-0.6 0.1,-0.4 0.1,-0.5 1.3,-1.9 1.6,-1.8 2.5,-2.7 4,-3.8 0.7,-0.5 1.4,-0.2 1.4,0.6 0,0.4 0,0.5 -0.5,0.8 -0.3,0.3 -0.7,0.6 -0.9,0.9 -0.3,0.2 -0.5,0.4 -0.6,0.4 -0.1,0 -2.2,2.2 -2.4,2.5 -0.1,0.3 0,0.5 0.9,1.3 0.3,0.2 0.8,0.596 1.1,0.896 0.3,0.2 0.6,0.5 0.8,0.6 0.1,0 0.5,0.3 0.8,0.6 0.4,0.4 0.8,0.6 1,0.7 0.4,0.1 0.5,0.1 0.6,0.4 0.4,0.7 0.2,0.9 -1.1,2.2 -0.5,0.49 -1.1,1.19 -1.3,1.39 -0.9,1 -2.3,3.2998 -2.3,3.6998 0,0.8 -0.9,1.2002 -1.5,0.6 z m 67.8,0 c -0.6,-0.2 -0.7,-0.3 -0.7,-0.8 0,-0.6 0.2,-0.9998 0.6,-1.0998 0.4,-0.1 0.8,-0.1 1.1,0.2 0.6,0.3998 0.4,1.2998 -0.4,1.5998 -0.2,0.1 -0.3,0.2 -0.3,0.2 0,0 -0.2,0 -0.3,-0.1 z m -20.6,-1.4 c -0.3,0 -0.4,-0.1 -0.8,-0.7998 -0.3,-0.6 -1.2,-1.5 -1.9,-1.8 -0.1,-0.1 -0.5,-0.3 -0.8,-0.5 -0.7,-0.4 -2,-0.9 -2.8,-1 -0.8,-0.1 -1.2,-0.79 -0.9,-1.49 0.1,-0.2 0.2,-0.5 0.2,-0.7 0.2,-0.8 1.5,-3.996 1.9,-4.596 0.2,-0.1 0.3,-0.3 0.3,-0.4 0,0 0.2,-0.5 0.6,-1.1 0.3,-0.5 0.6,-1.1 0.7,-1.3 0.2,-0.6 0.8,-1.4 1.2,-1.5 0.5,-0.3 1,0 1.1,0.6 0.1,0.3 0,0.4 -0.3,0.8 -0.2,0.2 -0.4,0.6 -0.6,0.9 -0.2,0.3 -0.5,0.7 -0.6,0.8 -0.1,0.1 -0.4,0.5 -0.5,0.8 -0.2,0.4 -0.4,0.7 -0.5,0.8 -0.1,0.1 -0.3,0.4 -0.4,0.7 -0.1,0.2 -0.3,0.5 -0.4,0.596 -0.6,1.2 -0.7,1.6 -0.8,2.8 v 0.7 l 0.6,0.4 c 0.7,0.4 1.5,0.8 1.7,0.8 0.1,0 0.4,0.29 0.8,0.49 0.4,0.3 0.8,0.5 0.9,0.5 0,0 0.1,-0.5 0.1,-1.49 v -1.4 l -0.5,-0.1 c -0.6,-0.2 -0.8,-0.4 -1,-0.7 -0.3,-0.6 0,-1 1,-1.1 0.3,0 0.8,0 1.1,-0.1 0.6,0 0.6,0 0.9,0.2 0.3,0.3 0.4,0.6 0.1,2.2 -0.1,0.5 -0.1,0.9 -0.1,0.9 0,0.1 0.1,0.5 0.1,1.09 0,0.6 0.2,1.4 0.3,1.9 0.4,1.4 0.4,1.5 0.1,1.8998 -0.2,0.2 -0.3,0.3 -0.4,0.3 -0.1,0 -0.2,0 -0.4,-0.1 z m -33.2,-0.2998 c -0.1,-0.1 -0.3,-0.5 -0.5,-0.8 -0.1,-0.3 -0.4,-0.7 -0.5,-0.8 -0.2,-0.1 -0.4,-0.4 -0.6,-0.6 -0.4,-0.6 -1.2,-1.6 -1.6,-1.89 -0.4,-0.5 -1.2,-1.3 -1.7,-1.8 -0.2,-0.2 -0.6,-0.5 -0.9,-0.6 -0.8,-0.4 -0.9,-0.7 -0.6,-1.5 l 0.2,-0.2 c 0.1,0 0.2,-0.2 0.3,-0.4 0.1,-0.3 0.3,-0.596 0.5,-0.796 0.2,-0.1 0.3,-0.3 0.3,-0.4 0,-0.1 0.9,-1.7 1.2,-2.2 0.2,-0.2 0.3,-0.4 0.3,-0.4 0,-0.1 0.1,-0.3 0.3,-0.6 l 0.6,-1.2 c 0.5,-0.9 1.1,-1.6 1.5,-1.6 0.4,0 0.6,0.3 0.6,0.7 0.1,0.5 0.1,0.5 -0.5,1.3 -0.9,1.2 -1.7,2.4 -2.4,3.8 -0.1,0.2 -0.3,0.6 -0.5,0.8 -0.2,0.296 -0.3,0.496 -0.2,0.496 0.1,0.1 0.7,0 1.5,-0.2 0.4,-0.1 0.8,-0.1 1,-0.196 0.2,0 0.7,-0.1 1,-0.1 0.6,-0.1 0.8,0 1.1,0.396 0.3,0.3 0.2,0.8 -0.1,1 -0.1,0 -0.4,0.1 -0.6,0.2 -0.3,0 -0.8,0.1 -1.3,0.2 -0.4,0.1 -1.1,0.2 -1.5,0.2 -0.5,0 -0.8,0 -0.9,0.1 l 0.6,0.6 c 1,1.1 1.9,2.2 2.6,2.89 1.2,1.6 1.7,2.1 1.8,2.1 0.2,0 0.5,0.6 0.5,0.9 0,0.1 -0.1,0.4 -0.2,0.5 -0.4,0.3998 -1,0.3998 -1.3,0.1 z m 42.3,-1 c -0.1,0 -0.3,-0.3 -0.3,-0.5 -0.1,-0.2 -0.4,-0.6 -0.6,-0.9 -0.3,-0.2 -0.7,-0.8 -1,-1.1 -0.9,-1.09 -2.1,-2.19 -3,-2.59 -0.9,-0.4 -1,-0.9 -0.3,-1.8 0.5,-0.7 0.6,-1 1,-1.796 0.2,-0.4 0.5,-0.9 0.7,-1.1 0.2,-0.3 0.4,-0.6 0.5,-0.8 0,-0.2 0.2,-0.5 0.4,-0.6 0.1,-0.2 0.3,-0.5 0.4,-0.8 0.2,-0.7 0.9,-1.7 1.6,-2.1 0.7,-0.6 1.5,-0.5 1.6,0.3 0.1,0.4 0,0.6 -0.8,1.1 -0.3,0.3 -0.7,0.7 -0.8,0.9 -0.4,0.7 -0.9,1.4 -1.5,2.3 -0.6,0.9 -1.3,1.996 -1.2,2.096 0.1,0.1 0.4,0 0.9,-0.2 0.4,-0.1 1,-0.2 1.3,-0.3 0.4,0 0.9,0 1.2,-0.1 0.8,-0.1 1.4,0.32 1.4,0.92 0,0.5 -0.4,0.7 -1.3,0.7 -0.4,0 -1,0 -1.3,0.1 -0.2,0.1 -0.8,0.2 -1.3,0.2 -0.4,0.1 -0.8,0.1 -0.8,0.2 -0.1,0.1 1.1,1.3 2.6,2.6 0.4,0.49 0.8,0.79 0.8,0.89 0,0.1 0.8,0.9 0.9,0.9 0.2,0 0.4,0.6 0.3,0.9 -0.1,0.6 -0.9,0.9 -1.4,0.5 z m -17.9,-0.5 c -0.2,-0.1 -0.6,-0.7 -0.6,-1 0,-0.1 -0.2,-0.8 -0.5,-1.59 -0.4,-0.8 -0.7,-1.5 -0.7,-1.7 -0.1,-0.4 -0.3,-0.4 -0.3,-0.2 -0.1,0.1 -0.2,0.1 -0.2,0.1 h -0.2 c -0.1,0.1 -0.2,0.2 -0.4,0.2 -0.4,0 -0.5,0.1 -1.6,1.1 -1.4,1.39 -2.2,2.09 -2.5,2.19 -0.2,0 -0.4,0.2 -0.6,0.3 -0.4,0.3 -0.8,0.3 -1.1,0 -0.3,-0.3 -0.3,-0.7 -0.1,-1.3 0.2,-0.2 0.3,-0.69 0.4,-0.99 0.1,-0.3 0.3,-1.1 0.5,-1.6 0.2,-0.6 0.4,-1.3 0.4,-1.6 0.1,-0.3 0.4,-1.2 0.6,-1.996 0.3,-0.8 0.5,-1.5 0.5,-1.7 0,-0.1 0.1,-0.3 0.2,-0.6 0.2,-0.4 0.2,-0.7 0.3,-1.4 0.1,-0.3 0.1,-0.6 0.2,-0.7 0.4,-0.8 1.5,-0.9 1.9,-0.1 0.1,0.1 0.1,0.3 0.1,0.4 0,0 0.1,0.2 0.3,0.4 0.1,0.2 0.3,0.6 0.3,0.8 0.1,0.2 0.3,0.8 0.5,1.2 0.2,0.5 0.4,1.2 0.6,1.6 0.2,0.5 0.4,0.996 0.7,1.196 0.3,0.4 0.3,0.6 0.4,1 0,0.4 0.2,1 0.4,1.5 0.2,0.4 0.5,1.3 0.7,1.9 0.2,0.59 0.5,1.29 0.6,1.39 0.3,0.4 0.2,0.8 -0.3,1.1 -0.2,0.1 -0.2,0.1 -0.5,0.1 z m -5.3,-4.39 c 0.4,-0.5 1,-1 1.3,-1.1 0.2,-0.2 0.7,-0.5 0.9,-0.7 l 0.4,-0.3 -0.3,-0.5 c -0.1,-0.3 -0.2,-0.596 -0.3,-0.696 -0.7,-1.6 -1.2,-2.5 -1.4,-2.3 l -0.4,1.2 c -0.1,0.7 -0.4,1.596 -0.5,1.996 -0.1,0.4 -0.3,1 -0.4,1.4 l -0.4,1.2 c -0.2,1 -0.1,1 1.1,-0.2 z m -11.3,4.19 c -0.3,-0.1 -0.6,-0.4 -0.6,-0.8 -0.1,-0.2 -0.2,-0.6 -0.3,-0.9 -0.2,-0.2 -0.3,-0.5 -0.3,-0.5 0,0 -0.1,-0.39 -0.3,-0.89 -0.2,-0.4 -0.5,-1.1 -0.7,-1.6 -0.2,-0.5 -0.5,-1.3 -0.8,-1.9 -0.3,-0.6 -0.5,-1.096 -0.5,-1.096 0,-0.1 -0.4,-1.2 -0.7,-1.7 -0.4,-0.7 -0.5,-1.3 -0.2,-1.6 0.2,-0.2 0.3,-0.2 0.6,-0.2 0.4,0.1 0.8,0.5 0.8,0.7 0,0.2 0.1,0.4 0.5,1.2 0.1,0.2 0.2,0.6 0.3,0.9 0.3,0.6 0.9,2.096 1,2.096 v 0.2 c 0,0.1 0.1,0.4 0.2,0.6 0.1,0.2 0.3,0.7 0.4,0.9 0.1,0.3 0.2,0.5 0.3,0.5 0.1,0 0.5,-2.2 0.6,-3.496 0,-1.4 0.1,-1.6 0.7,-1.8 0.3,-0.2 0.5,-0.2 0.7,-0.1 0.5,0.1 0.6,0.2 0.7,0.8 0.4,1.796 0.6,2.596 0.9,3.496 0.2,0.6 0.4,1.2 0.5,1.3 0.1,0.5 0.3,0.3 0.4,-0.3 0,-0.2 0.1,-0.5 0.1,-0.5 0.1,-0.1 0.2,-0.4 0.2,-0.6 0.3,-1.9 0.5,-3.396 0.5,-4.496 0.1,-1.2 0.1,-1.5 -0.1,-2 -0.4,-1.2 -0.3,-1.7 0.4,-2 0.4,-0.2 1,-0.1 1.3,0.2 0.3,0.2 0.3,0.2 0.3,1.2 0,0.5 0,1.4 -0.1,2 -0.1,0.6 -0.2,1.4 -0.2,1.8 -0.2,1.596 -0.4,2.996 -0.7,4.396 -0.1,0.8 -0.3,1.8 -0.3,2.19 -0.2,1.3 -0.3,1.6 -0.7,1.8 -0.5,0.2 -0.7,0.2 -1,-0.1 -0.3,-0.1 -0.4,-0.3 -0.5,-0.6 0,-0.3 -0.2,-0.8 -0.9,-2.29 -0.2,-0.5 -0.4,-0.9 -0.4,-1 0,-0.1 -0.1,-0.2 -0.1,-0.2 -0.1,-0.1 -0.2,-0.2 -0.2,-0.4 -0.1,-0.2 -0.3,-0.2 -0.3,0.1 0,0.6 -0.2,2 -0.4,2.69 0,0.3 -0.1,0.9 -0.1,1.2 0,0.7 -0.4,1.1 -1,0.8 z m 44.5,-1.9 c -0.1,-0.1 -0.2,-0.39 -0.3,-0.59 0,-0.2 -0.2,-0.5 -0.4,-0.7 -0.9,-1 -1.1,-1.3 -1,-1.7 0,-0.2 0.1,-0.4 0.4,-0.7 0.2,-0.2 0.4,-0.3 0.5,-0.3 0,0 0.4,-0.2 0.7,-0.5 0.5,-0.4 2.1,-1.196 2.6,-1.396 0.1,0 0.3,-0.1 0.5,-0.3 l 0.3,-0.3 -0.3,-0.6 c -0.2,-0.3 -0.4,-0.7 -0.5,-0.9 -0.1,-0.1 -0.2,-0.5 -0.4,-0.8 -0.3,-0.7 -0.4,-0.9 -0.5,-1.1 -0.1,-0.3 -0.5,-1 -0.5,-1.2 0,0 0,-0.1 -0.1,-0.1 -0.2,-0.1 -1.3,1.7 -1.5,2.5 -0.1,0.4 -0.6,0.6 -1,0.5 -0.2,-0.1 -0.6,-0.5 -0.7,-0.6 0,-0.1 0.4,-0.8 0.5,-1.1 0.1,-0.1 0.3,-0.5 0.5,-0.9 0.2,-0.5 0.5,-0.9 0.6,-1.1 0.5,-0.7 1.3,-1.7 1.4,-2.1 0.3,-0.5 0.5,-0.7 1,-0.7 0.2,0 0.4,0.1 0.6,0.3 0.2,0.3 0.2,0.3 0.2,0.9 -0.1,1.4 0.2,3.1 0.9,4.6 0,0.1 0.1,0.3 0.1,0.4 0,0.2 0.6,1.3 1.1,1.8 0.6,0.7 0.6,0.9 0.3,1.396 -0.2,0.3 -0.3,0.4 -0.7,0.5 -0.3,0 -0.9,0.3 -1.4,0.5 -0.5,0.3 -1,0.5 -1,0.5 -0.1,0 -0.4,0.2 -0.8,0.4 l -0.7,0.5 0.3,0.5 c 0.2,0.4 0.4,0.7 0.5,0.7 0.1,0.1 0.3,0.3 0.4,0.5 0.3,0.7 -0.2,1.29 -0.9,1.29 -0.2,0 -0.5,0 -0.7,-0.1 z"
           id="path659-3"
           sodipodi:nodetypes="sssssccssscssssssssssssssssssssssssscssssssssscsssssssssssscssscscsssssscsssssssssssssssssscsssssssssssssssscssssssssssssssssssssssssssssssssssssssssscsssssssssssssssscsssssssssssssscssssssssssscssscsssssssssssssssssscssssssssssssssscsssssssssscssscsssscssssssssssssssssscscsssss" /></g><g
         id="g1533"><path
           style="fill:#000000;stroke-width:0.0993542"
           d="m -512.9,44.17 c -0.4,0 -0.7,-0.3 -0.7,-0.6 -0.1,-0.5 0,-0.8 0.5,-1.1 0.4,-0.2 0.5,-0.2 0.8,-0.1 0.3,0.1 0.4,0.2 0.5,0.5 0.2,0.9 -0.2,1.5 -1.1,1.3 z m -26.1,-0.3 c -0.2,-0.2 -0.3,-0.4 -0.3,-0.7 0,-0.4 0.1,-0.6 0.6,-1.3 l 1.5,-2 c 0.2,-0.2 0.7,-0.8 1,-1.2 0.4,-0.4 0.7,-0.9 0.9,-1 0.1,-0.1 0.2,-0.3 0.2,-0.4 0,-0.2 -1.1,-1.3 -1.5,-1.5 -0.1,-0.1 -0.5,-0.2 -0.8,-0.2 -0.9,-0.2 -1.2,-0.6 -1.1,-1.1 0,-0.5 0.2,-0.9 0.4,-1 0,0 0.2,-0.3 0.4,-0.7 0.2,-0.3 0.3,-0.6 0.4,-0.6 0.1,-0.1 0.1,-0.2 0.1,-0.3 0,-0.1 0.1,-0.2 0.2,-0.3 0,-0.1 0.2,-0.3 0.3,-0.5 0.1,-0.3 0.4,-0.8 0.7,-1.2 0.4,-0.5 0.5,-0.8 0.6,-1.1 0,-0.6 0.3,-0.8 1.1,-0.8 0.5,-0.1 0.6,-0.1 0.8,0.2 0.4,0.5 0.4,0.8 0,1.3 -0.6,0.6 -1,1.1 -1.4,1.7 -0.3,0.4 -0.5,0.8 -0.6,0.9 -0.4,0.5 -0.9,1.6 -0.9,1.8 0,0.1 0.3,0.4 0.6,0.6 0.4,0.3 0.9,0.7 1.2,1 0.3,0.3 0.8,0.8 1.2,1 0.6,0.5 0.7,0.7 0.6,1.3 -0.1,0.2 -0.2,0.4 -0.5,0.5 -0.4,0.2 -2.7,2.7 -3.5,3.7 -0.6,0.7 -0.6,0.9 -0.6,1 0,0.1 -0.1,0.3 -0.2,0.5 -0.1,0.4 -0.2,0.5 -0.6,0.6 -0.5,0.2 -0.5,0.2 -0.8,-0.2 z m -23.7,-0.4 c -0.1,-0.1 -0.2,-0.1 -0.2,-0.2 0,0 -0.2,-0.2 -0.4,-0.5 -0.4,-0.4 -0.4,-0.7 0,-0.9 0.2,-0.2 0.2,-0.2 0.1,-2 0,-1 -0.1,-2.1 -0.1,-2.4 0.1,-0.4 0,-0.6 -0.1,-0.7 -0.2,-0.2 -0.2,-0.6 0,-0.9 0.1,-0.1 0.1,-0.5 0.2,-2 0,-1 -0.1,-2.1 -0.1,-2.5 -0.1,-0.6 -0.1,-0.7 -0.4,-0.8 -0.7,-0.4 -0.3,-1.2 0.5,-1.3 0.6,-0.1 3,-1 3.6,-1.3 0.1,0 0.4,-0.1 0.6,-0.1 0.2,-0.1 0.5,-0.2 0.7,-0.2 0.2,-0.1 0.5,-0.2 0.7,-0.2 0.3,0 0.4,0.1 0.6,0.3 0.1,0.2 0.1,0.3 0,0.6 -0.1,0.2 -0.3,0.4 -0.7,0.6 -1,0.5 -2,0.9 -2.9,1.1 -0.5,0.1 -0.9,0.2 -1,0.3 -0.1,0.1 -0.1,0.8 -0.2,2.5 v 2.3 c 0.1,0 0.6,-0.1 1.2,-0.3 2,-0.6 2.8,-0.6 2.8,0.3 0,0.6 -0.5,0.9 -2.2,1.2 -0.4,0.1 -1,0.2 -1.3,0.3 -0.4,0.2 -0.5,0.3 -0.6,0.6 v 0.9 c 0,0.3 0.1,1.3 0.1,2.1 0,0.8 0.1,1.7 0.2,1.9 0.1,0.6 0.1,1 -0.2,1.2 -0.2,0.2 -0.6,0.3 -0.9,0.1 z m -50.6,-0.4 c -0.2,-0.1 -0.3,-0.3 -0.3,-0.3 0,-0.1 -0.2,-0.3 -0.4,-0.5 -0.3,-0.4 -0.3,-0.4 -0.3,-0.8 0.1,-0.4 0,-0.6 -0.2,-1.2 -0.1,-0.4 -0.3,-0.7 -0.3,-0.7 0,-0.1 -0.6,0.4 -0.9,0.6 -0.1,0.2 -0.6,0.7 -1.1,1.3 -0.7,0.7 -1.1,0.9 -1.2,0.9 -0.2,0 -0.3,0 -0.3,-0.1 0,0 -0.1,0 -0.3,0.2 -0.4,0.4 -0.9,0.1 -1.2,-0.5 -0.2,-0.4 -0.1,-1.4 0.1,-2 0.1,-0.1 0.2,-0.4 0.2,-0.5 0,-0.2 0.1,-0.5 0.6,-2.3 0.3,-1.1 1,-4.8 1,-5.3 0,-0.1 0,-0.4 0.1,-0.5 0,-0.2 0.1,-0.6 0.1,-1 0.1,-0.5 0.2,-0.9 0.2,-1 0.2,-0.4 0.6,-0.6 1.1,-0.6 0.5,0 0.5,0 0.6,0.4 0.1,0.2 0.1,0.7 0.1,1.2 0,0.5 0.1,1.2 0.3,2.4 0.2,1 0.5,2.1 0.5,2.5 0.2,0.7 0.3,1.1 0.9,2.4 0.1,0.3 0.4,1 0.6,1.6 0.3,1 0.7,1.8 1.2,2.6 0.2,0.4 0.2,0.5 0.2,0.9 -0.2,0.7 -0.7,0.8 -1.3,0.3 z m -4,-3.6 c 0.5,-0.5 0.6,-0.7 0.9,-1.3 0.1,-0.2 0.3,-0.5 0.4,-0.7 0.3,-0.2 0.4,-0.6 0.2,-0.8 -0.1,-0.1 -0.5,-1.4 -0.7,-1.9 -0.1,-0.6 -0.4,-0.3 -0.4,0.5 0,0.2 -0.1,0.5 -0.1,0.6 -0.1,0.1 -0.2,0.5 -0.3,0.9 0,0.4 -0.2,1.2 -0.4,1.9 -0.2,0.7 -0.3,1.3 -0.3,1.3 0,0.2 0.2,0.1 0.7,-0.5 z m 15.5,3.4 c -0.8,-0.3 -1.1,-0.9 -0.7,-1.4 0.2,-0.2 0.2,-1 0.1,-3 -0.1,-1 -0.2,-3.6 -0.2,-5.6 0.1,-4.2 0,-4 0.8,-4.3 0.4,-0.1 0.7,0 0.9,0.4 0.1,0.3 0.1,0.5 0,1.3 -0.3,1.3 -0.3,3.9 -0.2,7.1 0.1,1.3 0.1,2.6 0.1,2.7 0.1,0.1 0.1,0.3 0.1,0.5 v 0.4 l 1.2,-0.1 c 1.7,-0.1 2.5,-0.2 2.7,-0.3 h 0.8 c 0.6,0 0.7,0 0.9,0.2 0.1,0.2 0.2,0.5 0.2,0.7 0,0.3 0,0.5 -0.2,0.7 -0.3,0.2 -0.7,0.3 -1,0.1 h -1.2 c -0.6,0.1 -1.5,0.2 -2,0.2 -0.5,0.1 -0.9,0.1 -1.1,0.2 -0.2,0.1 -1,0.2 -1.2,0.2 z m -25.4,-0.3 c -0.1,-0.1 -0.2,-0.5 -0.4,-0.9 -0.2,-0.8 -0.2,-0.8 -0.2,-2.4 0.1,-2.6 0.1,-7.7 0,-8.6 -0.2,-0.9 -0.1,-1.2 0.2,-1.5 0.6,-0.7 1.5,0.1 1.6,1.4 0,0.2 0.1,0.7 0.3,1.2 0.1,0.5 0.4,1.4 0.7,2 0.2,0.7 0.4,1.3 0.4,1.3 0.1,0.1 0.2,0.3 0.2,0.5 0.1,0.2 0.3,0.6 0.5,0.9 0.2,0.4 0.4,0.8 0.5,0.9 0.2,0.4 0.3,0.5 0.3,0.1 -0.1,-0.5 -0.2,-1.2 -0.3,-4 -0.2,-2.3 -0.2,-2.7 -0.4,-3.2 -0.4,-1 -0.4,-1.2 -0.1,-1.6 0.2,-0.3 0.2,-0.3 0.9,-0.3 0.4,0 0.7,0 0.8,0.1 0.2,0.2 0.2,1.2 0.1,1.4 -0.1,0.1 -0.1,0.7 0,1.7 0.1,0.9 0.2,1.9 0.2,2.3 0,0.5 0.1,1 0.1,1.2 0.1,0.2 0.1,0.7 0.1,1.1 0,0.8 0.3,2.8 0.5,4.3 0.1,0.4 0.1,0.9 0.1,1.2 0,0.4 0,0.5 -0.3,0.7 -0.4,0.4 -0.7,0.4 -1,0 -0.3,-0.3 -0.7,-1.2 -0.9,-1.9 0,-0.2 -0.2,-0.7 -0.4,-1 -0.5,-0.7 -0.8,-1.3 -1,-1.8 0,-0.2 -0.1,-0.3 -0.1,-0.3 -0.1,0 -1.1,-1.8 -1.4,-2.6 -0.1,-0.2 -0.1,0.1 -0.2,2.3 0,2.9 -0.1,4.7 -0.2,5.2 -0.1,0.4 -0.4,0.5 -0.6,0.3 z m 19.2,-0.1 c -0.6,-0.4 -0.6,-0.4 -0.6,-1.4 0.1,-1.9 0.1,-3.6 -0.1,-4.7 0,-0.7 -0.1,-2 -0.1,-3 -0.1,-1 -0.2,-1.8 -0.2,-1.9 0,0 -0.2,0 -0.4,0.1 -0.2,0.1 -0.5,0.2 -0.6,0.3 -0.2,0.1 -0.4,0.2 -0.5,0.2 0,0 -0.3,0.1 -0.5,0.1 -0.3,0.1 -0.4,0.1 -0.6,-0.2 -0.4,-0.3 -0.5,-0.7 -0.3,-1 0.1,-0.2 0.7,-0.6 0.9,-0.6 0,0 0.9,-0.4 1.2,-0.5 0.1,0 0.7,-0.3 1.3,-0.5 0.6,-0.3 1.2,-0.5 1.4,-0.5 0.1,-0.1 0.3,-0.2 0.4,-0.2 0.1,-0.1 0.4,-0.1 0.7,-0.2 0.6,0 0.7,0 1,0.3 0.4,0.3 0.4,0.7 0.1,1.1 -0.2,0.2 -0.4,0.3 -0.8,0.3 -0.3,0.1 -0.6,0.1 -0.7,0.2 0,0 -0.1,0.1 -0.2,0.1 -0.4,0.1 -0.5,0.2 -0.6,0.7 -0.1,0.7 -0.1,3.1 0,4.6 0.1,0.7 0.2,2 0.2,2.8 0,0.8 0.1,1.6 0.2,1.9 0.3,1.2 0.3,1.6 -0.3,1.9 -0.4,0.2 -0.6,0.3 -0.9,0.1 z m 15.4,-0.2 c -0.2,-0.2 -0.3,-0.3 -0.2,-0.7 0,-0.5 0.3,-0.7 0.7,-0.8 0.6,-0.1 1.2,0.3 1.2,0.9 0,0.7 -0.3,0.9 -1,0.9 -0.3,0 -0.5,-0.1 -0.7,-0.3 z m 8.3,0.3 c -0.3,-0.1 -0.6,-0.5 -0.6,-0.7 0,-0.2 -0.2,-0.3 -0.4,-0.4 -0.1,0 -0.3,-0.1 -0.4,-0.3 -0.2,-0.2 -0.2,-0.3 -0.1,-0.8 0.1,-0.3 0.1,-2 0.1,-5 0.1,-2.4 0.1,-4.6 0.2,-4.9 0.1,-0.3 0.2,-0.5 0.5,-0.8 0.5,-0.4 0.9,-0.7 1.1,-0.7 0.1,0 0.5,0.4 0.9,0.8 0.4,0.4 0.9,0.8 1.1,0.9 0.2,0.2 0.6,0.5 1,0.7 0.3,0.3 1.1,0.8 1.6,1.2 1.7,1 3.3,2.3 3.5,2.8 0.2,0.5 -0.1,0.9 -0.9,1.3 -0.3,0.2 -0.6,0.4 -0.7,0.5 -0.2,0.2 -0.7,0.6 -2.3,1.7 -1.3,0.9 -3,2.5 -3,2.8 0,0.4 -0.3,0.7 -0.7,0.8 -0.5,0.1 -0.7,0.1 -0.9,0.1 z m 0.9,-2.7 c 0.3,-0.2 0.9,-0.8 1.3,-1.1 0.4,-0.4 0.9,-0.9 1.3,-1.1 0.3,-0.2 0.8,-0.5 1.1,-0.8 0.3,-0.3 0.6,-0.5 0.6,-0.5 0.1,0 0.4,-0.3 0.7,-0.6 l 0.6,-0.5 -0.4,-0.3 c -0.1,-0.2 -0.5,-0.5 -0.8,-0.7 -0.9,-0.5 -2.6,-1.7 -2.7,-1.7 0,0 -0.4,-0.3 -0.7,-0.6 -0.6,-0.5 -1.2,-0.9 -1.3,-0.9 -0.1,0 -0.3,1.2 -0.4,1.6 -0.1,2.7 -0.2,4.7 -0.2,4.9 0.1,0.2 0.1,0.8 0.1,1.5 0,1.1 0,1.3 0.1,1.3 0.1,0 0.3,-0.2 0.7,-0.5 z m 32.9,2.4 c -0.3,-0.1 -0.6,-0.5 -0.6,-0.8 0,-0.4 -0.4,-1 -1.9,-3.2 -1.1,-1.4 -1.4,-1.9 -2.2,-2.6 -0.7,-0.7 -0.8,-0.8 -0.8,-1.2 0,-0.3 0.1,-0.5 0.3,-0.7 0.2,-0.2 0.7,-0.7 1.1,-1.2 0.9,-1 2.6,-2.7 3.1,-2.9 0.1,-0.1 0.2,-0.2 0.4,-0.3 0.3,-0.4 0.8,-0.4 1.1,-0.2 0.5,0.4 0.4,1.1 -0.1,1.4 -0.4,0.2 -2.8,2.4 -2.9,2.6 -0.1,0.2 0,0.2 1.5,0.3 0.9,0.1 1.5,0.3 1.7,0.6 0.2,0.3 0.2,0.5 0,0.8 -0.2,0.2 -0.2,0.2 -1.2,0.2 h -1.7 l -0.5,-0.1 v 0.2 c 0.1,0.2 0.3,0.6 0.6,1 0.2,0.4 0.6,1 0.8,1.3 l 0.8,1.2 c 0.3,0.4 0.6,0.9 0.8,1.1 0.1,0.3 0.3,0.4 0.3,0.4 l 0.4,0.4 c 0.3,0.3 0.4,0.4 0.4,0.7 0,0.3 -0.1,0.5 -0.3,0.7 -0.3,0.3 -0.6,0.4 -1.1,0.3 z m -17.6,-0.4 c -0.2,-0.2 -0.3,-0.4 -0.3,-0.5 0,-0.3 -0.6,-1.2 -1.2,-1.9 -1,-1 -2.3,-2.1 -2.9,-2.4 -0.4,-0.3 -1.2,-0.5 -1.7,-0.5 0,0 -0.2,-0.3 -0.4,-0.5 -0.2,-0.4 -0.2,-0.6 -0.2,-0.7 0.1,-0.4 0.4,-0.7 0.9,-1 0.2,-0.1 1.2,-1 2.4,-2 2.1,-1.9 2.5,-2.2 3.3,-2.6 0.5,-0.3 0.8,-0.2 1.1,0.1 0.3,0.3 0.3,0.4 0.2,0.8 0,0.2 -0.1,0.4 -0.2,0.5 -0.1,0 -0.5,0.4 -1,0.7 -0.5,0.3 -1.1,0.7 -1.3,0.9 -0.3,0.3 -0.7,0.7 -1,0.9 -0.3,0.2 -0.7,0.5 -1,0.8 l -0.4,0.4 0.8,-0.1 c 0.6,0 1.4,0 2.4,0.2 0.6,0.1 0.9,1 0.5,1.4 -0.2,0.2 -0.3,0.2 -1,0.1 -0.4,0 -0.9,-0.1 -1.1,-0.1 -0.7,-0.3 -0.6,-0.1 0.5,1 0.6,0.6 1.3,1.3 1.5,1.6 0.2,0.3 0.6,0.8 0.9,1.1 0.5,0.6 0.6,0.7 0.7,1.1 0,0.5 0,0.5 -0.1,0.5 -0.2,0 -0.5,0.4 -0.4,0.5 h -0.3 c -0.2,0 -0.4,-0.1 -0.7,-0.3 z m 20.5,0.2 c -0.2,-0.2 -0.2,-0.6 -0.1,-1.5 0.3,-1.9 0.3,-5.1 0.2,-7.3 -0.1,-1.3 -0.1,-1.5 0.1,-1.8 0.1,-0.3 0.7,-0.6 1,-0.6 0.1,0 0.5,0.4 0.6,0.9 0.1,0.8 1.1,3.4 1.6,4.5 0.4,0.6 0.7,1.2 0.7,1.4 0.1,0.2 0.2,0.3 0.3,0.3 0.2,0.1 0.2,-0.7 0.1,-3.8 -0.1,-1.2 -0.2,-2.1 -0.3,-2.4 -0.1,-0.5 -0.1,-0.6 0,-0.9 0.1,-0.5 0.5,-0.8 0.9,-0.8 0.1,0 0.3,-0.1 0.3,-0.1 0.1,-0.1 0.5,0.6 0.5,0.9 v 1.1 1.9 c 0.2,2.3 0.2,4.4 0.1,5.5 -0.1,1.1 -0.1,1.2 -0.4,1.4 -0.3,0.3 -0.4,0.3 -0.8,0.1 -0.2,-0.1 -0.3,-0.3 -0.4,-0.6 -0.1,-0.2 -0.3,-0.5 -0.4,-0.6 -0.1,0 -0.2,-0.2 -0.2,-0.3 -0.1,-0.1 -0.2,-0.3 -0.3,-0.5 -0.1,-0.2 -0.3,-0.5 -0.5,-0.8 -0.1,-0.3 -0.4,-0.7 -0.6,-1 -0.1,-0.3 -0.3,-0.7 -0.4,-0.9 -0.1,-0.5 -0.5,-0.7 -0.5,-0.5 0,0.7 -0.1,4.4 -0.1,4.4 -0.1,0.1 -0.1,0.4 -0.1,0.8 -0.1,1.1 -0.1,1.2 -0.2,1.2 h -0.2 c -0.1,0.2 -0.8,0.1 -0.9,0 z m 21,-1.3 c -0.2,-0.1 -0.3,-0.3 -0.4,-0.7 -0.3,-0.8 -0.5,-1.3 -0.9,-1.7 l -0.4,-0.4 c 0,-0.1 -0.4,-0.5 -0.8,-0.9 -0.8,-0.7 -1.4,-1.2 -1.9,-1.3 -0.3,0 -0.5,-0.4 -0.4,-0.9 0,-0.4 0.1,-0.6 0.9,-1.7 0.3,-0.4 0.5,-0.9 0.6,-1 0,-0.1 0.1,-0.2 0.2,-0.3 0.1,0 1.6,-2.2 1.6,-2.3 0,0 0.5,-0.6 1.1,-1.2 0.8,-0.7 1.2,-1.1 1.4,-1.1 0.3,0 0.6,0.3 0.6,0.8 0,0.3 0,0.5 -0.5,1.1 -0.3,0.3 -0.6,0.7 -0.6,0.8 0,0 0,0.1 -0.1,0.1 -0.1,0 -0.8,1 -0.8,1.1 0.1,0 0,0.1 0,0.1 -0.1,0 -0.3,0.1 -0.4,0.3 -0.1,0.2 -0.3,0.4 -0.3,0.4 -0.2,0.1 -1.2,1.4 -1.3,1.6 -0.2,0.3 -0.3,0.6 -0.1,0.6 0,0 0.1,-0.1 0.3,-0.2 0.1,0 0.3,-0.1 0.5,-0.1 0.1,0 0.4,-0.1 0.7,-0.2 0.4,-0.1 0.4,-0.1 1.4,-0.6 0.4,-0.2 0.7,-0.3 0.8,-0.3 0,0 0.2,0.1 0.4,0.3 0.3,0.3 0.3,0.4 0.2,0.7 -0.1,0.4 -0.4,0.7 -0.6,0.7 -0.1,0 -0.3,0.1 -0.4,0.2 -0.1,0.1 -0.3,0.2 -0.4,0.2 0,0 -0.1,0 -0.1,0.1 0,0 -0.1,0.1 -0.2,0.1 -0.1,0 -0.6,0.1 -1,0.2 l -0.9,0.2 0.2,0.3 0.4,0.4 c 0.9,1.1 1.3,1.5 1.7,2.2 0.4,0.4 0.7,0.9 0.8,1.1 0.3,0.3 0.2,0.8 -0.2,1.2 -0.3,0.3 -0.7,0.3 -1.1,0.1 z m 12.5,-2.8 c -0.3,-0.1 -0.5,-0.3 -0.5,-0.6 -0.1,-0.4 -0.5,-0.9 -0.8,-1.1 -0.2,-0.1 -0.4,-0.3 -0.5,-0.5 -0.1,-0.2 -0.1,-0.3 0,-0.7 0.1,-0.4 0.6,-0.8 1.1,-0.9 0.2,0 0.3,-0.1 0.4,-0.2 0.1,-0.1 0.2,-0.2 0.3,-0.2 0,0 0.2,-0.2 0.4,-0.3 0.2,-0.2 0.5,-0.5 0.8,-0.6 0.6,-0.3 1.2,-0.7 1.9,-1.4 l 0.7,-0.6 -0.7,-0.6 c -0.8,-0.7 -1.7,-1.6 -2.4,-2.4 -0.3,-0.4 -0.6,-0.8 -0.7,-0.8 0,0 -0.1,-0.1 -0.1,-0.2 0,-0.1 -0.1,-0.2 -0.2,-0.4 l -0.2,-0.2 -0.7,0.8 c -0.5,0.4 -0.8,0.8 -0.8,0.9 l -0.4,0.6 c -0.2,0.3 -0.4,0.5 -0.4,0.6 0,0 -0.1,0.2 -0.3,0.4 -0.2,0.2 -0.3,0.6 -0.4,0.8 0,0.4 -0.3,0.5 -0.7,0.5 -0.8,-0.2 -0.9,-0.7 -0.4,-1.6 0.9,-1.4 1.7,-2.6 2.1,-3 l 0.4,-0.4 c 0,-0.1 0.2,-0.3 0.5,-0.6 l 0.4,-0.6 c 0,-0.1 0.2,-0.3 0.4,-0.5 0.3,-0.4 0.9,-0.4 1.2,-0.1 l 0.2,0.4 c 0,0.7 0.5,1.5 2,3.3 0.6,0.9 1.8,2 2.4,2.3 0.5,0.3 0.8,0.5 0.8,0.9 0,0.3 -0.1,0.7 -0.2,0.6 -0.1,0 -0.5,0.4 -1.4,1.1 -0.1,0.1 -0.4,0.4 -0.8,0.6 -2.6,1.7 -3,2 -3,2.2 0,0.1 0.2,0.3 0.3,0.5 0.5,0.6 0.6,1 0.3,1.5 l -0.2,0.4 h -0.4 c -0.1,0.1 -0.3,0.1 -0.4,0.1 z m 1.8,-11.6 c 0,-0.1 0,-0.2 0.1,-0.1 v 0.2 c -0.1,0 -0.1,0 -0.1,-0.1 z"
           id="path659-6"
           sodipodi:nodetypes="sssssssssssssssscsssssssssssssssssssssssscsssssssssssssssssssscssssssssssscssscssscsssssssssssssssssssssssssssscssssssssssscsssssscsssssssssssscssssssssssssssssssssscsssssssscsscssscsssssssscssssssssssssssssssssssssssssssssssssscscsscsscssssssssssssssssssssccssssscsssssssscsssssssssssscsssssssssssssssssssssssssscscsssssssssssscsssssssssssssscsssscsscscscsssscssssccssccsssssssssssscssscsscsscssscsssssssssssssssssssscssssss" /></g><g
         id="g1542"><path
           style="fill:#000000;stroke-width:0.0993542"
           d="m -579.8,14.22 c -0.5,0 -1,-0.1 -1,-0.1 h -0.2 c -0.1,-0.1 -0.7,-0.2 -1.4,-0.4 -0.6,-0.2 -1.3,-0.4 -1.4,-0.5 -0.1,-0.1 -0.4,-0.2 -0.6,-0.3 -0.5,-0.1 -3,-2.3 -3,-2.5 0,-0.1 -0.1,-0.2 -0.1,-0.3 -0.1,0 -0.4,-0.397 -0.6,-0.797 -0.1,-0.3 -0.3,-0.6 -0.4,-0.7 -0.1,-0.1 -0.3,-0.6 -0.3,-0.904 0,-0.1 -0.2,-0.5 -0.4,-0.8 -0.3,-0.5 -0.4,-0.6 -0.4,-1.1 0,-0.3 -0.1,-1.1 -0.2,-1.6 -0.1,-0.6 -0.2,-1.6 -0.2,-2.6 0,-0.7998 -0.1,-1.7998 -0.2,-1.9998 0,-0.3 -0.1,-0.7002 0,-1.0002 0,-0.4 0.1,-1.1 0.1,-1.6 0,-0.5 0.1,-1.3 0.2,-1.7 0.1,-0.5 0.1,-1.2 0.2,-1.6 0,-1 0.2,-2.6 0.3,-2.8 0,0 0.1,-0.4 0.1,-0.7 0.2,-1.699 1.3,-6.499 1.6,-7.099 0.1,-0.2 0.2,-0.6 0.3,-0.8 0,-0.3 0.1,-0.6 0.2,-0.8 0.1,-0.2 0.2,-0.6 0.3,-0.9 0,-0.3 0.2,-0.9 0.4,-1.4 0.2,-0.4 0.3,-0.9 0.4,-1 0.2,-0.9 1.6,-2.9 2.5,-3.7 0.6,-0.5 1.6,-1.1 2.3,-1.3 0.9,-0.4 3,-0.7 4.4,-0.7 2,0 3.3,0.3 4.9,1.1 1,0.5 1.2,0.7 1.9,1.6 0.3,0.4 0.5,0.7 0.6,0.7 0,0 0.2,0.2 0.4,0.5 0.1,0.2 0.3,0.5 0.4,0.5 0,0.1 0.1,0.2 0.1,0.3 0,0.1 0.1,0.3 0.2,0.4 0.2,0.2 0.3,0.3 0.2,0.5 0,0.1 0,0.2 0.1,0.3 0.1,0.1 0.2,0.3 0.2,0.4 0,0.1 0.1,0.5 0.3,0.9 0.1,0.4 0.3,1 0.3,1.4 0.1,0.3 0.3,0.8 0.4,1.2 0.1,0.3 0.2,0.6 0.2,0.8 0,0.1 0,0.2 0.1,0.2 0,0.1 0.1,0.3 0.1,0.6 0.1,0.2 0.2,0.6 0.2,0.9 0.1,0.2 0.2,0.5 0.1,0.5 0,0.1 0.1,0.5 0.2,0.9 0.2,1 0.4,3.6 0.4,5.899 0,1 -0.1,1.8 -0.1,1.8 0,0.1 0,0.8 -0.1,1.7 0,1.6 -0.2,3.6002 -0.3,3.7002 0,0.1 -0.2,0.8 -0.4,2.0998 -0.2,1.4 -0.4,2.6 -0.6,3.1 -0.1,0.2 -0.1,0.5 -0.2,0.6 0,0.1 -0.1,0.4 -0.1,0.7 -0.2,0.5 -0.2,0.6 -0.5,1.7 -0.1,0.3 -0.2,0.704 -0.4,0.904 -0.1,0.3 -0.2,0.5 -0.2,0.5 0,0.3 -2.7,3.297 -3,3.297 -0.1,0 -0.3,0.2 -0.5,0.4 -0.5,0.5 -1,0.8 -1.4,1 -0.7,0.2 -1.2,0.4 -1.8,0.5 -0.7,0.3 -3.4,0.3 -4.6,0.1 z m 4.5,-1.3 c 0.1,0 0.4,-0.1 0.7,-0.2 0.7,-0.3 0.9,-0.5 1.8,-1.3 1.5,-1.4 1.9,-1.697 2.2,-2.197 0.4,-0.5 1,-1.804 1.2,-2.704 0.1,-0.3 0.3,-0.8 0.4,-1 0.2,-0.6 0.4,-1.6 0.7,-3 0.1,-0.7 0.3,-1.5 0.3,-1.6998 0.1,-0.3 0.1,-0.7 0.2,-1 0,-0.2 0.1,-0.6 0.2,-0.7 0,-0.2002 0.1,-0.8002 0.1,-1.3002 0,-0.6 0.1,-2.1 0.1,-3.3 0.2,-2.2 0.2,-2.6 0,-4.599 0,-0.5 -0.1,-1.2 0,-1.5 0,-0.2 0,-0.5 -0.1,-0.6 -0.1,0 -0.1,-0.3 -0.1,-0.6 0,-0.4 -0.1,-0.8 -0.2,-1.1 -0.1,-0.3 -0.2,-0.6 -0.2,-0.7 0,-0.3 -0.6,-2.7 -0.9,-3.2 0,-0.2 -0.1,-0.6 -0.2,-0.9 0,-0.3 -0.1,-0.5 -0.2,-0.5 0,-0.1 -0.1,-0.1 -0.1,-0.2 0,-0.1 -0.4,-1.4 -0.7,-1.9 0,-0.2 -0.1,-0.4 -0.1,-0.5 0,0 -0.1,-0.2 -0.2,-0.3 -0.1,-0.2 -0.2,-0.3 -0.2,-0.3 0,-0.3 -1.3,-1.7 -1.5,-1.7 -0.1,0 -0.3,-0.2 -0.5,-0.4 -0.2,-0.1 -0.6,-0.4 -0.9,-0.5 -0.2,-0.1 -0.7,-0.3 -1,-0.4 -0.5,-0.3 -0.8,-0.3 -1.8,-0.3 -1.2,0 -2.8,0.1 -3.3,0.3 -0.2,0 -0.5,0.1 -0.7,0.2 -0.3,0 -0.6,0.2 -0.8,0.3 -0.2,0.1 -0.5,0.3 -0.7,0.5 -0.5,0.3 -1.6,1.2 -1.6,1.4 l -0.2,0.2 c -0.3,0.4 -0.4,0.5 -0.6,0.9 -0.3,0.7 -0.4,0.9 -1,2.6 -0.2,0.4 -0.7,2.3 -0.9,3.1 -0.1,0.2 -0.2,1 -0.4,1.6 -0.1,0.6 -0.3,1.3 -0.3,1.6 -0.1,0.6 -0.4,1.8 -0.5,2.2 0,0.2 -0.1,0.5 -0.1,0.7 -0.1,0.199 -0.1,0.699 -0.2,1.099 -0.1,0.7 -0.4,2.7 -0.4,3.2 -0.1,0.2 -0.2,0.9 -0.2,1.5 -0.1,0.6 -0.2,1.4 -0.2,1.7 0,2.9002 0,5.2 0.2,6 0.1,0.3 0.1,0.8 0.1,1.1 0,0.3 0.1,0.6 0.2,0.7 0.1,0.2 0.2,0.6 0.3,0.9 0.1,0.4 0.2,0.7 0.2,0.8 0.1,0 0.1,0.2 0.1,0.3 0,0.1 0.1,0.3 0.1,0.3 0,0 0.1,0.2 0.1,0.504 0.1,0.3 0.2,0.5 0.3,0.6 0.1,0.1 0.2,0.3 0.2,0.3 0,0.2 0.8,1.097 1.2,1.497 0.3,0.2 0.5,0.4 0.6,0.5 0.2,0.1 0.3,0.2 0.4,0.2 l 0.2,0.2 c 0.1,0.1 0.5,0.3 0.9,0.5 0.7,0.3 3.1,1.2 3.6,1.2 0.6,0.1 4.3,0.1 4.4,-0.1 z m -9.8,-7.901 c -0.1,-0.1 -0.1,-0.2 0.1,-0.6 0.1,-0.2 0.2,-0.5 0.3,-0.5 0,-0.1 0.1,-0.2 0.1,-0.3 0,-0.1 0.7,-0.8 1.3,-1.2 0.3,-0.3 0.4,-0.3 0.7,-0.2 0.4,0.1 0.7,0.4 0.9,0.8 0.4,0.7 1.3,1 2,0.5 0.5,-0.3 0.7,-0.5 0.9,-1 0.4,-0.8 1.4,-1.5998 1.7,-1.4 0.1,0 0.3,0.1 0.5,0.2 0.2,0 0.4,0.2 0.4,0.3 0.1,0.1 0.3,0.5 0.4,0.9 0.2,0.4 0.4,0.7 0.4,0.7 0.1,0 0.2,0.1 0.2,0.2 0.2,0.4 0.4,0.4 0.8,0 0.2,-0.2 0.3,-0.3 0.9,-0.3 0.6,0 0.7,0.1 0.9,0.2 0.2,0.3 0.2,0.5 -0.2,0.8 -0.2,0.2 -0.4,0.3 -0.7,0.3 -0.2,0 -0.4,0 -0.4,0.1 -0.1,0.2 -0.8,0.5 -1.1,0.5 -0.2,0 -0.9,-0.8 -1.3,-1.4 -1,-1.6 -1.1,-1.6 -1.4,-0.7 -0.3,0.6 -1.3,1.6 -2,1.8 -0.6,0.2 -1.2,0.2 -1.7,-0.1 -0.4,-0.2 -1,-0.7 -1,-0.9 0,-0.1 -0.1,-0.2 -0.3,-0.2 -0.4,-0.2 -0.7,0 -1.2,1 -0.3,0.6 -0.4,0.6 -0.7,0.6 -0.2,0 -0.4,0 -0.5,-0.1 z m 10.6,-13 c -0.4,-0.1 -1.2,-0.8 -1.4,-1.3 -0.4,-0.7 -0.5,-1.299 -0.3,-1.999 0.2,-0.7 0.3,-1 0.8,-1.5 0.5,-0.6 0.8,-0.8 1.8,-0.8 0.6,0 0.8,0.1 1,0.2 0.1,0.1 0.3,0.2 0.4,0.2 0.2,0.1 0.5,0.7 0.6,1.4 0,0.5 0,0.7 -0.2,1.1 -0.4,0.699 -0.9,1.199 -1.5,1.199 -0.2,0 -0.6,-0.1 -0.8,-0.2 -0.3,-0.1 -0.4,-0.1 -0.8,-0.999 -0.2,-0.5 -0.5,-0.2 -0.3,0.5 0.2,0.599 0.6,0.999 1.2,1.199 1,0.2 2.4,-0.1 2.7,-0.5 0.2,-0.5 0.5,-0.5 0.8,-0.2 0.2,0.1 0.2,0.2 0.2,0.5 -0.1,0.2 -0.2,0.4 -0.3,0.5 -0.2,0.2 -1.1,0.7 -1.3,0.7 -0.9,0.1 -2.3,0.1 -2.6,0 z m 1.4,-2.699 c 0.3,-0.3 0.4,-0.7 0.4,-1.1 0,-0.6 -0.9,-1 -1.4,-0.7 -0.1,0.1 -0.2,0.2 -0.1,0.4 0,0.1 0.1,0.4 0,0.6 0,0.4 0.1,0.5 0.3,0.7 0.3,0.3 0.6,0.3 0.8,0.1 z m -9.4,2.099 c -0.4,-0.1 -1.2,-0.5 -1.6,-0.9 -0.3,-0.4 -0.5,-0.899 -0.8,-2.099 -0.2,-1.2 -0.1,-1.7 0.6,-2.4 0.7,-0.7 1.8,-1.1 2.3,-0.7 0.1,0.1 0.4,0.2 0.5,0.3 0.4,0.2 0.5,0.3 0.8,0.9 0.2,0.4 0.3,0.6 0.2,0.9 0,0.3 0,0.4 0.2,0.4 0.5,0 0.8,0.5 0.7,1.4 -0.1,0.5 -0.5,1.299 -0.9,1.499 -0.1,0.1 -0.3,0.2 -0.5,0.3 -0.5,0.3 -1,0.4 -1.5,0.4 z m -0.3,-0.4 c 0,-0.1 0,-0.1 -0.1,-0.1 l -0.1,0.1 c 0,0 0,0.1 0.1,0.1 z m -0.9,-0.6 c 0,0 -0.1,-0.1 -0.2,-0.1 0,0 -0.1,0 -0.1,0.1 0.1,0.1 0.3,0.1 0.3,0 z m 2.2,-0.4 c 0.6,-0.399 1,-1.199 0.8,-1.399 -0.1,0 -0.2,0.1 -0.4,0.2 -0.1,0.2 -0.3,0.3 -0.3,0.3 -0.1,0 -0.2,0 -0.3,0.1 -0.2,0.3 -1.1,0.3 -1.6,0.1 -0.2,-0.1 -0.3,-0.2 -0.4,-0.1 -0.1,0.1 0.4,0.7 0.9,0.899 0.5,0.2 0.9,0.2 1.3,-0.1 z m -0.5,-1.699 c 0.2,-0.2 0.4,-0.7 0.3,-1.2 -0.1,-0.5 -0.4,-0.8 -1,-0.8 -0.5,0.1 -0.8,0.3 -1.1,0.9 -0.3,0.4 -0.1,0.6 0.2,0.2 0.2,-0.4 0.7,-0.4 1,-0.2 0.2,0.3 0.2,0.4 -0.1,0.7 -0.5,0.5 -0.1,0.7 0.7,0.4 z"
           id="path657"
           sodipodi:nodetypes="scsssssssssssssssssscsssssssssssscssssssssssssssssscsssssssscsssssssssssssssssssssssssssscscsssssssssssssssssssssssssssscsscsssssssssssssssssssscssssssssssssssssssssssssssssssssssssssssssssssssssssssssssscssccscssscsssssssssssss" /></g></g></g></svg>
