<?xml version="1.0" encoding="UTF-8" standalone="no"?>
<!-- Created with Inkscape (http://www.inkscape.org/) -->

<svg
   width="165.6mm"
   height="174.3mm"
   viewBox="0 0 165.6 174.3"
   version="1.1"
   id="svg5"
   xml:space="preserve"
   inkscape:version="1.2.2 (b0a8486541, 2022-12-01)"
   sodipodi:docname="what-contents.svg"
   xmlns:inkscape="http://www.inkscape.org/namespaces/inkscape"
   xmlns:sodipodi="http://sodipodi.sourceforge.net/DTD/sodipodi-0.dtd"
   xmlns="http://www.w3.org/2000/svg"
   xmlns:svg="http://www.w3.org/2000/svg"><sodipodi:namedview
     id="namedview7"
     pagecolor="#ffffff"
     bordercolor="#000000"
     borderopacity="0.25"
     inkscape:showpageshadow="2"
     inkscape:pageopacity="0.0"
     inkscape:pagecheckerboard="0"
     inkscape:deskcolor="#d1d1d1"
     inkscape:document-units="mm"
     showgrid="false"
     inkscape:zoom="0.3536"
     inkscape:cx="-1335"
     inkscape:cy="268.7"
     inkscape:window-width="1920"
     inkscape:window-height="1011"
     inkscape:window-x="0"
     inkscape:window-y="0"
     inkscape:window-maximized="1"
     inkscape:current-layer="layer1"><inkscape:grid
       type="xygrid"
       id="grid5279" /></sodipodi:namedview><defs
     id="defs2" /><g
     inkscape:label="Layer 1"
     inkscape:groupmode="layer"
     id="layer1"
     transform="translate(948.2,54.53)"><g
       id="g4988"
       inkscape:export-filename="../../../../vgn3.svg"
       inkscape:export-xdpi="96"
       inkscape:export-ydpi="96"><g
         id="g4979"><g
           id="g4971"><g
             id="g4964"><g
               id="g4958"><path
                 style="fill:#000000;stroke-width:0.118587"
                 d="m -915.1,-10.72 c -0.3,-0.5 -0.8,-1 -0.9,-1.3 -0.1,-0.3 -0.5,-0.8 -0.7,-1.1 -1.7,-2 -2.3,-2.6 -2.8,-3.2 -0.3,-0.3 -0.6,-0.6 -0.6,-0.8 0,-0.1 -3.8,-4 -4,-4 -0.1,0 -0.3,0 -0.3,-0.3 -0.1,-0.1 -0.2,-0.1 -0.2,-0.1 -0.1,0 -0.4,-0.1 -0.6,-0.3 l -0.5,-0.5 c -0.2,0 -1.2,-0.6 -1.2,-0.7 -0.1,-0.4 -0.1,-0.6 -0.1,-0.7 -0.1,-0.4 0,-0.6 0.5,-1.1 0.2,-0.3 0.6,-0.6 0.7,-0.8 0.1,-0.3 0.4,-0.8 0.6,-1 0.1,-0.2 0.5,-0.7 0.7,-1.2 0.3,-0.4 0.6,-1 0.8,-1.2 0.8,-0.9 1.8,-2.6 2.2,-3.3 0.2,-0.4 0.5,-0.7 0.6,-1 0.4,-0.3 1.1,-1.5 1.1,-1.7 0,-0.1 0.1,-0.2 0.2,-0.3 0,-0.1 0.2,-0.4 0.4,-0.5 l 0.2,-0.5 c 0.5,-0.4 1.9,-2.4 2,-2.6 0.2,-0.1 0.3,-0.2 0.3,-0.4 0.1,0 0.2,-0.2 0.3,-0.4 0.1,-0.4 0.4,-0.6 0.6,-0.7 0.9,-0.6 1.5,0.8 0.7,1.5 -0.2,0.1 -0.3,0.5 -0.4,0.7 -0.2,0.9 -0.4,1.1 -1.1,2 -0.6,0.9 -0.8,1.2 -1.6,2.4 -0.2,0.4 -0.6,0.9 -0.8,1.2 -0.2,0.4 -0.5,0.7 -0.5,0.9 l -0.5,0.7 c -0.2,0.2 -0.5,0.8 -0.7,1.1 -0.1,0.2 -0.3,0.7 -0.7,1 -0.6,0.9 -1.1,1.8 -0.9,1.9 0,0 0,0.2 -0.2,0.2 -0.1,-0.2 -0.3,0 -0.4,0.2 0,0.2 -0.4,0.7 -0.8,1.2 -0.7,1.2 -0.8,1.5 -0.3,1.9 0.2,0.1 0.7,0.6 1.2,1 0.3,0.4 0.7,0.7 0.8,0.7 0.1,0 1.5,1.4 1.5,1.5 0,0.1 0.1,0.1 0.1,0.1 0.1,0 0.2,0.2 0.3,0.3 0.4,0.3 2.8,3 3.3,3.6 l 0.4,0.4 c 0,0 0.5,0.6 1,1.4 1.1,1.3 1.3,1.4 2,1.6 0.3,0.1 0.5,0.4 0.7,0.9 l 0.4,0.7 -0.3,0.5 c -0.2,0.7 -0.4,0.8 -1.3,0.8 -0.4,0 -0.6,-0.1 -1.2,-0.7 z m 5.8,0.6 c -0.3,-0.1 -0.6,-0.6 -0.9,-1 0,-0.1 0.2,-0.6 0.3,-0.9 0.2,-0.6 0.2,-0.9 0.1,-3.3 0,-1.4 -0.1,-3.2 -0.1,-4 -0.1,-3.4 0,-12.2 0.2,-12.9 0.1,-0.5 0.4,-0.6 1.1,-0.6 0.8,0.1 1.1,0.8 0.7,2.3 -0.2,1.5 -0.5,9.4 -0.2,11.3 0,0.2 0.1,1.1 0.1,2 0,1 0.1,2.2 0.2,2.7 0,0.4 0.1,1 0,1.4 l -0.1,0.6 0.5,-0.1 c 0.2,0 0.5,0 0.6,-0.2 0.1,0 0.5,0 0.8,-0.1 0.4,0 0.7,-0.1 0.8,-0.1 0.4,-0.2 2.1,-0.5 2.7,-0.5 0.9,0 2.1,-0.2 2.6,-0.4 0.2,-0.2 0.5,-0.2 1,-0.2 0.6,0.2 0.9,0.5 1,1 0,0.5 -0.3,1.3 -0.7,1.3 -0.1,0.1 -1.2,0.1 -2.3,0.2 -2.5,0.2 -4,0.4 -4.1,0.5 -0.2,0 -0.6,0.1 -1.2,0.3 -0.6,0.1 -1.2,0.2 -1.3,0.3 -0.3,0.1 -1.4,0.5 -1.5,0.5 -0.1,0 -0.2,-0.1 -0.3,-0.1 z m 103.9,-1.1 c -0.2,-0.4 -0.4,-0.8 -0.4,-1.1 -0.2,-0.2 -0.3,-0.6 -0.4,-0.7 -0.4,-0.6 -0.5,-0.8 -0.7,-1.2 l -0.3,-0.5 c -0.1,0 -0.1,0 -0.1,-0.1 0,-0.1 -0.1,-0.3 -0.3,-0.6 -0.3,-0.3 -0.5,-0.7 -0.6,-0.8 -0.3,-0.6 -0.6,-1.2 -1,-1.6 -0.1,-0.1 -0.3,-0.6 -0.5,-0.9 -0.2,-0.4 -0.4,-0.7 -0.6,-0.7 0,-0.2 -0.1,-0.3 -0.1,-0.4 0,-0.2 0,-0.4 -0.1,-0.4 -0.1,0 -0.1,-0.1 -0.2,-0.2 -0.2,-0.1 -0.4,-0.2 -0.5,-0.1 -0.3,0.1 -2.4,1.7 -2.4,1.8 0,0.1 -0.1,0.2 -0.4,0.5 -0.2,0.2 -0.2,0.3 -0.2,1.1 0.1,0.5 0.1,1.7 0.2,2.7 v 1.6 l -0.3,0.3 c -0.5,0.3 -1,0.3 -1.3,-0.1 -0.5,-0.5 -0.5,-0.8 -0.4,-1.1 0.1,-0.5 0.1,-4.1 0,-5.9 -0.1,-0.8 -0.1,-2.3 -0.2,-3.4 v -2.8 c -0.1,-0.3 -0.1,-2 -0.1,-3.5 v -2.9 l 0.2,-0.3 c 1.4,-0.7 1.9,-0.5 2.6,0.3 0.5,0.6 2.6,2.1 4.3,3.1 0.7,0.3 2.5,1.7 2.8,1.9 0.1,0.1 0.2,0.2 0.3,0.2 0,0 0.1,0 0.1,0.2 0.2,0.1 0.4,0.3 0.8,0.6 0.4,0.2 0.5,0.3 0.5,0.7 0.2,0.7 -0.2,1.2 -0.9,1.4 -0.2,0.1 -0.6,0.2 -0.7,0.2 -0.3,0 -0.5,0.2 -0.6,0.3 l -2.2,1.1 c -0.1,0 -0.2,0.1 -0.3,0.2 0,0.2 0.2,0.8 0.5,1.3 0.1,0.1 0.2,0.4 0.2,0.4 0,0 0.1,0.2 0.3,0.4 0.3,0.3 0.8,1.2 1.1,2.1 0.5,0.7 1,1.5 1.1,1.8 0.2,0.1 0.4,0.3 0.4,0.4 0,0.2 0.1,0.4 0.2,0.5 0.1,0.1 0.4,0.7 0.6,1.2 0.6,1.1 0.8,1.4 1.1,1.4 0.1,0 0.2,0.2 0.3,0.6 0.1,0.8 0,1.1 -0.3,1.4 -0.6,0.3 -1,0.2 -1.5,-0.4 z m -8.7,-10.6 c 0.3,-0.5 0.4,-0.6 1,-0.7 0.2,-0.2 0.9,-0.5 1.5,-0.9 0.6,-0.2 1.1,-0.6 1.3,-0.7 0.9,-0.5 1,-0.6 1.2,-0.7 0,-0.1 0.4,-0.3 0.7,-0.5 0.4,-0.1 0.6,-0.2 0.6,-0.3 0.2,-0.2 0,-0.4 -0.2,-0.5 -0.5,-0.5 -2.4,-1.8 -2.9,-2.1 -0.6,-0.3 -2.3,-1.4 -2.5,-1.6 -0.2,-0.1 -1,-0.7 -1.2,-0.7 -0.1,0 0,8.7 0.2,9 0,0.3 0.1,0.3 0.3,-0.3 z m -73.5,11 c -0.5,0 -1,-0.5 -1,-0.8 0,-0.1 -0.1,-0.3 -0.2,-0.3 -0.1,-0.1 -0.4,-0.4 -0.5,-0.6 -0.1,-0.1 -0.3,-0.5 -0.5,-0.6 -0.1,-0.1 -0.8,-1 -1.4,-1.7 -1.3,-1.4 -3.3,-3.4 -3.4,-3.4 -0.2,0 -0.4,-0.2 -0.6,-0.3 -0.3,-0.2 -0.6,-0.3 -0.9,-0.3 -0.5,0 -0.6,0 -0.7,-0.3 -0.1,-0.2 -0.4,-0.3 -0.8,-0.5 -0.3,0 -0.6,-0.1 -0.5,-0.2 l -0.2,-0.2 c -0.3,-0.2 -0.3,-0.4 -0.4,-0.8 0,-0.6 0,-0.6 0.5,-0.8 0.2,-0.2 0.4,-0.5 0.6,-0.7 0.1,-0.2 0.3,-0.6 0.6,-0.7 0.1,-0.3 0.3,-0.6 0.4,-0.9 0.3,-0.8 0.4,-1 1,-1.7 0.4,-0.4 0.7,-1 1,-1.4 0.1,-0.4 0.4,-0.8 0.5,-1 0.2,-0.2 0.3,-0.4 0.3,-0.5 0.1,-0.1 0.2,-0.4 0.3,-0.5 0.2,-0.2 0.4,-0.7 0.6,-1.1 0.3,-0.4 0.8,-0.9 0.9,-1.2 0.2,-0.2 0.6,-0.7 0.9,-1.2 0.3,-0.4 0.6,-0.8 0.9,-0.9 0.6,-0.2 1.3,0.2 1.3,0.9 0,0.4 -0.3,0.6 -0.7,1.1 -0.8,0.7 -2.7,3.6 -3.3,4.7 -0.2,0.3 -0.4,0.9 -0.7,1.3 -0.2,0.3 -0.7,1.1 -0.9,1.5 -0.3,0.6 -0.6,1.1 -0.6,1.1 -0.1,0 -0.3,0.3 -0.4,0.5 0,0.2 -0.2,0.5 -0.2,0.6 -0.1,0.2 -0.3,0.3 -0.1,0.5 0,0.2 0.4,0.2 0.4,0 0.2,-0.2 1.2,-0.6 1.9,-0.9 0.4,-0.1 0.9,-0.2 1,-0.3 0.4,-0.1 1.8,-0.4 2.9,-0.5 0.2,0 0.7,-0.1 0.9,-0.1 1,-0.1 1.8,0.3 1.9,1.1 0,0.3 -0.3,0.5 -0.9,0.7 -1.1,0.2 -3.1,0.6 -3.4,0.6 -0.1,0 -0.3,0.1 -0.4,0.1 -0.2,0.1 -0.5,0.2 -1,0.2 -0.4,0.1 -0.7,0.3 -0.8,0.3 -0.3,0.1 -0.2,0.3 0.1,0.6 0.3,0.1 2.4,2.3 3.6,3.8 0.3,0.3 0.7,0.7 0.9,0.8 0.3,0.1 0.5,0.4 0.6,0.6 0.1,0.3 0.5,0.7 0.9,0.8 0.8,0.6 1,1.1 0.8,1.7 0,0.3 -0.3,0.5 -0.4,0.7 -0.2,0.2 -0.3,0.3 -0.4,0.3 0,0 -0.3,-0.1 -0.4,-0.1 z m 4.7,-1 c -0.2,-0.1 -0.4,-0.2 -0.5,-0.4 -0.3,-0.2 -0.3,-1.7 0,-3.8 0.1,-1.1 0.2,-2.5 0.2,-3.2 0,-0.7 0.1,-1.8 0.3,-2.5 0.2,-1.6 0.1,-4.9 -0.3,-6.9 0,-0.4 -0.1,-1 -0.1,-1.2 0,-0.4 0,-0.7 -0.1,-1.1 -0.1,-0.2 -0.3,-0.7 -0.3,-1.2 -0.1,-0.9 0.2,-1.4 0.8,-1.7 0.4,-0.1 1.3,0.2 1.5,0.5 0.2,0.3 1.1,2.2 1.1,2.3 0,0.2 0.9,2.1 2.2,4.5 0.3,0.4 0.4,0.6 0.3,0.6 0,0 0.2,0.4 0.8,1.4 0.1,0.2 0.6,1 1,1.8 0.3,0.8 0.8,1.6 1,1.8 0.2,0.3 0.4,0.4 0.4,0.5 l 0.5,1 c 0.8,1.3 2.1,3.7 2.1,3.9 0,0 0.2,0.2 0.3,0.4 l 0.2,0.2 c 0,0 0.2,0.4 0.5,0.6 0.8,0.8 0.5,1.7 -0.6,1.8 -0.6,0 -0.7,0 -1.1,-0.4 -0.2,-0.1 -0.3,-0.3 -0.3,-0.6 0,-0.2 -0.2,-0.4 -1.2,-2.4 -0.4,-0.7 -0.8,-1.4 -0.9,-1.5 -0.1,-0.1 -0.2,-0.4 -0.2,-0.5 0,-0.1 0,-0.2 -0.1,-0.2 -0.1,0 -1.1,1.2 -1.6,1.8 -1.2,1.5 -4.4,4.4 -5,4.4 -0.1,0 -0.4,0 -0.4,0.1 -0.1,0.1 -0.3,0.1 -0.5,0 z m 2.6,-3.7 c 1.5,-1.7 2.4,-2.7 2.4,-3.2 0,-0.1 0.9,-1.6 1,-1.6 0.4,0 0,-0.6 -0.7,-1.9 -0.7,-1.1 -1.3,-2 -1.8,-3.1 -0.8,-1.5 -1.4,-2.5 -1.5,-2.5 -0.1,0 -0.1,0.4 0,1.1 0,0.7 0,1.8 -0.1,3.7 -0.2,1.4 -0.3,3.6 -0.3,4.9 -0.1,1.2 -0.1,2.5 -0.2,2.8 -0.1,1.1 -0.1,1.1 1.2,-0.2 z m 37.1,3.6 c -0.2,-0.1 -0.4,-0.3 -0.4,-0.4 -0.1,-0.2 0.2,-0.6 0.4,-0.6 0.4,0 0.4,0 1,-3.2 0.1,-1.1 0.3,-2.5 0.4,-3.3 0.4,-1.6 0.4,-2.3 0.4,-3 0,-0.3 0.1,-0.6 0.1,-0.9 0.1,-0.1 0.1,-0.6 0.2,-0.9 0,-0.4 0.2,-1.2 0.2,-1.7 0.1,-0.6 0.2,-1.5 0.2,-2.1 0.1,-0.6 0.2,-1.7 0.4,-2.4 0.1,-0.7 0.3,-1.7 0.3,-2.2 0.6,-5.1 1,-7.4 1.2,-8.2 0,-0.2 0.1,-1 0.1,-1.6 -0.3,-2.7 2.3,-2.5 2.9,-0.6 0,0.3 0.1,0.5 0.1,0.5 0.1,0 0.3,0.1 0.3,0.4 0,0.1 0,0.3 0.1,0.3 0,0 0.2,0.4 0.5,1 0.2,0.5 0.5,1.1 0.7,1.1 0,0.1 0.2,0.4 0.3,0.8 0.3,0.6 0.9,1.8 1.1,2.4 0.8,1.5 2.5,6.2 3,8.1 0,0.6 0.1,1.2 0.2,1.6 0,0.2 0.3,0.8 0.4,1.2 0.1,0.3 0.2,0.8 0.2,0.9 0,0 0.3,0.5 0.4,1.1 0.1,0.5 0.3,0.8 0.3,0.9 0.2,0 0.2,0.3 0.2,0.4 0,0.1 0,0.4 0.1,0.4 0.1,0 0.1,0.2 0.1,0.3 0,0.1 0,0.2 0.1,0.4 0,0.1 0.1,0.3 0.3,0.6 0.2,0.9 0.5,2 0.7,2.2 0,0.2 0.1,0.5 0.2,0.8 0.2,0.8 0.6,1.7 0.8,2 0,0.1 0.3,0.5 0.3,0.7 0.1,0.2 0.2,0.6 0.3,0.6 0,0.1 0.2,0.4 0.3,0.7 0.1,0.4 0.1,0.5 0,0.8 -0.4,0.6 -1.5,0.8 -1.9,0.2 -0.3,-0.5 -0.9,-2.1 -0.9,-2.4 0,-0.3 0,-0.6 -0.1,-0.7 0,-0.3 -0.2,-0.8 -0.3,-1.1 0,-0.5 -0.3,-1.1 -0.4,-1.4 -0.1,-0.4 -0.6,-1.7 -1,-3 -0.3,-1.3 -0.7,-2.3 -0.7,-2.3 0,0 -0.2,0.1 -0.5,0.4 -0.2,0.1 -0.3,0.3 -0.4,0.3 -0.1,0 -1.9,1.7 -1.9,1.8 0,0.1 -0.6,0.7 -1.4,1.4 -0.7,0.8 -1.5,1.7 -1.9,2.2 -0.4,0.3 -1,1.1 -1.4,1.5 l -1.2,1.2 c -0.2,0.4 -0.6,0.8 -0.8,1 l -0.9,0.8 c -0.3,0.7 -0.4,0.9 -1.2,0.9 -0.3,0.1 -0.8,0.1 -0.9,0.1 -0.2,0.1 -0.5,0 -0.6,0 z m 3.9,-5.3 c 0.6,-0.4 1.3,-1.3 1.7,-1.6 0.2,-0.4 1.1,-1.1 1.6,-1.8 1.4,-1.5 2.1,-2.3 2.6,-3 0.2,-0.4 0.6,-0.9 0.8,-1 0.4,-0.6 1.2,-0.9 1.6,-0.8 0.3,0.1 0.4,-0.1 0,-1.2 0,-0.2 -0.3,-1.1 -0.4,-1.9 -0.3,-1.8 -0.6,-2.5 -0.8,-2.9 -0.1,-0.1 -0.3,-0.3 -0.3,-0.5 0,-0.3 -1.3,-3.5 -2,-4.8 -1.2,-2.2 -1.3,-2.6 -1.8,-3 -0.2,-0.4 -0.5,-0.6 -0.5,-0.6 -0.2,0 -0.2,0.3 -0.6,2.6 -0.1,1.2 -0.3,2.4 -0.3,2.6 -0.1,0.4 -0.3,1.5 -0.4,2.4 -0.1,1 -0.2,2.2 -0.3,2.5 -0.3,1.3 -0.4,2.3 -0.5,2.9 0,0.3 0,0.9 -0.1,1.5 0,0.5 -0.1,1.3 -0.1,1.8 -0.2,0.5 -0.2,1 -0.2,1.2 -0.1,0.3 -0.1,0.7 -0.2,1.1 0,0.5 -0.1,0.9 -0.1,1.1 -0.1,0.2 -0.1,0.4 -0.3,0.7 0,0.1 -0.1,0.5 -0.1,0.6 0,0.2 -0.1,0.7 -0.1,1.1 -0.2,0.9 -0.4,2.1 -0.2,2.1 0,0 0.6,-0.5 1,-1.1 z m -26.9,4.2 c -0.6,-0.1 -1,-1.5 -1,-3.9 -0.1,-1.7 -0.1,-4.8 -0.2,-5.5 -0.3,-3 -0.4,-4.2 -0.5,-4.3 -0.1,-0.1 -0.5,-3.6 -0.5,-4.1 0,-0.1 0,-0.3 -0.1,-0.5 -0.1,-0.3 -0.4,-1.5 -0.5,-2.2 -0.1,-0.4 0,-0.5 0.3,-0.9 0.3,-0.3 0.4,-0.3 0.9,-0.3 0.8,0.1 0.8,0.1 1.8,3 0.1,0.4 0.2,0.9 0.4,0.9 l 0.2,0.5 c 0.1,0.2 0.5,1 1,1.5 0.3,0.8 0.7,1.2 0.7,1.4 l 0.2,0.2 c 0.1,0.1 0.2,0.2 0.2,0.4 0,0 0.4,0.6 0.9,1.3 0.5,0.7 0.8,1.3 0.8,1.3 0,0.1 0.3,0.3 0.4,0.6 0.2,0.2 0.3,0.5 0.3,0.6 0,0.1 0.2,0.2 0.3,0.3 0.3,0.4 1,1.6 1.8,2.9 0.1,0.4 0.3,0.6 0.4,0.6 0,0 0.2,-1 0.2,-2.5 0,-2.6 -0.2,-4.4 -0.5,-5.6 -0.3,-0.6 -0.5,-1.7 -0.6,-3.1 -0.1,-1.6 -0.4,-2.5 -0.6,-3 -0.3,-0.5 -0.3,-0.8 0.1,-1.3 0.1,-0.1 0.2,-0.4 0.2,-0.5 0,-0.1 1.2,0 1.6,0.2 0.6,0.4 0.6,0.5 0.6,1.5 v 1.6 c 0.1,0.3 0.1,1 0.1,1.4 0.1,1.6 0.4,3.1 0.6,4 0.2,1.9 0.4,2.6 0.4,6.2 0,3.1 0,4 0.1,4.4 0.2,1 0.2,1.2 0,1.6 -0.3,0.4 -0.4,0.4 -0.8,0.4 -0.6,0 -0.9,-0.2 -1.2,-1.2 -0.3,-0.8 -1,-2 -1.4,-2.5 -0.1,-0.3 -0.2,-0.6 -0.3,-0.9 0,-0.2 -0.3,-0.7 -0.5,-1.1 -0.2,-0.3 -0.7,-1 -1.1,-1.6 -0.4,-1 -1,-1.8 -2.6,-4.2 -0.3,-0.4 -0.6,-0.8 -0.7,-1 -0.1,-0.3 -1.1,-1.6 -1.2,-1.8 -0.2,0 -0.4,0.4 -0.2,1 0.3,1.2 0.7,6.7 0.7,9.7 0,1.4 0.1,2.7 0.1,3.2 0.2,0.7 0.2,0.7 0,1.1 -0.2,0.3 -0.5,0.3 -0.8,0.2 z m 44.1,-0.7 c -0.3,-0.4 -0.3,-0.5 -0.3,-1 v -6.1 c -0.3,-7.7 -0.4,-9.7 -0.6,-11.2 -0.3,-0.7 -0.3,-0.8 0,-1.2 0.1,-0.3 0.2,-0.3 0.4,-0.4 0.6,0 1.2,0.1 1.4,0.3 0.1,0.1 0.1,1.2 0.1,2.5 0.2,9.6 0.3,13.9 0.6,15.3 0.2,1.4 0,1.9 -0.9,2.1 -0.3,0 -0.4,0 -0.7,-0.3 z"
                 id="path655"
                 sodipodi:nodetypes="ssssssscsssssssssssssssssssssssssssscssssssscsscssscssssssssssssssscsssssssssssssssssssssssssssssssssscssssscscsssscssssssssscssssssssssssssssssssssssssssssssssssssssssssssssssssssscssssssssssssssssssssscsssssssssssssscssssscscsssssssssssssssssssssssssssssssssssscccscssssssscsssssssssssssssssssscsssssssssssssssssssssssscssssssssssssscsssssssssssssssscscsssscsssssssssssssssssssssssssssssssssssssss" /><path
                 style="fill:#000000;stroke-width:0.133282"
                 d="m -801.9,119.2 h -3 -3 l -1,0.3 v 0 h -4 v 0 l -2,0.3 h -4 c 0,0 -1,-0.3 -1,0 -1,0 -1,0 -2,-0.3 0,0 -1,0 -1,0 -1,0 -2,0 -2,-0.3 -1,0 -1,0 -1,-0.2 -1,0 -1,0 -1,-0.3 -1,-0.3 -1,-0.3 -1,0 -1,0 -2,0 -2,0 0,-0.3 -1,0 -1,0 l -1,0.3 h -1 l -1,-0.3 -1,-0.8 c 0,0 0,-0.3 -1,-1 -1,0 -1,-0.3 -1,-0.3 0,-0.3 0,-0.3 0,-0.3 0,0 -1,-1.8 -1,-2.4 0,-0.5 0,-1 1,-2.3 1,-1.1 1,-1.1 2,-1.6 0,-0.3 1,-0.6 2,-0.6 0,0 0,0 0,-1 0,-5 0,-10.92 0,-12.22 0,-1.8 0,-2.9 0,-4.5 0,-0.8 0,-1.3 0,-2.9 0,-1.3 0,-2.4 0,-3.2 0,-0.8 0,-1.3 0,-1.8 0,-0.5 0,-1.1 0,-1.6 0,-0.5 0,-1.9 0,-2.9 0,-1.9 0,-2.4 0,-3.2 -1,-2.4 -1,-4.8 0,-5.5 0,0 0,-0.8 0,-1.6 0,-1.9 0,-8.8 0,-10.1 0,-0.8 0,-1.6 0,-3.2 0,-1.8 0,-2.9 0,-5 0,-3.2 0,-4.8 0,-5.3 1,-0.2 1,-1.3 1,-2.4 0,-1 0,-2.3 0,-3.1 0,-0.8 0,-1.9 0,-3 0,-1 0,-2.1 0,-2.3 0,-0.3 0,-2.4 0,-4.3 0,-2.9 0,-3.7 1,-4.2 0,-0.3 0,-1.3 0,-5 0,-2.9 0,-5.1 0,-5.6 0,-0.8 0,-0.8 0,-1.3 0,-0.3 0,-0.8 0,-1.1 0,-0.2 0,-0.8 -1,-1 0,-0.3 0,-1.1 0,-2.103 v -1.4 0 c -1,0 -2,-0.5 -2,-1 -1,-0.6 -1,-0.8 -1,-0.8 0,0 0,0 0,-0.3 0,-0.2 -1,-0.5 -1,-0.8 0,-0.2 0,-1.6 0,-2.4 0,-0.5 0,-0.8 1,-1.5 0,-0.3 1,-0.7998 1,-1.0998 0,0 0,0 0,0 0,0 1,0 2,-0.3 1,-0.2 2,-0.5 2,-0.5 0,0.3 4,0.5 6,0.3 0,0 1,0 2,0 0,-0.3 1,-0.3 1,-0.3 1,0 1,0 2,0 0,-0.3 0,-0.3 1,-0.3 2,0 2,0 4,0 2,0 3,0 4,-0.2 0,-0.3 2,-0.3 4,0 1,0 3,0 4,0 2,0.2 3,0.2 3,0.2 0,0.3 1,0.6 1,0.8 1,0.3 1,0.7998 2,0.7998 0,0.3 0,0.6 0,1.6 0,1.3 0,1.3 -1,2.1 0,0.6 -1,1.9 -1,1.9 0,0 -1,0 -1,0.2 0,0.3 -1,0.6 -1,0.6 -2,0.5 -2,1.6 -2,5.503 0,1.6 0,2.7 1,3.5 0,0.2 0,0.8 0,1 0,0.3 0,1.4 0,2.4 0,1.3 0,2.4 -1,3.2 0,1 0,2.1 0,6.1 0,2.4 0,5 0,5.5 -1,1.1 -1,1.4 0,2.4 0,0.8 0,1.6 0,1.6 0,0.3 0,0.8 0,1.1 0,0.5 0,1 0,1.5 -1,0.8 -1,1.6 0,3.8 0,1.5 0,2.3 0,5.8 0,2.9 0,4.5 0,4.7 0,0.3 0,0.8 0,3.5 0,1.6 0,1.8 0,3.1 -1,1.1 -1,1.4 -1,2.2 0,1.3 0,1.8 0,2.9 0,0.2 0,0.8 0,1 0,0.6 1,4.5 0,5.3 0,0.6 0,1.4 0,1.9 0,0.5 0,1.3 0,1.8 0,1.4 0,5.1 0,15.6 0,6.1 0,9.62 0,10.42 -1,0.5 -1,1.6 -1,2.6 0,1.1 1,2.1 1,2.4 0,0.3 -1,1.3 -1,1.3 l 1,1.1 h 1 l 1,-0.3 v 0.3 l 2,0.5 1,0.5 v 0.3 c 0,0 1,2.6 1,3.4 0,1.1 -1,2.1 -1,2.1 v 0.8 l -2,0.6 z m -4,-3.1 2,-0.3 -3,-1.6 v 0 h -1 l -2,-0.3 -3,-0.5 h -1 v 0.3 h -2 -1 v 0 c 0,0 -1,0 -1,0 0,0 -1,0 -1,0.2 0,0 0,0 0,0 0,-0.2 -3,-0.2 -3,0 0,0 -1,0 -1,0 0,0 -1,-0.2 -1,-0.2 -2,0 -2,-0.3 -3,-0.3 0,-0.3 0,-0.3 0,-0.3 0,0.3 -1,0.3 -2,0.6 -1,0 -2,0 -2,0.2 0,0.3 -1,0.3 -2,-0.2 0,0 0,-0.3 0,-0.3 -1,0 -2,0.5 -2,0.8 0,0.3 0,0.5 0,0.5 0,-0.2 0,0 0,0 0,0.3 0,0.3 0,0.3 0,0 1,0.3 1,0.3 1,0.5 3,0.8 4,0.8 0,0 1,0 1,0 0,0.2 1,0.2 1,0 0,-0.3 3,-0.3 4,0 1,0.2 2,0.2 2,0.2 0,0.3 0,0.3 1,0 0,0 0,0 1,0 0,0 4,0 4,0 h 3 3 m 3,-2.1 3,1.6 1,0.3 2,-0.3 v -1.1 l -2,-0.5 v 0 h -2 m -1,-3.4 c 0,0 0,-0.8 0,-1.4 0,-0.7 0,-2.1 0,-3.1 1,-1.1 1,-5.1 1,-8.82 0,-3.7 0,-6.8 0,-7.4 0,-0.2 0,-1 0,-1.8 -1,-0.5 -1,-1.3 0,-1.6 0,-0.8 0,-3.2 0,-5.8 0,-1.4 0,-3.5 0,-4.8 0,-1 0,-2.9 0,-4 0,-1.3 0,-1.5 0,-3.1 0,-1.1 0,-1.9 0,-2.4 0,-0.3 0,-1.3 0,-1.9 0,-1 0,-2.1 0,-3.1 0,-1.4 1,-2.4 1,-3.5 0,-0.8 0,-2.4 0,-3.4 0,-1.3 0,-2.1 0,-2.9 0,-0.6 0,-1.1 0,-1.4 0,-1 0,-5 0,-6.6 -1,-0.5 -1,-1.8 -1,-2.4 0,-0.5 0,-1.8 0,-2.9 0,-2.1 0,-5.3 0,-7.1 0,-0.5 0,-2.1 0,-3.2 0,-2.6 1,-5 1,-6.1 0,-0.8 0,-1 0,-5.5 0,-1.1 -1,-2.7 -1,-3.5 0,-0.8 0,-1.8 0,-2.1 0,-0.5 0,-1.003 0,-1.603 1,-1.3 1,-2.4 0,-2.1 0,0 0,0.3 -1,0.3 -1,0 -1,0.2 -1,0.2 0,0 -1,0 -1,0 0,0 0,0.3 0,4.003 0,2.1 0,5 0,6.4 1,4.7 1,6 1,7.1 0,1.6 0,6.4 0,8.5 0,1 0,1.8 -1,2.1 0,0 0,1 0,2.4 0,1 0,2.4 0,2.6 0,0.3 0,0.8 0,1.9 0,1.8 0,3.7 0,3.9 0,0 0,0.6 0,1.4 0,1.3 0,3.1 0,3.9 0,0.3 0,1.1 0,1.6 0,0.8 0,8.7 0,9 -1,0.3 -1,4.2 -1,4.8 0,1.6 0,6.1 -1,7.4 0,2.1 0,2.6 0,11.6 1,3.7 1,4.3 1,5.3 0,0.5 0,1.9 0,2.9 0,1.1 0,1.9 0,1.9 -1,0.5 -1,8.22 -1,10.32 1,1.6 0,2.9 0,2.9 v 1.1 h 2 z m -15,-0.3 h 1 v -1.3 c 0,-0.5 0,-3.5 0,-6.1 0,-2.9 0,-6.42 0,-7.72 0,-1.6 1,-3.9 1,-5.3 0,-1.6 0,-2.9 0,-2.9 0,0 0,-3.2 0,-6.9 0,-3.7 0,-6.8 0,-7.4 0,-0.5 0,-1.3 0,-2.1 0,-0.8 0,-1.3 1,-1.6 0,-0.2 0,-3.9 0,-6.9 0,-3.4 0,-8.2 1,-10.5 0,-1.6 0,-2.2 0,-2.7 0,-0.2 0,-2.1 0,-5 0,-3.7 0,-4.5 -1,-5.3 0,-0.3 0,-1.3 0,-1.9 0,-0.5 0,-1.5 0,-2.3 0,-1.9 0,-6.9 0,-8.8 1,-0.8 1,-1.6 0,-2.3 0,-0.6 0,-1.1 0,-1.9 1,-0.8 1,-4.5 1,-5.6 0,-3.4 0,-4.5 -1,-5 0,-0.5 0,-0.8 0,-1.603 0,-1.3 0,-1.3 -3,-1.3 h -3 v 1.6 c 0,1.103 0,2.103 0,2.903 0,1.1 0,1.3 0,3.2 0,0.8 0,1.8 0,2.9 0,1 0,2.1 0,2.6 0,0.3 1,1.4 1,1.9 0,0.5 0,1 0,1 0,0 0,0 0,0.3 0,0 0,0.3 0,0.3 0,0 0,0.8 0,1.3 0,0.3 0,1.3 -1,1.9 0,0.7 0,1.5 0,2.1 0,0.8 0,3.9 0,5.3 0,0.8 0,1.3 0,2.1 0,0.8 0,1.8 0,3.2 0,1.3 0,2.3 0,2.9 0,0.2 0,5 0,10.3 0,10.6 0,10.3 0,12.7 0,1 0,2.4 0,3.4 0,1.1 0,2.1 0,2.7 0,0.2 0,1.3 0,2.4 0,1 -1,1.8 -1,1.8 1,0.3 1,4.8 0,5 0,0.3 0,7.4 0,8 0,0.2 0,1 0,1.8 0,0.8 0,3.2 0,6.4 0,3.42 0,5.32 -1,5.82 0,0.5 0,1.1 0,1.3 1,0.3 1,1.6 0,2.9 0,0.8 0,1.1 1,1.6 0,0.5 0,0.8 0,0.8 0,-0.3 0,0 1,0 0,0.3 2,0.3 3,0 z m -8,0 c 1,-0.3 1,-0.3 0,-0.8 0,-0.8 0,-1 1,-1.8 0,-1.1 0,-1.4 0,-2.9 0,-1.1 0,-2.2 1,-2.2 0,0 0,-2.6 0,-5.52 0,-3.2 0,-5.6 0,-5.8 0,0 0,-1.6 0,-6.1 0,-1.1 0,-3.2 0,-4.5 0,-1.4 0,-2.7 0,-2.9 0,-1.1 0,-1.1 0,-6.9 0,-2.7 0,-4.8 0,-5.3 0,-0.5 0,-1.6 0,-3.5 0,-1.8 0,-3.4 0,-4.2 0,-1.3 0,-2.4 0,-3.7 0,-0.8 0,-1.6 0,-2.1 0,-0.5 0,-0.8 0,-1.6 0,-0.8 0,-1.1 0,-1.8 0,-0.6 0,-0.8 0,-1.1 0,-0.3 0,-1.1 0,-1.9 0,-2.1 0,-3.4 0,-4.2 0,-0.5 0,-1 0,-1.6 0,-0.5 0,-1 0,-1.8 0,-0.6 0,-1.1 0,-1.6 0,-3.7 0,-4.8 0,-5.8 1,-2.9 1,-8 1,-9.6 -1,-0.8 -1,-1.3 -1,-3.4 0,-1.9 0,-2.4 0,-2.9 0,-0.5 0,-0.8 0,-2.9 0,-2.703 0,-3.503 0,-3.703 0,-0.6 -1,-0.3 -1,0 -1,0.5 -1,2.403 0,3.403 0,0.5 0,1.3 0,1.9 0,0.2 0,2.1 0,4.2 -1,1.8 -1,3.4 -1,3.4 0,0.3 0,1.4 0,2.7 0,1 0,2.4 0,2.6 0,0.8 0,5.8 0,6.4 0,0 0,0.8 0,1.3 -1,0.8 -1,1.9 -1,2.6 1,1.1 0,2.2 0,3.5 0,1.3 0,2.6 0,3.4 0,0.6 0,1.9 -1,2.9 0,1.6 0,2.7 0,4.5 0,1.6 0,3.7 0,4.8 0,1.3 0,3.2 0,4.5 0,1.1 0,2.6 0,3.7 0,0.8 0,2.4 0,3.4 0,2.2 0,2.4 0,3.2 -1,2.7 -1,2.1 0,5.3 0,1.9 0,6.4 0,13 0,5.5 0,6.3 0,10 0,1.62 0,3.72 0,4.32 0,0.5 0,2.6 0,4.2 v 3.2 l 1,-0.3 c 0,0 1,0 1,0 z m 15,0 1,-0.3 V 110 c 0,0 0,-0.3 1,-0.6 0,-0.5 0,-1.3 0,-5.2 0,-0.6 0,-2.7 0,-4.82 0,-2.1 0,-4 0,-4.5 0,-0.3 0,-0.8 0,-1.1 0,-0.5 0,-1 0,-1.6 0,-0.7 0,-6.6 0,-6.8 0,-0.3 0,-5.6 0,-7.7 0,-1.6 0,-2.9 0,-5 0,-0.8 0,-1.6 0,-2.1 0,-0.3 0,-0.8 0,-0.8 0,-0.3 0,-1.1 0,-2.2 0,-0.8 1,-2.9 1,-4.2 0,-5.3 0,-8.2 0,-10.3 0,-1.1 0,-1.6 0,-2.4 1,-1.1 1,-1.8 0,-2.6 0,-0.8 0,-1.1 0,-1.6 1,-0.8 1,-1.3 1,-2.4 -1,-1.9 0,-6.1 0,-8.2 0,-0.8 0,-2.4 0,-3.7 0,-8.5 0,-10.1 0,-11.9 0,-1.1 0,-1.9 0,-2.1 0,0 0,-1.9 0,-4 0,-2.9 -1,-4.203 -1,-4.803 0,-0.2 0,-0.8 0,-1 0,-0.6 0,-0.6 -2,-0.3 -1,0 -1,0 -2,0.3 0,0.5 0,1.6 0,2.103 0,0.3 0,1.3 0,1.8 0,0.8 0,1.6 0,1.6 1,0.3 1,2.4 0,5.8 0,1.9 0,2.7 0,5.6 0,0.5 0,1.9 0,3.2 0,1 0,2.6 0,3.4 0,0.8 0,1.9 0,2.1 0,0.6 0,1.4 0,1.9 0,2.9 0,6.3 0,11.1 0,2.6 0,5.3 0,5.3 0,0.3 0,0.8 0,1.3 0,0.5 0,1.1 0,1.6 0,0.3 0,1.9 0,3.7 -1,7.9 -1,11.1 -2,14.6 0,1.6 0,2.9 0,6.3 0,1.3 0,3.5 0,5.3 0,4 0,6.4 -1,15.62 0,4 0,8 0,8.5 0,0.5 0,1.3 0,1.3 h 2 z m -6,-104.223 c 1,0 3,-0.3 4,-0.3 2,-0.3 3,-0.3 4,0 0,0.3 1,0 2,-0.5 1,-0.6 1,-0.6 1,-0.3 1,0.3 1,0.3 2,0.3 1,0 2,0 2,-0.3 0,-0.3 1,-0.5 2,-0.3 0,0.3 2,0.3 3,-0.2 1,-0.6 1,-0.8 1,-1.6 0,-0.3 0,-0.3 -1,-0.3 0,0 0,-0.3 0,-0.3 0,-0.2 -1,-0.2 -1,-0.2 0,-0.3 -1,-0.3 -1,-0.5 -1,-0.3 -7,-0.6 -9,-0.3 -2,0.3 -3,0.3 -3,0 0,0 -2,0 -3,0 0,0.3 -1,0.3 -2,0.3 -3,0 -5,0.2 -5,0.5 0,0 -2,0 -3,0 -1,0 -2,0 -2,0 0,0 0,0 0,0 -1,0 -1,0 -1,0.2 -1,0.3 -1,0.3 -1,0.3 -1,0 -1,0.3 -1,0.5 -1,0.8 -1,0.8 -1,1.4 0,0.5 0,0.8 1,1 1,0.3 1,0.3 2,0 2,-0.2 5,0 6,0.6 0,0 1,0 1,0 0,0 2,0 3,0 z M -905.9,115 c 0,-0.3 -1,-0.3 -1,-0.3 0,0 -1,0 -1,0 0,-0.2 -3,-0.2 -4,-0.2 -2,0.2 -6,0 -6,-0.3 -1,0 -7,-0.5 -7,-0.3 0,0 -1,0 -2,0 -1,0 -2,0 -3,0.3 0,0.3 -2,0 -4,-0.3 -1,-0.2 -2,-1.8 -2,-3.1 0,-1.1 1,-3.5 2,-3.5 0,0 0,-0.2 0,-0.5 0,0 0,-0.3 1,-0.3 1,0 1,0 1,-3.9 0,-1.9 0,-5.92 0,-8.22 0,-3.2 0,-5.6 0,-7.7 0,-1.3 0,-2.9 0,-3.2 0,-0.8 0,-5.8 0,-7.7 0,-2.6 0,-16.1 0,-18.7 1,-4.3 1,-5.3 1,-12.5 0,-7.4 0,-10.6 -1,-12.7 0,-0.5 0,-3.7 0,-6.9 0,-4.2 0,-5.8 0,-6 0,-0.6 0,-1.4 0,-3 0,-6.303 0,-7.103 -2,-7.603 0,0 0,-0.3 0,-0.6 -1,0 -1,-0.2 -1,-0.2 -1,-0.6 -2,-1.6 -2,-2.1 0,-0.6 0,-1.4 0,-2.2 0,-1.3 0,-1.3 0,-1.8 0,-0.3 1,-0.7998 2,-1.0998 0,0 8,-0.2 9,-0.2 4,0 15,-0.3 16,-0.3 0,-0.3 1,-0.5 2,-0.5 1,-0.6002 4,-0.6002 4,0 1,0 1,0 1,0.2 1,0 2,1.1 2,2.6998 0,0.8 0,1 -1,2.1 -1,1.3 -3,3.4 -3,3.4 0,0 0,0.3 0,0.3 0,0 0,0 -1,0.3 -1,0 -1,0 -1,0.8 0,0.2 0,1.803 0,3.103 0,1.6 0,3.5 0,4.5 0,4.3 0,9.8 0,11.2 0,0.5 0,3.4 0,6.3 0,4.5 0,13.8 0,16.4 0,2.4 0,7.4 0,9.5 0,1.4 0,4.5 0,7.4 1,11.2 1,16.7 1,31.3 v 7.62 l 1,0.6 c 2,0.2 2,0.5 3,1.3 1,0.8 1,1.6 1,2.9 1,1.1 0,2.1 -1,2.9 0,0.5 -1,0.5 -2,0 0,0 0,0 0,0 0,0.5 -1,1.1 -2,0.8 z m 2,-2.4 c 0,-0.5 1,-0.5 1,-0.5 0,0.3 0,0 0,-0.8 0,-1.1 0,-1.6 -1,-1.9 -1,-0.2 -1,-0.2 -1,-0.5 0,0 0,0 0,0 -1,0 -1,0 -1,0.3 1,0.2 0,0.8 -1,0.8 0,0 -1,0 -1,0.2 0,0 0,0 -1,-0.2 0,0 -1,-0.3 -4,-0.3 -2,0 -4,0 -4,0 -1,-0.3 -2,-0.3 -4,0 -1,0 -1,0.3 -2,0.3 -2,0 -3,0 -3,0 0,-0.3 -1,-0.3 -1,-0.3 0,0.3 0,0 -1,0 0,-0.3 0,-0.3 0,-0.3 -1,0 -1,0 -1,0 0,-0.2 -1,-0.2 -2,-0.2 0,0 -1,0 -1,0 0,-0.3 -1,0.2 -1,1 -1,1.4 0,1.6 2,1.4 0,0 1,0 1,0.2 0,0 1,0 1,0 1,-0.2 2,-0.5 4,-0.5 0,0 2,0 2,0.3 1,0 1,0.2 2,0.2 0,-0.2 1,0 2,0.3 0,0 0,0.3 1,0.3 0,-0.3 6,-0.3 8,-0.3 1,0 2,0.3 2,0.3 1,0 1,0 2,0.2 1,0 1,0 1,0.3 1,0.2 1,0 1,-0.3 z m -9,-5.3 c 0,-0.5 -1,-6.3 -1,-8.22 0,-0.5 0,-1.6 0,-2.1 0,-1.3 0,-3.7 0,-4.5 1,-1.8 0,-7.1 0,-7.9 0,-0.8 0,-1.1 0,-1.3 0,-0.3 0,-0.8 0,-1.1 0,-0.8 0,-3.7 0,-4 0,-0.5 0,-1.3 0,-2.1 0,-0.5 0,-2.6 0,-7.9 0,-0.6 0,-1.4 0,-1.9 0,-0.5 0,-1.3 0,-1.6 0,-0.5 0,-1.3 0,-1.8 0,-0.8 0,-1.1 0,-1.6 0,-0.3 0,-0.8 0,-2.7 0,-2.9 0,-5.2 0,-6.6 0,-0.5 0,-1.3 0,-1.3 0,0 0,-1.6 0,-3.2 0,-2.1 0,-3.1 0,-3.9 -1,-1.4 -1,-1.6 0,-5.9 0,-0.5 0,-1 0,-1.3 0,0 0,-0.8 0,-1.3 0,-1.3 0,-3.4 -1,-5.6 0,-1 0,-4.7 0,-8.7 0,-2.4 0,-2.9 0,-3.4 0,-0.6 0,-0.8 0,-1.9 0,-0.5 0,-1.3 0,-1.8 0,-0.6 0,-1.1 0,-1.1 0,-0.3 0,-0.8 0,-1.6 0,-0.8 0,-1.803 0,-2.403 v -1 h -2 c 0,0 -1,0.2 -2,0.2 h -1 v 1.9 c 0,2.403 0,6.103 0,6.603 -1,0 -1,0.3 0,0.5 0,0 0,1.1 0,2.2 0,1 0,3.1 0,4.2 1,1.3 1,2.6 1,2.6 0,0.3 0,1.1 0,1.6 0,1.3 0,1.9 0,5 0,1.9 0,3.5 0,3.5 0,0.3 0,1.3 0,1.8 0,1.6 0,4.3 0,5.3 0,0.6 0,1.4 0,2.2 0,0.5 0,1 0,1 0,0.5 1,5.3 1,8.7 0,2.4 0,4.3 0,4.3 0,0.5 0,5 0,6.9 0,1.5 0,5 0,8.4 0,1.1 0,3.2 0,4.8 -1,3.4 -1,3.7 -1,4.7 0,0.6 1,2.4 1,4.3 0,3.9 0,5.8 0,7.7 0,1.8 0,7.92 0,9.52 v 1.3 l 1,0.3 c 0,0 1,0.2 2,0.2 1,0 1,0 1,0.3 1,0.3 1,0 1,-0.3 z m 4,-0.2 c 1,0.2 1,0.2 1,-0.3 0,-0.5 0,-0.5 0,-5 0,-1.3 0,-2.72 0,-3.22 1,-1.6 1,-3.2 0,-5.3 0,-2.6 0,-2.6 0,-7.9 0,-2.9 0,-8.8 0,-9.8 0,-0.3 0,-1.1 0,-2.1 0,-2.7 0,-8.2 0,-9.6 0,-0.5 0,-1.3 0,-1.6 0,-0.5 0,-1 0,-1.8 0,-0.8 0,-1.1 0,-1.3 0,-0.6 0,-6.6 0,-11.9 0,-2.1 0,-4.8 0,-6.1 0,-1.3 0,-2.7 -1,-3.2 0,-0.5 0,-0.8 1,-1.1 0,0 0,-1 0,-2.6 -1,-1.6 -1,-4 -1,-5.6 0,-1.3 0,-2.9 0,-2.9 0,0 0,-2.1 0,-4.7 0,-3.2 0,-4.5 0,-5.1 0,-0.8 0,-0.8 0,-1.3 0,-0.2 0,-0.8 0,-1.6 0,-0.8 0,-1 0,-1.6 0,-0.2 0,-2.303 0,-3.403 0,-0.3 0,-0.3 -2,-0.3 -1,0 -1,0 -1,0.3 0,1.3 0,6.603 0,7.903 0,2.2 0,6.4 0,6.7 0,0.2 0,1.8 0,3.7 0,2.6 0,3.4 0,4.5 0,1 0,1.8 0,3.9 0,4.5 0,7.2 0,7.7 0,0.5 0,1.3 0,3.2 0,1.3 0,7.4 0,8.4 0,0.3 0,1.1 0,1.9 0,0.5 0,1.1 0,1.3 0,0 0,16.7 0,18 0,0.3 0,2.7 0,5 0,2.7 0,5.3 1,5.9 0,0.8 0,1.8 0,2.3 -1,2.2 0,14.12 0,17.02 0,1.8 0,2.1 1,1.8 0,-0.2 1,-0.2 1,-0.2 z m -12,0 h 1 l -1,-0.6 c 0,-0.2 0,-0.8 1,-1.3 0,-0.8 0,-1 0,-2.1 0,-0.8 0,-1.6 0,-2.6 0,-1.42 0,-1.92 -1,-3.02 0,-1.5 0,-1.8 0,-6.8 0,-2.7 0,-5.3 0,-6.1 0,-1.3 0,-2.1 0,-5.3 0,-2.1 0,-8 0,-8 0,-0.2 0,-1 0,-1.8 0,-1.6 0,-5 0,-5.8 0,-0.3 0,-0.8 0,-1.4 1,-0.7 0,-2.9 0,-4.2 0,-0.5 0,-0.8 0,-0.8 0,-0.2 0,-0.8 0,-1.6 0,-1.3 0,-2.1 0,-3.7 0,-0.8 0,-3.9 0,-7.1 0,-1.3 0,-2.1 -1,-2.4 0,-0.8 0,-1.6 0,-1.8 1,0 0,-2.2 0,-3.5 0,-0.8 0,-1 0,-2.1 1,-0.5 1,-1.1 1,-1.3 -1,-0.6 -1,-1.1 0,-2.1 0,-0.6 0,-1.1 -1,-1.6 0,-0.6 0,-1.4 0,-1.6 0,-0.5 0,-1.1 0,-1.3 0,-0.3 0,-1.4 0,-2.4 -1,-4 -1,-8.5 -1,-9 0,-0.6 0,-0.8 0,-1.1 0,0 0,-0.5 0,-1 0,-0.6 0,-1.1 0,-1.1 1,-0.3 1,-1.1 1,-1.8 0,-1.103 0,-1.903 0,-2.403 0,-0.3 0,-0.6 0,-0.6 0,0 0,0.3 0,0.3 0,0 -1,0 -1,0 0,0 0,0 0,0 0,0.3 -2,0.3 -2,0.3 0,-0.3 0,-0.3 0,-0.3 0,0 0,5.803 0,7.403 0,2.9 0,3.7 0,5.3 0,2.1 0,6.6 0,6.9 0,0.3 0,1 0,2.6 0,1.4 0,3.5 1,4.5 0,1.1 0,1.9 0,2.1 0,0 0,1.1 0,2.2 0,1 0,2.3 0,2.6 0,0.3 0,2.4 0,4.8 0,2.4 -1,5 -1,5.8 0,4.2 0,5.8 0,8.7 0,3.7 0,3.2 0,8.2 0,6.6 0,20.1 0,22.3 1,3.1 1,5.8 1,10.82 0,2.7 0,4.8 0,4.8 0,0 0,0.2 1,0 0,0 1,0 2,0 z m -6,-0.3 c 0,-0.3 0,-0.8 0,-1.1 0,-0.2 0,-1.8 1,-3.7 0,-1.8 0,-3.12 0,-3.42 0,0 0,-0.5 0,-0.8 -1,-0.5 -1,-1.6 -1,-2.1 0,-0.8 0,-2.1 0,-2.9 0,-1.1 0,-2.4 0,-3.2 0,-0.8 0,-1.6 0,-1.6 0,-0.2 0,-1.3 0,-2.4 0,-6.6 0,-6.8 -1,-13.2 0,-1.3 0,-3.4 0,-4.8 0,-7.9 1,-11.6 1,-11.6 0,-0.3 0,-1.6 0,-2.9 0,-1.6 0,-3.2 0,-3.7 0,-0.8 0,-4.8 0,-7.7 0,-0.5 0,-1.3 0,-1.8 0,-0.8 0,-1.4 0,-1.9 0,-0.8 0,-1.6 0,-3.2 0,-1.6 0,-2.4 0,-2.9 0,-0.2 0,-1 0,-1.6 0,-0.8 0,-1.8 0,-2.6 0,-0.5 0,-2.1 0,-3.2 -1,-0.8 -1,-2.1 -1,-2.4 0,-0.5 0,-1.3 0,-2.1 1,-0.5 1,-1.3 1,-1.3 0,0 0,-0.5 -1,-0.8 0,-2.7 0,-3.4 0,-3.4 0,-0.6 0,-1.6 0,-2.2 0,-0.5 0,-0.8 0,-1.8 0,-1.603 -1,-2.103 -1,-2.103 -1,0 -1,0 -1,-0.3 -1,0 -1,-0.3 -1,0 0,0 0,1.6 0,1.9 0,0.203 0,2.103 0,3.903 0,2.7 0,4.3 0,6.1 0,2.4 0,4.2 0,5.3 0,1.1 1,9 1,12.2 0,0 0,0 0,0 0,0.5 0,8.2 0,9.5 0,1.1 0,2.6 0,3.2 0,3.4 0,8.7 0,26.2 0,12.7 -1,18.5 -1,19.6 0,1 0,3.4 0,6.02 v 4.3 l 1,0.2 c 1,0 2,0.3 2,0.3 0,0 1,0.3 1,0.3 0,0 0,0 0,-0.3 z m 2,-100.523 c 0,-0.3 1,-0.3 1,-0.3 0,0 1,-0.3 1,-0.5 0,-0.3 1,-0.3 1,0 0,0 1,0 1,0 1,-0.3 1,-0.3 2,0 0,0 1,0.2 1,0.2 1,0 1,0 1,0 0,0 1,-0.2 1,-0.2 0,-0.3 0,-0.3 0,-0.3 0,0 2,0 4,0.3 3,0 4,0 4,0.2 1,0.3 1,0.3 2,-0.2 0,0 1,-0.6 1,-0.6 0,-0.2 0,-0.8 0,-1 1,-0.8 1,-1.6 1,-1.9 -1,-0.2 -5,0 -6,0.3 0,0.2 -3,0.5 -5,0.5 -2,0 -3,0 -5,0 -1,0.3 -3,0.3 -5,0 -1,0 -2,0 -3,0 -3,0.3 -5,0.3 -6,0.5 -1,0.3 -1,0.3 -1,0.8 0,1.1 1,1.6 3,1.6 0,0 1,0 2,0 3,0 4,0 4,0.6 0,0 1,0 1,0 z"
                 id="path3717-8-7-0-7-8-2"
                 sodipodi:nodetypes="cccccccccsssssssscccccscsssssssssssssssssssssssssssssssscssssssssssssssssssssssssssssssssssssssssssssssssssssssccccccccscccccccccccccccccssssssssssssssssssssssssccccccccccccssssssssssssssscsssssssssssssssssssssssssssssssssssccccsccssssssssssssssssssssssscsssssssssssssssssssssssssssssssssssssssssssssssssssssssssssssssssssssssssssssssssssssssscssccccssssssssssssssssssssssssssssssssssssssssssssssccssssssssssssssssssssssssssssssssccssssssssssscssssssssssssssscssssssssssssssssssssscsssssscsssssssssssssssssssssssssssssssssssssscssssssssssssssssssssssssssscsscsssssssssssssssssssssscsssssssssssssssscssssscsssssssssssssssssssssssssssccssssssssssssssssssssssssssssssssssssssssssssssssssssssssssssssssssssssssssssssssssssssssssssssssssssscssssssssssssssssssssssssssssssss" /><path
                 style="fill:none;fill-opacity:1;stroke:#000000;stroke-width:2.81038;stroke-linejoin:round;stroke-dasharray:none;stroke-opacity:1"
                 d="m -946.8,-50.32 5,-2.8 h 4.2 l 4.9,2 5,-0.3 5.6,1.1 4.9,0.8 5.7,0.3 4.2,-0.3 h 4.9 5.7 l 4.2,-0.3 h 4.2 l 5.6,0.6 h 3.6 6.3 l 3.5,0.5 6.4,-0.3 h 4.2 l 6.3,-0.2 3.6,1.8 4.9,-0.5 h 4.2 5.6 l 5,-1.1 4.9,-0.8 4.9,0.8 5,-1.8 4.9,-0.3 4.9,-0.3 h 5 l 4.9,1.4 5.6,-0.6 4.3,0.3 0.7,7.1 -0.7,6.5 -0.7,7.2 0.7,7.7 v 5.9 7.297 l -0.7,6.6 -5.7,0.8 -4.9,-0.3 h -4.2 l -5.7,-1.3 -3.5,-0.3 -6.3,0.3 -5,0.5 -4.2,-0.5 -4.9,-1.1 -5,1.1 -4.2,-0.5 -7,-0.6 -2.8,-0.2 -5,2.9 -4.9,-0.3 h -5.6 l -4.3,0.9002 -3.5,-0.9002 h -6.3 -5 -4.9 l -5.6,0.9002 h -4.3 l -4.9,0.8 -5.6,-0.5 -2.8,-2.0002 h -6.4 l -4.9,-0.2 -4.2,-0.3 -4.3,-0.8 -5.6,0.5 -7,-0.2 -2.9,1.3 v -7.7 -5.897 -7.8 -6.9 -5.4 l 0.7,-7.2 z"
                 id="path2208-2-1-8-8-4-2-6-6-9"
                 sodipodi:nodetypes="ccccc" /></g></g></g></g></g></g></svg>
