<?xml version="1.0" encoding="UTF-8" standalone="no"?>
<!-- Created with Inkscape (http://www.inkscape.org/) -->

<svg
   width="307.6mm"
   height="235.6mm"
   viewBox="0 0 307.6 235.6"
   version="1.1"
   id="svg5"
   xml:space="preserve"
   inkscape:version="1.2.2 (b0a8486541, 2022-12-01)"
   sodipodi:docname="what-contents.svg"
   xmlns:inkscape="http://www.inkscape.org/namespaces/inkscape"
   xmlns:sodipodi="http://sodipodi.sourceforge.net/DTD/sodipodi-0.dtd"
   xmlns="http://www.w3.org/2000/svg"
   xmlns:svg="http://www.w3.org/2000/svg"><sodipodi:namedview
     id="namedview7"
     pagecolor="#ffffff"
     bordercolor="#000000"
     borderopacity="0.25"
     inkscape:showpageshadow="2"
     inkscape:pageopacity="0.0"
     inkscape:pagecheckerboard="0"
     inkscape:deskcolor="#d1d1d1"
     inkscape:document-units="mm"
     showgrid="false"
     inkscape:zoom="0.1768"
     inkscape:cx="-1143"
     inkscape:cy="181"
     inkscape:window-width="1920"
     inkscape:window-height="1011"
     inkscape:window-x="0"
     inkscape:window-y="0"
     inkscape:window-maximized="1"
     inkscape:current-layer="layer1"><inkscape:grid
       type="xygrid"
       id="grid5279" /></sodipodi:namedview><defs
     id="defs2"><rect
       x="-2175"
       y="-1258"
       width="1146"
       height="441.2"
       id="rect9658-5-8" /><rect
       x="-2175"
       y="-1258"
       width="1146"
       height="441.2"
       id="rect9658-5-8-1" /></defs><g
     inkscape:label="Layer 1"
     inkscape:groupmode="layer"
     id="layer1"
     transform="translate(-344.8,3.455)"><g
       id="g13073"><g
         id="g4988"
         inkscape:export-filename="vgn3.svg"
         inkscape:export-xdpi="96"
         inkscape:export-ydpi="96"
         transform="translate(1435,51.07)"><g
           id="g4979"><g
             id="g4971"><g
               id="g4964"><g
                 id="g4958"><path
                   style="fill:#000000;stroke-width:0.118587"
                   d="m -915.1,-10.72 c -1.1,-1.4 -1.9,-2.99 -3.1,-4.27 -0.7,-0.82 -1.6,-1.43 -2.1,-2.34 -0.7,-0.68 -1.4,-1.33 -2,-2.08 -0.9,-0.99 -1.9,-1.81 -3,-2.54 -0.6,-0.55 -1.8,-0.71 -1.7,-1.74 -0.1,-1.08 1.1,-1.56 1.4,-2.44 0.9,-1.38 1.7,-2.84 2.8,-4.07 0.9,-1.35 1.7,-2.8 2.7,-4.1 0.7,-1.61 1.9,-2.9 2.9,-4.36 0.7,-0.55 0.9,-1.97 2,-1.85 1,0.54 0.1,1.44 -0.2,2.09 -0.2,1.23 -1.2,2.07 -1.8,3.1 -0.7,0.95 -1.3,1.96 -2,2.88 -0.6,1.12 -1.2,2.22 -1.9,3.25 -0.8,0.56 -0.9,1.59 -1.4,2.34 -0.8,0.52 -1.2,1.45 -1.7,2.22 -0.4,1.05 0.8,1.46 1.3,2.07 0.7,0.81 1.7,1.32 2.4,2.22 1.4,1.43 2.7,3.03 4.2,4.47 0.8,1.11 1.5,2.5 2.9,2.99 0.7,0.49 1.3,1.67 0.7,2.47 -0.6,0.703 -1.9,0.468 -2.3,-0.24 0,0 -0.1,0 -0.1,-0.1 z m 5.8,0.6 c -1,-0.48 -0.8,-1.59 -0.4,-2.41 0.1,-1.57 -0.2,-3.14 -0.1,-4.71 -0.1,-4.06 -0.1,-8.12 -0.1,-12.18 0.3,-1.08 -0.4,-2.91 0.9,-3.41 1.2,-0.2 1.6,1.16 1.1,2.02 -0.2,1.18 -0.1,2.39 -0.2,3.59 -0.2,4.32 -0.1,8.65 0.3,12.95 0.2,0.69 -0.4,2.21 0.8,1.53 1.3,-0.11 2.5,-0.49 3.7,-0.71 1.4,-0.1 2.8,-0.25 4.1,-0.69 1.1,-0.1 1.7,1.41 0.9,2.14 -0.9,0.48 -1.9,0.24 -2.8,0.4 -1.9,0.12 -3.7,0.33 -5.5,0.85 -0.9,0.1 -1.8,0.867 -2.7,0.63 z m 103.9,-1.1 c -0.4,-0.79 -0.6,-1.66 -1.2,-2.37 -0.5,-1.07 -1.1,-2.01 -1.8,-2.99 -0.5,-1.02 -1.2,-1.98 -1.8,-2.94 -0.2,-1.59 -1.8,-0.73 -2.5,0 -0.8,0.58 -1.8,1.4 -1.5,2.52 0.1,1.39 0.2,2.79 0.2,4.19 -0.5,0.9 -2.1,0.45 -2.1,-0.61 0.2,-3.06 0.1,-6.13 -0.1,-9.19 0,-1.62 0.1,-3.24 -0.1,-4.85 0,-1.58 0,-3.17 0,-4.75 0.6,-0.84 2,-0.99 2.6,-0.13 2.1,1.9 4.7,3.12 6.9,4.83 0.7,0.57 1.6,1.04 2.1,1.8 0.5,1 -0.7,1.67 -1.5,1.73 -1,0.38 -1.9,1.04 -2.9,1.45 -0.6,0.91 0.5,1.91 1,2.65 0.6,1.05 1,2.22 1.7,3.19 0.8,1.05 1.3,2.27 1.9,3.39 0.8,0.52 1.3,1.62 0.6,2.39 -0.5,0.5 -1.1,0.1 -1.5,-0.3 z m -8.7,-10.6 c 0.5,-0.87 1.7,-0.87 2.4,-1.51 1.1,-0.6 2.2,-1.21 3.2,-1.9 1.5,-0.36 0.1,-1.37 -0.6,-1.78 -1.6,-1.15 -3.3,-2.08 -4.9,-3.21 -1.1,-0.72 -0.5,1.45 -0.6,2.09 0,2.15 0,4.3 0.1,6.45 0.1,0.53 0.3,0.16 0.4,-0.14 z m -73.5,11 c -1,-0.1 -1.2,-1.33 -1.9,-1.91 -1.7,-2.04 -3.3,-4.12 -5.5,-5.7 -0.9,-0.31 -1.8,-0.59 -2.6,-1.2 -1.3,-0.31 -1.3,-1.75 -0.3,-2.39 1,-0.82 1.3,-2.09 1.9,-3.12 0.8,-1.05 1.6,-2.12 2.1,-3.31 0.7,-0.79 0.9,-1.82 1.7,-2.51 0.7,-0.85 1.1,-2.19 2.3,-2.53 1.6,0.15 0.8,1.89 -0.1,2.51 -0.9,1.05 -1.6,2.27 -2.4,3.41 -0.8,1.22 -1.4,2.51 -2.2,3.71 -0.2,0.92 -1.2,1.54 -1.2,2.54 0.7,0.33 1.7,-0.92 2.7,-0.91 1.6,-0.47 3.3,-0.77 5,-0.77 0.9,-0.1 1.8,1.21 0.7,1.68 -1.5,0.41 -3,0.53 -4.5,0.91 -0.8,-0.1 -2.1,0.71 -0.9,1.3 1.7,1.38 2.8,3.26 4.5,4.66 0.4,0.77 1.3,1.06 1.8,1.73 0.5,0.67 -0.2,2.42 -1.1,1.9 z m 4.7,-1 c -1.1,-0.43 -0.6,-1.81 -0.7,-2.69 0.2,-1.95 0.5,-3.89 0.4,-5.84 0.3,-1.28 0.5,-2.56 0.4,-3.87 0,-1.61 -0.2,-3.2 -0.4,-4.78 0,-1.14 -0.4,-2.22 -0.5,-3.33 -0.1,-1.09 1.1,-1.96 2,-1.2 0.8,0.62 1,1.69 1.4,2.54 0.7,1.83 1.8,3.44 2.7,5.16 0.6,1.45 1.6,2.75 2.2,4.26 0.5,0.72 1,1.43 1.4,2.23 0.9,1.33 1.4,2.88 2.3,4.23 0.4,0.72 1.7,1.38 0.9,2.31 -0.8,0.71 -2.3,0.1 -2.3,-0.98 -0.7,-1.19 -1.2,-2.5 -2,-3.62 -0.3,-1.4 -1.1,0.32 -1.6,0.74 -1.5,1.71 -3.1,3.4 -5,4.65 -0.4,0 -0.8,0.37 -1.2,0.19 z m 2.6,-3.7 c 0.9,-1.08 2.1,-2.01 2.5,-3.38 0.6,-0.81 1.4,-1.9 0.4,-2.83 -1.1,-1.84 -2.1,-3.74 -3.2,-5.63 -0.7,-0.85 -0.1,0.97 -0.3,1.34 -0.1,2.82 -0.5,5.62 -0.4,8.44 -0.1,0.94 -0.1,1.89 -0.2,2.83 0.4,0.43 0.8,-0.75 1.2,-0.77 z m 37.1,3.6 c -1.1,-0.75 0.9,-1.29 0.7,-2.31 0.4,-1.66 0.5,-3.36 0.7,-5.05 0.3,-1.04 0.4,-2.11 0.4,-3.19 0.2,-1.46 0.6,-2.89 0.6,-4.37 0,-1.55 0.4,-3.06 0.7,-4.57 0.2,-1.64 0.2,-3.29 0.5,-4.91 0.3,-1.74 0.5,-3.5 0.9,-5.21 0,-1.11 -0.2,-3.17 1.5,-2.89 1.5,0.33 1.4,2.04 2.2,3.02 0.4,1.19 1.3,2.13 1.6,3.39 0.9,2.03 2,4.01 2.6,6.14 0.6,1.47 1.1,2.99 1.2,4.56 0.5,1.79 1.1,3.59 1.7,5.35 0.3,0.92 0.8,1.78 0.9,2.76 0.5,1.82 1.1,3.62 2,5.27 0.7,1.02 -0.7,2.17 -1.6,1.45 -0.6,-0.83 -0.9,-1.97 -1,-3.02 -0.4,-1.52 -0.7,-3.08 -1.4,-4.54 -0.3,-1.06 -0.7,-2.15 -1,-3.23 -0.9,-0.17 -1.4,1.04 -2.1,1.42 -0.8,0.79 -1.5,1.67 -2.4,2.42 -1.3,1.53 -2.7,3.04 -4.1,4.53 -0.5,1 -1.7,1.5 -2.2,2.47 -0.6,0.6 -1.6,0.45 -2.4,0.51 z m 3.9,-5.3 c 1.2,-1.02 2.2,-2.18 3.3,-3.26 1.1,-1.32 2.3,-2.54 3.2,-4 0.4,-1.03 2.5,-0.56 2,-1.72 -0.5,-1.14 -0.7,-2.36 -0.9,-3.57 -0.1,-1.14 -0.8,-2.09 -1.1,-3.18 -0.9,-2.24 -1.9,-4.46 -3.2,-6.49 -0.2,-0.8 -1.2,-0.97 -1.1,0 -0.3,1.31 -0.5,2.64 -0.5,3.97 -0.3,1.2 -0.4,2.45 -0.6,3.65 -0.1,1.9 -0.7,3.73 -0.7,5.64 -0.1,1.83 -0.4,3.65 -0.7,5.45 -0.5,1.27 -0.4,2.66 -0.8,3.97 -0.1,1.33 0.9,-0.23 1.1,-0.47 z m -26.9,4.2 c -0.8,-0.44 -0.8,-1.53 -1,-2.33 -0.2,-2.65 0,-5.33 -0.3,-7.98 -0.2,-1.94 -0.5,-3.86 -0.8,-5.8 -0.2,-1.02 0,-2.07 -0.4,-3.05 -0.2,-0.77 -0.6,-1.84 0.2,-2.42 0.9,-0.55 1.8,0.44 2,1.34 0.4,1.18 0.7,2.43 1.4,3.49 0.7,0.86 1.2,1.81 1.7,2.77 0.5,0.9 1.2,1.67 1.7,2.59 0.8,1.21 1.6,2.34 2.3,3.57 0.4,0.59 1.1,2.25 1.1,0.62 0.2,-2.45 0.1,-4.97 -0.5,-7.36 -0.5,-1.44 -0.5,-2.99 -0.7,-4.49 -0.3,-0.95 -1.1,-2.2 -0.1,-2.99 0.7,-0.45 2,0 2.2,0.83 0,2.55 0.2,5.13 0.6,7.66 0.4,1.97 0.6,3.98 0.5,5.99 0,1.52 0,3.04 0,4.56 0.4,0.81 0.3,2.4 -1,2.09 -0.9,-0.36 -0.9,-1.58 -1.4,-2.33 -0.6,-0.96 -1.2,-1.93 -1.6,-3 -0.6,-1.08 -1.2,-2.17 -1.8,-3.26 -0.9,-1.52 -2.1,-2.89 -3.1,-4.37 -0.2,-0.98 -1.4,-1.66 -1,-0.18 0.4,1.78 0.3,3.62 0.5,5.43 0.3,2.63 0.1,5.29 0.4,7.92 0.1,0.51 -0.4,0.95 -0.9,0.7 z m 44.1,-0.7 c -0.7,-0.92 -0.1,-2.13 -0.3,-3.18 0,-4.89 -0.2,-9.78 -0.5,-14.66 -0.3,-0.72 -0.6,-2.03 0.6,-2.08 1.2,-0.27 1.4,0.99 1.2,1.87 0,5.43 0.1,10.87 0.6,16.28 0.4,0.93 -0.2,2.61 -1.4,1.9 z"
                   id="path655"
                   sodipodi:nodetypes="ssssssscsssssssssssssssssssssssssssscssssssscsscssscssssssssssssssscsssssssssssssssssssssssssssssssssscssssscscsssscssssssssscssssssssssssssssssssssssssssssssssssssssssssssssssssssscssssssssssssssssssssscsssssssssssssscssssscscsssssssssssssssssssssssssssssssssssscccscssssssscsssssssssssssssssssscsssssssssssssssssssssssscssssssssssssscsssssssssssssssscscsssscsssssssssssssssssssssssssssssssssssssss" /><path
                   style="fill:#000000;stroke-width:0.133282"
                   d="m -801.9,119.2 c -2,0 -4,0 -6,0 -1.1,0.5 -2.3,0.2 -3.5,0.3 -0.8,0 -1.7,-0.1 -2.5,0.2 -1.7,0.2 -3.3,0.1 -5,0.1 -0.8,-0.5 -1.8,0.3 -2.6,-0.2 -1.2,-0.2 -2.5,0.1 -3.7,-0.4 -0.9,-0.2 -1.7,-0.4 -2.6,-0.6 -0.7,0.2 -1.4,0.1 -2.1,0.1 -1.1,-0.3 -2.2,0.7 -3.4,0.2 -1,-0.2 -1.6,-1.1 -2.2,-1.7 -1.1,-0.2 -1.6,-0.9 -1.9,-1.9 -0.5,-0.9 -0.7,-2.1 -0.1,-3 0.6,-1.3 1.9,-1.9 2.9,-2.7 0.6,-0.3 1.8,0.1 1.7,-0.9 0,-10.85 0,-21.73 0,-32.62 -0.6,-1.52 -1.1,-3.25 -0.5,-4.85 0.8,-0.69 0.4,-1.74 0.5,-2.64 0,-7.74 0,-15.47 0,-23.21 1.2,-0.3 0.8,-1.78 0.9,-2.66 0.2,-3.56 0.1,-7.12 0.1,-10.68 0,-1.55 0,-3.11 0,-4.66 0.3,-0.76 1.2,-1.27 1,-2.14 0,-4.12 0,-8.23 0,-12.35 -0.3,-0.65 -1.3,-0.91 -1,-1.83 0,-0.83 0,-1.656 0,-2.483 -1.1,0.113 -1.9,-0.814 -2.7,-1.39 -0.2,-0.944 -1.6,-1.174 -1.3,-2.222 0,-0.718 0,-1.441 0,-2.162 0.4,-0.827 1.3,-1.358 1.9,-1.9843 1.1,-0.3808 2.3,-0.3277 3.4,-0.775 1.1,-0.2655 2.2,0.2969 3.3,0.1882 1.8,0.07 3.6,-0.075 5.4,-0.055 0.7,-0.5322 1.6,-0.2299 2.4,-0.3 0.7,0.1566 1.1,-0.559 1.8,-0.2999 1.5,0.012 3,-0.013 4.5,0 1.4,0 2.7,-0.027 4,-0.4029 1.8,-0.1108 3.6,0.3219 5.4,0.2034 1.5,-0.027 3,0.032 4.5,0.2 0.9,0.2523 1.6,0.9811 2.5,1.3481 1.3,0.1294 0.8,1.4104 0.9,2.3424 0,1.069 -1.3,1.516 -1.4,2.563 -0.3,1.044 -1.6,1.071 -2.4,1.653 -1,0.192 -2,0.925 -2,2.062 -0.3,1.664 -0.2,3.364 -0.1,5.034 -0.2,1.07 1,1.6 0.9,2.54 0,1.47 0,2.95 0,4.42 -0.1,0.88 -1.2,1.44 -1,2.4 0,3.61 0,7.23 0,10.84 -0.9,0.61 -0.9,1.79 -0.1,2.4 0.2,1.31 0.1,2.65 0.1,3.98 -0.5,0.72 -1,1.8 -0.5,2.77 0.4,0.79 0.6,1.65 0.5,2.52 0,5.28 0,10.55 0,15.83 -0.8,0.68 -1.1,1.78 -1,2.81 0,1.26 -0.1,2.52 0,3.78 0.3,1.38 0.7,2.78 0.4,4.19 -0.6,0.94 -0.3,2.12 -0.4,3.18 0,9.06 0,18.11 0,27.16 -1.2,0.6 -1.1,2.3 -0.8,3.4 0.4,0.8 1.1,1.8 0.2,2.5 -0.7,1 1,1.9 1.9,1.3 0.9,-0.2 1.7,0.7 2.7,0.7 1.2,0.1 1.2,1.5 1.6,2.3 0.5,1.2 0.6,2.6 -0.4,3.7 -0.1,0.9 -0.6,1.5 -1.6,1.5 -0.8,0.5 -1.8,0.2 -2.6,0.4 z m -4,-3.1 c 0.5,-0.1 2.5,0 1.3,-0.6 -1.1,-0.6 -2.1,-1.5 -3.4,-1.3 -1.8,-0.2 -3.6,-0.7 -5.4,-0.8 -0.9,0.4 -1.8,0.2 -2.8,0.3 -0.7,0 -1.5,0 -2.2,0 -0.9,0.4 -1.9,-0.2 -2.8,0 -1.2,0.4 -2.4,0.1 -3.5,0 -1.2,-0.1 -2.2,-0.7 -3.3,-0.3 -0.9,0.4 -1.8,0.2 -2.7,0.4 -0.8,0.6 -1.7,0.1 -2.5,-0.3 -0.9,-0.3 -2.2,0.7 -1.4,1.6 0.8,0.3 1.6,0.6 2.5,0.8 1,0.3 2.1,0.2 3.2,0.2 0.9,0.4 1.8,-0.6 2.8,-0.2 1.2,0.1 2.4,0.3 3.6,0.3 0.7,0.4 1.3,0.1 1.9,0.1 3.6,0 7.1,0 10.7,0 m 3,-2.1 c 1.2,0.6 2.4,1.3 3.6,1.8 0.9,0 2.7,0.3 2.4,-1.1 -0.6,-0.6 -1.8,-0.6 -2.7,-0.7 -0.4,0 -0.8,0 -1.3,0 m -1,-3.4 c 0,-1.5 0,-3 0,-4.5 1.1,-1.6 0.8,-3.6 0.9,-5.4 0.2,-4.2 0.1,-8.41 0.1,-12.62 -1.1,-0.2 -0.7,-1.48 0,-1.8 0.1,-1.3 0,-2.62 0,-3.92 0,-7.18 0,-14.36 0,-21.54 0.2,-1.22 1.2,-2.24 1,-3.53 0,-4.57 0,-9.14 0,-13.71 -1.2,-0.64 -1,-2.15 -1,-3.29 0,-4.37 0,-8.74 0,-13.1 0.2,-2.19 1.2,-4.28 1,-6.49 0,-1.56 0,-3.13 0,-4.69 -0.3,-1.33 -1.2,-2.53 -1,-3.94 0,-0.96 0,-1.93 0,-2.893 0.6,-0.467 1.2,-2.445 -0.1,-1.955 -0.9,0.335 -2.1,0.1 -2.9,0.551 0,3.387 0,6.807 0,10.207 0.6,2.77 1.1,5.57 1,8.41 0,2.75 0,5.5 0,8.25 -0.3,0.7 -1.2,1.11 -1,2 0,8.58 0,17.16 0,25.74 -1,0.71 -0.8,2.08 -0.9,3.14 -0.2,2.27 -0.1,4.55 -0.4,6.8 -0.1,0.87 -0.5,1.69 -0.7,2.51 0,3.78 0,7.57 0,11.35 0.6,1.98 1.1,4.01 1,6.09 0,1.34 0,2.67 0,4.01 -0.7,0.89 -0.7,2.1 -0.8,3.17 -0.1,2.35 -0.3,4.75 -0.2,7.05 0.5,0.9 0.7,2 0.1,2.9 -0.2,0.3 -0.1,0.8 -0.1,1.2 1.3,0 2.7,0 4,0 z m -15,-0.3 c 0.3,-0.1 0.9,0.2 1,-0.1 0,-5.2 0,-10.3 0,-15.44 0.2,-2.04 1.2,-3.96 1,-6.04 0,-6.28 0,-12.57 0,-18.85 0.2,-0.69 1.3,-0.93 1,-1.82 0,-4.14 -0.1,-8.28 0.2,-12.41 0,-1.48 0.5,-2.91 0.8,-4.34 0,-3.26 0,-6.53 0,-9.79 0.2,-1.33 -0.7,-2.39 -1,-3.51 0,-4.14 0,-8.28 0,-12.42 1.1,-0.6 0.7,-1.86 0,-2.55 -0.3,-1.19 0.3,-2.13 0.7,-3.21 0.4,-2.1 0.3,-4.27 0.3,-6.4 -0.1,-0.93 -0.1,-1.96 -0.8,-2.63 -0.4,-0.55 -0.1,-1.229 -0.2,-1.852 0.2,-0.695 -0.5,-1.118 -1.2,-1.037 -1.6,-0.04 -3.2,-0.02 -4.8,-0.03 0,4.399 0,8.799 0,13.199 0.5,0.85 1.2,1.67 1,2.72 0,0.94 0,1.88 0,2.81 -0.3,0.7 -1.2,1.11 -1,1.94 0,15.54 0,31.07 0,46.61 -0.2,0.86 -1.3,1.52 -0.5,2.42 0.3,1.21 0.3,2.5 -0.1,3.69 -0.7,0.61 -0.3,1.59 -0.4,2.39 0,5.75 0,11.5 0,17.25 0.1,1.2 -0.5,2.2 -1,3.2 -0.3,1 1.1,1.3 0.6,2.5 -0.1,0.8 -1.1,1.6 -0.4,2.4 0.9,0.3 0.5,1.6 1.5,1.3 1.1,0.3 2.2,0.3 3.3,0 z m -8,0 c 0.6,0 0.9,-0.7 0.2,-0.8 -0.6,-0.9 0.7,-1.4 0.8,-2.1 0,-1.3 0,-2.6 0,-3.9 0.3,-0.7 1.3,-1 1,-2 0,-23.58 0,-47.2 0,-70.82 0.9,-2.96 0.9,-6.09 1,-9.16 -0.4,-0.95 -1.2,-1.71 -1,-2.83 0,-2.15 0,-4.3 0,-6.45 0,-1.37 0,-2.744 0,-4.117 -0.9,-0.794 -1.9,0.749 -1.8,1.601 0,0.996 0.9,1.746 0.8,2.746 0,1.74 0,3.47 0,5.21 -1,1.53 -1.1,3.43 -1,5.21 0,3.73 0,7.46 0,11.19 -1,0.86 -1.2,2.28 -0.6,3.42 0,1.04 -0.5,2.03 -0.4,3.08 0,1.33 0,2.66 0,3.98 -0.1,0.9 -0.9,1.51 -1,2.36 0,7.89 0,15.77 0,23.66 -0.7,1.34 -1,2.99 -0.3,4.41 0.5,1.26 0.2,2.63 0.3,3.95 0,10.56 0,21.06 0,31.66 0.6,-0.2 1.3,-0.4 2,-0.3 z m 15,0 c 0.8,-0.2 1.8,-0.8 2,-1.6 0,-13.76 0,-27.54 0,-41.32 0.1,-1.62 1.2,-3.06 1,-4.73 0,-4.06 0,-8.11 0,-12.17 1,-0.77 0.8,-2.06 0,-2.83 -0.2,-0.94 0.2,-1.68 0.9,-2.29 0.4,-0.95 -0.2,-1.88 -0.3,-2.8 -0.1,-1.59 0,-3.17 0.2,-4.74 0.4,-3.75 0.1,-7.52 0.2,-11.28 0,-4.53 0,-9.06 0,-13.59 -0.1,-1.27 -0.5,-2.49 -1,-3.65 0.2,-0.92 -0.2,-2.168 -1.4,-1.495 -0.7,0.217 -2.4,-0.235 -2.6,0.74 0,1.715 0,3.425 0,5.135 0.9,0.5 0.7,1.7 0.7,2.57 -0.2,1.52 -0.8,2.99 -0.7,4.54 0,12.63 0,25.26 0,37.89 -0.4,4.12 -0.7,8.27 -1.4,12.35 -0.3,1.16 -0.7,2.3 -0.6,3.5 0,4.69 0,9.38 0,14.07 -0.1,4.18 -0.7,8.34 -1,12.5 0,3.1 0,6.1 0,9.2 1.3,0 2.7,0 4,0 z m -6,-104.223 c 2.3,-0.06 4.6,-0.524 6.9,-0.509 0.8,0.04 1.6,0.53 2.4,0.05 0.8,-0.306 1.4,-1.125 2.3,-0.478 0.9,0.218 1.9,0.131 2.8,0.08 0.8,-0.354 1.7,-0.955 2.6,-0.498 1.2,0.331 2.6,0.134 3.6,-0.635 0.8,-0.578 0.4,-1.685 -0.5,-1.658 -1,-0.569 -2.2,-0.866 -3.4,-1.061 -3.2,-0.206 -6.3,-0.416 -9.5,0.138 -0.9,0.01 -1.7,-0.361 -2.6,-0.233 -0.5,0 -1.1,0 -1.6,0 -0.8,0.554 -1.8,0.167 -2.7,0.305 -1.4,0.01 -2.7,0.06 -4,0.284 -0.8,0.449 -1.7,0.09 -2.5,0.209 -1.3,0 -2.5,-0.01 -3.7,0.02 -0.7,0.651 -1.9,0.233 -2.4,1.169 -0.7,0.392 -1.1,1.674 -0.2,2.076 1,0.38 2,0.376 3,0.1 1.2,-0.102 2.5,-0.03 3.7,0.127 1,0.145 2,0.662 3,0.511 0.9,0 1.9,-0.03 2.8,0 z M -905.9,115 c -0.8,-0.7 -1.9,0 -2.7,-0.4 -2.5,-0.3 -5.1,0.3 -7.5,-0.1 -3.8,-0.5 -7.7,-0.6 -11.5,-0.6 -1.1,-0.2 -2.2,0.5 -3.3,0.4 -1.4,-0.3 -3,0 -4.2,-1.1 -1.3,-1.6 -1,-4.3 0.7,-5.6 0.5,-0.6 0.8,-1.3 1.8,-1.1 0.9,-0.2 0.5,-1.5 0.7,-2.2 0,-15.74 0,-31.48 0,-47.22 0.8,-3.07 0.9,-6.27 0.9,-9.43 0.1,-3.42 0.2,-6.85 0.1,-10.26 -0.1,-1.92 -0.5,-3.83 -1,-5.68 0,-2.2 0,-4.41 0,-6.62 0,-4.35 0,-8.7 0,-13.05 -0.2,-1.11 -0.1,-2.583 -1.1,-3.301 -0.9,-0.325 -1.1,-1.087 -2,-1.229 -0.8,-0.643 -2,-1.356 -1.9,-2.509 0,-1.175 0,-2.349 0,-3.524 0.6,-0.7603 1.6,-1.0297 2.5,-1.1103 7.6,-0.2192 15.1,-0.2258 22.7,-0.4643 1.1,0.2889 2.1,-0.4514 3.3,-0.4928 1.1,-0.1282 2.2,-0.6686 3.3,-0.4686 0.9,0.1336 1.8,0.5079 2.7,0.7049 1.6,0.7418 2,3.1971 0.7,4.4501 -1.1,1.179 -2,2.552 -3.2,3.681 -0.2,1.058 -2,0.03 -2,1.174 0,19.539 0,39.089 0,58.629 0.6,6.92 0.9,13.85 0.9,20.79 0.1,6.04 0.1,12.13 0.1,18.13 1.1,0.8 2.6,0.6 3.6,1.6 0.8,0.6 1.5,1.6 1.4,2.7 0.3,1 0.7,2.2 -0.5,3 -0.5,0.9 -1.5,0.8 -2.3,0.5 -0.6,0.3 -1.5,1.2 -2.2,0.7 z m 2,-2.4 c 0.4,-0.5 1.4,-0.5 1,-1.4 0.2,-1.2 -0.7,-1.9 -1.7,-2 -0.6,-0.5 -1.6,-0.3 -1.1,0.5 -0.9,0.6 -2.2,0.4 -3.3,0.3 -1.7,-0.3 -3.4,-0.2 -5.2,-0.3 -1.2,0 -2.5,0.1 -3.7,-0.2 -1.8,-0.1 -3.5,0.3 -5.2,0.5 -0.9,0 -1.9,0 -2.8,0 -0.6,-0.6 -1.7,0.2 -2.2,-0.6 -0.9,0 -1.8,-0.3 -2.7,-0.2 -0.5,0 -1,-0.1 -1.5,0.1 -0.6,0.4 -1.2,1.4 -0.9,2.1 0.9,0.5 1.9,0.1 2.9,0.3 1.2,0.3 2.4,-0.2 3.6,-0.3 1.5,-0.3 3.1,-0.2 4.6,0.3 1.1,0.3 2.2,-0.3 3.1,0.4 0.8,0.6 1.7,-0.1 2.6,0.1 2.4,0 4.8,-0.2 7.2,-0.1 1.3,0.3 2.6,0.3 4,0.5 0.4,0.1 1.3,0.9 1.3,0 z m -9,-5.3 c -0.5,-3.5 -1.1,-7.1 -1,-10.69 0,-1.38 0,-2.75 0,-4.13 0.5,-1.61 0.5,-3.35 0.3,-5.02 -0.2,-1.65 -0.4,-3.31 -0.3,-4.98 0,-12.97 0,-25.93 0,-38.9 -1.1,-1.3 -0.6,-3.12 -0.3,-4.63 0.5,-1.8 0.3,-3.69 0.2,-5.54 0,-1.31 -0.3,-2.58 -0.8,-3.78 -0.3,-0.79 0,-1.59 -0.1,-2.39 0,-6.56 0,-13.11 0,-19.663 -1.2,-0.07 -2.4,0.07 -3.6,0.208 -0.7,-0.192 -1.6,-0.06 -1.4,0.816 0,2.559 0,5.109 0,7.669 -0.6,-0.31 -0.8,0.65 -0.1,0.49 0.2,0.67 0.1,1.39 0.1,2.08 0,1.44 0,2.89 0,4.33 1,1.15 1.1,2.7 1,4.13 0,6.31 0,12.62 0,18.93 0.6,3.24 1.1,6.51 1,9.81 0,7.74 0,15.49 0,23.23 -0.3,1.83 -1.5,3.71 -0.7,5.58 0.5,1.21 0.8,2.48 0.7,3.79 0,6.05 0,12.06 0,18.16 1,0.4 2.1,0.5 3.1,0.4 0.6,0.1 1.6,1.1 1.9,0.1 z m 4,-0.2 c 1,0.5 1.1,-0.8 1,-1.4 0,-2.4 0,-4.8 0,-7.12 1,-1.5 0.9,-3.52 0.1,-5.08 -0.2,-1.42 0,-2.88 -0.1,-4.31 0,-16.35 0,-32.69 0,-49.04 0.3,-1.08 -1.3,-1.9 -0.8,-2.82 0.7,-0.34 1,-0.94 0.8,-1.69 -0.1,-0.59 0.2,-1.25 -0.2,-1.76 -1.2,-2.52 -0.7,-5.34 -0.8,-8.02 0,-5.95 0,-11.89 0,-17.836 -0.8,-0.518 -1.8,-0.1 -2.6,-0.265 -0.8,0.303 -0.3,1.194 -0.4,1.813 0,24.398 0,48.798 0,73.198 -0.1,1.39 0.5,2.64 1,3.84 0.1,1.23 -0.1,2.42 -0.3,3.63 -0.3,3.55 0,7.12 0,10.66 0.1,1.8 0.3,3.6 0.3,5.4 -0.3,1 0.9,1.4 1.6,0.8 h 0.2 z m -12,0 c 0.2,0 1.3,0.1 0.7,-0.1 -1,-0.3 -0.7,-1.5 0.2,-1.7 0.3,-0.6 0,-1.3 0.1,-2 0,-1.4 0,-2.9 0,-4.33 -0.3,-0.77 -1.2,-1.31 -1,-2.19 0,-11.5 0,-23 0,-34.5 0.9,-0.92 0.1,-2.29 0.1,-3.38 -0.2,-1.95 -0.1,-3.91 -0.1,-5.87 0,-3.16 0,-6.33 0,-9.5 -0.2,-0.67 -1.2,-0.98 -1,-1.79 0.1,-0.37 -0.2,-0.92 0.1,-1.14 0.8,-0.9 -0.2,-2.07 -0.1,-3.1 0,-1.16 -0.4,-2.44 0.8,-3.05 0.6,-0.87 -1.3,-1.35 -0.2,-2.27 0.9,-0.69 0.2,-1.62 -0.5,-2.14 -0.2,-0.49 0,-1.08 -0.1,-1.61 0,-1.4 0.1,-2.82 -0.1,-4.21 -0.9,-3.81 -0.9,-7.75 -0.9,-11.64 0.9,-0.1 1.1,-1.14 1,-1.88 0,-0.975 0,-1.949 0,-2.923 -0.2,0.618 -1.4,0.147 -1.9,0.582 -0.8,-0.206 -1.3,-0.04 -1.1,0.809 0,7.562 0,15.132 0,22.692 -0.1,1.27 0.8,2.24 1,3.36 0,3.77 0,7.55 0,11.32 0,2.46 -1.2,4.77 -1,7.23 0,12.57 0,25.14 0,37.71 1.4,4.37 0.9,9.02 1,13.52 0,0.7 0,1.4 0,2.1 0.8,0 1.7,0 2.5,0 0.2,0 0.3,0 0.5,0 z m -6,-0.3 c 0,-1.6 0.1,-3.2 0.9,-4.6 0.3,-1 0,-2.1 0.1,-3.2 0,-0.41 0,-0.81 0,-1.22 -1.2,-0.67 -1,-2.18 -1,-3.34 0,-4.64 0,-9.28 0,-13.91 -0.1,-2.75 -0.6,-5.45 -0.9,-8.18 -0.2,-3.57 -0.2,-7.16 0.1,-10.74 0.1,-1.99 0.4,-3.97 0.8,-5.92 0,-10.4 0,-20.81 0,-31.21 -1.2,-0.99 -1,-2.7 -1,-4.08 0,-0.73 1.7,-1.43 0.6,-2.29 -0.9,-0.12 -0.5,-1.15 -0.6,-1.81 0,-2.13 0,-4.26 0,-6.385 0,-1.199 -1.2,-1.566 -2.1,-1.831 -1,-0.42 -1,0.631 -0.9,1.274 0,5.422 0,10.832 0,16.252 0.4,4.4 1,8.78 1,13.21 0,12.74 0,25.48 0,38.22 0.1,6.33 -0.4,12.66 -1,18.96 0,3.43 0,6.9 0,10.3 1.3,0.2 2.7,0.3 4,0.7 0,0 0,-0.1 0,-0.2 z m 2,-100.523 c 0.9,-0.313 1.9,-0.738 2.8,-0.94 1,0.377 1.9,-0.241 2.9,0.06 1.1,0.361 2.4,0.507 3.5,-0.133 1.2,-0.176 2.5,0.106 3.7,0.187 1.4,0.155 2.8,-0.172 4.1,0.222 0.9,0.502 1.9,-0.115 2.6,-0.572 0.7,-0.458 0.2,-1.448 1,-1.859 0.8,-0.765 0,-1.734 -0.9,-1.345 -1.9,-0.02 -3.7,0.09 -5.4,0.568 -3.2,0.491 -6.3,0.215 -9.5,0.34 -2.2,0.516 -4.5,-0.174 -6.7,-0.03 -2.1,0.01 -4.1,0.248 -6.1,0.367 -0.7,0.126 -2.2,0.01 -2,1.153 0.3,1.35 2,1.346 3.1,1.368 1.8,0.05 3.7,-0.119 5.5,0.153 0.3,0.428 0.9,0.531 1.4,0.46 z"
                   id="path3717-8-7-0-7-8-2"
                   sodipodi:nodetypes="cccccccccsssssssscccccscsssssssssssssssssssssssssssssssscssssssssssssssssssssssssssssssssssssssssssssssssssssssccccccccscccccccccccccccccssssssssssssssssssssssssccccccccccccssssssssssssssscsssssssssssssssssssssssssssssssssssccccsccssssssssssssssssssssssscsssssssssssssssssssssssssssssssssssssssssssssssssssssssssssssssssssssssssssssssssssssssscssccccssssssssssssssssssssssssssssssssssssssssssssssccssssssssssssssssssssssssssssssssccssssssssssscssssssssssssssscssssssssssssssssssssscsssssscsssssssssssssssssssssssssssssssssssssscssssssssssssssssssssssssssscsscsssssssssssssssssssssscsssssssssssssssscssssscsssssssssssssssssssssssssssccssssssssssssssssssssssssssssssssssssssssssssssssssssssssssssssssssssssssssssssssssssssssssssssssssssscssssssssssssssssssssssssssssssss" /><path
                   style="fill:none;fill-opacity:1;stroke:#000000;stroke-width:2.81038;stroke-linejoin:round;stroke-dasharray:none;stroke-opacity:1"
                   d="m -946.8,-50.32 c 1.7,-0.88 3.3,-2 5.1,-2.8 1.3,0 2.7,0 4.1,0 1.6,0.7 3.3,1.3 4.9,2 1.8,-0.1 3.5,-0.32 5.3,-0.25 4.4,0.83 8.8,1.89 13.2,2.03 2,0.19 4,0.1 6,-0.11 3.8,-0.16 7.7,0 11.5,0 3.2,-0.24 6.5,-0.45 9.7,-0.18 2.2,0.26 4.4,0.55 6.6,0.46 2.6,0 5.2,0 7.7,0 1.7,0.24 3.4,0.63 5.1,0.41 3.3,-0.2 6.6,-0.24 9.8,-0.26 1.8,0 3.6,-0.14 5.4,-0.16 1.2,0.59 2.4,1.19 3.6,1.78 2.5,-0.25 4.9,-0.6 7.4,-0.5 2.5,0 4.9,0 7.3,0 2.8,-0.64 5.6,-1.26 8.5,-1.66 0.9,-0.28 1.9,-0.22 2.8,0 1.2,0.18 2.4,0.35 3.5,0.56 1.7,-0.56 3.4,-1.33 5.2,-1.81 4.4,-0.25 8.8,-0.67 13.3,-0.59 0.7,0 1.4,-0.1 2.1,0.23 1.3,0.39 2.7,0.75 4.1,1.17 2,-0.17 4,-0.52 6,-0.57 1.3,0.1 2.6,0.18 3.9,0.27 0.2,2.47 0.6,4.93 0.7,7.4 -0.5,4.44 -1.2,8.88 -1.4,13.34 0.1,2.03 0.5,4.03 0.6,6.07 0.2,3.84 0.1,7.69 0.1,11.53 0,1.84 0.1,3.685 -0.2,5.508 -0.2,1.482 -0.4,2.963 -0.5,4.449 -2.1,0.239 -4.1,0.689 -6.2,0.77 -2.8,-0.22 -5.6,-0.308 -8.4,-0.275 -1.5,-0.191 -2.9,-0.666 -4.4,-0.954 -2,-0.461 -4.1,-0.641 -6.2,-0.591 -3.1,0.143 -6.3,0.309 -9.4,0.696 -1.5,0.08 -3,-0.235 -4.5,-0.408 -1.7,-0.228 -3.4,-0.76 -5.1,-1.075 -1.2,0.04 -2.4,0.473 -3.6,0.688 -1.1,0.355 -2.2,0.376 -3.3,0.136 -4.1,-0.48 -8.2,-0.788 -12.3,-1.085 -1.7,0.933 -3.3,1.967 -5,2.9 -3.1,-0.238 -6.2,-0.348 -9.2,-0.305 -1.7,-0.08 -3.2,0.471 -4.8,0.7348 -0.8,0.336 -1.7,-0.064 -2.5,-0.2568 -1,-0.324 -2.1,-0.55 -3.1,-0.477 -5,0 -9.9,0 -14.9,0 -2.6,0.333 -5.2,1.0721 -7.8,0.8922 -2.2,-0.1462 -4.4,0.4077 -6.5,0.7193 -1.4,0.1397 -2.8,-0.1826 -4.2,-0.2505 -1.3,0.032 -2.4,-0.2846 -3.3,-1.174 -0.9,-0.92 -2,-1.145 -3.3,-0.985 -4.7,0.01 -9.5,-0.05 -14.3,-0.625 -1.6,-0.19 -3.3,-0.903 -5,-0.542 -2.3,0.199 -4.5,0.479 -6.8,0.296 -1.5,-0.04 -2.9,-0.08 -4.4,-0.126 -0.9,0.248 -2.3,1.301 -2.9,1.12 0,-11.18 0,-22.36 0,-33.54 0.2,-2.52 0.6,-5.03 0.7,-7.55 -0.2,-2.33 -0.5,-4.72 -0.7,-7.02 z"
                   id="path2208-2-1-8-8-4-2-6-6-9"
                   sodipodi:nodetypes="ccccc" /></g></g></g></g></g><text
         xml:space="preserve"
         transform="matrix(0.2646,0,0,0.2646,920.1,352.2)"
         id="text9656-9-4"
         style="font-style:normal;font-variant:normal;font-weight:normal;font-stretch:normal;font-size:47.997px;font-family:'Atkinson Hyperlegible Next';-inkscape-font-specification:'Atkinson Hyperlegible Next, Normal';font-variant-ligatures:normal;font-variant-caps:normal;font-variant-numeric:normal;font-variant-east-asian:normal;white-space:pre;shape-inside:url(#rect9658-5-8);display:inline;fill:#000000;fill-opacity:1;stroke:none;stroke-width:5.6693;stroke-linejoin:round;stroke-dasharray:none;stroke-dashoffset:0;stroke-opacity:1"><tspan
           x="-2175"
           y="-1216"
           id="tspan14373">We have an answer:</tspan></text><text
         xml:space="preserve"
         transform="matrix(0.2646,0,0,0.2646,925.5,520)"
         id="text9656-9-4-0"
         style="font-style:normal;font-variant:normal;font-weight:normal;font-stretch:normal;font-size:47.997px;font-family:'Atkinson Hyperlegible Next';-inkscape-font-specification:'Atkinson Hyperlegible Next, Normal';font-variant-ligatures:normal;font-variant-caps:normal;font-variant-numeric:normal;font-variant-east-asian:normal;white-space:pre;shape-inside:url(#rect9658-5-8-1);display:inline;fill:#000000;fill-opacity:1;stroke:none;stroke-width:5.6693;stroke-linejoin:round;stroke-dasharray:none;stroke-dashoffset:0;stroke-opacity:1"><tspan
           x="-2175"
           y="-1216"
           id="tspan14375">. . . or the stopping of CO2 emissions. One ton of CO2 </tspan><tspan
           x="-2175"
           y="-1156"
           id="tspan14377">costs society $230 (according to the EPA), and we </tspan><tspan
           x="-2175"
           y="-1096"
           id="tspan14379">have an easy way to stop millions of them.</tspan></text></g></g></svg>
