<?xml version="1.0" encoding="UTF-8" standalone="no"?>
<!-- Created with Inkscape (http://www.inkscape.org/) -->

<svg
   width="41.73mm"
   height="20.65mm"
   viewBox="0 0 41.73 20.65"
   version="1.1"
   id="svg5"
   xml:space="preserve"
   inkscape:version="1.2.2 (b0a8486541, 2022-12-01)"
   sodipodi:docname="icons.svg"
   xmlns:inkscape="http://www.inkscape.org/namespaces/inkscape"
   xmlns:sodipodi="http://sodipodi.sourceforge.net/DTD/sodipodi-0.dtd"
   xmlns="http://www.w3.org/2000/svg"
   xmlns:svg="http://www.w3.org/2000/svg"><sodipodi:namedview
     id="namedview7"
     pagecolor="#ffffff"
     bordercolor="#000000"
     borderopacity="0.25"
     inkscape:showpageshadow="2"
     inkscape:pageopacity="0.0"
     inkscape:pagecheckerboard="0"
     inkscape:deskcolor="#d1d1d1"
     inkscape:document-units="mm"
     showgrid="false"
     inkscape:zoom="0.18"
     inkscape:cx="1328"
     inkscape:cy="1117"
     inkscape:window-width="1920"
     inkscape:window-height="1011"
     inkscape:window-x="0"
     inkscape:window-y="0"
     inkscape:window-maximized="1"
     inkscape:current-layer="layer1"><inkscape:grid
       type="xygrid"
       id="grid2957" /></sodipodi:namedview><defs
     id="defs2" /><g
     inkscape:label="Layer 1"
     inkscape:groupmode="layer"
     id="layer1"
     transform="translate(-446.9,-81.86)"><g
       id="g6057"
       transform="translate(4.548)"><g
         id="g4041"
         transform="matrix(1.036,0,0,1.036,-11.73,95.85)"><g
           id="g4032"><g
             id="g2533"
             transform="translate(85.1,-15.47)"><g
               id="g2526"><g
                 id="g2520"><g
                   id="g2515"><path
                     style="fill:#000000;stroke-width:0.0960729"
                     d="m 353.4,4.451 c 0.2,-0.539 0,-1.559 0.8,-1.55 0.7,0.03 0.9,0.71 0.8,1.251 0,3.337 0,6.678 0,10.008 -0.1,0.52 -0.5,1.71 0.3,1.7 0.8,-0.22 1.5,-0.62 2.2,-0.76 1,-0.22 1.9,-0.7 2.9,-1.01 0.7,-0.28 0.9,-1.04 0.8,-1.7 0.1,-3.236 -0.3,-6.473 0,-9.701 0.2,-0.711 1.5,-0.615 1.4,0.169 0,0.736 -0.2,1.468 -0.1,2.206 -0.1,3.629 0,7.256 0,10.886 0,0.68 0.4,1.42 0,2.06 -0.4,0.56 -1.3,0.41 -1.5,-0.26 -0.1,-0.53 0.1,-1.11 -0.1,-1.63 -0.1,-0.78 -1,-0.4 -1.5,-0.2 -0.7,0.21 -1.4,0.41 -2.1,0.74 -1.1,0.43 -2.2,0.98 -3.3,1.31 -0.5,0 -0.9,-0.55 -0.8,-1.03 0,-0.46 0.2,-0.91 0.2,-1.37 0.2,-3.23 0,-6.461 -0.1,-9.689 0,-0.478 0,-0.957 0,-1.435 0,0.02 0.1,-0.04 0.1,0 z m 11.1,5.999 c 0.9,-1.076 1.8,-2.187 2.6,-3.362 0.9,-1.182 1.8,-2.337 2.7,-3.493 0.5,-0.575 1,-1.26 1.7,-1.623 0.7,-0.08 1,1.091 0.4,1.483 -1,1.112 -2,2.117 -2.8,3.311 -0.7,0.87 -1.5,1.68 -2.1,2.58 -0.3,0.482 -0.6,1.294 0.1,1.554 1.1,0.83 2.4,1.33 3.6,2.16 0.5,0.42 1.1,0.93 1.3,1.61 0.1,0.81 -0.8,1.14 -1.3,1.53 -1,0.72 -1.9,1.51 -2.9,2.22 -0.7,0.56 -1.4,1.12 -1.6,1.98 -0.1,0.56 -0.6,1.38 -1.3,0.88 -0.7,-0.47 -0.5,-1.42 0,-1.94 0.8,-1.04 1.8,-1.93 2.9,-2.74 0.6,-0.54 1.3,-1.02 1.8,-1.7 0.5,-0.75 -0.6,-1.06 -1.1,-1.37 -0.8,-0.4 -1.6,-0.87 -2.4,-1.49 -0.5,-0.32 -1.3,-0.45 -1.6,-1.09 0,-0.16 -0.2,-0.38 0,-0.5 z m 9.3,6 c 0.2,-2.08 0.3,-4.17 0.7,-6.22 0.2,-1.317 0.1,-2.668 0.5,-3.948 0.1,-1.035 0.1,-2.076 0.2,-3.111 0.5,-0.491 1.6,-0.646 1.8,0.1 0.4,0.698 1,1.233 1.4,1.829 1,1.059 2.1,1.942 3.1,2.98 1,1.121 2,2.17 3,3.23 0.4,0.72 -0.4,1.27 -1,1.48 -1.4,0.77 -2.7,1.5 -4,2.46 -0.6,0.47 -1.2,0.88 -1.9,1.33 -0.6,0.49 -1.2,1.03 -1.7,1.66 -0.6,0.55 -1.6,0.22 -2,-0.42 -0.2,-0.43 -0.1,-0.92 -0.1,-1.37 z m 1.5,-0.1 c 0.7,-0.27 1.1,-0.94 1.8,-1.23 1.1,-0.86 2.2,-1.62 3.3,-2.4 0.6,-0.5 1.4,-0.78 1.8,-1.52 -0.3,-0.83 -1,-1.358 -1.6,-1.987 -1.3,-1.34 -2.8,-2.538 -4.1,-3.944 -0.3,0.785 -0.1,1.652 -0.3,2.457 -0.1,0.821 -0.4,1.637 -0.3,2.474 -0.5,1.79 -0.5,3.66 -0.7,5.5 -0.2,0.15 -0.2,0.62 0.1,0.65 z"
                     id="path886-5"
                     sodipodi:nodetypes="sssscssssssssssssssssssssssssscssssssssssscssssccssssssssssssssssssssssssssssscssssssssssssssssssssssssssssssscsssssssss" /><path
                     style="fill:#000000;stroke-width:0.0960729"
                     d="m 388.9,19.31 c 1,-0.8 1.9,-1.84 2.7,-2.85 0.6,-0.53 1.3,0.41 0.9,0.99 -0.4,0.81 -1.2,1.26 -1.8,1.85 -0.2,0.91 -1.3,1.25 -1.7,2.05 -0.3,0.53 -1.2,0.81 -1.6,0.21 -0.3,-0.5 0.1,-1.06 0.5,-1.39 0.3,-0.28 0.7,-0.58 1,-0.86 z m 2.5,-7.5 c 0.3,-0.67 1.2,-0.46 1.7,0 0.5,0.4 0.5,1.27 -0.1,1.65 -0.6,0.53 -1.2,-0.17 -1.4,-0.74 -0.1,-0.29 -0.4,-0.6 -0.2,-0.89 z"
                     id="path886-5-6"
                     sodipodi:nodetypes="sssssssssssssssssssscs" /></g></g></g></g></g></g></g></g></svg>
