<?xml version="1.0" encoding="UTF-8" standalone="no"?>
<!-- Created with Inkscape (http://www.inkscape.org/) -->

<svg
   width="61.98mm"
   height="28.66mm"
   viewBox="0 0 61.98 28.66"
   version="1.1"
   id="svg5"
   xml:space="preserve"
   inkscape:version="1.2.2 (b0a8486541, 2022-12-01)"
   sodipodi:docname="icons.svg"
   xmlns:inkscape="http://www.inkscape.org/namespaces/inkscape"
   xmlns:sodipodi="http://sodipodi.sourceforge.net/DTD/sodipodi-0.dtd"
   xmlns="http://www.w3.org/2000/svg"
   xmlns:svg="http://www.w3.org/2000/svg"><sodipodi:namedview
     id="namedview7"
     pagecolor="#ffffff"
     bordercolor="#000000"
     borderopacity="0.25"
     inkscape:showpageshadow="2"
     inkscape:pageopacity="0.0"
     inkscape:pagecheckerboard="0"
     inkscape:deskcolor="#d1d1d1"
     inkscape:document-units="mm"
     showgrid="false"
     inkscape:zoom="0.18"
     inkscape:cx="1328"
     inkscape:cy="1117"
     inkscape:window-width="1920"
     inkscape:window-height="1011"
     inkscape:window-x="0"
     inkscape:window-y="0"
     inkscape:window-maximized="1"
     inkscape:current-layer="layer1"><inkscape:grid
       type="xygrid"
       id="grid2957" /></sodipodi:namedview><defs
     id="defs2" /><g
     inkscape:label="Layer 1"
     inkscape:groupmode="layer"
     id="layer1"
     transform="translate(-508.6,-77.86)"><g
       id="g6068"
       transform="translate(4.548)"><g
         id="g4060"
         transform="matrix(1.036,0,0,1.036,-11.73,95.85)"><g
           id="g4050"><g
             id="g2722"
             transform="translate(85.1,-13.51)"><g
               id="g2714"><g
                 id="g2707"><g
                   id="g2701"><g
                     id="g2696"><path
                       style="fill:#000000;stroke-width:0.0960729"
                       d="m 463.6,7.538 c 0.3,-0.735 1.2,-1.049 1.6,-1.767 0.5,-0.817 1.2,-1.555 1.8,-2.382 0.3,-1.276 0.2,-2.6008 0.4,-3.8914 0,-0.8156 -0.1,-1.6426 0,-2.4506 0.2,-0.673 1.1,-1.171 1.8,-0.736 0.5,0.321 0.4,1.029 0.2,1.539 -0.1,0.859 -0.3,1.7119 -0.3,2.5838 0.6,-0.3221 0.8,-1.1923 1.5,-1.2634 0.7,-0.047 1,0.9351 0.6,1.4273 -0.8,1.0283 -2.1,1.8823 -2.3,3.2813 -0.2,1.705 -0.1,3.436 -0.4,5.131 0,0.681 0.5,1.3 1.2,1.47 0.6,0.31 1.2,0.68 1.8,1.15 0.5,0.28 1.4,0.76 1,1.45 -0.5,0.69 -1.4,1.01 -2,1.61 -0.6,0.57 -1.3,1.16 -1.8,1.8 -0.4,0.39 -0.8,0.89 -0.7,1.48 0.2,0.76 0.1,1.53 0.1,2.29 -0.1,1.01 0,2.01 0,3.01 -0.3,0.6 -1.3,0.78 -1.7,0.16 0,-0.79 0.2,-1.58 0.1,-2.37 -0.1,-0.55 0,-1.1 0,-1.65 -0.2,-0.59 -0.6,0.45 -0.8,0.64 -0.3,0.52 -1,1 -1.6,0.71 -0.8,-0.32 -0.6,-1.28 -0.1,-1.74 0.5,-0.45 1.1,-0.84 1.4,-1.44 0.4,-0.48 1.1,-0.91 1.1,-1.63 -0.2,-1.62 0.5,-3.2 0.4,-4.82 0,-0.59 -0.3,-1.152 -0.9,-1.424 -0.6,-0.507 -1.5,-0.731 -2.2,-1.127 -0.2,-0.311 -0.1,-0.702 -0.2,-1.041 z m 2.8,0.4 c 0.1,0.229 0.7,0.459 0.5,-0.02 0.1,-0.508 0.2,-1.52 -0.2,-1.701 -0.4,0.401 -0.9,1.235 -0.3,1.721 z m 2,5.112 c -0.2,0.36 0.1,1.42 0.5,0.73 0.3,-0.52 1.3,-0.95 0.8,-1.62 -0.2,-0.34 -1.2,-1.12 -1.3,-0.32 0,0.41 0.2,0.81 0,1.21 z"
                       id="path886-9"
                       sodipodi:nodetypes="sssssssscsssssssssssssssssssssscsssssssssssscssssssssscssssssscsssss" /><path
                       style="fill:#000000;stroke-width:0.0960729"
                       d="m 413,8.335 c 0.6,-0.327 1.4,-0.337 1.8,-0.964 1.8,-1.204 3,-3.018 4.6,-4.369 1.2,-1.043 2.5,-2.0275 3.9,-2.7655 0.6,-0.2653 1.6,0.577 0.8,1.0815 -0.6,0.374 -1,0.831 -1.5,1.226 -0.5,0.502 -1.1,0.95 -1.7,1.413 -0.4,0.423 -0.8,0.925 -1.4,1.203 -0.9,0.772 -1.7,1.672 -2.6,2.514 0.1,0.613 1,0.208 1.4,0.335 1.4,0.07 2.8,0.06 4.2,0.301 0.8,-0.105 0.9,1.045 0.2,1.202 -0.6,0.1 -1.1,-0.05 -1.7,0.02 -1.6,0.02 -3.3,0 -4.9,0.09 0.4,0.768 1.4,1.108 1.9,1.818 1.6,1.62 3.1,3.31 5,4.69 0.6,0.35 1.3,0.85 1.4,1.64 0.4,0.69 -0.7,1.09 -1.1,0.65 -0.6,-0.25 -0.9,-0.76 -1.3,-1.21 -0.5,-0.42 -0.9,-0.87 -1.4,-1.28 -1,-0.85 -1.9,-1.77 -2.8,-2.73 -0.6,-0.41 -1.1,-0.8 -1.6,-1.27 -0.8,-0.65 -1.8,-1.24 -2.7,-1.68 -0.6,-0.24 -0.8,-0.875 -0.7,-1.444 0,-0.178 0.1,-0.36 0.2,-0.478 z m 12.7,9.105 c 0.2,-1.05 0.2,-2.13 0.6,-3.15 0.3,-1.7 0.7,-3.42 0.8,-5.165 0.3,-0.656 -0.3,-1.447 0.2,-2.047 0.4,-0.627 1.5,-0.548 1.7,0.187 0.2,1.381 1,2.601 1.2,3.985 0.6,1.79 1.3,3.54 2,5.29 0.3,0.52 1.1,1.3 0.5,1.86 -0.5,0.27 -1.2,0.27 -1.6,-0.16 -0.2,-0.68 -0.2,-1.44 -0.5,-2.12 0,-0.61 -0.4,-1.46 -1.1,-0.96 -0.6,0.37 -0.8,1.17 -1.2,1.78 -0.5,0.63 -0.8,1.3 -1.4,1.8 -0.6,0.58 -1.4,-0.26 -1.2,-0.92 0,-0.12 0,-0.25 0,-0.38 z m 2.3,-3.7 c 0.2,-0.64 1.5,-0.58 1,-1.46 -0.1,-0.47 -0.2,-1.2 -0.7,-1.36 0,0.6 0,1.21 -0.2,1.79 0,0.29 -0.4,0.82 -0.1,1.03 z m 4.9,1.6 c 0.6,-0.38 0.9,-1.15 0.8,-1.85 0.1,-1.94 0,-3.89 0.3,-5.813 0,-0.472 0,-0.967 -0.2,-1.403 -0.1,-0.778 1.1,-0.92 1.5,-0.288 0.5,0.545 1.3,0.839 1.9,1.364 1.4,0.889 3,1.604 4.2,2.77 0.6,0.51 1.5,0.82 1.9,1.59 0.2,0.71 -0.7,0.87 -1.2,0.93 -0.8,0.18 -1.5,0.55 -2.3,0.79 -0.3,0.71 0.3,1.34 0.5,1.99 0.3,0.78 0.4,1.71 1.1,2.26 0.6,0.69 -0.5,1.82 -1.2,1.36 -0.7,-0.32 -0.5,-1.19 -0.8,-1.77 -0.5,-0.99 -0.5,-2.2 -1.3,-2.98 -0.9,-0.1 -1.6,0.68 -2.5,0.93 -0.7,0.3 -1,1.14 -0.8,1.85 0,0.78 0.1,1.65 -0.3,2.32 -0.6,0.48 -1.6,-0.25 -1.3,-0.93 0.3,-0.68 0.6,-1.59 0,-2.19 -0.3,-0.18 -0.6,-0.62 -0.3,-0.93 z m 2.1,-1.3 c 1.5,-0.79 3,-1.56 4.6,-2.12 0.4,-0.1 1.6,-0.46 1,-0.95 -0.9,-0.75 -1.8,-1.328 -2.8,-1.826 -0.9,-0.33 -1.5,-0.974 -2.3,-1.332 -0.3,0.919 -0.1,1.912 -0.3,2.848 -0.2,1.11 -0.2,2.25 -0.2,3.38 z m 8.7,1.8 c 0.3,-2.44 0.5,-4.91 0.6,-7.365 0,-0.544 0.1,-1.384 0.8,-1.381 0.8,-0.02 0.8,0.795 0.9,1.34 0.4,1.816 1.2,3.526 1.7,5.326 0.3,1.12 0.8,2.24 1.4,3.23 0.4,-0.65 0.3,-1.47 0.6,-2.16 0.1,-0.75 0.3,-1.48 0.4,-2.23 0.5,-0.84 0.2,-1.87 0.5,-2.771 0.2,-0.941 0.3,-1.922 0.1,-2.87 0,-0.711 1,-1.199 1.5,-0.672 0.6,0.513 0.2,1.312 0.1,1.948 -0.3,2.285 -0.7,4.555 -1.2,6.815 -0.2,0.96 -0.4,1.93 -0.5,2.89 -0.3,0.63 -0.3,1.67 -1.1,1.8 -0.8,0.1 -1,-0.78 -1.1,-1.38 -0.4,-0.93 -1,-1.73 -1.3,-2.7 -0.4,-1.15 -1,-2.26 -1.3,-3.46 0,-0.32 -0.5,-0.55 -0.4,0 -0.3,2.16 -0.1,4.4 -0.7,6.52 -0.4,0.66 -1.4,0.16 -1.1,-0.56 -0.1,-0.76 0.1,-1.52 0.1,-2.28 z"
                       id="path880"
                       sodipodi:nodetypes="sssssccsssscccsscsssssssscssssscsssssssssssssssssssssssssssssssssssssssssssssscsssssssssssssssssssssssssscsssssssssssscscssssssscsssssssssssssssssssssssssssssssssssssssss" /></g></g></g></g></g></g></g></g></g></svg>
