<?xml version="1.0" encoding="UTF-8" standalone="no"?>
<!-- Created with Inkscape (http://www.inkscape.org/) -->

<svg
   width="210.2mm"
   height="28.63mm"
   viewBox="0 0 210.2 28.63"
   version="1.1"
   id="svg5"
   xml:space="preserve"
   inkscape:version="1.2.2 (b0a8486541, 2022-12-01)"
   sodipodi:docname="icons.svg"
   xmlns:inkscape="http://www.inkscape.org/namespaces/inkscape"
   xmlns:sodipodi="http://sodipodi.sourceforge.net/DTD/sodipodi-0.dtd"
   xmlns="http://www.w3.org/2000/svg"
   xmlns:svg="http://www.w3.org/2000/svg"><sodipodi:namedview
     id="namedview7"
     pagecolor="#ffffff"
     bordercolor="#000000"
     borderopacity="0.25"
     inkscape:showpageshadow="2"
     inkscape:pageopacity="0.0"
     inkscape:pagecheckerboard="0"
     inkscape:deskcolor="#d1d1d1"
     inkscape:document-units="mm"
     showgrid="false"
     inkscape:zoom="0.18"
     inkscape:cx="1328"
     inkscape:cy="1117"
     inkscape:window-width="1920"
     inkscape:window-height="1011"
     inkscape:window-x="0"
     inkscape:window-y="0"
     inkscape:window-maximized="1"
     inkscape:current-layer="layer1"><inkscape:grid
       type="xygrid"
       id="grid2957" /></sodipodi:namedview><defs
     id="defs2" /><g
     inkscape:label="Layer 1"
     inkscape:groupmode="layer"
     id="layer1"
     transform="translate(-346.6,-114.1)"><g
       id="g6102"
       transform="translate(4.548)"><g
         id="g4204"
         transform="matrix(1.036,0,0,1.036,-17.8,74.68)"><g
           id="g4182"><g
             id="g4161"><g
               id="g4141"><g
                 id="g4122"><g
                   id="g4104"><path
                     style="fill:#000000;stroke-width:0.0960729"
                     d="m 541.3,49.46 c 0.3,-0.73 1.2,-1.05 1.6,-1.77 0.5,-0.81 1.2,-1.55 1.8,-2.38 0.4,-1.26 0.2,-2.6 0.4,-3.89 0,-0.81 -0.1,-1.64 0,-2.45 0.3,-0.67 1.1,-1.17 1.8,-0.74 0.5,0.36 0.3,1.12 0.2,1.67 -0.1,0.82 -0.3,1.63 -0.3,2.46 0.6,-0.32 0.8,-1.2 1.5,-1.27 0.7,0 1,1 0.5,1.48 -0.8,1 -2,1.86 -2.2,3.23 -0.2,1.7 -0.1,3.43 -0.4,5.13 0,0.68 0.5,1.3 1.2,1.47 0.6,0.31 1.2,0.67 1.8,1.14 0.5,0.28 1.4,0.76 1,1.45 -0.5,0.69 -1.4,1.01 -2,1.61 -0.6,0.57 -1.3,1.16 -1.8,1.8 -0.4,0.39 -0.8,0.89 -0.7,1.48 0.2,0.76 0.1,1.53 0.1,2.29 -0.1,1.01 0,2.01 0,3.01 -0.3,0.64 -1.5,0.76 -1.7,0 -0.1,-0.52 0.2,-1.05 0.1,-1.58 0,-0.69 -0.1,-1.39 0,-2.08 0.1,-0.45 -0.4,-0.62 -0.5,-0.14 -0.3,0.59 -0.7,1.25 -1.4,1.31 -0.8,0.1 -1.3,-0.9 -0.8,-1.49 0.3,-0.6 1,-0.84 1.4,-1.43 0.3,-0.68 1.2,-1.04 1.3,-1.88 -0.1,-0.95 0,-1.91 0.2,-2.85 0.1,-0.91 0.4,-1.9 0,-2.78 -0.2,-0.53 -0.8,-0.79 -1.3,-1.08 -0.5,-0.27 -1.1,-0.47 -1.6,-0.75 -0.2,-0.27 -0.1,-0.64 -0.2,-0.94 z m 2.8,0.4 c 0.2,0.34 0.6,0.37 0.5,-0.11 0.1,-0.47 0.2,-1.44 -0.2,-1.59 -0.4,0.38 -0.9,1.27 -0.3,1.7 z m 2,5.1 c -0.2,0.36 0.1,1.42 0.5,0.73 0.3,-0.52 1.3,-0.95 0.8,-1.62 -0.2,-0.34 -1.2,-1.1 -1.3,-0.32 0,0.41 0.2,0.81 0,1.21 z"
                     id="path886-9-7"
                     sodipodi:nodetypes="sssssssscsssssssssssssssssssssscsssssssssssscssssssssscssssssscsssss" /><g
                     id="g2901"
                     transform="translate(85.1,-14.13)"><g
                       id="g2886"><g
                         id="g2872"><g
                           id="g2859"><g
                             id="g2847"><g
                               id="g2836"><g
                                 id="g2830"><g
                                   id="g2825"><g
                                   id="g2821"><path
                                   style="fill:#000000;stroke-width:0.0960729"
                                   d="m 269.2,54.17 c 0.5,0.61 -0.4,1.3 -1,1.15 -0.5,0 -1.2,0.11 -1.5,0.56 -0.2,0.52 0.1,1.07 -0.1,1.6 -0.2,2.8 -0.1,5.64 0.4,8.39 0.2,1.98 0,3.97 0.3,5.94 0,0.67 0.6,1.06 1.2,0.87 0.7,0 1.5,-0.17 2,0.33 0.5,0.59 -0.2,1.5 -0.9,1.43 -0.6,-0.1 -1.1,-0.1 -1.7,-0.1 -1.5,0 -2.9,0.19 -4.3,0.62 -0.6,0.16 -1.4,-0.38 -1.3,-1.1 0.3,-0.72 1.1,-0.81 1.8,-0.87 0.6,-0.1 1.2,-0.17 1.8,-0.27 0.5,-0.46 0.3,-1.17 0.3,-1.76 -0.1,-2.05 -0.2,-4.12 -0.5,-6.14 -0.2,-0.94 -0.2,-1.9 -0.3,-2.84 -0.1,-1.16 -0.1,-2.33 -0.3,-3.49 -0.1,-0.55 0.1,-1.34 -0.3,-1.75 -0.6,-0.1 -0.8,0.81 -1.4,0.68 -0.8,0.1 -1.3,-0.78 -0.8,-1.36 0.5,-0.43 1.1,-0.67 1.7,-0.9 0.9,-0.27 1.8,-0.56 2.7,-0.82 0.6,-0.1 1.2,-0.29 1.8,-0.23 0.1,0 0.3,0.1 0.4,0 z m 63.8,8.9 c 0.6,0.44 0.4,1.34 -0.1,1.77 -1,1.18 -1.9,2.44 -2.7,3.74 -0.3,0.26 -0.5,0.93 0.1,0.9 1.1,0 2.2,0 3.3,0 0.8,0.24 0.3,1.52 -0.4,1.33 -1.1,0.15 -2.3,0 -3.4,0.32 0.4,0.92 1.4,1.29 2.2,1.93 0.8,0.66 1.6,1.44 2.6,1.95 0.5,0.52 0.1,1.68 -0.7,1.58 -0.7,-0.13 -0.8,-0.91 -1.3,-1.27 -1.1,-0.98 -2.4,-1.72 -3.6,-2.51 -0.4,-0.32 -0.9,-0.4 -1.4,-0.61 -0.6,-0.25 -0.9,-0.88 -0.8,-1.47 0.2,-0.6 1,-0.82 1.2,-1.45 0.5,-0.95 1.4,-1.71 1.8,-2.74 0.8,-1.04 1.4,-2.16 2.1,-3.26 0.2,-0.33 0.8,-0.54 1.1,-0.19 z m -36.3,-0.1 c 0.7,0.25 0.8,1.21 1.5,1.49 0.9,0.56 1.6,1.33 2.5,1.84 0.6,0.43 1.2,0.88 1.9,1.23 0.7,0.1 1.5,0.61 1.2,1.37 -0.3,0.54 -0.9,0.78 -1.4,1.03 -0.7,0.12 -1,0.9 -0.5,1.39 0.9,0.87 1.5,1.92 1.9,3.06 0.3,0.58 0.9,0.94 1,1.57 0.1,0.58 -0.5,1.1 -1,1.02 -0.7,-0.18 -0.8,-0.96 -1,-1.49 -0.4,-1.01 -1.1,-1.83 -1.8,-2.69 -0.2,-0.55 -0.5,-1.23 -1.2,-1.39 -0.8,0.22 -1.4,0.74 -2.1,1.09 -0.6,0.48 -0.2,1.28 -0.2,1.9 0,0.92 0.3,1.83 0.3,2.74 0.1,0.75 -0.9,1.15 -1.4,0.53 -0.5,-0.44 -0.3,-1.18 -0.1,-1.75 0.2,-0.56 -0.1,-1.11 -0.2,-1.68 0,-0.48 -0.2,-0.97 -0.5,-1.31 -0.4,-0.62 0.3,-1.2 0.2,-1.84 0,-1.11 -0.2,-2.22 -0.1,-3.34 0,-1.25 0,-2.5 -0.2,-3.73 0,-0.59 0.7,-0.99 1.2,-1.04 z m 0.4,3.3 c 0,1.45 0,2.9 0.1,4.34 0.5,0.44 1,-0.35 1.5,-0.52 0.6,-0.32 1.2,-0.72 1.8,-1.09 0.4,-0.1 0.8,-0.6 0.3,-0.88 -0.5,-0.48 -1.2,-0.72 -1.7,-1.19 -0.7,-0.28 -1.1,-1.07 -1.9,-1.23 -0.2,0.1 -0.1,0.41 -0.1,0.57 z m -17,-3.1 c 0.5,0.71 0.3,1.66 0.7,2.41 0.2,0.7 0.1,1.48 0.5,2.12 0.3,0.71 0.2,1.5 0.5,2.21 0.2,1.13 0.7,2.2 1.1,3.27 0.3,0.94 0.7,1.87 1,2.8 0.4,0.66 -0.2,1.34 -0.9,1.09 -0.7,-0.1 -0.9,-0.79 -0.9,-1.35 -0.1,-0.7 -0.2,-1.42 -0.5,-2.07 -0.3,-0.71 -0.4,-1.46 -0.6,-2.21 -0.2,-0.8 -0.4,-1.57 -0.8,-2.32 -0.1,-0.39 -0.2,-1.32 -0.7,-1.21 -0.3,0.56 -0.2,1.22 -0.4,1.83 -0.2,1.27 -0.7,2.48 -0.8,3.78 -0.1,0.65 0,1.53 -0.7,1.94 -0.7,0.36 -1.3,-0.29 -1.3,-0.98 -0.4,-1.21 -0.9,-2.4 -1.2,-3.63 -0.3,-0.35 -0.5,-1.31 -0.8,-1.25 0,0.59 -0.1,1.17 -0.1,1.76 0,0.64 0.1,1.29 -0.1,1.92 -0.1,0.68 -0.1,1.46 -0.6,2.02 -0.7,0.44 -1.3,-0.5 -0.9,-1.1 0.1,-0.75 0,-1.5 0.1,-2.25 0,-1.39 0.1,-2.79 0,-4.18 0.2,-1.18 -0.5,-2.33 -0.2,-3.51 0.4,-0.65 1.4,-0.64 1.8,0 0.2,0.7 0.1,1.48 0.5,2.12 0.6,1.7 1.2,3.4 1.8,5.1 0.5,0.22 0.5,-0.76 0.6,-1.05 0.5,-1.89 1,-3.79 1.1,-5.75 0.1,-0.62 0.1,-1.42 0.8,-1.73 0.3,-0.12 0.8,-0.12 1,0.25 z m 45.8,0.3 c 0.6,0.45 0.6,1.49 0,1.96 -0.8,0.99 -1.1,2.26 -1.6,3.43 -0.5,1.28 -1,2.54 -1.4,3.82 -0.3,0.89 -0.4,1.82 -0.5,2.74 -0.3,0.78 -1.6,0.52 -1.8,-0.27 -0.2,-1.04 -0.1,-2.17 -0.5,-3.17 -0.4,-1.16 -0.7,-2.36 -1,-3.53 -0.6,-0.92 -1.1,-1.94 -1.4,-3 -0.2,-0.72 0.8,-1.24 1.3,-0.76 0.4,0.37 0.3,1 0.5,1.49 0.2,0.76 0.3,1.57 0.6,2.29 0.4,0.84 0.6,1.71 0.9,2.56 0.2,0.29 0.3,1.29 0.6,0.63 0.5,-0.76 0.7,-1.68 1.1,-2.46 0.5,-1.08 0.6,-2.3 1.2,-3.34 0.5,-0.73 0.3,-1.81 1.1,-2.39 0.2,-0.29 0.7,-0.26 0.9,0 z m -14.8,0 c 0.2,0.42 -0.2,1.28 0.6,1.24 0.7,0.54 1.1,1.38 1.6,2.1 0.8,1.29 2,2.31 3,3.41 0.3,0.54 -0.1,1.14 -0.5,1.48 -1,1 -1.6,2.26 -2.3,3.38 -0.3,0.59 -0.3,1.38 -1,1.7 -0.7,0.3 -1.4,-0.39 -1.6,-1 -0.6,-0.85 -1.5,-1.31 -2.3,-1.81 -0.8,-0.44 -1.6,-0.8 -2.5,-1.04 -0.6,-0.39 -0.4,-1.22 -0.1,-1.75 0.3,-0.98 0.7,-1.91 1.3,-2.78 0.5,-0.92 1,-1.84 1.5,-2.71 0.4,-1 1.1,-2 2.1,-2.41 0.1,0 0.2,0.1 0.2,0.19 z m -1.4,2.7 c -0.9,1.08 -0.8,2.61 -1.6,3.78 -0.1,0.57 -0.6,1.26 -0.6,1.74 0.9,0.86 2.2,1.04 3.1,1.87 0.5,0.21 1.1,1.31 1.6,0.55 0.3,-0.56 0.7,-1.1 1,-1.69 0.3,-0.54 0.9,-1.02 0.8,-1.71 -0.3,-0.79 -1,-1.32 -1.4,-2.02 -0.6,-0.72 -1.2,-1.34 -1.7,-2.04 -0.3,-0.43 -0.5,-0.96 -0.4,-1.48 -0.2,0.38 -0.6,0.63 -0.8,1 z m -22.9,-2.7 c 1.5,1.01 3.2,1.64 4.8,2.43 0.9,0.35 1.8,0.65 2.5,1.18 0.5,0.53 0.1,1.53 -0.6,1.49 -0.8,0.13 -1.5,0.49 -2,1 -1.1,0.6 -2,1.52 -2.8,2.49 -0.3,0.68 -1.2,0.71 -1.6,1.13 0,1.17 0.1,2.34 -0.1,3.5 -0.4,0.64 -1.6,0.29 -1.5,-0.48 0.2,-2.06 0.1,-4.12 0.1,-6.18 -0.1,-1.65 -0.3,-3.28 -0.5,-4.9 -0.1,-0.62 0,-1.37 0.6,-1.77 0.3,-0.2 0.8,0 1.1,0.11 z m -0.1,3 c -0.1,1.47 0,2.94 0.2,4.39 0.7,0.38 1,-0.64 1.5,-0.93 0.9,-0.88 2,-1.65 3,-2.39 -0.4,-0.78 -1.4,-0.67 -2.1,-1.08 -0.6,-0.36 -1.2,-0.83 -1.9,-1.08 -0.5,-0.35 -0.9,0.26 -0.7,0.73 0,0.12 0,0.24 0,0.36 z"
                                   id="path890"
                                   sodipodi:nodetypes="sssssssscsssssssssssscssssssssssssccssscsssssssscssssssscsssssssssssssscssssssssssssssssssssssssssssssssssssscssssssssssssssssssssssssssssssssssssscssssssssssssssssssssssssssscsssssssssssssssssssscssssssssssssscsssssssssssssssssssssssssssssssssssscsssssssssssscssssssssssssscsscssssssssssssscsssss" /></g></g></g></g><g
                               id="g2818"
                               transform="translate(-1.587)"><g
                                 id="g2813"><g
                                   id="g2809"><path
                                   style="fill:#000000;stroke-width:0.0960729"
                                   d="m 345.1,65.26 c 1,-0.42 2.2,-0.2 3.2,-0.45 1.1,-0.15 2.3,-0.16 3.4,-0.15 0.7,0.31 0.2,1.36 -0.5,1.25 -0.5,0 -1.2,0 -1.6,0.32 -0.5,0.44 -0.1,1.05 -0.2,1.59 0,1.44 0.1,2.9 0.3,4.33 0,0.82 0.1,1.63 0.2,2.45 -0.2,0.69 -1.3,0.38 -1.4,-0.24 0,-0.6 0,-1.2 0,-1.8 0,-1.65 -0.3,-3.28 -0.5,-4.9 0.1,-0.48 0.2,-1.48 -0.6,-1.37 -0.7,0.1 -1.5,0.72 -2.3,0.4 -0.5,-0.24 -0.8,-1.24 -0.1,-1.42 z m 7.5,5.31 c 0.3,-0.54 1.6,-0.27 1.4,-1.18 -0.1,-0.99 -0.1,-1.99 -0.1,-2.98 -0.1,-0.63 -0.4,-1.32 -0.1,-1.94 0.6,-0.67 1.1,0.45 1.1,0.99 0.1,1.2 0.1,2.41 0.2,3.61 -0.3,0.75 0.8,0.96 1.3,0.76 0.5,0 1.3,0 1.5,-0.62 0,-0.72 -0.2,-1.44 -0.4,-2.12 -0.2,-0.66 -0.1,-1.35 -0.1,-2.02 0,-0.38 -0.1,-0.88 0.3,-1.08 0.7,-0.3 1.2,0.52 1.1,1.15 0,0.55 -0.1,1.12 0.1,1.66 0.1,0.8 0.1,1.61 0.2,2.42 0.2,0.48 1.2,0.87 0.7,1.49 -0.6,0.24 -0.4,0.77 -0.4,1.21 0.1,0.61 0.3,1.22 0.3,1.84 0.2,0.58 0.4,1.58 -0.4,1.81 -0.8,0.14 -0.7,-0.87 -0.7,-1.43 -0.1,-0.94 -0.1,-1.9 -0.4,-2.79 -0.5,-0.33 -1.1,0 -1.6,-0.1 -0.5,0 -1.3,-0.25 -1.3,0.53 0.1,0.65 0.1,1.32 0.2,1.97 0.1,0.62 0.3,1.31 0,1.91 -0.4,0.68 -1.4,0.14 -1.4,-0.57 -0.5,-0.61 0.1,-1.3 0.1,-1.95 0,-0.58 0.4,-1.38 -0.3,-1.72 -0.5,-0.32 -1.3,0.16 -1.4,-0.64 0,0 0.1,-0.37 0.1,-0.25 z m 7.9,-1.7 c 0.6,-0.68 1.1,-1.44 1.6,-2.18 0.5,-0.72 1.2,-1.36 1.8,-2.03 0.2,-0.51 0.7,-1.47 1.4,-1.06 0.7,0.4 0.5,1.34 -0.1,1.71 -0.6,0.45 -1,1.02 -1.5,1.54 -0.4,0.44 -0.7,0.9 -1.1,1.36 0.1,0.7 1,0.19 1.5,0.28 0.6,0 1.4,-0.14 1.9,0.32 0.5,0.53 -0.1,1.17 -0.7,1.15 -0.6,0.19 -1.3,-0.14 -1.9,0.15 -0.4,0.48 0.6,0.57 0.8,0.93 0.8,0.61 1.5,1.27 2.2,1.82 0.5,0.57 1.3,0.74 1.6,1.37 0.3,0.63 -0.5,1.14 -1.1,1.07 -0.6,-0.11 -0.8,-0.81 -1.1,-1.25 -0.4,-0.37 -0.8,-0.59 -1.2,-0.96 -1,-0.8 -2.1,-1.41 -3,-2.26 -0.4,-0.43 -1.2,-0.62 -1.3,-1.23 0,-0.26 0.1,-0.49 0.2,-0.73 z m 15.3,-7.71 c 0.3,-0.76 1.5,-0.59 1.8,0.1 0.1,0.65 0.2,1.32 0.4,1.96 0.2,0.97 0.6,1.9 0.9,2.86 0.2,1 0.7,1.87 1,2.81 0.5,0.75 0.4,1.73 1,2.39 0.4,-0.41 0.5,-1.01 0.8,-1.53 0.2,-0.83 0.1,-1.71 0.4,-2.53 0.2,-0.59 0.4,-1.56 1.2,-1.47 0.6,0.1 0.9,0.6 0.9,1.13 0.2,1.47 0.7,2.88 1.2,4.27 0.7,0.11 0.5,-0.96 0.6,-1.41 0,-1.5 0,-3.01 0.4,-4.46 0.2,-0.5 0.2,-1.01 0.2,-1.53 0,-0.67 0,-1.37 0.2,-2.01 0.5,-0.61 1.5,-0.58 1.9,0.1 0.4,0.64 0,1.4 -0.2,2.05 -0.3,0.78 -0.5,1.57 -0.6,2.38 -0.1,1.05 -0.2,2.12 -0.3,3.17 -0.1,1.11 -0.2,2.24 -0.4,3.33 -0.2,0.7 0.1,1.66 -0.7,1.97 -0.7,0.42 -1.3,-0.32 -1.4,-0.95 -0.4,-0.97 -0.8,-1.92 -1.3,-2.87 -0.1,-0.38 -0.3,-1.15 -0.6,-0.47 -0.4,0.58 -0.5,1.33 -1,1.87 -0.4,0.67 0,1.64 -0.7,2.17 -0.5,0.45 -1.1,0 -1.3,-0.48 -0.2,-0.61 -0.2,-1.27 -0.5,-1.86 -0.4,-1.26 -0.9,-2.5 -1.3,-3.78 -0.5,-1.31 -1.2,-2.56 -1.6,-3.92 -0.3,-1.02 -0.6,-2.02 -1,-3.01 0,0 0,-0.29 0,-0.22 z m 13.4,8.31 c 0.7,-0.56 0.9,-1.52 1.5,-2.2 0.7,-1.04 1.1,-2.41 2.3,-3.06 0.8,-0.27 1.2,0.62 1,1.27 0.1,0.71 0.8,1.09 1.1,1.71 0.5,0.86 1,1.75 1.7,2.53 0.2,0.84 1.4,0.92 1.5,1.82 0,0.76 -0.9,1 -1.4,1.39 -0.9,0.67 -1.4,1.68 -2.2,2.47 -0.6,0.56 -1.3,-0.1 -1.6,-0.68 -0.3,-0.69 -1,-1.17 -1.5,-1.75 -0.6,-0.59 -1.3,-1.15 -2,-1.59 -0.7,-0.1 -1.3,-1.03 -0.7,-1.52 0.1,-0.11 0.2,-0.25 0.3,-0.39 z m 2,1.3 c 1,0.68 1.7,1.7 2.6,2.48 0.7,0.25 1.1,-0.51 1.5,-0.91 0.5,-0.31 0.8,-0.98 0.3,-1.38 -0.6,-0.94 -1,-1.98 -1.7,-2.89 -0.3,-0.41 -0.7,-0.96 -1.3,-0.97 -0.5,0.16 -0.6,0.74 -0.9,1.13 -0.3,0.47 -0.6,0.91 -0.9,1.33 -0.3,0.44 -0.1,1.03 0.4,1.21 z m 8.5,-5.61 c 0.6,-0.33 1.4,-0.74 1.9,-0.18 1.5,1.18 3.3,1.82 5,2.71 0.7,0 1.3,0.75 0.9,1.36 -0.6,0.54 -1.6,0.46 -2.1,1.04 -0.5,0.6 0.1,1.25 0.3,1.8 0.2,0.66 0.6,1.18 0.8,1.83 0.1,0.54 -0.5,1.01 -1,0.81 -0.4,-0.1 -0.8,-0.53 -0.7,-0.99 -0.1,-0.77 -0.7,-1.39 -0.7,-2.18 -0.4,-0.64 -1.1,-0.14 -1.6,0.15 -0.4,0.37 -0.7,0.87 -1.3,0.89 -0.7,0.32 -0.1,1.2 -0.2,1.76 0.2,0.86 -1,0.92 -1.2,0.19 -0.4,-1.04 -0.2,-2.18 -0.2,-3.27 0,-1.54 0,-3.08 -0.1,-4.62 -0.1,-0.42 -0.3,-1.09 0.2,-1.3 z m 1.3,3.11 c 0.1,0.74 -0.3,1.5 0,2.22 0.6,0.44 1.1,-0.46 1.7,-0.6 0.8,-0.39 1.6,-0.79 2.3,-1.37 0.2,-0.37 -0.7,-0.43 -0.9,-0.67 -0.6,-0.32 -1.3,-0.57 -2,-0.83 -0.3,-0.32 -1.2,-0.92 -1.2,-0.1 -0.1,0.44 0,0.88 0.1,1.31 z m 7.5,5.3 c 0.4,-1.12 0.1,-2.33 0.2,-3.48 0.1,-1.39 0.2,-2.78 0.2,-4.17 -0.4,-0.47 -0.1,-1.55 0.6,-1.37 0.6,0.28 0.6,1 0.6,1.56 0,1.22 0,2.43 -0.1,3.64 0,1.09 0,2.18 -0.1,3.25 0.2,0.56 1,0.13 1.5,0.12 0.6,-0.12 1.2,-0.29 1.9,-0.3 0.6,0.13 1.2,0.96 0.7,1.52 -0.2,0.65 -1,0.54 -1.5,0.31 -1.2,-0.33 -2.4,0 -3.5,0.16 -0.5,-0.12 -0.8,-0.8 -0.5,-1.24 z m 6.2,-0.3 c 0.3,-0.95 0,-1.95 0.1,-2.92 0,-1.23 0.1,-2.46 0.2,-3.69 -0.1,-0.63 -0.4,-1.47 0.2,-1.92 0.6,-0.28 1.1,0.31 1.5,0.73 0.9,0.98 1.9,1.81 3,2.62 0.7,0.58 1.4,1.29 2.1,1.88 0.5,0.39 1.6,0.6 1.2,1.41 -0.3,0.65 -1.1,0.73 -1.7,0.98 -1.2,0.41 -2.4,0.84 -3.5,1.53 -0.7,0.19 -0.8,0.94 -1.4,1.33 -0.6,0.33 -1.3,-0.21 -1.5,-0.76 -0.2,-0.37 -0.2,-0.79 -0.2,-1.19 z m 1.4,0 c 1.3,-0.7 2.6,-1.27 3.9,-1.98 0.4,-0.17 0.8,-0.55 0.4,-0.99 -0.4,-0.51 -1.1,-0.8 -1.5,-1.25 -0.9,-0.63 -1.8,-1.18 -2.5,-1.92 -0.6,0.41 -0.1,1.21 -0.3,1.79 -0.1,1.23 -0.1,2.47 -0.1,3.7 -0.1,0.22 -0.1,0.52 0.1,0.65 z m 14.8,0.9 c 0.5,-0.56 0.1,-1.37 0.3,-2.02 0.2,-0.68 0,-1.37 0.1,-2.06 0.1,-1.05 0.2,-2.09 0.2,-3.14 0,-0.66 0.1,-1.33 0.2,-1.99 -0.4,-0.5 -0.6,-1.54 0.3,-1.68 0.7,-0.17 1.2,0.43 1.8,0.74 0.7,0.47 1.5,0.85 2.3,1.17 0.5,0.38 1.2,0.59 1.8,0.91 0.7,0.26 0.6,1.19 0,1.44 -0.7,0.25 -1.3,0.56 -2,0.86 -0.5,0.26 -1.2,0.42 -1.6,0.93 -0.1,0.68 0.8,0.75 1.3,0.97 0.6,0.19 1.1,0.46 1.7,0.74 0.6,0.1 1.6,0.4 1.4,1.21 -0.3,0.61 -1,0.67 -1.5,0.76 -1,0.18 -2.1,0.43 -3,0.95 -0.6,0.32 -1.4,0.58 -1.8,1.26 -0.1,0.56 -0.7,0.93 -1.2,0.41 -0.3,-0.36 -0.6,-0.98 -0.3,-1.46 z m 1.8,-1.1 c 0.8,0 1.4,-0.82 2.2,-0.86 0.6,0 0.6,-0.92 -0.1,-0.78 -0.7,-0.23 -1.4,-0.52 -2.1,-0.58 -0.3,0.71 -0.1,1.49 0,2.22 z m 0.5,-4.8 c 0.8,-0.57 1.7,-1.06 2.5,-1.61 -0.6,-0.73 -1.7,-0.54 -2.3,-1.2 -0.5,-0.37 -0.9,0.18 -0.7,0.67 0,0.78 0,1.56 0,2.34 0.2,0.1 0.4,-0.1 0.5,-0.2 z m 5.6,-4.41 c 0.5,-0.47 1.2,0 1.4,0.48 0.3,0.48 0.5,1.01 0.9,1.41 0.6,0.73 1.2,1.43 1.8,2.18 0.7,0.27 0.5,-0.86 0.8,-1.23 0.5,-0.98 0.7,-2.05 1.2,-3.03 0.2,-0.54 1.1,-1.06 1.6,-0.39 0.4,0.52 -0.1,1.07 -0.4,1.47 -0.4,0.4 -0.3,0.95 -0.6,1.4 -0.5,1.34 -1.1,2.65 -1.3,4.06 -0.4,0.97 -0.4,2.01 -0.6,3.01 0,0.62 -0.7,1.28 -1.2,0.68 -0.6,-0.63 -0.4,-1.63 -0.1,-2.34 0.5,-0.69 0.6,-1.61 0.1,-2.31 -0.5,-0.83 -1.3,-1.42 -1.8,-2.25 -0.6,-0.83 -1.4,-1.39 -1.9,-2.21 -0.2,-0.29 -0.3,-0.78 0.1,-0.93 z"
                                   id="path884"
                                   sodipodi:nodetypes="ssssssscsssssssssssssscsssssssssssscsssssssscssssssssssscsssssssssssssssssssscsssssssssscscssssssssscssssssssssssssssssssssssccssssssssssssssssccsssssssssssssssssssscssssssssssssssssscscsssssssssssssscsssssssssssssccssssssssscssssssssssssscsssssssssssssssssssssscsssssssscssssscsccsssssssssssssssssssscssssssssssssssscsssssssssscsscscsssssssssscssssssssssssssssssss" /></g></g></g></g></g></g></g></g></g></g></g></g></g></g></g></g></svg>
